<?xml version="1.0" encoding="utf-8"?>
<!-- Generator: Adobe Illustrator 24.3.0, SVG Export Plug-In . SVG Version: 6.00 Build 0)  -->
<svg version="1.1" id="レイヤー_1" xmlns="http://www.w3.org/2000/svg" xmlns:xlink="http://www.w3.org/1999/xlink" x="0px"
	 y="0px" viewBox="0 0 300 200" style="enable-background:new 0 0 300 200;" xml:space="preserve">
<style type="text/css">
	.st0{fill:#FFFFFF;}
	.st1{fill:#E9C697;}
	.st2{fill:#040000;}
	.st3{fill:#087B51;}
	.st4{fill:#C4C4C4;}
	.st5{fill:#007F53;}
</style>
<g>
	<g id="塗り_2_">
		<path class="st0" d="M116.8,189.7l12,0.5l13.6-4.9l5-4.7l-2.8-14.3l-12.8,0.8l-5.2,0.3l-4.9,3.1l-3.9,4.3l-8.3,4.5l-3.8,4
			c0,0,1.5,4.2,3.3,4.9c1.8,0.7,5.9,1.4,5.9,1.4L116.8,189.7z"/>
		<path class="st0" d="M155,50.4l2.1,7.4c0,0,13.7,1.3,13.8,1c0.1-0.3,11.5-6.6,11.5-6.6l5.4,3.8l0.9-0.2c0,0-2.4-8.3-1.4-12.5
			c1-4.2,8.9-45.9-24.5-40.6c-4.5,1-5.4,1.5-5.4,1.5l-0.7,0.2c0,0-3.9,0.5-6.2,2c-1.3,0.8-16.2,11.3-6.3,24.9l1.2,4.9l-1.7,11.3
			l-0.9,1.2l5.9,1.2l2.5,1.6L155,50.4z"/>
		<path class="st0" d="M135.6,50.4c0-0.2,1.2-2.6,8.3-1.2s8.1,2.9,7.9,3.6C150.9,55.3,137.9,55.3,135.6,50.4z"/>
		<path class="st0" d="M144.1,94l-4.6,4.8c0,0-13.5,6-12.8-10.5l1.5-9.7c0,0,0.4-8.4-0.1-12c-0.5-3.6,0.8-7.9,0.8-7.9l0.7-1.4
			c0,0,1.6-1.9,4.7-1.1l3,0.9l4.1,3.2l1.4,1.9l-1.3,8.3l-0.4,1.8l-5.8,1.4l2.6,1.5l1.7,8.3l4.4,0.6L144.1,94z"/>
		<path class="st0" d="M146.6,101.5l-6.2,2.1l-5.3,4.2c0,0-5.9,5-2.4,7.6c2.1,1.6,4.4,2.9,6.8,4.1c0,0,3.4,0.1,9.2-4.3
			c2.6-0.6,5.2-1.2,5.2-1.2l4.3-1.5l2.7-1.4l16.7-1.2l9.8-2.6l1.6-5.5l1.6-12.8l-8.7,1.1l-6.2-0.7l-0.2,7.4l-1.6,0.9l-15.6,3.5
			l-10.1,0.2L146.6,101.5z"/>
		<path class="st1" d="M135,56.4l0.4-5.6c0,0,0.9,2.4,6.9,3.2s9-1.2,9-1.2l-4.3,21.6c0,0-2.3,1-6.4,0.8c-4.1-0.1-5.4-1.6-5.4-1.6
			s6-1,6.4-1.7c0.3-0.7-0.6-2.1-0.6-2.1s1.5-1,1.3-1.7c-0.1-0.7-0.4-1.9-0.4-1.9s1.2-1.2,0.9-1.8c-0.2-0.5-0.2-1-0.2-1.5
			c0,0,0.3-1.2-0.7-2.8C141,58.5,136.5,56.6,135,56.4z"/>
		<path class="st0" d="M138.3,75.3c0.2,1.5,1.3,7.7,1.3,7.7s2.9,1.4,4.7,1.3c-0.8,3.7-0.1,13.2,0.3,13.8c2.7,1.2,10.5,3.6,13.1,3.2
			c4-0.8,16.4-3.5,16.8-3.8c0.8-0.5,1.2-1.3,1.2-2.2c0-1.3,0.3-5.8,0.3-5.8s9.4,1.5,15.2-1.1c0.5-2.3,0.5-5.5,0.5-5.5s3.2-1.5,3-4.8
			c-0.2-3.3-3.6-18.5-7.2-22.3c-3.6-3.8-9.4-4.8-9.4-4.8s-3,5-7.1,7.6c-5.5-0.4-13.7-0.8-13.7-0.8s-1.9-5.4-2.5-7.9
			c-1.5,0.8-3.4,1.6-3.4,1.6l-4.3,23C147.1,74.4,143.4,76.2,138.3,75.3z"/>
		<path class="st2" d="M170.5,110.5c0,0,4.3,13.8,4.5,15.3c2.7-0.8,13.1-4.4,15.6-7c-0.4-2.7-3-12.4-3-12.4s-2.5,2.3-5.9,2.7
			C178.3,109.6,174.1,111.1,170.5,110.5z"/>
		<path class="st3" d="M157,4.3c7.1-3.7,14.8,0.4,15.8,1.1c0.9,0.6,9.9,4.2,9,23.7c-1.6-0.8-2.2-0.6-2.2-0.6s-2.2-12.9-7.5-17.8
			C165.8,4.7,157,4.3,157,4.3z"/>
		<path class="st4" d="M193.5,71.5c4.2,1,5.1,9,4.7,12.8c-0.4,3.8-2.6,32.1-5.7,37.7c-3.2,5.6-11,8.1-16.4,9.9
			c-5.3,1.8-13.2,4.8-22.3,5c-9.1,0.2-10.3-2.2-10.3-2.2s22.5-6.4,24.9-7.5c2.4-1.2,5.8-3.7,5.8-3.7l0.9,2.4c0,0,11.3-2.6,15.6-7
			c0-3.2-3-12.8-3-12.8s1.6-4.8,2.1-8.5c0.4-3.7,1.4-9.1,1.4-9.1l0.5-5.5c0,0,3.2-2.4,3-4.3C194.5,76.6,193.5,71.5,193.5,71.5z"/>
		<path class="st4" d="M161.1,136.1v42c0,0-9.1,0.3-12.9,3c0.2,1.9-1.3,5-1.3,5s5.8,3.4,16.6,3.5c10.8,0.1,18.7-2.4,19.1-5.9
			s-11.6-5.8-14.9-5.7v-43.6L161.1,136.1z"/>
		<path class="st2" d="M146.2,172c-1.6,2.7-5.1,7.3-8.4,9.9c-3.4-2.7-10.3-3.9-12.1-3.8c-1.8,0.1-8.1-1.9-10-2c-1.1,0.7-5,2.3-5,2.3
			s8.5,0.8,10.3,2.1c3.4-0.8,14.1,3.2,14.1,3.2s-6,4.4-10.5,3.9c-4.5-0.4-7.7-0.6-7.7-4.5c-3.1,1.5-6.5,1.4-7.8,1.1
			c-1.4-0.3-1.7-2.9-1.7-2.9s-4.3,1-5.3,5.4c-1,4.4,3.1,7.7,5.2,8c2.1,0.3,5.6,0.2,5.6,0.2s3.8,4.5,14,1.9
			c10.2-2.6,19.8-9.9,20.5-11.4C148.2,184.2,149,176.5,146.2,172z"/>
		<path class="st5" d="M145.4,98.8c0,0-15.4,4.9-23.7,10.5s-10.7,9.4-11,16.8s8.1,41.3,10.3,45c2.5,1.3,5.6,1.3,7.4,0
			c0.4,1.6,1.2,1.9,1.2,1.9s4,2.1,9.6,0.8c5.7-1.3,8.2-4.6,8.2-4.6s-2.4-31.6-3.8-34.9c6.1-1.3,26.8-5.5,30.6-10.8
			c-0.9-4.1-3.6-12.9-3.6-12.9s-8.3,0.1-9.4,0.5c-1.1,0.4-8.2,3.4-11.6,3.7c-3.7,2.1-9.4,5.2-10.2,4.8c-0.8-0.4-1-1.6-1-1.6
			s-1.8,0.9-2.1-0.2c-1.5-0.4-2.2-1.9-2.2-1.9s-2.1-0.7-2.3-1.7c-0.2-1,0.6-3.9,2.9-6c2.3-2,5.8-5.1,7.8-5.6
			c2-0.6,14.8-1.3,14.8-1.3S146.8,100.3,145.4,98.8z"/>
	</g>
	<g id="線画_2_">
		<path class="st2" d="M160.1,44.3c-4.3,0-8.7-1-12-3.6c-7.3-5.7-4.9-16.1-2.4-21.4c0.2-0.4,0.7-0.7,1.1-0.5
			c0.4,0.2,0.7,0.7,0.5,1.1c0,0,0,0.1,0,0.1c-0.2,0.5-6.1,13,1.9,19.3c7.3,5.7,20.2,2.6,24.1,0c0.4-0.3,0.9-0.2,1.2,0.2
			s0.2,0.9-0.2,1.2c0,0,0,0,0,0C171.5,42.5,165.9,44.3,160.1,44.3z"/>
		<path class="st2" d="M176.8,39c-0.5,0-0.9-0.4-0.9-0.9c0-0.4,0.3-0.7,0.7-0.8c2.3-0.6,4.8-2.5,5.1-5c0.1-1.1-0.3-2.2-1.2-2.9
			c-0.8-0.7-1.9-0.9-2.9-0.5c-0.4,0.2-0.9-0.1-1.1-0.5c-0.2-0.4,0.1-0.9,0.5-1.1c0,0,0,0,0,0c1.5-0.6,3.3-0.3,4.5,0.8
			c1.3,1.1,2,2.8,1.8,4.4c-0.3,2.5-2.4,5.5-6.4,6.5C176.9,39,176.8,39,176.8,39z"/>
		<path class="st2" d="M153.5,31.4c-0.5,0-0.9-0.4-0.9-0.9v-2c0-0.5,0.4-0.9,0.9-0.9s0.9,0.4,0.9,0.9v2
			C154.4,31,154,31.4,153.5,31.4C153.5,31.4,153.5,31.4,153.5,31.4z"/>
		<path class="st2" d="M159.4,31.9c-0.5,0-0.9-0.4-0.9-0.9v-2c0-0.5,0.4-0.9,0.9-0.9s0.9,0.4,0.9,0.9l0,0v2
			C160.2,31.5,159.9,31.9,159.4,31.9z"/>
		<path class="st2" d="M173.2,29.3L173.2,29.3c-4-0.4-7.2-2.4-9.4-6c-1.6-2.7-2.5-5.8-2.5-9c0-0.5,0.4-0.9,0.9-0.9s0.9,0.4,0.9,0.9
			c0,4.8,2.8,12.6,10.2,13.2c0.5,0,0.8,0.4,0.8,0.9C174.1,28.9,173.7,29.3,173.2,29.3L173.2,29.3z"/>
		<path class="st2" d="M157.5,25.7c-0.2,0-0.3,0-0.4-0.1c-4.7-2.7-4.3-9.4-3.4-12.5c0.1-0.5,0.6-0.7,1.1-0.6
			c0.5,0.1,0.7,0.6,0.6,1.1c-0.9,3.1-0.9,8.5,2.6,10.5c0.4,0.2,0.6,0.8,0.3,1.2C158.1,25.6,157.8,25.7,157.5,25.7L157.5,25.7z"/>
		<path class="st2" d="M144.2,32.4c-0.2,0-0.4-0.1-0.5-0.2c-3.9-3.2-4.5-11-2.6-16c2-5.3,5.8-9.2,10.5-10.8c0.5-0.1,0.9,0.1,1.1,0.6
			c0.1,0.4-0.1,0.9-0.5,1.1c-4.2,1.4-7.7,4.9-9.4,9.7c-1.7,4.5-1.1,11.5,2.1,14.1c0.4,0.3,0.4,0.8,0.1,1.2
			C144.7,32.3,144.4,32.4,144.2,32.4L144.2,32.4z"/>
		<path class="st2" d="M181.8,29.9L181.8,29.9c-0.6-0.1-0.9-0.5-0.9-1c0,0,0,0,0,0c0.3-3.1,0.9-13.6-6.1-20.3
			c-3.4-3.2-10.5-5.9-15.5-4.4c5.6,0.3,10.2,2.3,13.4,5.7c4.1,4.5,7,11.1,7.7,17.9c0.1,0.5-0.3,0.9-0.8,1c-0.5,0.1-0.9-0.3-1-0.8
			c-0.7-6.4-3.4-12.7-7.3-16.9c-4.4-4.7-10.8-5.4-15.5-5.2c-0.5,0-0.9-0.3-0.9-0.8c0-0.3,0.1-0.5,0.3-0.7c3.7-3.2,13.5-3.7,20.6,2.9
			c2.9,2.7,4.9,6.3,6,10.6c0.9,3.6,1.1,7.4,0.7,11.1C182.6,29.6,182.3,29.9,181.8,29.9z"/>
		<path class="st2" d="M194.4,60.3c-0.1,0-0.1,0-0.2,0c-6.4-1.6-8.9-8.3-7.5-20c0.1-0.8,0.2-1.6,0.3-2.5c1.1-7.8,2.7-19.7-4.5-28
			c-7.3-8.5-15.2-7-20.9-6c-0.5,0.1-0.9-0.2-1-0.7c-0.1-0.5,0.2-0.9,0.7-1c0,0,0,0,0.1,0c5.8-1.1,14.5-2.7,22.5,6.6
			c7.7,8.9,5.9,21.7,4.9,29.3c-0.1,0.9-0.2,1.7-0.3,2.4c-1.3,10.8,0.7,16.7,6.2,18.1c0.5,0.1,0.7,0.6,0.6,1.1
			C195.2,60.1,194.8,60.3,194.4,60.3L194.4,60.3z"/>
		<path class="st2" d="M177.6,51.6c-0.1,0-0.3,0-0.4-0.1c-1.3-0.7-4.3-2-4.3-2c-0.3-0.1-0.5-0.4-0.5-0.8v-5.3c0-0.5,0.4-0.9,0.9-0.9
			s0.9,0.4,0.9,0.9v4.7c0.9,0.4,2.9,1.3,4,1.9c0.4,0.2,0.6,0.8,0.3,1.2C178.2,51.4,177.9,51.6,177.6,51.6L177.6,51.6z"/>
		<path class="st2" d="M154.8,51c-0.5,0-0.9-0.4-0.9-0.9c0-0.4,0.2-0.7,0.6-0.8c1.1-0.4,2.8-0.8,4.8-1.2c0.9-0.2,1.5-0.3,2-0.4v-4.3
			c0-0.5,0.4-0.9,0.9-0.9s0.9,0.4,0.9,0.9v5c0,0.4-0.3,0.8-0.7,0.9c-0.2,0-4.7,0.9-7.3,1.7C155,51,154.9,51,154.8,51z"/>
		<path class="st2" d="M170.6,59.4c0,0-0.1,0-0.1,0c-0.8-0.1-12-0.8-13.1-0.8c-1.2,0-2-1.7-3.2-7.4c-0.8,0.3-1.6,0.6-2.3,1
			c-0.4,0.2-0.9,0.1-1.2-0.3c-0.2-0.4-0.1-0.9,0.3-1.2c0,0,0,0,0,0c1.3-0.7,3.5-1.4,3.6-1.4c0.5-0.1,0.9,0.1,1.1,0.6c0,0,0,0,0,0
			c0,0.2,0.1,0.5,0.2,0.9c0.7,3.4,1.3,5.5,1.8,6c1.9,0.1,11.5,0.7,12.9,0.8c0.4-0.2,1.7-1.2,5.3-4.8l0.2-0.2c0.3-0.3,0.9-0.3,1.2,0
			c0.3,0.3,0.3,0.9,0,1.2l-0.2,0.2C172.8,58.5,171.5,59.4,170.6,59.4z"/>
		<path class="st2" d="M180.9,90.9c-2,0-4.1-0.2-6-0.8c-0.3-0.1-0.6-0.4-0.6-0.8c-0.1-1.5-0.2-3.6-0.3-4.7c-1-0.4-3-1.6-3.5-4
			c-0.6-2.8,0.2-8.2,0.6-11l0-0.1c0.1-0.5,0.5-0.8,1-0.7c0.5,0.1,0.8,0.5,0.7,1l0,0.1c-0.4,2.6-1.1,7.9-0.6,10.4
			c0.5,2.2,2.9,2.9,2.9,2.9c0.4,0.1,0.6,0.4,0.6,0.8c0,0,0.1,2.6,0.3,4.6c5.7,1.5,12.4-0.3,14.3-0.9l0.3-4.8c0-0.3,0.3-0.6,0.6-0.8
			c0.1,0,2.6-1,2.6-4.3c0-1-2.9-14-5.3-18.8c-2.6-5.2-7-6.1-7.9-6.2c-0.5-0.1-0.8-0.5-0.7-1c0.1-0.5,0.5-0.8,1-0.7
			c2.9,0.4,6.9,2.5,9.2,7.1c2.5,5,5.5,18.4,5.5,19.6c0,3.6-2.2,5.2-3.2,5.7l-0.3,4.9c0,0.3-0.2,0.6-0.6,0.8
			C188,90.3,184.5,90.8,180.9,90.9z M191.1,88.3L191.1,88.3z"/>
		<path class="st2" d="M180.6,84.8c-0.5,0-1,0-1.5-0.1c-0.5-0.1-0.8-0.5-0.7-1c0.1-0.5,0.5-0.8,1-0.7c1.3,0.2,4.5,0,5.5-0.4
			c0.4-0.2,0.9,0,1.1,0.4c0.2,0.4,0,0.9-0.4,1.1c0,0,0,0,0,0C184.5,84.6,182.3,84.8,180.6,84.8z"/>
		<path class="st2" d="M175.6,96.2L175.6,96.2c-0.5,0-0.9-0.4-0.9-0.9c0,0,0,0,0,0l0-5.4c0-0.5,0.4-0.9,0.9-0.9l0,0
			c0.5,0,0.9,0.4,0.9,0.9l0,5.4C176.5,95.8,176.1,96.2,175.6,96.2z"/>
		<path class="st2" d="M140,120.4c-0.5,0-1.1-0.2-1.5-0.5c-0.4-0.3-0.6-0.7-0.6-1.2c0-1.6,2.4-3.5,6.3-6.6c0.8-0.7,1.6-1.3,2.4-1.9
			c0.4-0.3,0.9-0.2,1.2,0.1c0.3,0.4,0.2,0.9-0.1,1.2l0,0c-0.7,0.6-1.6,1.3-2.4,1.9c-1.9,1.5-5.3,4.1-5.6,5.1c1,0.5,4-1.4,5.8-2.6
			c2-1.3,3.3-2.1,4.3-2.2c4.2-0.3,6.6-1.6,8.4-2.5c1.1-0.6,2.1-1.1,3.1-1.1h0.2c10.3-0.4,21.9-0.9,25.6-4.7
			c1.3-1.3,2.2-10.9,2.5-14.6c0.1-1,0.2-1.8,0.2-2.4c0.1-0.5,0.5-0.8,1-0.8s0.8,0.5,0.8,1c-0.1,0.5-0.1,1.3-0.2,2.3
			c-0.8,8.6-1.6,14.2-3,15.6c-4.2,4.3-15.7,4.8-26.8,5.2h-0.2c-0.6,0-1.4,0.4-2.3,0.9c-1.9,1-4.5,2.4-9.1,2.8c-0.6,0-2.2,1-3.5,1.9
			C144,118.9,141.8,120.4,140,120.4z"/>
		<path class="st2" d="M137.6,119.5c-0.6,0-1.1-0.1-1.6-0.5c-0.4-0.3-0.8-0.9-0.8-1.9c0-3.1,8.1-9,8.1-9c0.4-0.3,0.9-0.2,1.2,0.2
			c0.3,0.4,0.2,0.9-0.2,1.2l0,0c-3.8,2.7-7.4,6.4-7.4,7.6c0,0.2,0,0.5,0.2,0.6c0.1,0.1,0.4,0.2,1.3,0c0.5-0.1,0.9,0.2,1,0.6
			s-0.2,0.9-0.6,1C138.3,119.4,137.9,119.5,137.6,119.5z"/>
		<path class="st2" d="M133.4,116.8c-0.1,0-0.1,0-0.2,0c-1.3-0.2-2.6-1.5-2.6-3.6c0-2.9,4.3-7,8.3-9.8c2-1.4,5-2.3,9.1-2.7
			c2.6-0.2,5.3-0.3,7.9-0.1c1.7,0.1,6.5-1.1,11.1-2.2c2.4-0.6,4.9-1.2,7-1.7c0.5-0.1,0.9,0.2,1,0.7c0.1,0.5-0.2,0.9-0.7,1
			c-2.1,0.4-4.6,1.1-7,1.6c-4.9,1.2-9.6,2.4-11.6,2.3c-10.7-0.7-15.1,2-15.8,2.5c-4.4,3.1-7.6,6.6-7.6,8.4c0,1.6,1,1.9,1.2,1.9
			c0.5,0,0.8,0.5,0.8,0.9C134.3,116.5,133.9,116.9,133.4,116.8L133.4,116.8z"/>
		<path class="st2" d="M145.8,52c-0.1,0-0.2,0-0.3,0c-0.5-0.1-0.7-0.6-0.6-1.1l3.1-9.8c0.1-0.2,0.2-0.3,0.4-0.5l5.2-3.3
			c0.4-0.3,0.9-0.2,1.2,0.2c0.3,0.4,0.2,0.9-0.2,1.2c0,0,0,0-0.1,0l-4.9,3.1l-3,9.5C146.5,51.8,146.2,52,145.8,52z"/>
		<path class="st2" d="M146.1,55.3c-0.7,0-1.4,0-2.1-0.1l-0.1,0c-4.6-0.6-9.3-1.6-9.3-4.3c0-0.6,0.3-1.2,0.8-1.5
			c1.8-1.5,6.5-1.6,10.3-0.9l0,0c1.8,0.3,5,1.1,6.1,2.8c0.4,0.5,0.5,1.1,0.4,1.8C151.9,54.9,148.5,55.3,146.1,55.3z M141.2,49.8
			c-2.3,0-4.1,0.4-4.7,0.9c-0.1,0.1-0.2,0.2-0.2,0.2c0,0.4,0.6,1.6,7.8,2.5l0.1,0c2.7,0.3,6.1-0.2,6.3-0.8c0-0.2,0-0.3-0.1-0.4
			c-0.4-0.6-2-1.6-5-2.1l0,0C144,49.9,142.6,49.8,141.2,49.8L141.2,49.8z"/>
		<path class="st2" d="M141.6,76.4c-2.4,0-4.8-0.7-6.8-2c-0.4-0.3-0.5-0.8-0.2-1.2c0.3-0.4,0.8-0.5,1.2-0.2l0,0
			c4.2,2.9,9.2,1.4,10.6,0.9l4.2-21.1c0.1-0.5,0.5-0.8,1-0.7c0.5,0.1,0.8,0.5,0.7,1c0,0,0,0,0,0.1l-4.3,21.6
			c-0.1,0.3-0.2,0.5-0.5,0.6C145.6,76,143.6,76.4,141.6,76.4z"/>
		<path class="st2" d="M135.1,56.6L135.1,56.6c-0.5,0-0.9-0.5-0.9-0.9l0.4-4.8c0-0.5,0.5-0.8,0.9-0.8c0.5,0,0.8,0.5,0.8,0.9
			l-0.4,4.8C135.9,56.3,135.5,56.6,135.1,56.6z"/>
		<path class="st2" d="M132.8,74.8c-0.5,0-0.9-0.4-0.9-0.9c0-0.3,0.2-0.7,0.5-0.8c1.4-0.6,7.5-1.5,8.1-1.5c0.2,0,0.4-0.2,0.5-0.5
			c0-0.3-0.4-0.6-1.1-0.7c-2.9-0.7-5.7-0.9-7.2-0.6c-0.5,0.1-0.9-0.2-1-0.7c-0.1-0.5,0.2-0.9,0.7-1c2.1-0.5,5.5,0,8,0.6
			c2.4,0.6,2.5,2.1,2.4,2.5c-0.1,1.1-1,2-2.1,2c-0.6,0-6.5,0.9-7.6,1.4C133,74.8,132.9,74.8,132.8,74.8z"/>
		<path class="st2" d="M141,70.8c-0.5,0-0.9-0.4-0.9-0.9c0-0.4,0.2-0.7,0.6-0.8c0.4-0.1,0.7-0.4,0.8-0.8c0.1-0.3,0-0.6-0.2-0.8
			c-0.7-1-5.9-2.5-8.4-2.3c-0.5,0-0.9-0.3-0.9-0.8c0-0.5,0.3-0.9,0.8-0.9c2.6-0.2,8.7,1.2,10,3c0.5,0.7,0.6,1.5,0.4,2.3
			c-0.3,0.9-1,1.6-1.8,1.9C141.2,70.7,141.1,70.8,141,70.8z"/>
		<path class="st2" d="M142,67.1c-0.5,0-0.9-0.4-0.9-0.9c0-0.4,0.2-0.7,0.6-0.8c0.2-0.1,0.3-0.3,0.4-0.5c0.1-0.4-0.1-0.8-0.5-1.1
			c-0.7-0.6-6-2.7-8.1-2.6h0c-0.5,0-0.9-0.4-0.9-0.9s0.4-0.9,0.9-0.9c2.4,0,8.1,2.1,9.3,3c0.9,0.7,1.3,1.7,1.1,2.7
			c-0.1,0.8-0.7,1.5-1.5,1.8C142.1,67.1,142.1,67.1,142,67.1z"/>
		<path class="st2" d="M142.6,63.8c-0.1,0-0.2,0-0.3,0c-0.5-0.1-0.7-0.6-0.6-1.1c0,0,0,0,0,0c0.3-0.8,0.3-1.7-2.1-3.3
			c-2.3-1.6-5-2.2-6.1-2.2c-0.5,0-0.9-0.3-0.9-0.8c0-0.5,0.3-0.9,0.8-0.9c1.6-0.1,4.6,0.7,7.2,2.5c1.9,1.3,3.5,2.8,2.7,5.2
			C143.3,63.5,143,63.8,142.6,63.8z"/>
		<path class="st2" d="M134.8,100.7c-0.4,0-0.8,0-1.2-0.1c-2.2-0.2-3.9-1.2-5.1-2.8c-3.4-4.4-2.2-12.5-1.4-17.4
			c0.1-1,0.3-1.9,0.3-2.4c0.3-4,0.2-5.1-0.2-10.4c-0.4-5.1,0.7-9.6,2.9-11.4c0.4-0.3,0.9-0.3,1.2,0.1c0.3,0.4,0.3,0.9-0.1,1.2l0,0
			c-1.5,1.2-2.7,4.8-2.3,10c0.4,5.4,0.5,6.6,0.2,10.7c0,0.6-0.2,1.5-0.3,2.5c-0.6,4.3-1.8,12.3,1.1,16.1c0.9,1.2,2.2,1.9,3.9,2.1
			c5.6,0.7,8.8-4.8,8.9-4.8c0.2-0.4,0.8-0.6,1.2-0.3s0.6,0.8,0.3,1.2C144,95.2,140.8,100.7,134.8,100.7z"/>
		<path class="st2" d="M140.7,91.5c-0.4,0-0.8-0.3-0.9-0.8c-0.3-2.7-2.2-14.1-2.4-15.4c-0.1-0.5,0.2-0.9,0.7-1
			c0.5-0.1,0.9,0.2,1,0.7c0.3,2.1,2.1,12.8,2.4,15.5C141.6,91.1,141.3,91.5,140.7,91.5C140.8,91.5,140.7,91.6,140.7,91.5z"/>
		<path class="st2" d="M157.3,102.1L157.3,102.1c-9.2-0.7-13.1-3.2-13.3-3.3c-0.2-0.1-0.3-0.2-0.3-0.4c-1.9-5.1,0.2-18,1.2-23.3
			c0.1-0.5,0.6-0.8,1-0.7c0.4,0.1,0.7,0.5,0.7,1c-0.7,4-2.9,17-1.3,22.1c0.9,0.5,4.7,2.4,12.1,2.9c0.5,0,0.9,0.4,0.8,0.9
			C158.2,101.8,157.8,102.1,157.3,102.1L157.3,102.1z"/>
		<path class="st2" d="M125.2,173c-1.8,0-3.6-0.6-5-1.8c-0.1-0.1-0.2-0.2-0.2-0.3c-1.9-3.9-4.3-13.6-5.6-19.1
			c-1.8-7.7-3.5-15.9-4.1-20.1c-1.5-10.8,1-15.1,6.9-20.2c8.7-7.5,26.9-13.4,27.6-13.6c0.5-0.2,0.9,0.1,1.1,0.5
			c0.2,0.5-0.1,0.9-0.5,1.1c0,0,0,0,0,0c-0.2,0.1-18.6,6-27,13.3c-4.8,4.2-7.9,7.7-6.3,18.6c1.2,8.3,6.5,32.2,9.5,38.5
			c0.6,0.4,3,2.1,6.4,0.7c0.4-0.2,0.9,0,1.1,0.5s0,0.9-0.5,1.1C127.4,172.7,126.3,173,125.2,173z"/>
		<path class="st2" d="M126.1,115.1c-0.5,0-0.9-0.4-0.9-0.9c0-0.3,0.1-0.5,0.3-0.7c1.8-1.4,3.8-2.6,5.8-3.5c0.3-0.1,0.5-0.2,0.7-0.3
			c0.4-0.2,0.9-0.1,1.2,0.3s0.1,0.9-0.3,1.2c0,0,0,0,0,0c-0.2,0.1-0.5,0.2-0.8,0.4c-2,0.9-3.8,2-5.5,3.3
			C126.4,115.1,126.2,115.1,126.1,115.1z"/>
		<path class="st2" d="M136,174.8c-0.4,0-0.7,0-1.1,0c-2.2-0.1-4.4-0.6-6.5-1.4c-0.2-0.1-0.4-0.3-0.5-0.6l-0.3-1.3
			c-9.2-35.8-12.7-49.2-5.6-55c0.4-0.3,0.9-0.2,1.2,0.1c0.3,0.4,0.2,0.9-0.1,1.2c-3,2.5-3.8,6.8-2.7,15.1c1.2,8.4,4.2,20.2,8.8,38.1
			l0.2,0.9c1.9,0.7,10.1,3.3,17-2.8c-0.3-2.6-0.7-6.4-1.1-10.8c-0.9-9.2-2-20.6-2.9-24c-0.1-0.5,0.2-0.9,0.6-1.1c0,0,0,0,0,0
			l0.8-0.2c10.6-2.4,25.1-5.7,29.4-10.3c0.3-0.4,0.9-0.4,1.2,0c0.4,0.3,0.4,0.9,0,1.2c-4.7,5.1-18.9,8.3-30.3,10.9
			c0.9,4.3,1.9,14.4,2.7,23.4c0.4,4.4,0.8,8.6,1.1,11.2c0,0.3-0.1,0.6-0.3,0.7C144.8,173.2,140.5,174.9,136,174.8z"/>
		<path class="st2" d="M164.6,99.9c-8.3-10-14.6-31.5-15.2-37.3c-0.1-0.9,0.3-6.2,1.2-6.3s0.5-0.5,0.6,0.4
			c1.2,12.1,8.8,33.1,16.4,42.1"/>
		<path class="st2" d="M175,126.7c-0.4,0-0.7-0.3-0.8-0.6c0-0.1-2.4-8.8-4.4-14.3c-0.2-0.4,0.1-0.9,0.5-1.1c0.4-0.2,0.9,0.1,1.1,0.5
			c1.7,4.6,3.6,11.3,4.3,13.6c2.5-0.7,10-3,14.1-6.3c-0.7-5.1-2.9-11.7-2.9-11.8c-0.1-0.5,0.1-0.9,0.6-1.1c0.5-0.1,0.9,0.1,1.1,0.6
			c0.1,0.3,2.4,7.2,3,12.6c0,0.3-0.1,0.6-0.3,0.8c-5.1,4.4-15.5,7-15.9,7.2C175.1,126.7,175.1,126.7,175,126.7z"/>
		<path class="st2" d="M121.1,198.6c-2.9,0-5.5-0.6-7.3-1.8c-1.6-1-2.5-2.4-2.8-4.1c-0.7-4.4,1.7-8.2,6.6-10.9
			c2.4-1.3,10.5-5.7,12.5-8.7c0.3-0.4,0.8-0.5,1.2-0.2c0.4,0.3,0.5,0.8,0.2,1.2c-2.2,3.2-9.9,7.5-13.1,9.2c-3,1.6-6.4,4.5-5.7,9.1
			c0.2,1.2,0.9,2.2,2,2.9c2.8,1.8,8,2,13.2,0.5c7.9-2.3,13.3-6.4,17-9.1l0.9-0.7c1.2-0.9,1.8-3.4,1.6-6.7c-0.2-3-1.1-6.2-2.2-8
			c-0.2-0.4-0.1-0.9,0.3-1.2c0.4-0.2,0.9-0.1,1.2,0.3c2.4,3.9,4.1,14,0.2,16.9l-0.9,0.7c-3.7,2.8-9.4,7-17.5,9.4
			C126,198.2,123.5,198.6,121.1,198.6z"/>
		<path class="st2" d="M123.8,188.6c-2.9,0-5.6-0.7-7-2.2c-0.9-0.9-1.1-2.3-0.7-3.4c0.1-0.5,0.6-0.7,1.1-0.6
			c0.5,0.1,0.7,0.6,0.6,1.1c0,0,0,0,0,0c-0.3,0.6-0.1,1.3,0.3,1.7c1.4,1.5,5.5,2.1,9.4,1.2c4.7-1,13.4-5.8,18-14.9
			c0.2-0.4,0.7-0.6,1.2-0.4s0.6,0.7,0.4,1.2c-4.3,8.6-12.9,14.4-19.1,15.8C126.5,188.5,125.1,188.6,123.8,188.6z"/>
		<path class="st2" d="M135.1,184.7c-0.1,0-0.3,0-0.4-0.1c-2.1-1.1-10.2-3.5-12-3.2c-0.5,0-0.9-0.3-0.9-0.8c0-0.4,0.3-0.8,0.7-0.9
			c2.5-0.4,10.9,2.2,13.1,3.4c0.4,0.2,0.6,0.8,0.3,1.2C135.7,184.5,135.4,184.7,135.1,184.7L135.1,184.7z"/>
		<path class="st2" d="M137.8,182.8c-0.2,0-0.4-0.1-0.5-0.2c-2-1.6-8.8-3.7-11.5-3.6c-0.5,0-0.9-0.3-0.9-0.8c0-0.5,0.3-0.9,0.8-0.9
			c3.2-0.1,10.4,2.1,12.7,4c0.4,0.3,0.4,0.8,0.1,1.2C138.3,182.6,138,182.8,137.8,182.8L137.8,182.8z"/>
		<path class="st2" d="M110.3,196.3c-4.1,0-6.4-1.6-7.6-3.1c-1.9-2.3-2-5.2-1.3-7.1c1.2-3.2,5.1-5.4,9.2-7.8c3.4-2,7-4,9.6-6.8
			c0.3-0.4,0.9-0.4,1.2,0c0.4,0.3,0.4,0.9,0,1.2l0,0c-2.8,3-6.6,5.2-10,7.1c-3.8,2.2-7.4,4.2-8.4,6.9c-0.5,1.4-0.4,3.7,1,5.4
			c1.2,1.5,3.6,3,8.7,2.3c0.5-0.1,0.9,0.3,1,0.7c0.1,0.5-0.3,0.9-0.7,1C112.1,196.2,111.2,196.3,110.3,196.3z"/>
		<path class="st2" d="M112.5,185.7c-2,0-3.9-0.5-5-1.5c-0.9-0.7-1.2-1.9-0.9-3c0.1-0.5,0.6-0.7,1.1-0.6c0.5,0.1,0.7,0.6,0.6,1.1
			c-0.2,0.5,0,1,0.4,1.3c1.3,1.1,4.5,1.4,6.7,0.6c0.4-0.2,0.9,0,1.1,0.5c0.2,0.4,0,0.9-0.5,1.1C114.9,185.5,113.7,185.7,112.5,185.7
			z"/>
		<path class="st2" d="M121,181.4c-0.1,0-0.2,0-0.3-0.1c-2.7-1.2-5.6-1.7-9.2-1.7h0c-0.5,0-0.9-0.4-0.9-0.9s0.4-0.9,0.9-0.9h0
			c3.8,0,7,0.6,9.9,1.8c0.4,0.2,0.6,0.7,0.5,1.1C121.6,181.2,121.3,181.4,121,181.4L121,181.4z"/>
		<path class="st2" d="M124.3,179.3c-0.1,0-0.3,0-0.4-0.1c-3.1-1.6-7.3-2-8.6-1.9c-0.5,0-0.9-0.3-0.9-0.8s0.3-0.9,0.8-0.9
			c1.6-0.1,6.2,0.4,9.5,2.1c0.4,0.2,0.6,0.7,0.4,1.2C124.9,179.2,124.6,179.3,124.3,179.3L124.3,179.3z"/>
		<path class="st2" d="M153.8,137.6c-3.8,0-7-0.5-10.1-1.1c-0.5-0.1-0.8-0.5-0.7-1c0.1-0.5,0.5-0.8,1-0.7c0,0,0,0,0.1,0
			c4.9,0.9,10.3,1.7,18,0.3c9-1.7,26.2-8,28.9-12.1c4-5.9,5.6-29.7,6.1-37.5c0.1-0.9,0.1-1.7,0.2-2.2c0.5-6.3-0.9-10.3-3.9-10.9
			c-0.5-0.1-0.8-0.5-0.7-1c0.1-0.5,0.5-0.8,1-0.7c0,0,0,0,0,0c5.6,1.2,5.5,9.3,5.3,12.7c0,0.5-0.1,1.3-0.2,2.2
			c-0.9,13.8-2.6,32.7-6.4,38.4c-3.4,5.1-22.5,11.4-30,12.8C159.5,137.3,156.6,137.6,153.8,137.6z"/>
		<path class="st2" d="M164.3,183.6c-2.4,0-3.6-1.5-4-2.4c0-0.1-0.1-0.2-0.1-0.3v-44.1c0-0.5,0.4-0.9,0.9-0.9s0.9,0.4,0.9,0.9v43.9
			c0.2,0.4,1.1,1.6,3.6,1c0.5-0.1,0.9,0.2,1,0.6c0.1,0.5-0.2,0.9-0.6,1C165.4,183.6,164.8,183.6,164.3,183.6z"/>
		<path class="st2" d="M167.6,181.4c-0.5,0-0.9-0.4-0.9-0.9v-45c0-0.5,0.4-0.9,0.9-0.9s0.9,0.4,0.9,0.9v45
			C168.5,181,168.1,181.4,167.6,181.4z"/>
		<path class="st2" d="M148.8,181.4c-0.5,0-0.9-0.4-0.9-0.9c0-0.4,0.2-0.7,0.6-0.8c3.4-1.3,6.5-2.2,12-2.5c0.5,0,0.9,0.3,0.9,0.8
			s-0.3,0.9-0.8,0.9c-5.8,0.4-8.8,1.4-11.5,2.4C149.1,181.4,149,181.4,148.8,181.4z"/>
		<path class="st2" d="M164.2,190.6c-8.4,0-14.4-1.3-17.3-3.7c-0.4-0.3-0.4-0.8-0.1-1.2c0.3-0.4,0.8-0.4,1.2-0.1c0,0,0,0,0,0
			c2.6,2.1,8.3,3.3,16.2,3.3c4.8,0,9.3-0.6,12.7-1.7c2.9-0.9,4.8-2.2,4.8-3.3c0-1.9-5-4.2-13.3-4.8c-0.5,0-0.8-0.5-0.8-0.9
			s0.5-0.8,0.9-0.8c4,0.3,7.7,1,10.4,2.1c3.8,1.5,4.6,3.3,4.6,4.5C183.4,188.2,173.5,190.6,164.2,190.6z"/>
		<path class="st2" d="M144.3,85.1h-0.1c-1.7-0.2-3.4-0.7-4.9-1.4c-0.4-0.2-0.6-0.7-0.5-1.1s0.7-0.6,1.1-0.5c0,0,0,0,0,0
			c1.4,0.6,2.9,1,4.4,1.2c0.5,0,0.8,0.4,0.8,0.9C145.2,84.8,144.7,85.2,144.3,85.1L144.3,85.1z"/>
		<path class="st2" d="M135.2,118.2c-0.1,0-0.2,0-0.4-0.1c-1.3-0.6-1.7-1.6-1.8-2.3c-0.4-3.8,6.9-9.4,7-9.5c0.4-0.3,0.9-0.2,1.2,0.2
			c0.3,0.4,0.2,0.9-0.2,1.2l0,0c-1.4,1.1-2.7,2.4-4,3.7c-1.6,1.8-2.4,3.3-2.3,4.2c0,0.3,0.1,0.6,0.8,0.9c0.4,0.2,0.6,0.7,0.4,1.1
			C135.9,118,135.6,118.2,135.2,118.2L135.2,118.2z"/>
		<path class="st2" d="M142.4,49.8c-0.5,0-0.9-0.4-0.9-0.9c0-0.3,0.2-0.6,0.4-0.7c1.6-1,2.7-9.2,1.5-15.8c-0.1-0.5,0.2-0.9,0.7-1
			c0.5-0.1,0.9,0.2,1,0.7c0.7,4,1.1,15.5-2.3,17.6C142.7,49.7,142.5,49.8,142.4,49.8z"/>
	</g>
</g>
</svg>
