<?xml version="1.0" encoding="utf-8"?>
<!-- Generator: Adobe Illustrator 24.3.0, SVG Export Plug-In . SVG Version: 6.00 Build 0)  -->
<svg version="1.1" id="レイヤー_1" xmlns="http://www.w3.org/2000/svg" xmlns:xlink="http://www.w3.org/1999/xlink" x="0px"
	 y="0px" viewBox="0 0 300 200" style="enable-background:new 0 0 300 200;" xml:space="preserve">
<style type="text/css">
	.st0{fill:#FFFFFF;}
	.st1{fill:#040000;}
	.st2{fill:#C1C0C0;}
	.st3{fill:#D0B583;}
</style>
<g id="塗り">
	<path class="st0" d="M177.2,66.1v-3.3l1.6-6l-1-3.9l-3.5-7.5l0.6-6.4l2.3-8.4l-0.2-3.2L164.3,9.7l-19.8,2.4l-3.9,2l-2.3,3.7
		l-0.6,2.6l-3.9-2.3l-5.9,0.4l-0.8,0.7l-1.8,1.3l-3.7,8.6L122,33l1.5,6.9l-0.5,3.5l-3,19.2c0,0-1.9,7.2,4.9,12.1
		c0.3,0.6,0.5,1.3,0.7,1.9l4.5-0.3l5-1.1l-1.3,54.1l6.5,11.8l2.3,15l2.3,15.2c0,0-0.3,1.3-1.3,1.7c-0.5,0.3-4.7,4.7-4.7,4.7
		l-9.2,4.9l-2.4,4.4l0.9,2.2c0,0,2.1,5.4,11,3.4c4.6,3.6,14,5.2,19.7,1.6c3.9-3.2,6.4-5.1,6.4-5.1l5.1-7.4v-8.5l-0.7-19.1l-0.1-14.3
		L167,83l4.1-13.8c0,0,4.3,1.8,8.7,0C177.4,65.8,177.2,66.1,177.2,66.1z M135.3,46.9l-1.7,3.9c0,0-1.2-1-1.2-1.1
		c0-0.1-0.9-6.1-0.9-6.1l0.3-5.1l2.5-2.8h1l0.8,6L135.3,46.9z"/>
	<path class="st1" d="M159.1,192.3c-2.2,1.5-6,3.2-11.5,2.4c-5.5-0.8-7.2-3.2-7.2-3.2s-5,0.9-8.6-0.3s-4.3-4.8-4.3-4.8
		s-2,4.5,2.7,6.9c4.7,2.4,8.6,1.4,10.2,0.6c2.5,2.8,11,4.8,16.5,2.7s11.3-9.7,12-10.6c0.8-0.9,2.7-2.9,2.8-5.2s-1.3-3.2-1.3-3.2
		s-0.7,3.4-1.6,4.5c-0.8,1.1-4.1,4.5-4.1,4.5s-2.6-4-7-5.5c-2-0.7-5.3-1.4-7.7-1.2c-3.3-2.1-7.1-3.3-11-3.4c-3.6,2.2-9,5.3-9,5.3
		s5.7-1.3,12.6,3.1C148.1,185.8,155.4,186.9,159.1,192.3z"/>
	<path class="st1" d="M131.8,90.8c-1.5,0.8-4.1,5.4-5.6,8.8c-1.5,3.4-2.4,6.9,0.5,8.4c3,1.5,3,0.8,3,0.8L131.8,90.8z"/>
	<path class="st1" d="M144.5,7.4c-1,0.5,0.1,0.6-4.3,1c-4.4,0.5-8.6,0.8-9,2.4c-0.3,1.5,1.5,2.7,7.4,3.4c5.9,0.8,19.7,7.5,21.1,8.5
		c1.4,1,8.8,0.4,11,1.1c2.2,0.7,5.1,2.8,5.8,4c1.4-3.3,1.6-12.5-1.2-16.1s-8.8-8.6-12.6-9.1c-3.7-0.5-13.1,1.3-15,2.6
		C146.6,5.9,145.5,6.6,144.5,7.4z"/>
	<path class="st1" d="M132.9,24.2c0.1,0.7,1.1,4,1,5c-0.1,1-2,2.7-2,2.7l-1,3.6l5.4,1.8c0,0-0.2-2.2,1-2.8c-2.3-1.5-2.8-4.3-2.4-5.2
		c0.4-0.9,2.2-3.1,3.2-3.5C135.8,25,132.9,24.2,132.9,24.2z"/>
	<path class="st1" d="M143.5,27.5c0.6,1,1.2,2.6,0.8,3.8c-0.4,1.1-1.2,3.1-3.6,3.9c2.4,0.9,6.4,1.8,6.4,1.8s-2.4-4.3-1.7-5.2
		c0.7-0.9,2.3-0.3,4,2c0.6-1.6,1.7-4.4,1.7-4.4L143.5,27.5z"/>
	<path class="st2" d="M132.9,21.2c-0.9,0.1-1.7,0.4-2.5,0.7c0,0,1.9,1,2.2,2.2c1.8,0.4,5.7,1.6,5.7,1.6c1.8-0.4,3.6,0.1,4.9,1.3
		c3.3,1,8,2.2,8,2.2l-1.4,4.7l1.9,2.3l1.9-7.3l-1.7-2l-6.5-1.8l-0.1-2.4l-6.1-1.4l-1.2,1.5c-0.8,0.1-1.7,0-2.5-0.2
		C134.3,22.4,132.9,21.2,132.9,21.2z"/>
	<path class="st2" d="M139.8,25.5c-2.6,0-4.7,2.1-4.7,4.7c0,2.6,2.1,4.7,4.7,4.7c2.6,0,4.7-2.1,4.7-4.7c0,0,0,0,0,0
		C144.5,27.6,142.4,25.5,139.8,25.5z M139.6,32.7c-1.4,0-2.4-1.2-2.4-2.6c0-1.4,1.2-2.4,2.6-2.4c1.3,0,2.4,1.1,2.4,2.5
		C142.2,31.6,141,32.7,139.6,32.7C139.6,32.7,139.6,32.7,139.6,32.7L139.6,32.7z"/>
	<path class="st3" d="M161.3,45.3c-0.7,0.8-3.8,2.1-4.8,2.1c0.9,3.4,7.9,25.7,6.9,32.1c-3.6,1.8-8.5,3.5-12.7,0
		c-4.3-3.5-3.3-25.3-4.5-31c-1.7-0.7-5.3-3.2-5.3-3.2s-7.2,4.8-8,6.7c0.2,4.2,1.1,17.4,0.9,19.3c-0.2,1.8-4.8,5.1-8.9,3.4
		c1,3.1,4.5,4.7,6,3.3c1.5-1.3,3-3.2,3.7-4.5c-0.7,3.9-4.1,27.4-4.7,33.4c-0.6,6-2.4,30.9-2.4,30.9s12.6,5,25.5,4.4
		c12.9-0.6,21.3-3.7,21.3-3.7l-4.4-60.7c0,0,2.8-2.6,3.5-10.7s-0.1-12.6-3.1-16.5S161.3,45.3,161.3,45.3z"/>
	<path class="st1" d="M132.9,51.6c-0.2,0-0.4-0.1-0.5-0.2c-0.4-0.3-0.5-0.8-0.2-1.2c3.9-5.4,2.9-10.2,2.3-12.9v0
		c-0.1-0.5,0.2-0.9,0.7-1c0.4-0.1,0.9,0.2,1,0.6v0c0.6,2.7,1.8,8.3-2.6,14.3C133.4,51.5,133.1,51.6,132.9,51.6z"/>
</g>
<g id="線画">
	<path class="st1" d="M143.9,9.3c-0.2,0-0.4-0.1-0.5-0.2c-0.4-0.3-0.4-0.8-0.1-1.2c1.4-1.7,5.6-4.7,9.6-5.5c5.9-1.2,12-0.5,16,2
		c0.4,0.2,0.5,0.8,0.3,1.2c-0.2,0.4-0.8,0.5-1.2,0.3l0,0c-3.6-2.2-9.4-2.9-14.8-1.8c-3.7,0.8-7.5,3.6-8.6,4.9
		C144.4,9.2,144.2,9.3,143.9,9.3z"/>
	<path class="st1" d="M176.8,28.9c-0.2,0-0.5-0.1-0.6-0.3c-0.9-1-3.9-3.3-5-3.7c-2.4-1-5.1-0.9-7.3-0.8c-1.2,0-2.1,0.1-2.8-0.1
		c-1.1-0.2-2.5-0.9-4.7-2c-3.6-1.9-7.3-3.6-11-5c-3.9-1.5-9.8-2.5-11.5-2.8c-1.3-0.2-2.6-0.6-3.1-1.6c-0.3-0.6-0.3-1.4,0.1-2.3
		c0.4-0.8,1.4-1.6,6.1-2.2c2.8-0.4,5.8-0.5,6.6-0.5c0.5,0,0.9,0.4,0.9,0.8c0,0.5-0.4,0.9-0.8,0.9c-7.1,0.2-10.8,1.1-11.2,1.7
		c-0.2,0.4-0.2,0.6-0.2,0.7c0,0.1,0.4,0.4,1.9,0.7c1.7,0.3,7.7,1.4,11.8,2.9c3.8,1.5,7.6,3.2,11.2,5.1c1.9,1,3.3,1.7,4.2,1.9
		c0.5,0.1,1.4,0.1,2.5,0c2.3-0.1,5.3-0.2,8.1,0.9c1.4,0.6,4.6,3.1,5.6,4.2c0.3,0.3,0.3,0.9,0,1.2C177.2,28.8,177,28.9,176.8,28.9z"
		/>
	<path class="st1" d="M158.2,14.9c-0.2,0-0.3,0-0.5-0.1c-1.7-1.1-8.1-3.6-9.9-3.9c-0.5-0.1-0.8-0.5-0.7-1c0.1-0.5,0.5-0.8,1-0.7
		c2.1,0.3,8.7,2.8,10.6,4.1c0.4,0.3,0.5,0.8,0.3,1.2C158.7,14.8,158.4,14.9,158.2,14.9L158.2,14.9z"/>
	<path class="st1" d="M176.8,28.9c-0.5,0-0.9-0.4-0.9-0.9c0-0.1,0-0.2,0-0.2c0.8-2.5,1.4-7.9,0.3-11.8c-1.6-5.7-6.3-9-8.3-10.1
		c-0.4-0.2-0.6-0.7-0.4-1.1c0.2-0.4,0.7-0.6,1.1-0.4c0.1,0,0.1,0.1,0.2,0.1c2.1,1.2,7.3,4.8,9.1,11.1c1.1,4,0.7,9.6-0.3,12.8
		C177.5,28.6,177.1,28.9,176.8,28.9z"/>
	<path class="st1" d="M154.8,42.7c-0.4,0-0.7-0.3-0.8-0.6c-0.6-2.2-5.9-9.5-7.2-9.9c-0.1,0-0.4-0.1-0.5,0c-0.1,0.2-0.2,0.7,0.1,1.3
		c0.7,1.3,1.3,2.7,1.6,3.4c0.2,0.4,0,0.9-0.5,1.1c-0.2,0.1-0.3,0.1-0.5,0c-0.6-0.1-1.5-0.3-2.4-0.5c-2.6-0.5-5.5-1.1-6.7-1.6
		c-0.4-0.2-0.7-0.2-0.8,0c-0.1,0.2-0.1,0.4,0,0.6c0.5,0.8,4.8,2.8,8.1,3.2c0.5,0,0.8,0.5,0.8,1c0,0.5-0.5,0.8-1,0.8
		c-3.8-0.4-8.6-2.6-9.4-4c-0.5-0.8-0.4-1.9,0.2-2.6c0.7-0.7,1.7-0.9,2.8-0.4c1,0.5,4,1,6.3,1.5l0.8,0.2c-0.3-0.6-0.6-1.2-0.9-1.8
		c-0.6-1.1-0.5-2.4,0.1-3.2c0.5-0.6,1.3-0.8,2.3-0.6c2.2,0.6,7.8,8.9,8.4,11.1c0.1,0.5-0.1,0.9-0.6,1.1c0,0,0,0,0,0
		C154.9,42.7,154.8,42.7,154.8,42.7z"/>
	<path class="st1" d="M144.5,45c-0.1,0-0.2,0-0.3,0c-8.5-3-8.7-5.8-8.2-7.6c0,0,0-0.1,0-0.1c0.1-0.5,0.6-0.8,1-0.7s0.8,0.6,0.7,1
		c0,0,0,0,0,0.1c0,0.1,0,0.1,0,0.2c-0.1,0.4-0.3,0.9,0.3,1.7c0.6,0.9,2.3,2.2,6.8,3.8c0.4,0.2,0.7,0.7,0.5,1.1
		C145.2,44.8,144.8,45,144.5,45L144.5,45z"/>
	<path class="st1" d="M146.2,49.4c-0.1,0-0.2,0-0.3-0.1c-3.4-1.4-5.5-3.2-6.7-4.4c-1.4-1.5-2.2-3.1-2-4.1c0.1-0.5,0.5-0.8,1-0.7
		c0.5,0.1,0.8,0.5,0.7,1c-0.1,0.8,2.1,4.4,7.6,6.6c0.4,0.2,0.7,0.7,0.5,1.1C146.9,49.2,146.6,49.4,146.2,49.4L146.2,49.4z"/>
	<path class="st1" d="M156.3,82.3c-1.1,0-2.3-0.2-3.4-0.5c-2.7-0.9-4.7-2.9-5.5-5.2c-1.5-4.7-1.6-25.6-1.6-25.8
		c0-0.5,0.4-0.9,0.9-0.9c0.5,0,0.9,0.4,0.9,0.9c0,3.2,0.3,21.3,1.5,25.3c0.6,1.8,2.2,3.3,4.4,4.1c1.7,0.6,5.1,1.1,9.1-1.7
		c0.4-0.3,0.9-0.2,1.2,0.1c0.3,0.4,0.2,0.9-0.1,1.2c0,0-0.1,0-0.1,0.1C160.9,81.7,158.4,82.3,156.3,82.3z"/>
	<path class="st1" d="M162.7,72.2c-0.4,0-0.8-0.3-0.9-0.7c-0.4-2.1-6.1-23.8-6.9-26.6c-0.1-0.5,0.1-0.9,0.6-1.1
		c0.5-0.1,0.9,0.1,1.1,0.6c0,0,0,0,0,0c0.7,2.6,6.6,24.5,7,26.8c0.1,0.5-0.2,0.9-0.7,1C162.8,72.2,162.7,72.2,162.7,72.2z"/>
	<path class="st1" d="M149.9,35c-0.5,0-0.9-0.4-0.9-0.9c0-0.1,0-0.2,0-0.2l1.7-6.2l-5.6-1.6c-0.4-0.1-0.6-0.4-0.6-0.8v-1.4l-4.9-1.3
		l-0.8,1.1c-0.2,0.3-0.5,0.4-0.9,0.3l-0.9-0.2c-0.5-0.1-0.8-0.6-0.7-1c0.1-0.5,0.6-0.8,1-0.7l0.3,0.1l0.8-1.1
		c0.2-0.3,0.6-0.4,0.9-0.3l6.1,1.6c0.4,0.1,0.6,0.4,0.6,0.8v1.5l5.8,1.7c0.5,0.1,0.7,0.6,0.6,1.1l-2,7C150.6,34.7,150.2,35,149.9,35
		z"/>
	<path class="st1" d="M136.6,23.9c-0.8,0-1.7-0.5-2.5-1c-0.5-0.3-1-0.5-1.5-0.7c-1.2-0.3-2.6,0.2-2.6,0.2c-0.5,0.1-0.9-0.1-1.1-0.6
		c-0.1-0.4,0.1-0.9,0.5-1.1c0.1,0,1.9-0.7,3.6-0.2c0.7,0.2,1.3,0.5,1.9,0.9c0.5,0.3,1.3,0.7,1.6,0.7c0.1-0.2,0.2-0.4,0.1-0.6
		c-0.2-0.7-1.1-1.8-2.6-2.4c-2.1-0.9-5.4-0.2-6.7,0.6c-0.4,0.2-0.9,0.1-1.2-0.3s-0.1-0.9,0.3-1.2c1.6-1,5.5-1.8,8.3-0.7
		c1.9,0.8,3.3,2.2,3.6,3.6c0.2,0.8,0,1.6-0.6,2.2C137.5,23.8,137.1,23.9,136.6,23.9z"/>
	<path class="st1" d="M132.3,32.6c-0.4,0-0.7-0.1-1.1-0.3c-0.4-0.2-0.6-0.8-0.3-1.2c0.2-0.4,0.8-0.6,1.2-0.3c0,0,0.1,0,0.1,0
		c0.1,0,0.2,0,0.3,0c0.2-0.1,0.3-0.2,0.4-0.4c0.3-0.9,0.2-3.3-0.7-5.1c-0.8-1.8-2.7-2.8-2.8-2.8c-0.4-0.2-0.6-0.7-0.4-1.2
		c0.2-0.4,0.7-0.6,1.2-0.4l0,0c0.1,0.1,2.5,1.3,3.5,3.7c1.1,2.4,1.1,5.2,0.7,6.3c-0.2,0.7-0.7,1.3-1.4,1.6
		C132.8,32.5,132.6,32.6,132.3,32.6z"/>
	<path class="st1" d="M131.3,34.8c-0.5,0-0.9-0.4-0.9-0.9c0-0.2,0.1-0.4,0.2-0.6c0.6-0.7,0.5-2.6-0.2-4.7c-0.5-1.4-2-2.9-3-3.5
		c-0.4-0.2-0.6-0.8-0.3-1.2c0.2-0.4,0.8-0.6,1.2-0.3c1.4,0.8,3.1,2.6,3.8,4.4c0.5,1.3,1.5,4.7-0.1,6.5
		C131.8,34.7,131.5,34.8,131.3,34.8z"/>
	<path class="st1" d="M129.8,36.7c-0.3,0-0.6-0.1-0.9-0.2c-0.5-0.2-1.2-0.9-2.3-2.1c-0.6-0.6-1.6-1.6-1.8-1.7
		c-0.4-0.2-0.6-0.8-0.3-1.2c0.2-0.4,0.8-0.6,1.2-0.3c0.5,0.3,1.2,0.9,2.2,2c0.6,0.6,1.5,1.6,1.8,1.7c0.1,0,0.1,0,0.2,0
		c0.1-0.1,0.2-0.3,0.1-0.8c-0.2-1.2-2.9-4.6-4.1-5.4c-0.4-0.3-0.5-0.8-0.2-1.2c0.3-0.4,0.8-0.5,1.2-0.2c1.5,1,4.5,4.7,4.9,6.5
		c0.2,1.1-0.1,2-0.8,2.5C130.6,36.5,130.2,36.7,129.8,36.7z"/>
	<path class="st1" d="M136.2,38c-0.1,0-0.2,0-0.3,0l-4.9-1.6c-0.4-0.2-0.7-0.7-0.5-1.1c0.2-0.4,0.6-0.7,1-0.5l4.9,1.6
		c0.5,0.1,0.7,0.6,0.6,1.1C137,37.7,136.6,38,136.2,38L136.2,38z"/>
	<path class="st1" d="M151.7,37.1c-0.1,0-0.2,0-0.2,0c-0.5-0.1-0.7-0.6-0.6-1.1c0,0,0,0,0,0l1.8-6.6l-1.5-1.8
		c-0.3-0.4-0.3-0.9,0.1-1.2s0.9-0.3,1.2,0.1l1.8,2.1c0.2,0.2,0.3,0.5,0.2,0.8l-1.9,7.1C152.5,36.9,152.1,37.1,151.7,37.1z"/>
	<path class="st1" d="M139.7,35.9c-3.1,0-5.6-2.5-5.6-5.5c0-3.1,2.5-5.6,5.5-5.6c3.1,0,5.6,2.5,5.6,5.5c0,0,0,0,0,0
		C145.2,33.4,142.7,35.9,139.7,35.9z M139.7,26.2c-2.2,0-4.1,1.8-4.1,4.1c0,2.2,1.8,4.1,4.1,4.1c2.2,0,4.1-1.8,4.1-4.1c0,0,0,0,0,0
		C143.7,28.1,141.9,26.3,139.7,26.2L139.7,26.2z"/>
	<path class="st1" d="M139.7,33.7c-1.9,0-3.4-1.5-3.4-3.4c0-1.9,1.5-3.4,3.4-3.4c1.9,0,3.4,1.5,3.4,3.4c0,0,0,0,0,0
		C143,32.2,141.5,33.7,139.7,33.7z M139.7,28.4c-1,0-1.9,0.8-1.9,1.9c0,1,0.8,1.9,1.9,1.9c1,0,1.9-0.8,1.9-1.9c0,0,0,0,0,0
		C141.5,29.3,140.7,28.4,139.7,28.4z"/>
	<path class="st1" d="M138.3,26.5c-0.1,0-0.1,0-0.2,0l-5.7-1.6c-0.4-0.1-0.6-0.5-0.5-0.9c0.1-0.4,0.5-0.6,0.9-0.5c0,0,0,0,0,0
		l5.7,1.6c0.4,0.1,0.6,0.5,0.5,0.9C138.9,26.2,138.6,26.5,138.3,26.5z"/>
	<path class="st1" d="M150.9,30c-0.1,0-0.1,0-0.2,0l-7.4-2.1c-0.4-0.1-0.6-0.5-0.5-0.9c0.1-0.4,0.5-0.6,0.9-0.5c0,0,0,0,0,0l7.4,2.1
		c0.4,0.1,0.6,0.5,0.5,0.9C151.5,29.8,151.2,30,150.9,30L150.9,30z"/>
	<path class="st1" d="M123.3,40.8c-0.5,0-0.9-0.4-0.9-0.9c0-0.7-0.3-2.2-0.7-3.7c-0.4-1.6-0.7-3.3-0.9-4.9
		c-0.3-3.2,1.8-9.1,3.3-11.3c0.3-0.4,0.8-0.5,1.2-0.2s0.5,0.8,0.2,1.2c-1.5,2.1-3.2,7.6-3,10.2c0.2,1.6,0.5,3.1,0.9,4.7
		c0.4,1.7,0.7,3.1,0.7,4C124.2,40.4,123.8,40.8,123.3,40.8C123.3,40.8,123.3,40.8,123.3,40.8L123.3,40.8z"/>
	<path class="st1" d="M127.4,76c-2.5,0-4.6-1.1-6.2-3.2c-1.3-1.8-2.1-4.2-2.3-6.6c-0.2-3,1.2-11.4,2.2-17.5c0.4-2.4,0.7-4.5,0.9-5.6
		c0-0.5,0.4-0.8,0.9-0.8c0.5,0,0.8,0.4,0.8,0.9c0,0,0,0.1,0,0.1c-0.1,1.1-0.5,3.2-0.9,5.7c-0.9,5.7-2.4,14.2-2.2,17.1
		c0.5,6.7,4.8,8.3,7,8.2c4-0.2,5-2.6,5.1-2.7c0.2-0.4,0.7-0.6,1.1-0.5c0.4,0.2,0.7,0.7,0.5,1.1c0,0,0,0,0,0
		c-0.1,0.1-1.5,3.5-6.6,3.7L127.4,76z"/>
	<path class="st1" d="M129.3,79.3c-0.1,0-0.2,0-0.3,0c-1.9-0.1-3.7-1.5-4.8-3.7c-0.2-0.4,0-0.9,0.4-1.1c0.4-0.2,0.9,0,1.1,0.4
		c0.8,1.7,2,2.7,3.3,2.8c1,0.1,2-0.4,2.6-1.4c1.3-1.9,1.4-6.7,1.3-8.3v-0.1c0.1-2.9-1.3-16.7-1.9-23.3c-0.2-1.9-0.3-3.2-0.3-3.6
		c-0.1-1.4,0.6-2.5,1.2-3.5c0.3-0.4,0.6-0.9,0.7-1.4c0.1-0.5,0.6-0.7,1.1-0.6c0.5,0.1,0.7,0.6,0.6,1.1c-0.2,0.7-0.5,1.3-0.9,1.9
		c-0.5,0.8-1,1.7-1,2.5c0,0.4,0.2,1.7,0.3,3.5c0.6,6.6,2,20.4,1.9,23.5c0,0.5,0.2,6.6-1.6,9.3C132.2,78.5,130.8,79.3,129.3,79.3z"/>
	<path class="st1" d="M137.6,21.4L137.6,21.4c-0.5,0-0.9-0.4-0.9-0.9c0.1-2.1,2-5.4,3.2-6.5c0.3-0.3,0.9-0.3,1.2,0
		c0.3,0.3,0.3,0.9,0,1.2c0,0,0,0-0.1,0c-0.9,0.8-2.6,3.7-2.7,5.3C138.5,21,138.1,21.4,137.6,21.4z"/>
	<path class="st1" d="M150.4,23.9c-0.3,0-0.6-0.2-0.8-0.4c-0.8-1.5-1.3-3.7-1.3-5.9c0-0.5,0.4-0.8,0.9-0.8h0c0.5,0,0.9,0.4,0.8,0.9
		c0,1.9,0.4,3.8,1.1,5c0.2,0.4,0.1,0.9-0.3,1.2c0,0,0,0,0,0C150.7,23.9,150.5,23.9,150.4,23.9z"/>
	<path class="st1" d="M155.5,25.9c-0.3,0-0.6-0.1-0.7-0.4c-1.2-1.9-1.5-4.1-1.6-5.5c0-0.5,0.4-0.9,0.8-0.9c0.5,0,0.9,0.4,0.9,0.8
		c0,1.2,0.3,3.1,1.3,4.7c0.3,0.4,0.1,0.9-0.3,1.2C155.8,25.9,155.7,25.9,155.5,25.9z"/>
	<path class="st1" d="M163.6,29.5c-0.2,0-0.4-0.1-0.5-0.2c-1.8-1.4-3.8-4.5-4.2-6.1c-0.1-0.5,0.1-0.9,0.6-1.1
		c0.5-0.1,0.9,0.1,1.1,0.6c0,0,0,0,0,0c0.3,1.3,2.1,4,3.6,5.1c0.4,0.3,0.4,0.8,0.2,1.2C164.1,29.4,163.9,29.5,163.6,29.5L163.6,29.5
		z"/>
	<path class="st1" d="M157.3,43.1c-0.5,0-0.9-0.3-0.9-0.8c0-0.5,0.3-0.9,0.8-0.9c1.5-0.2,3.8-1.3,5-2.2c3.6-2.7,4-7.1,4-8.9
		c0-0.5,0.4-0.9,0.9-0.9l0,0c0.5,0,0.9,0.4,0.9,0.9c0,0,0,0,0,0c0,2-0.4,7.1-4.7,10.3c-1.4,1-4,2.3-5.9,2.5
		C157.3,43.1,157.3,43.1,157.3,43.1z"/>
	<path class="st1" d="M165.3,40.1c-0.4,0-0.8,0-1.1-0.1c-0.5-0.1-0.7-0.6-0.6-1.1c0.1-0.4,0.6-0.7,1-0.6c1,0.2,2.2,0,3.3-0.8
		c0.9-0.7,1.5-1.6,1.6-2.4c0.1-0.7-0.1-1.3-0.4-1.6c-0.3-0.3-1-0.5-1.8-0.3c-0.5,0.1-0.9-0.2-1-0.7c-0.1-0.5,0.2-0.9,0.7-1l0,0
		c1.3-0.2,2.5,0.1,3.2,0.8c0.5,0.5,1.1,1.4,1,3c-0.1,1.4-1,2.7-2.3,3.7C167.8,39.7,166.5,40.1,165.3,40.1z"/>
	<path class="st1" d="M140.9,22.5c-0.5,0-0.9-0.4-0.9-0.9c0-0.2,0.1-0.3,0.2-0.5c0.7-1,2.2-2.7,2.3-2.8c0.3-0.4,0.9-0.4,1.2-0.1
		c0.4,0.3,0.4,0.9,0.1,1.2l0,0c0,0-1.5,1.7-2.2,2.6C141.5,22.4,141.2,22.5,140.9,22.5z"/>
	<path class="st1" d="M155.9,31.2c-0.1,0-0.2,0-0.2,0c-0.5-0.1-0.7-0.6-0.6-1.1l0.4-1.4c0.1-0.5,0.6-0.7,1-0.6s0.7,0.6,0.6,1
		c0,0,0,0,0,0.1l-0.4,1.4C156.7,30.9,156.3,31.2,155.9,31.2z"/>
	<path class="st1" d="M157,48.3c-0.2,0-0.4,0-0.6,0c-0.5,0-0.8-0.5-0.8-0.9c0-0.5,0.5-0.8,0.9-0.8c1.5,0.2,2.9-0.4,3.9-1.5v-4.1
		c0-0.5,0.4-0.9,0.9-0.9c0.5,0,0.9,0.4,0.9,0.9v4.4c0,0.2,0,0.3-0.1,0.5C160.9,47.4,159,48.3,157,48.3z"/>
	<path class="st1" d="M173.2,58.9c-0.4,0-0.8-0.3-0.8-0.7c-1.1-6-6-10.4-9-11.5c-0.5-0.1-0.7-0.6-0.6-1.1c0.1-0.5,0.6-0.7,1.1-0.6
		c0,0,0,0,0.1,0c3.5,1.3,8.9,6.1,10.1,12.8c0.1,0.5-0.2,0.9-0.7,1c0,0,0,0,0,0C173.3,58.9,173.2,58.9,173.2,58.9z"/>
	<path class="st1" d="M132.9,52.9c-0.5,0-0.9-0.4-0.9-0.9c0-0.2,0.1-0.4,0.2-0.5c1.9-2.6,6.5-5.9,8.2-6.7c0.4-0.2,0.9,0,1.1,0.5
		c0.2,0.4,0,0.9-0.4,1.1c-1.3,0.6-5.7,3.7-7.5,6.1C133.4,52.8,133.1,52.9,132.9,52.9z"/>
	<path class="st1" d="M158.5,86c-0.6,0-1.2-0.1-1.8-0.4c-1.7-0.8-2.8-2.6-3.2-4c-0.1-0.5,0.1-0.9,0.6-1.1s0.9,0.1,1.1,0.6
		c0.3,1,1.1,2.4,2.3,2.9c0.8,0.4,1.6,0.3,2.5-0.1c3.3-1.5,2.9-7.9,2.5-10c-0.1-0.5,0.2-0.9,0.6-1c0.5-0.1,0.9,0.2,1,0.6
		c0,0,0,0,0,0.1c0.3,1.9,0.4,3.8,0.2,5.7c-0.4,3.1-1.6,5.2-3.6,6.2C160,85.8,159.3,86,158.5,86z"/>
	<path class="st1" d="M159,86c-0.5,0-0.9-0.3-0.9-0.8c0-0.5,0.3-0.9,0.8-0.9c3.5-0.5,8.4-3.4,11.1-8c3.1-5.2,2.8-13,2.7-15.3
		c0-0.5,0.3-0.9,0.8-0.9c0.5,0,0.9,0.3,0.9,0.8c0.1,2.4,0.4,10.6-2.9,16.3c-3.1,5.4-8.6,8.3-12.3,8.9L159,86z"/>
	<path class="st1" d="M152.2,143.1c-11,0-20.6-2.3-25.1-4.5c-0.3-0.1-0.5-0.5-0.5-0.8c2.6-50.7,10.1-78.6,10.9-81.7
		c0.1-0.5,0.6-0.7,1-0.6s0.7,0.6,0.6,1c0,0,0,0,0,0c-0.8,3-8.2,30.6-10.8,80.7c3.5,1.6,10.2,3.3,18.2,3.9c6.8,0.5,16.9,0.4,26.8-3.2
		c-0.4-5.3-3.4-41-4-55.3c0-0.5,0.3-0.9,0.8-0.9c0.5,0,0.9,0.3,0.9,0.8c0.6,15.4,4,55.5,4,55.9c0,0.4-0.2,0.7-0.6,0.9
		C167.3,142.1,159.5,143.1,152.2,143.1z"/>
	<path class="st1" d="M180.2,70.1c-0.1,0-0.3,0-0.4-0.1c-2.2-1.1-3.5-3.3-3.4-6c0-1.3,0.3-2.3,0.6-3.5c0.3-1.3,0.7-2.6,0.7-4.2
		c0-2.7-1.6-5.2-3-7.4l-0.4-0.7c-1.8-2.9-0.7-8.3-0.1-9.9c1.3-3.6,2-6.5,1.7-7.8c-0.1-0.5,0.2-0.9,0.7-1c0.5-0.1,0.9,0.2,1,0.7
		c0.4,2.3-1,6.4-1.8,8.7c-0.7,1.8-1.3,6.4-0.1,8.4c0.1,0.2,0.3,0.5,0.4,0.7c1.4,2.3,3.2,5.2,3.2,8.4c0,1.9-0.4,3.4-0.7,4.7
		c-0.3,1-0.5,2-0.6,3.1c0,1.2,0.3,3.3,2.5,4.4c0.4,0.2,0.6,0.7,0.4,1.2C180.8,69.9,180.5,70.1,180.2,70.1L180.2,70.1z"/>
	<path class="st1" d="M151,195.8h-0.4c-2.6,0-5.1-0.5-7.6-1.3c-2.2-0.7-3.1-2.1-3.5-3.1c-0.5-1.3-0.5-2.8,0.2-4.1
		c1.1-2,4.4-4.3,7.9-6.8c3.2-2.2,6.8-4.7,7.3-6.3c0.2-1.7-2.2-20.4-3.8-31.9c-0.1-0.5,0.3-0.9,0.7-1c0.5-0.1,0.9,0.3,1,0.7
		c0,0.1,1.1,7.8,2.1,15.6c2.1,16,1.8,16.7,1.7,17.1c-0.7,2.1-4.2,4.6-8,7.2c-3.2,2.2-6.5,4.5-7.4,6.2c-0.4,0.8-0.5,1.8-0.1,2.7
		c0.4,1,1.2,1.7,2.4,2.1c3.8,1.3,10.7,1.9,13.8-0.3c1.7-1.2,3.8-3.5,5.7-5.4c1.1-1.1,2-2.2,2.9-2.9c1.5-1.4,4.1-3.8,3.4-10.8
		c-0.5-4.6-0.5-13.7-0.6-21.7c0-5.1-0.1-9.5-0.2-11.6c0-0.5,0.3-0.9,0.8-0.9c0.5,0,0.9,0.3,0.9,0.8c0.1,2.1,0.2,6.5,0.2,11.7
		c0.1,7.6,0.1,17,0.6,21.5c0.7,6.9-1.5,9.9-3.9,12.2c-0.8,0.8-1.8,1.8-2.8,2.9c-1.9,2-4.1,4.3-5.9,5.6
		C156.3,195.5,153.3,195.8,151,195.8z"/>
	<path class="st1" d="M144.8,171.8c-0.4,0-0.8-0.3-0.9-0.7l-4.5-29.6c0-0.5,0.3-0.9,0.8-0.9c0.4,0,0.8,0.3,0.9,0.7l4.5,29.6
		c0.1,0.5-0.2,0.9-0.7,1c0,0,0,0,0,0C144.9,171.8,144.9,171.8,144.8,171.8z"/>
	<path class="st1" d="M136.9,192.8c-2.5,0-4.9-0.4-6.6-1.2c-2.4-1.2-4.5-3.8-3.2-6.9c1.2-2.8,4.5-4.7,8.1-6.8
		c2.7-1.5,5.4-3.1,7.5-5.2c0.3-0.3,0.9-0.3,1.2,0c0.3,0.3,0.3,0.9,0,1.2l0,0c-2.3,2.2-5.1,3.8-7.9,5.4c-3.3,1.9-6.4,3.6-7.3,5.9
		c-1,2.3,1,4,2.4,4.6c1.9,0.9,5.2,1.3,8,0.9c0.5-0.1,0.9,0.3,1,0.7c0.1,0.5-0.3,0.9-0.7,1c0,0,0,0,0,0
		C138.6,192.8,137.7,192.8,136.9,192.8z"/>
	<path class="st1" d="M160.2,163c-2.4,0-4.7-0.5-6.2-1.5c-0.4-0.3-0.5-0.8-0.2-1.2c0.3-0.4,0.8-0.5,1.2-0.2c2.1,1.4,7.8,1.7,11,0
		c0.4-0.2,0.9-0.1,1.2,0.3c0.2,0.4,0.1,0.9-0.3,1.2c0,0,0,0,0,0C165,162.5,162.5,163,160.2,163z"/>
	<path class="st1" d="M149,161c-2.6,0-5.5-0.9-6.7-2c-0.4-0.3-0.4-0.9-0.1-1.2c0.3-0.4,0.9-0.4,1.2-0.1c0,0,0,0,0.1,0.1
		c1.2,1.1,5.2,2.1,7.7,1.2c0.4-0.2,0.9,0.1,1.1,0.5c0.2,0.4-0.1,0.9-0.5,1.1c0,0,0,0-0.1,0C150.9,160.9,150,161,149,161z"/>
	<path class="st1" d="M151,198.2c-2.6,0-5.1-0.4-7.6-1.2c-2.5-0.9-3.5-2.2-3.9-3.2c-0.5-1.1-0.5-2.3-0.1-3.4
		c0.2-0.4,0.7-0.7,1.1-0.5c0.4,0.2,0.7,0.7,0.5,1.1c0,0,0,0,0,0c-0.3,0.6-0.2,1.4,0.1,2c0.4,1,1.4,1.8,2.9,2.3
		c4.7,1.6,10.7,1.3,13.5,0c3-1.3,12-10.8,12.9-13.2c0.7-1.7,0.4-3.4-0.6-4.4c-0.4-0.3-0.4-0.9-0.1-1.2s0.9-0.4,1.2-0.1c0,0,0,0,0,0
		c1.6,1.4,2,3.8,1.1,6.3c-1.1,2.8-10.3,12.6-13.8,14.2C156.5,197.8,153.9,198.2,151,198.2z"/>
	<path class="st1" d="M136.5,195.4c-3.3,0-6.1-1-7.5-1.8c-1.5-0.9-2.5-2.5-2.7-4.2c-0.2-1.3,0-2.6,0.6-3.8c0.2-0.4,0.7-0.6,1.2-0.4
		c0.4,0.2,0.6,0.7,0.4,1.2c-0.6,1.2-1,4.2,1.5,5.8c1.6,1,5.7,2.2,9.9,1.2c0.5-0.1,0.9,0.2,1,0.7c0.1,0.5-0.2,0.9-0.6,1
		C139,195.3,137.7,195.4,136.5,195.4z"/>
	<path class="st1" d="M159.7,195.2c-0.4,0-0.8-0.3-0.8-0.7c-0.7-3.8-4.6-5.8-7.7-6.9c-3.7-1.3-7.4-1.5-8.2-1.3
		c-0.5,0.1-0.9-0.2-1-0.7c-0.1-0.5,0.2-0.9,0.7-1c0,0,0,0,0,0c1.1-0.2,5.1,0.1,9,1.4c5.1,1.7,8.1,4.6,8.8,8.2c0.1,0.5-0.2,0.9-0.7,1
		C159.8,195.2,159.8,195.2,159.7,195.2z"/>
	<path class="st1" d="M165.4,189.8c-0.4,0-0.8-0.3-0.8-0.7c-0.4-2.6-2.5-4.4-4.1-5.5c-3.6-2.4-8.5-3.2-10.3-2.8
		c-0.5,0.1-0.9-0.1-1.1-0.6c-0.1-0.5,0.1-0.9,0.6-1.1c0,0,0.1,0,0.1,0c2.4-0.6,7.8,0.5,11.6,3c2.7,1.8,4.4,4.1,4.8,6.6
		c0.1,0.5-0.2,0.9-0.7,1C165.5,189.7,165.5,189.7,165.4,189.8z"/>
	<path class="st1" d="M142.7,186.2c-0.2,0-0.3-0.1-0.5-0.2c-0.6-0.4-6.3-4.3-12-2.6c-0.5,0.1-0.9-0.1-1.1-0.6
		c-0.1-0.5,0.1-0.9,0.6-1.1c6.5-1.9,12.8,2.3,13.5,2.8c0.4,0.3,0.5,0.8,0.2,1.2C143.2,186.1,142.9,186.2,142.7,186.2L142.7,186.2z"
		/>
	<path class="st1" d="M149.4,181c-0.2,0-0.5-0.1-0.6-0.3c-1.7-1.8-5.8-3-9.8-2.7c-0.5,0-0.9-0.3-0.9-0.8s0.3-0.9,0.8-0.9
		c4.6-0.2,9.1,1.1,11.1,3.3c0.3,0.4,0.3,0.9-0.1,1.2C149.8,180.9,149.6,181,149.4,181z"/>
	<path class="st1" d="M131.8,92.6c-0.6,0-1.1-0.5-1.1-1.1c0-0.2,0-0.3,0.1-0.5c3.2-6.7,8.4-14.3,15.5-22.8c0.4-0.5,1.1-0.5,1.6-0.1
		c0.4,0.4,0.5,1.1,0.1,1.5c-6.8,8.2-12.1,15.9-15.2,22.3C132.6,92.4,132.2,92.6,131.8,92.6z"/>
	<path class="st1" d="M159.2,56.7c-0.6,0-1.1-0.5-1.1-1.1c0-0.3,0.1-0.6,0.3-0.8c2.7-2.7,4.8-4.8,7.6-7.4c0.4-0.4,1.2-0.4,1.6,0.1
		c0.4,0.4,0.4,1.2-0.1,1.6c-2.8,2.6-4.9,4.6-7.5,7.3C159.8,56.6,159.5,56.7,159.2,56.7z"/>
	<path class="st1" d="M129.7,109.6L129.7,109.6c-2.8-0.3-4.7-1.2-5.6-2.8c-0.5-0.9-1-2.5,0.1-4.8c0.2-0.5,0.5-1,0.7-1.7
		c3.3-7.6,5.1-11,6.9-10.8c0.5,0,0.8,0.4,0.8,0.9c0,0.5-0.4,0.8-0.9,0.8h0c-0.1,0.1-0.8,0.5-2.4,3.4c-1,2-2.1,4.4-2.9,6.3
		c-0.3,0.6-0.5,1.2-0.7,1.7c-0.6,1.3-0.6,2.4-0.2,3.3c0.6,1,2.1,1.7,4.2,1.9c0.5,0,0.8,0.4,0.8,0.9
		C130.6,109.3,130.2,109.7,129.7,109.6L129.7,109.6z"/>
	<path class="st1" d="M147.9,26.6c-0.2,0-0.5-0.1-0.6-0.3l-2.5-2.6c-0.3-0.4-0.3-0.9,0.1-1.2c0.3-0.3,0.9-0.3,1.2,0l2.5,2.6
		c0.3,0.3,0.3,0.9,0,1.2C148.3,26.5,148.1,26.6,147.9,26.6L147.9,26.6z"/>
</g>
</svg>
