<?xml version="1.0" encoding="utf-8"?>
<!-- Generator: Adobe Illustrator 24.3.0, SVG Export Plug-In . SVG Version: 6.00 Build 0)  -->
<svg version="1.1" id="レイヤー_1" xmlns="http://www.w3.org/2000/svg" xmlns:xlink="http://www.w3.org/1999/xlink" x="0px"
	 y="0px" viewBox="0 0 300 200" style="enable-background:new 0 0 300 200;" xml:space="preserve">
<style type="text/css">
	.st0{fill:#4F513C;}
	.st1{fill:#FFFFFF;}
	.st2{fill:#C24C33;}
	.st3{fill:#2372A8;}
	.st4{fill:#7E8EAC;}
	.st5{fill:#B9A085;}
	.st6{fill:#C8C7C7;}
	.st7{fill:#040000;}
	.st8{fill:none;}
	.st9{fill:#D1B99C;}
</style>
<g>
	<g id="塗り_6_">
		<path class="st0" d="M184,59.3L178.7,77l-2.9-18.6l-1.7,1.6c0,0-6.1,2.7-9.5,6.9l3.1,0.7l2.1,18.6l-8.1,0.1c0,0-1.8,2-1.8,4.4
			c-3.9,0.8-5.6,1.5-9.4-4c0.4,5.4,0.9,15,11.1,18l-2.3,49.3c0,0,8.4,4.9,15.1,5c0.8,1.1,2.5,1.3,2.5,1.3s16.4,0.1,25.6-6.3
			c0-5.2,0.4-18.8,0.4-18.8s-3.1,1.7-3.2,0.9c-0.1-0.9,1.4-6.6,1.4-6.6l-2.4,2.5c0,0-1.1-0.2,0.5-7.5c4.6,0.1,8.4,1.2,10.1-4.1
			c-1-7.5-7.6-45.3-11-49.8C194.8,66.1,191.4,62,184,59.3z"/>
		<path class="st1" d="M114.9,42.7l0.2,12.1l-5.5-0.5l0.3-11.5C109.9,42.8,113.2,43.3,114.9,42.7z"/>
		<polygon class="st1" points="130.8,161.4 130.8,131.1 93.4,124 94.1,153.3 		"/>
		<path class="st2" d="M93,15.8l39.9,3.5c0,0-2.9-13.3-13-16.3s-16.2,0.3-20.3,3.3C95.6,9.4,93,15.8,93,15.8z"/>
		<path class="st3" d="M92.7,29.3c1.5,5.1,8,13.6,19.8,13.5c11.8-0.1,16.1-7.4,17.7-10.1C124.4,32.2,92.7,29.3,92.7,29.3z"/>
		<path class="st1" d="M160.7,177.7c2.5,0.3,5.8,1.3,7.3,4.4c1.6-1.8,4.5-2.3,4.5-2.3c2.1-0.3,4.1,0.8,4.9,2.8
			c1.5,3.3,1.8,4.5,1.8,4.5l17.1-4.2c0,0,1.3-7.3-1.1-10.5c-3.5,2-9.1,4.5-14.9,1.4c-6-0.4-8.8-1.4-8.8-1.4L160.7,177.7z"/>
		<path class="st4" d="M196.6,157.2L196,165l0.2,6.4c0,0-2.6,4.4-8.7,4c-6.1-0.4-7.4-1.7-7.4-1.7s-4.8,0.2-6.8-0.7
			c-2-0.9-3.1-1.3-3.1-1.3l-0.6-6.5l1.1,0.4l-0.7-7.2l4.3,0.4l0.8,1.1c0,0,6.6,0.2,9.9-0.3C188.4,159.2,196.6,157.2,196.6,157.2z"/>
		<path class="st5" d="M196.6,118.8c-2.4,1.2-5,1.1-6.7-2.4s-1.9-6-1.9-6s-9-10.3-12.6-17.6c-3.5-7.3-6.5-12.8-6.5-12.8l-1.2-12.3
			l-3.1-0.7l2.6-3.4c0,0,3,13.2,7.6,21.4c4.6,8.2,9.6,18.1,15.2,24.2c2.4-0.4,4.2-2.8,4.2-2.8L196.6,118.8z"/>
		<path class="st6" d="M158.2,73.5l-0.1-6.8l9.7,0.9l2,20l-8-1.3c0,0,3.4-2.9,3.7-4c0.3-1.1,0.2-4,0-4.3s0.6-1.3-0.2-2.2
			C164.5,74.8,160.7,72.8,158.2,73.5z"/>
		<path class="st7" d="M160,91.1c-0.1,0,2.2-1.1,2.2-1.1l-1.6-1.8L160,91.1z"/>
		<path class="st8" d="M176.3,58.2c2.2,1,7.7,1.2,7.7,1.2l-4.8,18L176.3,58.2z"/>
		<path class="st6" d="M133.3,60.2c-1.1-2.1-2.5-3.6-22-5.9c-17.7-2.1-17.2-2.1-19,0.8c-1.8,2.9-1.6,5.5-1.6,8.8
			s0.4,126.4,0.4,126.4s3.3,1.5,4.4,0.1c0-4.8-0.7-65.9-0.7-65.9l36,7.4l-0.7,65.1c0,0,2.8,2.9,5.1,0.4
			C135.2,190.2,134.4,65.1,133.3,60.2z"/>
		<polygon class="st1" points="130.8,127 95.4,121 95,89.6 130.4,95.1 		"/>
		<path class="st1" d="M130,91.1c0,0,0.4-25.8-0.6-28.8c-1.1-3-13.6-3.2-20.5-4c-6.9-0.8-11.8-2.5-13.4-0.3c-1.6,2.2-1.1,3-1,8.3
			c0.1,5.3,0.3,19.5,0.3,19.5L130,91.1z"/>
		<path class="st1" d="M196.1,185.5c-4.5,2.5-19,5.3-21.5,5.2c-2.5-0.1-5.5-0.9-5.8-1.3c-0.3-0.5-0.6-1-0.8-1.5c0,0-5.1,1-7.9,0.6
			c-2.8-0.4-4-2.8-4.2-4.7c-0.2-1.9,3.1-5.9,5.7-6.4c2.6,0.5,5.6,1.7,6.4,4.8c1.5-1.7,3.2-2.9,5-2.8c1.8,0.1,5.6,3.2,6.1,7.7
			c2.7-0.5,15.1-3.5,17.5-4.9C196.4,183.7,196.1,185.5,196.1,185.5z"/>
		<path class="st1" d="M199.2,124.2c-0.3,1.7-1.5,7.2-0.6,7.5c0.9,0.3,2.9-2.5,2.9-2.5s-1.6,6.7-1.2,6.9c0.4,0.1,2.3-1.4,2.3-1.4
			s1.4,1,3.4-0.7c2-1.7,3-4.6,3.1-6.7s0.4-3.6-0.4-5.6C207.1,123.6,205.3,124.8,199.2,124.2z"/>
		<path class="st1" d="M151.7,89.1c-0.5-5.3,2.4-14.5,6.5-15.6c4.1-1.1,6.7,1.6,7,3.5s1,3,0.2,5.3c-0.8,2.3-4.2,2.8-4.9,4.6
			c-0.7,1.8-0.5,4.2-0.5,4.2S156.5,93,151.7,89.1z"/>
		<path class="st1" d="M163,66.6c0.6-1.8,0-2.7-0.6-4.3c-0.6-1.6-0.6-2.3,0.3-4.1c0.9-1.8,1.6-2.6-0.1-6.5s-3.6-11.2,2.6-19.8
			s20.7-7.7,20.7-7.7s9.2,1.9,11.8,8.9c2.6,7.1,1.3,11.4-1.8,15.1c-0.3,1.4-0.7,2.7-1.2,4c0,0,3.3,3.7,3.4,5.4
			c0.1,1.7-0.4,3.8-0.4,5.8c0,2,2.6,3.3,2.5,5.7c-0.1,2.4-1.2,2-1.2,2s-4.3-5.9-6.5-7.7c-2.2-1.8-8.5-4.1-8.5-4.1l-4.8,18l-2.9-19.2
			c0,0-1.7,0.9-2.2,1.8c-2.1,0.9-8,4.2-9.5,6.9C164.1,66.9,163.5,66.8,163,66.6z"/>
		<path class="st1" d="M93.5,15.7C92.3,18.4,90.8,26,93,29.6c5.3,0.3,37.2,3.2,37.2,3.2s4.3-6.3,2.7-13.4
			C129.4,19.1,93.5,15.7,93.5,15.7z"/>
	</g>
	<path class="st9" d="M178.7,75.7c-0.3-1.1-0.6-2.1-0.9-3.2c-0.2-1.4-0.3-2.7-0.5-4.1c-0.4-3.1-0.8-6.2-1.2-9.2
		c2.8,0,5.5,0.1,8.3,0.1c-0.9,2.9-1.5,5.3-1.9,7c-0.5,2-0.7,3.1-1.4,4.7C180.3,73.1,179.4,74.7,178.7,75.7z"/>
	<g id="線_2_">
		<path class="st7" d="M193.9,42.7c1.2,1.9,1.6,4.1,1.3,6.3c-0.2,2.2-1.5,4.1-3.4,5.1c-3.4,2-7.6,2.5-11.4,1.6
			c-2.1-0.5-4.1-1.5-5.8-2.9c-0.3-0.3-0.8-0.3-1.1,0c-0.3,0.3-0.3,0.8,0,1.1c3.4,2.9,7.9,4.1,12.3,3.6c2.2-0.2,4.4-0.8,6.4-1.9
			c1-0.5,2-1.3,2.8-2.2c0.8-1,1.4-2.1,1.6-3.4c0.6-2.7,0.3-5.7-1.3-8.1C194.7,41.1,193.3,41.8,193.9,42.7L193.9,42.7z"/>
		<path class="st7" d="M172.4,43.6c-2.3-0.2-4.2,1.9-4.2,4.1c0,2.3,1.8,4.2,3.8,4.8c0.9,0.3,1.3-1.2,0.4-1.5
			c-1.4-0.4-2.7-1.7-2.7-3.2c0-1.4,1.2-2.8,2.7-2.6c0.4,0,0.8-0.3,0.8-0.8C173.1,43.9,172.8,43.6,172.4,43.6z"/>
		<path class="st7" d="M178.7,36.9c-0.5,2.9-1.9,5.6-4,7.7c-0.7,0.7,0.4,1.8,1.1,1.1c2.3-2.2,3.9-5.2,4.4-8.3c0.1-0.4-0.1-0.8-0.5-1
			C179.2,36.2,178.8,36.5,178.7,36.9L178.7,36.9z"/>
		<path class="st7" d="M185.1,36.9c0.2,2.1-0.6,4.2-2.2,5.5c-0.3,0.3-0.3,0.8,0,1.1c0.3,0.3,0.8,0.3,1.1,0c2-1.7,3-4.4,2.6-7
			c-0.1-0.4-0.5-0.6-0.9-0.5C185.3,36.1,185.1,36.5,185.1,36.9L185.1,36.9z"/>
		<path class="st7" d="M190,37.1c0.3,1.8-0.2,3.6-1.3,5c-0.3,0.3-0.3,0.8,0,1.1c0.3,0.3,0.8,0.3,1.1,0c1.4-1.8,2.1-4.2,1.7-6.5
			c-0.1-0.4-0.5-0.7-0.9-0.5c0,0,0,0,0,0C190.1,36.3,189.9,36.7,190,37.1L190,37.1z"/>
		<path class="st7" d="M184.7,46.3l-0.2,2c0,0.2,0.1,0.4,0.2,0.5c0.1,0.1,0.3,0.2,0.5,0.2c0.2,0,0.4-0.1,0.5-0.2
			c0.1-0.1,0.2-0.3,0.2-0.5l0.2-2c0-0.4-0.3-0.8-0.8-0.8c-0.2,0-0.4,0.1-0.5,0.2C184.7,45.9,184.7,46.1,184.7,46.3z"/>
		<path class="st7" d="M189.3,46.3c-0.1,0.7-0.1,1.3-0.1,2c0,0.4,0.3,0.8,0.8,0.8c0.2,0,0.4-0.1,0.5-0.2l0.1-0.2
			c0.1-0.1,0.1-0.2,0.1-0.4c0.1-0.7,0.1-1.3,0.1-2c0-0.2-0.1-0.4-0.2-0.5c-0.1-0.1-0.3-0.2-0.5-0.2c-0.2,0-0.4,0.1-0.5,0.2l-0.1,0.2
			C189.4,46,189.3,46.1,189.3,46.3L189.3,46.3z"/>
		<path class="st7" d="M176,55.6l-0.4,4.1c0,0.4,0.3,0.8,0.8,0.8c0.4,0,0.8-0.3,0.8-0.8l0.4-4.1c0-0.4-0.3-0.8-0.8-0.8
			C176.3,54.8,176,55.2,176,55.6z"/>
		<path class="st7" d="M183.3,57l-0.2,2.3c0,0.2,0.1,0.4,0.2,0.5c0.3,0.3,0.8,0.3,1.1,0c0.1-0.1,0.2-0.3,0.2-0.5l0.2-2.3
			c0-0.2-0.1-0.4-0.2-0.5c-0.1-0.1-0.3-0.2-0.5-0.2c-0.2,0-0.4,0.1-0.5,0.2C183.4,56.6,183.3,56.8,183.3,57L183.3,57z"/>
		<path class="st7" d="M175.6,57.6c-1.6,0.6-2.2,2.2-2.6,3.7c-0.5,2-1,4.1-1.4,6.2c-0.2,0.9,0.1,1.6,0.9,2c0.3,0.1,0.6,0.2,0.8,0.3
			c0.1,0,0.3,0.1,0.3,0.1s0.2,0.1,0.1,0.1c0.1,0.1,0,0,0.1,0.1c0,0,0-0.1,0,0c0-0.2,0,0.1,0,0.1c0,0.1,0,0.2,0,0.3
			c-0.1,0.3-0.2,0.6-0.3,0.9c-0.2,0.7-0.4,1.4-0.2,2.1c0.4,1,1.3,1.7,2.1,2.4c0.8,0.8,1.7,1.6,2.6,2.3c0.7,0.6,1.8-0.4,1.1-1.1
			c-0.7-0.6-1.4-1.3-2.1-1.9c-0.3-0.3-0.7-0.6-1-0.9c-0.3-0.3-0.7-0.6-1-0.9c-0.4-0.5-0.3-0.8-0.1-1.4c0.2-0.6,0.4-1.2,0.5-1.8
			c0-0.7-0.3-1.3-0.9-1.6c-0.3-0.1-0.6-0.2-0.9-0.3l-0.3-0.1c-0.1,0-0.2-0.1-0.2-0.1l0,0c-0.1-0.1-0.1-0.1,0,0c0,0,0,0.1,0,0
			c0-0.2,0.1-0.4,0.1-0.6l0.3-1.4l0.6-2.9c0.2-0.9,0.4-1.8,0.7-2.6c0.2-0.6,0.6-1.3,1.2-1.5c0.4-0.1,0.6-0.5,0.5-0.9
			C176.4,57.8,176,57.5,175.6,57.6L175.6,57.6z"/>
		<path class="st7" d="M175.6,59.7c0.5,4.6,0.9,9.2,1.7,13.8c0.2,1.2,0.4,2.4,0.7,3.7c0.2,1,1.7,0.6,1.5-0.4
			c-1-4.4-1.4-8.9-1.9-13.4c-0.1-1.2-0.3-2.4-0.4-3.6c0-0.4-0.3-0.8-0.8-0.8C175.9,58.9,175.6,59.3,175.6,59.7L175.6,59.7z"/>
		<path class="st7" d="M183.3,59.1c-1,6-3,11.8-4.7,17.6c-0.3,1,1.2,1.4,1.5,0.4c1.7-5.8,3.7-11.6,4.7-17.6c0.1-0.4-0.1-0.8-0.5-0.9
			C183.8,58.5,183.4,58.7,183.3,59.1L183.3,59.1z"/>
		<path class="st7" d="M183.9,59.7c0.7,1.5,1.3,3.1,1.8,4.7c0.2,0.8,0.4,1.6,0.6,2.4c0.1,0.4,0.1,0.8,0.2,1.1c0,0.1,0,0.1,0,0.2
			c0,0,0.1-0.1,0,0c-0.1,0.1-0.3,0.2-0.4,0.2c-1.1,0.6-1.8,1.9-2,3.2c0,0.3,0,0.6,0,0.9c0,0.1,0.1,0.2,0.1,0.4
			c0,0.1,0.1,0.2,0.1,0.3c0.1,0.3,0,0.1,0.1,0c-0.2,0.2-0.4,0.4-0.6,0.6c-0.3,0.2-0.6,0.5-0.9,0.7c-1.4,1-2.9,1.9-4.4,2.6
			c-0.9,0.5-0.1,1.8,0.8,1.3c1.4-0.8,2.8-1.6,4.2-2.5c0.7-0.4,1.3-0.9,1.8-1.5c0.3-0.3,0.6-0.7,0.6-1.1c0-0.4-0.2-0.7-0.3-1.1
			c-0.1-0.5,0-1.1,0.3-1.6c0.3-0.5,0.7-0.9,1.2-1.1c0.4-0.2,0.6-0.5,0.8-0.9c0.1-0.4,0.1-0.9,0-1.3c-0.1-0.9-0.3-1.8-0.5-2.7
			c-0.5-2-1.2-3.9-2.1-5.7c-0.2-0.4-0.7-0.5-1-0.3C183.9,58.9,183.7,59.4,183.9,59.7L183.9,59.7z"/>
		<path class="st7" d="M176.5,59.2c2.2,1.2,4.9,1.2,7.4,1c0.4,0,0.8-0.3,0.8-0.8c0-0.4-0.3-0.8-0.8-0.8c-1.3,0.2-2.6,0.2-3.9,0.1
			c-0.9-0.1-1.9-0.4-2.7-0.8C176.4,57.4,175.6,58.7,176.5,59.2L176.5,59.2z"/>
		<path class="st7" d="M185.2,60.9c4.4,1.7,8.3,4.5,11.1,8.2c0.8,1.1,1.5,2.2,2.1,3.4c0.4,0.9,1.8,0.1,1.3-0.8
			c-2.2-4.5-6.1-8.1-10.4-10.5c-1.2-0.7-2.5-1.3-3.8-1.8c-0.4-0.1-0.8,0.1-1,0.5c0,0,0,0,0,0C184.5,60.4,184.8,60.8,185.2,60.9
			L185.2,60.9z"/>
		<path class="st7" d="M152.7,89.4c-0.7-3.7,0.3-7.6,2-10.9c0.7-1.3,1.5-2.7,2.7-3.7c1.3-1.1,3-0.9,4.5-0.3c0.7,0.3,1.4,0.7,1.9,1.2
			c0.2,0.2,0.4,0.4,0.5,0.7c0-0.1,0.1,0.2,0,0.1c0,0.1,0,0.1,0,0.2c0-0.1,0-0.1,0,0c0,0.1,0,0.3,0,0.4c-0.3,1,1.2,1.3,1.5,0.4
			c0.5-1.7-1-3.1-2.4-3.9c-1.6-0.9-3.8-1.5-5.6-0.8s-3,2.4-4,4c-1,1.7-1.8,3.5-2.3,5.4c-0.7,2.5-0.8,5.1-0.4,7.7
			c0.1,0.4,0.5,0.6,0.9,0.5C152.6,90.2,152.8,89.8,152.7,89.4L152.7,89.4z"/>
		<path class="st7" d="M158.2,77.6c0.6-0.3,1.2-0.5,1.9-0.5c0.8,0,1.5,0,2.3,0.2c0.7,0.1,1.3,0.4,1.9,0.7c0.1,0,0.1,0.1,0.2,0.1
			c0.1,0,0.1,0.1,0,0l0.1,0.1c0.1,0.1,0.3,0.3,0.1,0.1c0,0.1,0.1,0.1,0.1,0.2c0,0,0,0,0,0.1c0-0.1-0.1-0.1,0,0c-0.1,0.2,0.1-0.1,0,0
			c0,0,0,0.3,0,0c-0.1,0.4,0.1,0.8,0.5,1c0.4,0.1,0.8-0.1,0.9-0.5c0.3-1.8-1.8-2.7-3.2-3.1c-1.8-0.5-4-0.6-5.6,0.4
			C156.6,76.8,157.4,78.1,158.2,77.6L158.2,77.6z"/>
		<path class="st7" d="M158.4,80.8c0.1-0.1,0.1-0.1,0.2-0.1c0.1,0,0,0,0,0l0.1-0.1c0.1-0.1,0.3-0.2,0.4-0.2c0.1-0.1,0.3-0.1,0.4-0.2
			c0.1-0.1-0.1,0,0,0l0.1,0l0.3-0.1c0.3-0.1,0.7-0.2,1.1-0.3c0.3-0.1,0.6-0.1,1-0.1c0.4,0,0.7,0,1.1,0c0.2,0,0.3,0,0.5,0l0.2,0
			c0.2,0,0,0,0.1,0c0.3,0.1,0.6,0.1,0.9,0.2c0.2,0.1-0.1,0,0,0l0.1,0.1L165,80c0,0,0,0,0.1,0c-0.1-0.1-0.1-0.1,0,0
			c0,0.1,0.1,0.1,0.1,0.1c-0.2-0.2,0-0.1,0,0c0,0.1,0-0.2,0,0c0,0.2,0-0.1,0,0c0,0.1-0.1,0.2,0,0c0,0.1,0,0.1,0,0.2
			c0,0.1,0.1-0.1,0,0.1c0,0.1-0.1,0.2-0.1,0.2c-0.5,0.8,0.8,1.6,1.3,0.8c0.4-0.6,0.5-1.4,0.2-2c-0.3-0.6-1-1-1.7-1.1
			c-1.6-0.5-3.5-0.3-5,0.2c-0.9,0.2-1.7,0.7-2.4,1.3C156.6,80.3,157.7,81.4,158.4,80.8L158.4,80.8z"/>
		<path class="st7" d="M158.8,84.4c0.9-0.8,1.9-1.5,3-2c0.5-0.2,1.1-0.4,1.6-0.6c0.4-0.1,1-0.2,1.4-0.1c0,0,0,0,0,0s0,0.1-0.1,0.2
			c-0.2,0.2-0.4,0.5-0.6,0.6c-0.5,0.5-1,0.9-1.5,1.4c-0.9,0.9-2,1.8-2.6,2.9c-0.6,1.1-0.8,2.5-0.9,3.8c0,1,1.5,1,1.5,0
			c0.1-1.2,0.2-2.4,0.9-3.4c0.8-1.2,2-2.2,3.1-3.1c0.5-0.5,1.2-1,1.5-1.7c0.3-0.7,0.1-1.5-0.5-1.9c-0.6-0.3-1.2-0.4-1.9-0.2
			c-0.7,0.1-1.3,0.3-2,0.5c-1.5,0.6-2.9,1.5-4.1,2.6c-0.3,0.3-0.3,0.8,0,1.1C158.1,84.7,158.5,84.7,158.8,84.4L158.8,84.4z"/>
		<path class="st7" d="M151.4,84.2c-0.5,0.3-0.7,0.7-1,1.1c-0.4,0.5-0.5,1.1-0.5,1.8c0,0.3,0,0.5,0,0.8c0.1,0.3,0.3,0.6,0.5,0.9
			c0.3,0.6,0.7,1.1,1.1,1.5c2.1,1.7,4.9,2.4,7.6,2c1.3-0.2,2.6-0.7,3.8-1.4c0.8-0.5,0.1-1.9-0.8-1.3c-0.8,0.5-1.6,0.8-2.5,1
			c-1,0.3-2.1,0.4-3.1,0.2c-1.1-0.2-2.1-0.5-3-1c-0.9-0.5-1.6-1.3-2-2.2c-0.1-0.2,0,0,0,0c0,0.1,0-0.1,0-0.1c0-0.1,0-0.3,0-0.4
			c0-0.2,0-0.5,0.1-0.7c0.1-0.2,0.3-0.3,0.4-0.5s0.1-0.2,0.3-0.3C153,85,152.2,83.7,151.4,84.2L151.4,84.2z"/>
		<path class="st7" d="M149.9,86.6c-0.4,3.2,0.4,6.6,1.7,9.5c1.1,2.7,2.7,5.2,5.1,7.1c1.4,1.2,3.1,2.2,5.1,2.2c1,0,1-1.5,0-1.5
			c-1.4,0-2.7-0.8-3.8-1.6c-1-0.8-2-1.7-2.7-2.8c-1.7-2.4-2.8-5-3.4-7.9c-0.4-1.6-0.5-3.3-0.3-5c0-0.4-0.3-0.8-0.8-0.8
			C150.2,85.9,149.9,86.2,149.9,86.6L149.9,86.6z"/>
		<path class="st7" d="M159.1,72.7c-0.1-1.1-0.2-2.3-0.3-3.4c-0.1-0.5-0.1-1-0.1-1.5c0-0.2,0-0.4,0-0.6c0,0,0-0.2,0-0.1
			c0,0.1,0-0.1,0-0.1c0,0,0,0,0,0c0,0-0.1,0.1,0,0c0.3-0.3,0.3-0.8,0-1.1c-0.3-0.3-0.8-0.3-1.1,0c-0.8,0.7-0.4,2.2-0.3,3.1
			c0.1,1.2,0.2,2.5,0.4,3.7c0,0.4,0.3,0.8,0.8,0.8C158.7,73.5,159.1,73.1,159.1,72.7L159.1,72.7z"/>
		<path class="st7" d="M158,67.2c3.1,0.5,6.3,0.9,9.5,1.4c0.4,0.1,0.8-0.1,0.9-0.5c0.1-0.4-0.1-0.8-0.5-1c0,0,0,0,0,0
			c-3.2-0.5-6.3-0.9-9.5-1.4c-0.4-0.1-0.8,0.1-0.9,0.5C157.4,66.6,157.6,67.1,158,67.2L158,67.2z"/>
		<path class="st7" d="M167.3,68c0.5,6.1,1.1,12.1,1.8,18.2c0,0.4,0.3,0.8,0.8,0.8c0.4,0,0.8-0.3,0.8-0.8c-0.7-6-1.3-12.1-1.8-18.2
			c0-0.4-0.3-0.8-0.8-0.8C167.7,67.3,167.3,67.6,167.3,68z"/>
		<path class="st7" d="M161.5,87c2.1,0.4,4.3,0.7,6.4,1c0.6,0.1,1.4,0.4,2,0.1c0.7-0.4,0.7-1.2,0.7-1.9c0-0.4-0.3-0.8-0.8-0.8
			c-0.4,0-0.8,0.3-0.8,0.8c0,0.2,0,0.4,0,0.5c0,0.2,0-0.1,0,0.1s0,0.1,0,0.1c0,0,0.2-0.2,0.1-0.1c0.1,0,0.1-0.1,0.2-0.1
			c0,0-0.1,0,0,0c0.2,0-0.1,0-0.1,0l-0.6-0.1l-1.4-0.2c-1.8-0.3-3.6-0.6-5.4-0.9c-0.4-0.1-0.8,0.1-0.9,0.5
			C160.9,86.5,161.1,86.9,161.5,87L161.5,87z"/>
		<path class="st7" d="M164.6,70.1c0,0.1,0,0.1-0.1,0.2c0,0.1,0,0.2,0,0.3c0,0.1,0,0.2,0.1,0.3l0.1,0.2c0.1,0.1,0.2,0.2,0.3,0.2
			c0.1,0,0.3,0,0.4,0c0.1,0,0.3-0.1,0.4-0.2c0.1-0.1,0.1-0.1,0.1-0.2c0-0.1,0.1-0.1,0.1-0.2v0c0-0.2,0-0.3,0-0.5l0,0
			c0-0.1-0.1-0.1-0.1-0.2c0-0.1-0.1-0.1-0.1-0.2c-0.1,0-0.1-0.1-0.2-0.1l-0.2-0.1l0,0c-0.1,0-0.1,0-0.2,0c-0.1,0-0.1,0-0.2,0l0,0
			c-0.1,0-0.2,0.1-0.3,0.1c-0.1,0.1-0.2,0.1-0.2,0.2c-0.1,0.1-0.1,0.2-0.1,0.3c0,0.1,0,0.2,0,0.3l0.1,0.2c0.1,0.1,0.2,0.2,0.3,0.3
			l0.2,0.1c0.1,0,0.3,0,0.4,0h0l-0.2,0l0,0l-0.2,0l0,0L165,71l0,0l-0.2-0.1l0,0l-0.1-0.2v0l-0.1-0.2c0,0,0,0,0,0l0-0.2v0l0-0.2
			c0,0,0,0,0,0L164.6,70.1L164.6,70.1l0.2-0.1l0,0l0.2-0.1l0,0l0.2-0.1l0,0l0.2,0h0l0.2,0l0,0l0.5,1c0-0.1,0-0.1,0.1-0.2
			c0-0.1,0-0.2,0-0.3c0-0.2-0.1-0.4-0.3-0.5c-0.1-0.1-0.2-0.1-0.3-0.1l-0.2,0c-0.1,0-0.3,0-0.4,0.1l-0.2,0.1
			C164.7,69.9,164.7,70,164.6,70.1L164.6,70.1z"/>
		<path class="st7" d="M173.9,59.3c-2.1,0.8-4,1.9-5.8,3.2c-1.6,1.1-3,2.5-4.1,4c-0.2,0.4-0.1,0.8,0.3,1c0.4,0.2,0.8,0.1,1-0.3
			c1.1-1.3,2.3-2.5,3.7-3.5c1.6-1.2,3.4-2.3,5.3-3c0.4-0.1,0.6-0.5,0.5-0.9C174.8,59.4,174.4,59.2,173.9,59.3
			C173.9,59.3,173.9,59.3,173.9,59.3L173.9,59.3z"/>
		<path class="st7" d="M199.5,75c1.5,5.5,2.8,11.1,4,16.7c1.2,5.6,2.3,11.2,3.3,16.8c0.5,3.2,1,6.4,1.5,9.5c0.1,0.4,0.5,0.6,0.9,0.5
			c0.4-0.1,0.6-0.5,0.5-0.9c-0.8-5.7-1.8-11.3-2.8-16.9c-1.1-5.6-2.3-11.2-3.6-16.8c-0.7-3.1-1.5-6.3-2.4-9.4
			C200.7,73.6,199.2,74,199.5,75L199.5,75z"/>
		<path class="st7" d="M194.1,75.7c-0.9,1.5-1.7,3-2.2,4.7c-0.1,0.4,0.1,0.8,0.5,1c0,0,0,0,0,0c0.4,0.1,0.8-0.1,0.9-0.5
			c0.1-0.4,0.3-0.8,0.4-1.2l0.1-0.2c0-0.1,0.1-0.2,0.1-0.3c0.1-0.2,0.2-0.3,0.2-0.5c0.4-0.7,0.8-1.4,1.2-2.1c0.2-0.4,0.1-0.8-0.3-1
			C194.8,75.2,194.4,75.3,194.1,75.7L194.1,75.7z"/>
		<path class="st7" d="M191.4,90.6c0.7,6.8,1.7,13.5,2.9,20.3c0.6,3.3,1.3,6.7,2.1,10c0.1,0.8,0.3,1.5,0.6,2.3
			c0.3,0.7,0.8,1.3,1.5,1.6c0.7,0.3,1.5,0.5,2.3,0.6c0.8,0.1,1.5,0.1,2.3,0c2.8-0.2,6.5-1.8,6.7-5c0-0.4-0.3-0.8-0.8-0.8
			c-0.4,0-0.8,0.3-0.8,0.8c0,0,0,0,0,0c-0.1,1-0.9,1.8-1.7,2.3c-1,0.7-2.2,1.1-3.4,1.2c-0.7,0.1-1.4,0.1-2.1,0
			c-0.7-0.1-1.4-0.1-2-0.5c-0.5-0.3-0.8-0.8-0.9-1.3c-0.2-0.8-0.4-1.5-0.5-2.3c-1.4-6.1-2.6-12.3-3.5-18.6c-0.5-3.5-1-7-1.3-10.5
			c0-0.4-0.3-0.8-0.8-0.8C191.8,89.8,191.4,90.2,191.4,90.6L191.4,90.6z"/>
		<path class="st7" d="M198.4,124.3l-0.6,3.5c-0.2,1.1-0.4,2.2-0.2,3.4c0,0.5,0.2,1,0.6,1.4c0.5,0.5,1.2,0.3,1.6-0.1
			c0.8-0.8,1.4-1.6,2-2.6c0.5-0.8-0.8-1.6-1.3-0.8c-0.3,0.4-0.6,0.9-0.9,1.3c-0.2,0.2-0.3,0.4-0.5,0.6c-0.1,0.1-0.3,0.3-0.4,0.4h0.4
			c0.2,0.2,0.2,0.2,0.1,0.1c0,0,0-0.1,0-0.1c0-0.1-0.1-0.3-0.1-0.4c0-0.2,0-0.5,0-0.7c0-0.6,0.1-1.1,0.2-1.7l0.6-3.8
			c0.1-0.4-0.1-0.8-0.5-0.9C198.9,123.6,198.5,123.8,198.4,124.3L198.4,124.3z"/>
		<path class="st7" d="M200.7,129l-0.7,3.7l-0.4,1.8c-0.1,0.6-0.2,1.2,0.1,1.8c0.3,0.5,1,0.7,1.6,0.5c0.5-0.2,0.9-0.6,1.3-1
			c0.7-0.8,1.3-1.7,1.7-2.7c0.5-1.3,0.8-2.6,0.9-4c0-0.4-0.3-0.8-0.8-0.8c-0.4,0-0.8,0.3-0.8,0.8c-0.3,2.1-0.8,4.5-2.5,5.9
			c-0.1,0.1-0.2,0.1-0.2,0.2s-0.1,0.1-0.2,0.1c0,0,0,0,0.1,0c0.1,0,0.2,0.1,0.2,0.1c0-0.1,0-0.2,0-0.2c0.1-0.6,0.3-1.3,0.4-1.9
			l0.8-3.9c0.1-0.4-0.1-0.8-0.5-1C201.2,128.4,200.8,128.6,200.7,129C200.7,129,200.7,129,200.7,129L200.7,129z"/>
		<path class="st7" d="M205.8,128.9c0,1.3-0.3,2.6-0.8,3.8c-0.4,0.9-1.1,1.9-2.2,1.8c-0.4,0-0.8,0.3-0.8,0.8c0,0.4,0.3,0.8,0.8,0.8
			c1.6,0.1,2.8-1.1,3.5-2.4c0.7-1.5,1-3.1,1.1-4.7C207.4,127.9,205.9,127.9,205.8,128.9z"/>
		<path class="st7" d="M208.3,122.4c0.3,3.8,0.1,8.1-2.9,10.8c-0.7,0.7,0.3,1.7,1.1,1.1c3.4-3,3.8-7.7,3.4-11.9
			c0-0.4-0.3-0.8-0.8-0.8C208.6,121.6,208.3,122,208.3,122.4L208.3,122.4z"/>
		<path class="st7" d="M162.5,88.8c-0.5,8.4-1.1,16.9-1.6,25.3c-0.5,8.5-1.1,17.1-1.6,25.6c-0.3,4.7-0.6,9.4-0.9,14
			c-0.1,1,1.5,1,1.5,0c0.5-8.4,1.1-16.9,1.6-25.3c0.5-8.5,1.1-17.1,1.6-25.6c0.3-4.7,0.6-9.4,0.9-14
			C164.1,87.8,162.5,87.8,162.5,88.8L162.5,88.8z"/>
		<path class="st7" d="M158.9,154.7c4.7,2.7,9.9,4.5,15.4,5.2c0.4,0,0.8-0.3,0.8-0.8c0-0.4-0.3-0.8-0.8-0.8
			c-5.1-0.7-10.1-2.4-14.6-5C158.8,152.9,158.1,154.2,158.9,154.7L158.9,154.7z"/>
		<path class="st7" d="M175.3,93.8c-0.4,8.6-0.6,17.2-0.7,25.8s-0.1,17.1-0.2,25.7c0,4.9-0.1,9.9-0.1,14.8c0,1,1.5,1,1.5,0
			c0.1-8.7,0.1-17.5,0.2-26.2c0-8.5,0.1-17.1,0.3-25.6c0.1-4.9,0.3-9.7,0.5-14.5C176.8,92.9,175.3,92.9,175.3,93.8z"/>
		<path class="st7" d="M179.1,76.6c-2.1,0.7-2.8,2.9-3.1,4.9c-0.3,2.1-0.3,4.2-0.4,6.3c-0.1,1,1.5,1,1.5,0c0.1-1.9,0.1-3.8,0.3-5.8
			c0.1-1.4,0.5-3.4,2-4c0.4-0.1,0.6-0.5,0.5-0.9C179.9,76.7,179.5,76.5,179.1,76.6L179.1,76.6z"/>
		<path class="st7" d="M175.1,161c3.9,0.1,7.9-0.2,11.7-0.9c2-0.3,3.9-0.8,5.8-1.3c1.8-0.4,3.6-1,5.3-1.6c1.8-0.7,3.6-1.5,5-2.7
			c0.3-0.3,0.3-0.8,0-1.1c-0.3-0.3-0.8-0.3-1.1,0c-1.2,1-2.6,1.7-4,2.2c-1.7,0.6-3.4,1.2-5.2,1.6c-3.7,1-7.4,1.7-11.2,2
			c-2.1,0.2-4.3,0.2-6.4,0.2C174.1,159.5,174.1,161,175.1,161L175.1,161z"/>
		<path class="st7" d="M201.4,136.1c0.3,6,0.2,11.9,0.3,17.9c0,1,1.5,1,1.5,0c-0.1-6,0-11.9-0.3-17.9
			C202.9,135.1,201.4,135.1,201.4,136.1z"/>
		<path class="st7" d="M162.5,89.8c-0.1-0.4-0.3-0.8-0.4-1.2c-0.1-0.2-0.2-0.3-0.3-0.5c-0.1-0.2-0.4-0.4-0.6-0.6
			c-0.2-0.1-0.4-0.1-0.6-0.1c-0.2,0.1-0.4,0.2-0.5,0.4c-0.2,0.4-0.1,0.8,0.3,1c0,0,0,0,0,0c0,0,0.1,0,0.1,0.1l-0.2-0.1
			c0.1,0.1,0.1,0.1,0.2,0.2l-0.1-0.2c0.1,0.2,0.2,0.4,0.3,0.5l-0.1-0.2c0.1,0.3,0.2,0.6,0.3,1c0.1,0.2,0.2,0.4,0.4,0.5
			c0.2,0.1,0.4,0.1,0.6,0.1c0.2-0.1,0.4-0.2,0.5-0.4C162.6,90.2,162.6,90,162.5,89.8L162.5,89.8z"/>
		<path class="st7" d="M181.3,86c-0.3,0-0.7,0.1-1,0.2c-0.4,0.2-0.6,0.5-0.7,1c0,0.1,0,0.2,0,0.3c0,0.1,0,0.2,0,0.3
			c0.1,0.3,0.2,0.5,0.4,0.7c0.2,0.2,0.4,0.4,0.7,0.4c0.1,0,0.3,0.1,0.4,0.1c0.1,0,0.3,0,0.4-0.1c0.2-0.1,0.4-0.2,0.5-0.3
			c0,0,0.1-0.1,0.1-0.2c0-0.1,0.1-0.1,0.1-0.2c0.1-0.3,0.2-0.6,0.2-0.9c0-0.3-0.1-0.6-0.2-0.9C182.1,86.2,181.7,86,181.3,86
			c-0.2,0-0.4,0.1-0.5,0.2c-0.3,0.3-0.3,0.8,0,1.1c0.1,0.1,0.3,0.2,0.5,0.2h0.1l-0.2,0c0,0,0.1,0,0.1,0l-0.2-0.1c0,0,0.1,0,0.1,0.1
			l-0.2-0.1c0,0,0.1,0.1,0.1,0.1l-0.1-0.2c0,0,0.1,0.1,0.1,0.1l-0.1-0.2c0,0.1,0,0.1,0.1,0.2l0-0.2c0,0.1,0,0.2,0,0.3l0-0.2
			c0,0.1,0,0.2-0.1,0.3l0.1-0.2c0,0.1-0.1,0.1-0.1,0.2l0.1-0.2c0,0-0.1,0.1-0.1,0.1l0.2-0.1c0,0-0.1,0-0.1,0.1l0.2-0.1
			c0,0-0.1,0-0.1,0l0.2,0c-0.1,0-0.1,0-0.2,0l0.2,0c-0.1,0-0.1,0-0.2-0.1l0.2,0.1c-0.1,0-0.1-0.1-0.2-0.1l0.2,0.1
			c-0.1,0-0.1-0.1-0.1-0.1l0.1,0.2c0-0.1-0.1-0.1-0.1-0.2l0.1,0.2c0-0.1,0-0.1-0.1-0.2l0,0.2c0-0.1,0-0.1,0-0.2l0,0.2
			c0-0.1,0-0.1,0-0.2l-0.1,0.2c0-0.1,0.1-0.1,0.1-0.1l-0.1,0.2c0,0,0.1-0.1,0.1-0.1l-0.2,0.1c0.1,0,0.1-0.1,0.2-0.1l-0.2,0.1
			c0.1,0,0.2-0.1,0.3-0.1l-0.2,0c0.1,0,0.2,0,0.2,0c0.2,0,0.4-0.1,0.5-0.2c0.1-0.1,0.2-0.3,0.2-0.5c0-0.2-0.1-0.4-0.2-0.5
			C181.7,86.1,181.5,86,181.3,86L181.3,86z"/>
		<path class="st7" d="M180.6,103.4c-0.1,0-0.3,0.1-0.4,0.1c-0.1,0.1-0.2,0.1-0.3,0.2c-0.2,0.2-0.3,0.4-0.4,0.7
			c-0.1,0.3,0,0.6,0,0.8c0.1,0.3,0.2,0.5,0.4,0.7c0.1,0.1,0.1,0.1,0.2,0.2c0,0,0.1,0,0.1,0.1c0.2,0.1,0.4,0.1,0.6,0.2
			c0.1,0,0.3,0,0.4,0c0.1,0,0.3-0.1,0.4-0.2c0.2-0.2,0.4-0.4,0.5-0.7c0.1-0.2,0.1-0.5,0.1-0.7c0-0.1,0-0.3-0.1-0.4
			c0-0.1-0.1-0.2-0.1-0.3c0,0,0-0.1-0.1-0.1c-0.1-0.2-0.2-0.3-0.4-0.4c-0.1,0-0.1-0.1-0.2-0.1c-0.1,0-0.1-0.1-0.2-0.1
			C181.1,103.4,180.9,103.4,180.6,103.4c-0.1,0.2-0.2,0.3-0.3,0.5c-0.1,0.4,0.1,0.8,0.5,1c0,0,0,0,0,0c0,0,0.1,0,0.1,0l-0.2-0.1
			c0,0,0.1,0,0.1,0.1l-0.2-0.1c0,0,0.1,0.1,0.1,0.1l-0.1-0.2c0,0,0.1,0.1,0.1,0.1l-0.1-0.2c0,0.1,0,0.1,0.1,0.2l0-0.2
			c0,0.1,0,0.2,0,0.3l0-0.2c0,0.1,0,0.2-0.1,0.2l0.1-0.2c0,0.1-0.1,0.1-0.1,0.2l0.1-0.2c0,0-0.1,0.1-0.1,0.1l0.2-0.1
			c0,0-0.1,0-0.1,0.1l0.2-0.1c0,0-0.1,0-0.1,0l0.2,0c-0.1,0-0.1,0-0.2,0l0.2,0c0,0-0.1,0-0.1,0l0.2,0.1c0,0-0.1,0-0.1-0.1l0.2,0.1
			c0,0-0.1-0.1-0.1-0.1l0.1,0.2c0-0.1-0.1-0.1-0.1-0.2l0.1,0.2c0-0.1-0.1-0.2-0.1-0.2l0,0.2c0-0.1,0-0.2,0-0.3l0,0.2
			c0-0.1,0-0.1,0.1-0.2l-0.1,0.2c0-0.1,0.1-0.1,0.1-0.2l-0.1,0.2c0,0,0.1-0.1,0.1-0.1l-0.2,0.1c0,0,0.1,0,0.1-0.1l-0.2,0.1
			c0,0,0.1,0,0.1,0c0.2-0.1,0.4-0.2,0.5-0.4c0.1-0.2,0.1-0.4,0.1-0.6c-0.1-0.2-0.2-0.4-0.4-0.5l-0.2-0.1
			C180.9,103.4,180.7,103.4,180.6,103.4L180.6,103.4z"/>
		<path class="st7" d="M181.5,119.6c-0.2,0-0.4,0-0.5,0c-0.2,0-0.4,0.1-0.5,0.2c-0.1,0.1-0.2,0.2-0.4,0.3c-0.1,0.1-0.2,0.2-0.3,0.3
			c0,0.1-0.1,0.1-0.1,0.2c0,0.1-0.1,0.1-0.1,0.2c0,0.1,0,0.2,0,0.3c0,0,0,0.1,0,0.1c0,0.1,0,0.2,0,0.3c0,0.1,0.1,0.2,0.1,0.3
			c0.1,0.1,0.1,0.2,0.2,0.3c0.1,0.1,0.2,0.2,0.3,0.3c0.1,0.1,0.2,0.1,0.4,0.2c0.3,0.1,0.6,0.1,0.8,0c0.3-0.1,0.5-0.2,0.7-0.4
			c0.2-0.2,0.3-0.4,0.4-0.7c0-0.1,0-0.3,0-0.4c0-0.2-0.1-0.4-0.1-0.5c-0.1-0.3-0.3-0.6-0.6-0.7c-0.2-0.1-0.4-0.1-0.6-0.1
			c-0.2,0.1-0.4,0.2-0.5,0.4c-0.1,0.2-0.1,0.4-0.1,0.6c0.1,0.2,0.2,0.4,0.4,0.5l0.1,0.1l-0.2-0.1c0,0,0.1,0.1,0.1,0.1l-0.1-0.2
			c0,0.1,0.1,0.1,0.1,0.2l-0.1-0.2c0,0.1,0,0.1,0.1,0.2l0-0.2c0,0.1,0,0.2,0,0.2l0-0.2c0,0.1,0,0.1-0.1,0.2l0.1-0.2
			c0,0.1-0.1,0.1-0.1,0.2l0.1-0.2c0,0-0.1,0.1-0.1,0.1l0.2-0.1c0,0-0.1,0.1-0.1,0.1l0.2-0.1c-0.1,0-0.1,0-0.2,0.1l0.2,0
			c-0.1,0-0.1,0-0.2,0l0.2,0c-0.1,0-0.2,0-0.2-0.1l0.2,0.1c-0.1,0-0.1-0.1-0.2-0.1l0.2,0.1c-0.1,0-0.1-0.1-0.1-0.1l0.1,0.2
			c0,0-0.1-0.1-0.1-0.1l0.1,0.2c0-0.1,0-0.1,0-0.2l0,0.2c0-0.1,0-0.1,0-0.2l0,0.2c0-0.1,0-0.1,0.1-0.2l-0.1,0.2
			c0-0.1,0.1-0.1,0.1-0.2l-0.1,0.2c0.1-0.1,0.1-0.1,0.2-0.2l-0.2,0.1c0.1,0,0.1-0.1,0.2-0.1l-0.2,0.1c0.1,0,0.1,0,0.2-0.1l-0.2,0
			c0.1,0,0.1,0,0.2,0l-0.2,0h0.1c0.2,0.1,0.4,0,0.6-0.1c0.4-0.2,0.5-0.7,0.3-1.1C181.9,119.8,181.7,119.6,181.5,119.6L181.5,119.6z"
			/>
		<path class="st7" d="M181.2,136c-0.2,0-0.3,0-0.5,0.1c-0.1,0-0.2,0.1-0.3,0.1l-0.1,0.1c-0.6,0.4-0.8,1-0.7,1.7
			c0,0.1,0,0.1,0.1,0.2c0,0.1,0.1,0.1,0.1,0.2c0.1,0.1,0.2,0.2,0.3,0.3c0.2,0.1,0.3,0.2,0.5,0.3c0.2,0,0.4,0,0.5,0c0,0,0.1,0,0.1,0
			c0.1,0,0.2-0.1,0.3-0.1c0.2-0.1,0.3-0.2,0.4-0.4c0.2-0.2,0.3-0.4,0.4-0.7c0.1-0.3,0-0.7-0.1-1c-0.2-0.3-0.4-0.5-0.7-0.7
			c-0.2-0.1-0.4-0.1-0.6-0.1c-0.2,0.1-0.4,0.2-0.5,0.4c-0.1,0.2-0.1,0.4-0.1,0.6c0.1,0.2,0.2,0.4,0.4,0.5c0.1,0,0.1,0.1,0.2,0.1
			l-0.2-0.1c0.1,0.1,0.1,0.1,0.2,0.2l-0.1-0.2c0,0,0.1,0.1,0.1,0.1l-0.1-0.2c0,0,0,0.1,0,0.1l0-0.2c0,0,0,0.1,0,0.1l0-0.2
			c0,0.1,0,0.1,0,0.2l0.1-0.2c0,0.1-0.1,0.1-0.1,0.2l0.1-0.2c-0.1,0.1-0.1,0.1-0.2,0.2l0.2-0.1c-0.1,0.1-0.1,0.1-0.2,0.1l0.2-0.1
			c0,0-0.1,0-0.1,0l0.2,0h-0.1l0.2,0c0,0-0.1,0-0.1,0l0.2,0.1c0,0-0.1,0-0.1-0.1l0.2,0.1c0,0-0.1-0.1-0.1-0.1l0.1,0.2
			c0-0.1-0.1-0.1-0.1-0.2l0.1,0.2c0-0.1,0-0.1-0.1-0.2l0,0.2c0-0.1,0-0.1,0-0.2l0,0.2c0-0.1,0-0.1,0.1-0.2l-0.1,0.2
			c0-0.1,0.1-0.1,0.1-0.2l-0.1,0.2c0,0,0.1-0.1,0.1-0.1l-0.2,0.1c0.1,0,0.1-0.1,0.2-0.1l-0.2,0.1c0.1,0,0.1,0,0.2-0.1l-0.2,0
			c0,0,0.1,0,0.1,0c0.2,0,0.4-0.1,0.5-0.2c0.3-0.3,0.3-0.8,0-1.1C181.6,136.1,181.4,136.1,181.2,136L181.2,136z"/>
		<path class="st7" d="M166.7,64.3c1.6,6.6,3.9,12.9,6.7,19.1c2.8,6.2,6.1,12.1,9.9,17.7c2,2.9,4.1,5.7,6.3,8.4
			c0.3,0.3,0.8,0.3,1.1,0c0.3-0.3,0.3-0.8,0-1.1c-4.1-4.9-7.6-10.1-10.7-15.6c-3.3-5.9-6.2-12-8.5-18.3c-1.3-3.5-2.4-7-3.2-10.6
			C167.9,63,166.4,63.4,166.7,64.3L166.7,64.3z"/>
		<path class="st7" d="M168.7,80.3c1.9,4.3,3.9,8.5,6.1,12.6c2.2,4.1,4.7,8.1,7.5,11.9c1.6,2.1,3.3,4.1,5.1,6
			c0.7,0.7,1.8-0.4,1.1-1.1c-3.2-3.3-6-7-8.5-10.8c-2.5-3.9-4.7-8-6.7-12.2c-1.1-2.3-2.2-4.7-3.3-7.1c-0.2-0.4-0.7-0.5-1-0.3
			C168.6,79.5,168.5,80,168.7,80.3L168.7,80.3z"/>
		<path class="st7" d="M187.5,110.6c0.2,1.3,0.6,2.7,1,4c0.3,1.2,0.9,2.4,1.6,3.4c0.8,1.1,1.8,2.2,3.2,2.4c1.1,0.2,2.1,0.1,3.1-0.3
			c0.4-0.1,0.6-0.5,0.5-1c-0.1-0.4-0.5-0.6-0.9-0.5c-0.8,0.3-1.6,0.4-2.4,0.3c-1-0.2-1.9-1.2-2.4-2.1c-1.2-2-1.7-4.4-2.1-6.6
			c-0.1-0.4-0.5-0.6-0.9-0.5C187.6,109.7,187.3,110.1,187.5,110.6L187.5,110.6L187.5,110.6z"/>
		<path class="st7" d="M188.4,111.1c2-0.8,4-1.7,5.9-2.7c0.4-0.2,0.5-0.7,0.3-1c-0.2-0.4-0.7-0.5-1-0.3l0,0
			c-0.9,0.5-1.8,0.9-2.7,1.3c-0.5,0.2-1,0.5-1.5,0.7c-0.5,0.2-0.8,0.4-1.3,0.6c-0.4,0.1-0.6,0.5-0.5,0.9
			C187.6,111,188,111.2,188.4,111.1C188.4,111.1,188.4,111.1,188.4,111.1L188.4,111.1z"/>
		<path class="st7" d="M179.1,160.3c0.1,2.3,0,4.5,0.3,6.8c0.1,0.4,0.5,0.6,0.9,0.5c0.4-0.1,0.6-0.5,0.5-1c-0.3-2.1-0.2-4.3-0.3-6.4
			C180.6,159.3,179.1,159.3,179.1,160.3L179.1,160.3z"/>
		<path class="st7" d="M195.1,158l0.1,6.8c0,1,1.5,1,1.5,0l-0.1-6.8C196.7,157,195.1,157,195.1,158L195.1,158z"/>
		<path class="st7" d="M179,167.5c1.7,1.6,4.1,1.5,6.3,1.3c2.4-0.2,4.8-0.7,7.1-1.4c1.3-0.4,2.5-1,3.7-1.6c0.9-0.5,0.1-1.8-0.8-1.3
			c-2.5,1.3-5.2,2.1-8,2.6c-1.3,0.2-2.7,0.3-4,0.3c-1.1,0-2.4-0.1-3.3-1C179.4,165.7,178.3,166.8,179,167.5L179,167.5z"/>
		<path class="st7" d="M178.5,166.6c0,1.8,0.1,3.6,0.2,5.5c0,0.4,0.1,0.8,0.2,1.3c0.2,0.5,0.5,0.8,0.9,1.1c0.7,0.5,1.4,0.8,2.2,1.1
			c3.1,1.1,6.8,0.7,9.9-0.5c1.8-0.7,3.4-1.7,4.8-3c0.7-0.7-0.4-1.7-1.1-1.1c-2.2,2-4.9,3.2-7.8,3.5c-1.5,0.2-3,0.1-4.4-0.2
			c-0.7-0.2-1.4-0.4-2-0.7c-0.3-0.1-0.6-0.3-0.9-0.5c-0.3-0.2-0.2-0.6-0.3-0.9c-0.2-1.8-0.2-3.7-0.2-5.5
			C180,165.6,178.5,165.6,178.5,166.6L178.5,166.6z"/>
		<path class="st7" d="M195.3,164.8c0.4,2.1,0.2,4.3,0.2,6.4c0,1,1.5,1,1.5,0c0-2.3,0.2-4.5-0.2-6.8c-0.1-0.4-0.5-0.6-0.9-0.5
			C195.5,164,195.2,164.4,195.3,164.8L195.3,164.8z"/>
		<path class="st7" d="M169.3,158.9c0.4,2.3,0.6,4.6,0.8,7c0,1,1.6,1,1.5,0c-0.1-2.5-0.4-4.9-0.8-7.4c-0.1-0.4-0.5-0.6-0.9-0.5
			C169.4,158.1,169.1,158.5,169.3,158.9L169.3,158.9z"/>
		<path class="st7" d="M169.9,166.4c2.6,2,6,1.9,9,1.4c0.4-0.1,0.7-0.5,0.5-1c0,0,0,0,0,0c-0.1-0.4-0.5-0.6-1-0.5
			c-2.6,0.4-5.6,0.5-7.8-1.3c-0.4-0.2-0.8-0.1-1,0.3C169.4,165.8,169.5,166.2,169.9,166.4L169.9,166.4z"/>
		<path class="st7" d="M168.9,165.5c-0.2,1.4-0.1,2.8,0.1,4.2c0.1,0.7,0.3,1.4,0.5,2.1c0.3,0.8,0.7,1.1,1.5,1.4
			c2.7,1.1,5.7,1.9,8.6,1.1c1-0.3,0.5-1.8-0.4-1.5c-2.5,0.7-5.1,0-7.4-0.9c-0.2-0.1-0.5-0.2-0.7-0.3c-0.1-0.1-0.2-0.4-0.2-0.6
			c-0.2-0.6-0.3-1.2-0.4-1.8c-0.2-1.2-0.2-2.5,0-3.7c0-0.4-0.3-0.8-0.8-0.8C169.2,164.8,168.9,165.1,168.9,165.5L168.9,165.5z"/>
		<path class="st7" d="M181,174.5c-2.3,2-5.3,2.8-8.1,4c-0.7,0.3-1.4,0.6-2.1,1c-0.6,0.3-1.2,0.6-1.8,1c-1.3,0.9-2.2,2.4-2.3,4.1
			c-0.1,1.7,0.3,3.7,1.3,5.1c0.2,0.4,0.7,0.5,1,0.3c0.4-0.2,0.5-0.7,0.3-1c-0.9-1.2-1.1-2.6-1.1-4c0-1.3,0.7-2.6,1.8-3.3
			c1.2-0.7,2.4-1.4,3.7-1.9c1.3-0.6,2.7-1,4-1.6c1.5-0.6,2.9-1.5,4.2-2.6C182.9,174.9,181.8,173.8,181,174.5L181,174.5z"/>
		<path class="st7" d="M168.6,190.2c3.1,1.8,7,1.3,10.4,0.8c1.8-0.2,3.5-0.7,5.3-1c2-0.4,4-0.7,5.9-1.3c2.1-0.7,4.3-1.4,6.2-2.6
			c0.8-0.5,0.1-1.8-0.8-1.3c-3.3,1.9-7.1,2.9-10.9,3.6c-1.7,0.3-3.5,0.8-5.2,1c-1.7,0.3-3.3,0.4-5,0.5c-1.8,0-3.6-0.1-5.2-1
			C168.6,188.3,167.8,189.7,168.6,190.2L168.6,190.2z"/>
		<path class="st7" d="M194.9,173.4c0.9,3.8,1.3,8,0.5,11.8c-0.1,0.4,0.1,0.8,0.5,0.9c0.4,0.1,0.8-0.1,1-0.5c0,0,0,0,0,0
			c0.8-4.2,0.5-8.5-0.5-12.6C196.1,172.1,194.6,172.5,194.9,173.4L194.9,173.4z"/>
		<path class="st7" d="M170.3,187.9c3.1,1.1,6.3,0.6,9.4,0c3.1-0.6,6.2-1.3,9.3-2.1c1.6-0.4,3.3-0.9,4.9-1.4c0.4-0.1,0.6-0.5,0.5-1
			c-0.1-0.4-0.5-0.6-0.9-0.5c-2.8,1-5.7,1.7-8.6,2.3c-1.5,0.3-3.1,0.6-4.6,1c-1.5,0.4-3,0.6-4.5,0.8c-1.7,0.2-3.4,0-5-0.6
			c-0.4-0.1-0.8,0.1-0.9,0.5C169.7,187.4,169.9,187.8,170.3,187.9L170.3,187.9z"/>
		<path class="st7" d="M172.5,180.6c0.7,0,1.4,0.1,2.1,0.4c-0.1,0,0.1,0.1,0.1,0.1c0.1,0,0.2,0.1,0.2,0.1c0.1,0.1,0.3,0.2,0.4,0.3
			c0.3,0.2,0.5,0.5,0.8,0.7c1,1.3,1.8,2.7,2.3,4.3c0.3,0.9,1.8,0.5,1.5-0.4c-0.5-1.9-1.5-3.6-2.7-5.1c-0.6-0.6-1.3-1.2-2.1-1.5
			c-0.8-0.3-1.6-0.4-2.5-0.4c-0.4,0-0.8,0.3-0.8,0.8C171.7,180.2,172.1,180.6,172.5,180.6L172.5,180.6z"/>
		<path class="st7" d="M177.2,178.4c0.1,0,0.3,0.1,0.4,0.1l0.2,0.1l0,0l0.1,0c0.3,0.1,0.5,0.3,0.8,0.4s0.5,0.3,0.7,0.5l0.2,0.1
			c0.1,0.1-0.1-0.1,0,0l0.1,0.1c0.1,0.1,0.2,0.2,0.3,0.3c0.3,0.3,0.8,0.3,1.1-0.1c0.3-0.3,0.3-0.7,0-1c-1-0.9-2.1-1.6-3.4-2
			c-0.4-0.1-0.8,0.1-1,0.5c0,0,0,0,0,0C176.6,177.9,176.8,178.3,177.2,178.4z"/>
		<path class="st7" d="M180.1,177.2l2.5,1.4c0.4,0.2,0.8,0.1,1.1-0.3c0.2-0.4,0.1-0.8-0.3-1.1l-2.5-1.4c-0.4-0.2-0.8-0.1-1.1,0.2
			C179.6,176.5,179.7,177,180.1,177.2C180,177.2,180.1,177.2,180.1,177.2L180.1,177.2z"/>
		<path class="st7" d="M171.1,171.9c-2.8,1.7-5.7,3.1-8.7,4.2c-1.3,0.5-2.6,1.1-3.8,1.9c-1.3,0.9-2.3,2.1-2.9,3.6
			c-0.8,1.7-0.7,3.6,0.2,5.2c0.5,0.9,1.8,0.1,1.3-0.8c-0.7-1.2-0.7-2.6-0.1-3.8c0.5-1.2,1.4-2.2,2.5-3c1.1-0.7,2.2-1.3,3.4-1.7
			c1.4-0.6,2.8-1.1,4.2-1.8c1.6-0.8,3.1-1.6,4.7-2.5C172.7,172.7,171.9,171.4,171.1,171.9L171.1,171.9z"/>
		<path class="st7" d="M156,186.8c1,1.6,2.9,2.2,4.7,2.4c2.3,0.3,4.6,0.1,6.8-0.6c1-0.3,0.5-1.7-0.4-1.5c-2,0.6-4,0.8-6.1,0.6
			c-1.3-0.1-3-0.5-3.7-1.7C156.8,185.2,155.4,186,156,186.8L156,186.8z"/>
		<path class="st7" d="M157.5,184.9c2.7,1.8,6.1,2.2,9.2,1.3c0.9-0.3,0.5-1.8-0.4-1.5c-2.7,0.8-5.7,0.4-8-1.2
			C157.5,183.1,156.7,184.4,157.5,184.9z"/>
		<path class="st7" d="M160.7,178.5c1.4-0.1,2.8,0.2,4,0.9c1.2,0.7,2.1,1.7,2.6,2.9c0.1,0.4,0.5,0.6,0.9,0.5
			c0.4-0.1,0.6-0.5,0.5-0.9c0,0,0,0,0,0c-0.6-1.6-1.7-3-3.2-3.8c-1.5-0.8-3.2-1.2-4.9-1.1C159.7,177,159.7,178.5,160.7,178.5
			L160.7,178.5z"/>
		<path class="st7" d="M166.8,176.3c0.3,0.1,0.6,0.1,0.9,0.2c0.1,0,0.3,0.1,0.4,0.1l0.1,0c0.1,0,0.1,0.1,0.2,0.1
			c0.3,0.1,0.5,0.3,0.8,0.4c0.1,0.1,0.2,0.2,0.4,0.2c0,0,0.2,0.2,0.1,0c0.1,0,0.1,0.1,0.2,0.1c0.3,0.3,0.8,0.3,1.1,0
			c0.3-0.3,0.3-0.8,0-1.1c-1-0.9-2.3-1.5-3.6-1.7c-0.4-0.1-0.8,0.1-0.9,0.5C166.1,175.8,166.4,176.2,166.8,176.3L166.8,176.3
			L166.8,176.3z"/>
		<path class="st7" d="M169.3,175c0.3,0.1,0.6,0.2,0.8,0.3c0,0,0.3,0.1,0.1,0c0.1,0,0.1,0.1,0.2,0.1l0.4,0.2
			c0.3,0.1,0.5,0.3,0.8,0.4c0.1,0.1,0.2,0.2,0.4,0.2l0.2,0.1c0,0,0.2,0.2,0.1,0c0.1,0.1,0.3,0.2,0.5,0.2c0.2,0,0.4-0.1,0.5-0.2
			c0.3-0.3,0.3-0.8,0-1.1c-1.1-0.8-2.3-1.5-3.5-1.9c-0.4-0.1-0.8,0.1-0.9,0.5C168.7,174.5,168.9,174.9,169.3,175L169.3,175z"/>
		<path class="st7" d="M178.4,24c-6.8,0.7-13.2,5-16.1,11.2c-1.5,3.3-2.2,6.9-1.8,10.5c0.2,1.8,0.6,3.6,1.3,5.4
			c0.6,1.6,1.8,3.5,1.1,5.3c-0.3,0.8-0.9,1.5-1.3,2.3c-0.5,0.9-0.6,1.9-0.3,2.8c0.3,0.9,1,1.7,1.4,2.6c0.2,0.5,0.4,1.4-0.1,1.7
			c-0.4,0.2-0.5,0.7-0.3,1c0.2,0.4,0.7,0.5,1,0.3c1.5-1,1.1-3,0.3-4.3c-0.4-0.7-1-1.4-1.1-2.2c-0.1-0.7,0.3-1.4,0.7-2
			c0.4-0.7,0.9-1.5,1.1-2.3c0.2-1,0.1-1.9-0.2-2.9c-0.3-1-0.7-1.9-1.1-2.8c-0.3-0.8-0.6-1.6-0.8-2.5c-0.8-3.4-0.7-7,0.4-10.4
			c1.1-3.2,3-6,5.6-8.2c2.8-2.3,6.3-3.8,9.9-4.2c0.4,0,0.8-0.3,0.8-0.8C179.1,24.4,178.8,24,178.4,24L178.4,24z"/>
		<path class="st7" d="M183.2,25.3c4.4-0.2,8.6,1.6,11.6,4.8c2.9,3.2,4.1,7.7,3.5,11.9c-0.3,2.2-1.1,4.4-2.6,6.2
			c-0.3,0.3-0.3,0.8,0,1.1c0.3,0.3,0.8,0.3,1.1,0c3-3.6,3.7-8.6,2.7-13.1c-1.1-4.7-4.2-8.7-8.6-10.8c-2.4-1.2-5.1-1.8-7.8-1.7
			C182.2,23.8,182.2,25.3,183.2,25.3L183.2,25.3z"/>
		<path class="st7" d="M194.4,51.8c0,1.4,0.9,2.6,1.7,3.6c0.8,1.1,1.5,2.2,1.5,3.7c0,0.8-0.3,1.5-0.5,2.2c-0.2,0.8-0.1,1.5,0.1,2.3
			c0.4,1.4,1.3,2.5,1.9,3.8c0.4,0.9,0.7,2.5-0.2,3.1c-0.4,0.2-0.5,0.7-0.3,1c0.2,0.4,0.7,0.5,1,0.3c1.2-0.8,1.5-2.2,1.3-3.5
			c-0.2-1.4-1-2.6-1.7-3.8c-0.4-0.6-0.6-1.3-0.7-2c0-0.8,0.3-1.5,0.4-2.2c0.3-1.6,0-3.3-0.9-4.7c-0.4-0.7-1-1.3-1.4-1.9
			c-0.4-0.6-0.8-1.2-0.8-1.9C196,50.8,194.4,50.8,194.4,51.8L194.4,51.8z"/>
		<path class="st7" d="M92,54.3c-2.2,3-2,7-2,10.5c0,4.5,0,9,0,13.5c0,9,0,18.1,0.1,27.1c0,9,0,18,0.1,27c0,9,0,18.1,0.1,27.1
			c0,9,0,18,0.1,27c0,1.1,0,2.2,0,3.3c0,1,1.5,1,1.5,0c0-8.9,0-17.9-0.1-26.8l-0.1-26.8c0-9,0-18-0.1-27c0-8.9,0-17.9-0.1-26.8
			c0-4.5,0-8.9,0-13.4c0-2.1,0-4.3,0-6.4c0-1.8,0.1-3.6,0.6-5.3c0.3-0.8,0.6-1.6,1.2-2.3C93.9,54.2,92.6,53.5,92,54.3L92,54.3z"/>
		<path class="st7" d="M90.7,191c0.8,0.5,1.7,0.8,2.6,0.9c0.9,0,1.8-0.3,2.6-0.8c0.4-0.2,0.5-0.7,0.2-1.1c-0.2-0.3-0.6-0.4-1-0.3
			c-0.2,0.1-0.3,0.2-0.5,0.3c0,0-0.2,0.1-0.1,0.1c-0.1,0-0.2,0.1-0.3,0.1c-0.1,0-0.1,0-0.2,0.1c-0.1,0-0.3,0.1-0.2,0
			c-0.2,0-0.3,0-0.5,0h-0.2l-0.2,0c-0.2,0-0.3-0.1-0.5-0.1l-0.1-0.1c-0.1,0-0.1,0,0,0L92,190c-0.2-0.1-0.4-0.2-0.6-0.3
			c-0.4-0.2-0.8-0.1-1,0.3C90.2,190.4,90.3,190.8,90.7,191L90.7,191z"/>
		<path class="st7" d="M94.6,154.2l0,28.3v7.9c0,1,1.5,1,1.5,0l0-28.3v-7.9C96.2,153.3,94.6,153.2,94.6,154.2z"/>
		<path class="st7" d="M93.2,153.8c9.9,1.8,19.6,4.2,29.4,6.4c2.7,0.6,5.4,1.2,8.2,1.8c1,0.2,1.4-1.3,0.4-1.5
			c-9.8-2-19.5-4.5-29.2-6.5c-2.8-0.6-5.6-1.1-8.4-1.6c-0.4-0.1-0.8,0.1-1,0.5C92.6,153.3,92.8,153.7,93.2,153.8
			C93.2,153.8,93.2,153.8,93.2,153.8L93.2,153.8z"/>
		<path class="st7" d="M95,52.9c4.8,0.7,9.6,1.3,14.5,1.9c4.7,0.6,9.3,1.1,14,2c2.5,0.4,5,1.1,7.4,2c0.4,0.1,0.8-0.1,0.9-0.5
			c0.1-0.4-0.1-0.8-0.5-0.9c-4.3-1.7-8.9-2.3-13.5-2.9c-4.8-0.7-9.5-1.3-14.3-1.9c-2.7-0.4-5.4-0.7-8-1.1c-0.4-0.1-0.8,0.1-0.9,0.5
			C94.3,52.4,94.6,52.8,95,52.9C95,52.9,95,52.9,95,52.9L95,52.9z"/>
		<path class="st7" d="M132.6,60.4c1.2,4.1,0.9,8.3,0.9,12.5c0,1.5,0,3,0,4.5c0,3.1,0,6.1,0,9.2c0.1,9,0.1,18,0.2,26.9
			c0.1,10.7,0.2,21.4,0.3,32.2c0.1,10,0.2,20,0.2,30c0.1,6.8,0.1,13.6,0.1,20.4v1.5c0,1,1.5,1,1.5,0c0-6.3,0-12.5-0.1-18.8
			c-0.1-9.7-0.1-19.5-0.2-29.2c-0.1-10.8-0.2-21.5-0.3-32.3c-0.1-9.3-0.2-18.6-0.2-27.9c0-3.4,0-6.7-0.1-10.1c0-1.2,0-2.4,0-3.6
			c0-3.2,0.2-6.5,0-9.7c-0.1-2-0.4-3.9-0.9-5.9C133.8,59.1,132.4,59.5,132.6,60.4L132.6,60.4z"/>
		<path class="st7" d="M129.4,161.4c-0.1,9.3-0.1,18.5,0,27.8c0,2.6,0.1,5.2,0.1,7.8c0,1,1.5,1,1.5,0c-0.2-9.3-0.2-18.5-0.1-27.8
			c0-2.6,0-5.2,0.1-7.8C130.9,160.4,129.4,160.4,129.4,161.4L129.4,161.4z"/>
		<path class="st7" d="M129.6,197.5c1.1,2.2,4.2,2,5.9,0.7c0.4-0.2,0.5-0.7,0.3-1c-0.2-0.3-0.7-0.5-1-0.3c-0.2,0.1-0.4,0.3-0.6,0.4
			l-0.2,0.1l-0.1,0c0.1,0-0.1,0-0.1,0l-0.2,0.1c-0.2,0.1-0.4,0.1-0.6,0.2c-0.1,0-0.1,0,0,0h-0.2c-0.1,0-0.2,0-0.3,0s-0.2,0-0.3,0
			c0.2,0-0.1,0-0.1,0c-0.1,0-0.2-0.1-0.3-0.1c-0.1,0-0.1,0,0,0l-0.2-0.1c-0.1,0-0.2-0.1-0.2-0.1c-0.1-0.1,0.1,0.1,0,0
			c0,0-0.1-0.1-0.1-0.1l-0.1-0.1c-0.1-0.1-0.1-0.1,0,0c-0.1-0.1-0.1-0.2-0.2-0.3c-0.2-0.4-0.7-0.5-1-0.3
			C129.5,196.7,129.4,197.1,129.6,197.5L129.6,197.5z"/>
		<path class="st7" d="M93.9,60.1c0.1,5.4,0.2,10.7,0.2,16.1c0,5.9,0,11.8,0,17.7c0,6.1,0,12.3,0,18.4c0,6.1,0,12.2,0,18.2
			c0,5.7,0.1,11.4,0.1,17.2c0,0.7,0,1.4,0,2c0,1,1.5,1,1.5,0c-0.1-5.7-0.2-11.4-0.2-17.1c0-6,0-12.1,0-18.2c0-6.1,0-12.3,0-18.4
			c0-5.9,0-11.9,0-17.8c0-5.4-0.1-10.9-0.2-16.3l0-1.9C95.4,59.1,93.8,59.1,93.9,60.1L93.9,60.1z"/>
		<path class="st7" d="M97.4,57.8c5.1,0.8,10.1,1.3,15.2,2c2.6,0.3,5.1,0.7,7.6,1.1c2.5,0.4,5,0.8,7.5,1.4c0.4,0.1,0.7,0.2,1,0.5
			c0.2,0.4,0.4,0.8,0.5,1.2c0.2,0.8,0.2,1.5,0.2,2.3c0,1.6,0,3.2,0,4.7c0,3.6,0,7.1,0.1,10.7c0.1,8.2,0.2,16.4,0.3,24.6
			c0.1,8.5,0.2,17.1,0.3,25.6c0.1,7.7,0.1,15.4,0,23.1c0,0.8,0,1.6,0,2.5c0,1,1.5,1,1.5,0c0.1-7.6,0.1-15.2,0-22.8
			c-0.1-8.6-0.2-17.3-0.3-25.9c-0.1-8.4-0.2-16.7-0.3-25.1c0-3.7-0.1-7.4-0.1-11c0-1.6,0-3.3,0-4.9c0-1.6,0.1-3.4-0.5-5
			c-0.3-0.9-1.1-1.6-2.1-1.9c-1.2-0.3-2.4-0.6-3.6-0.8c-2.6-0.5-5.1-0.9-7.7-1.2c-5.2-0.7-10.4-1.3-15.5-1.9
			c-1.2-0.2-2.5-0.3-3.7-0.5c-0.4-0.1-0.8,0.1-1,0.5C96.7,57.2,96.9,57.7,97.4,57.8L97.4,57.8z"/>
		<path class="st7" d="M95.4,125.9c8.2,1.6,16.4,3,24.6,4.6c2.2,0.4,4.4,0.9,6.6,1.4c1,0.2,1.4-1.3,0.4-1.5
			c-8.1-1.8-16.3-3.1-24.4-4.6c-2.3-0.4-4.5-0.9-6.8-1.3c-0.4-0.1-0.8,0.1-0.9,0.5C94.8,125.3,95,125.8,95.4,125.9
			C95.4,125.9,95.4,125.9,95.4,125.9L95.4,125.9z"/>
		<path class="st7" d="M95.4,121.8c8.2,1.6,16.4,3,24.6,4.6c2.2,0.4,4.4,0.9,6.6,1.4c1,0.2,1.4-1.3,0.4-1.5
			c-8.1-1.8-16.3-3.1-24.4-4.6c-2.3-0.4-4.5-0.9-6.8-1.3c-0.4-0.1-0.8,0.1-0.9,0.5C94.8,121.3,95,121.7,95.4,121.8
			C95.4,121.8,95.4,121.8,95.4,121.8L95.4,121.8z"/>
		<path class="st7" d="M95.4,90.7c4.4,0.9,8.9,1.6,13.3,2.2c4.7,0.7,9.4,1.3,14,2.1c2.4,0.4,4.7,0.7,7.1,1.1
			c0.4,0.1,0.8-0.1,0.9-0.5c0.1-0.4-0.1-0.8-0.5-0.9c-4.3-0.8-8.7-1.4-13.1-2c-4.7-0.7-9.4-1.4-14.1-2.1c-2.4-0.4-4.8-0.8-7.2-1.3
			c-0.4-0.1-0.8,0.1-0.9,0.5C94.8,90.2,95,90.6,95.4,90.7L95.4,90.7z"/>
		<path class="st7" d="M95.4,86.7c4.4,0.9,8.8,1.6,13.2,2.2c4.7,0.7,9.3,1.3,14,2.1c2.4,0.4,4.8,0.7,7.2,1.2
			c0.4,0.1,0.8-0.1,0.9-0.5c0.1-0.4-0.1-0.8-0.5-0.9c-4.4-0.8-8.8-1.4-13.2-2c-4.7-0.7-9.3-1.3-14-2.1c-2.4-0.4-4.8-0.8-7.2-1.3
			c-0.4-0.1-0.8,0.1-0.9,0.5C94.8,86.1,95,86.5,95.4,86.7L95.4,86.7z"/>
		<path class="st7" d="M112.4,0.8c-4,0.3-8,1.5-11.4,3.7c-3.2,2.1-5.7,4.9-7.4,8.3c-1.8,3.4-2.6,7.3-2.4,11.2
			c0.2,3.9,1.5,7.7,3.7,11c1.1,1.6,2.4,3,4,4.2c1.8,1.4,4,2.4,6.1,3.1c2.5,0.9,5.2,1.4,8,1.3c2.5,0,4.9-0.4,7.2-1.1
			c4.1-1.5,7.6-4.2,10.1-7.7c2.7-3.9,4-8.6,3.7-13.3c-0.2-4.2-1.7-8.3-4.2-11.7c-2.4-3.3-5.7-5.8-9.5-7.3c-1-0.4-2.1-0.7-3.2-0.9
			c-0.4-0.1-0.8,0.1-0.9,0.5c-0.1,0.4,0.1,0.8,0.5,1c0,0,0,0,0,0c3.9,0.7,7.4,2.7,10.2,5.6c2.5,2.7,4.3,6,5.1,9.5
			c1,4.4,0.5,9.1-1.5,13.2c-1.8,3.6-4.6,6.6-8.2,8.6c-1.7,0.9-3.7,1.6-5.6,1.9c-2.6,0.4-5.2,0.5-7.8,0c-2.5-0.5-4.8-1.3-7-2.5
			c-1.6-0.8-3-1.9-4.2-3.2c-2.4-2.7-4-6.1-4.6-9.6c-0.7-3.6-0.4-7.2,0.9-10.6c2.5-6.8,8.5-11.8,15.7-13.1c0.9-0.2,1.9-0.3,2.9-0.4
			c0.4,0,0.8-0.3,0.8-0.8S112.8,0.8,112.4,0.8L112.4,0.8z"/>
		<path class="st7" d="M93.5,30.1c4.6,0.4,9.3,0.9,13.9,1.3l15.5,1.4l7.3,0.7c0.4,0,0.8-0.3,0.8-0.8c0-0.4-0.3-0.8-0.8-0.8
			c-4.6-0.4-9.3-0.9-13.9-1.3l-15.5-1.4l-7.3-0.7c-0.4,0-0.8,0.3-0.8,0.8C92.8,29.7,93.1,30.1,93.5,30.1L93.5,30.1z"/>
		<path class="st7" d="M93.5,16.5c4.8,0.5,9.7,0.9,14.5,1.4l16.5,1.6l7.5,0.7c0.4,0,0.8-0.3,0.8-0.8c0-0.4-0.3-0.8-0.8-0.8
			c-4.8-0.5-9.7-0.9-14.5-1.4l-16.5-1.6l-7.5-0.7c-0.4,0-0.8,0.3-0.8,0.8C92.7,16.1,93,16.5,93.5,16.5L93.5,16.5z"/>
		<path class="st7" d="M109.2,43.4c-0.1,3.4-0.1,6.8-0.1,10.2c0,1,1.5,1,1.5,0c0-3.4,0-6.8,0.1-10.2
			C110.7,42.4,109.2,42.4,109.2,43.4z"/>
		<path class="st7" d="M114.1,43c-0.1,3.8,0,7.5,0,11.3c0,1,1.5,1,1.5,0c0-3.8-0.2-7.5,0-11.3C115.7,42,114.1,42,114.1,43z"/>
	</g>
</g>
</svg>
