<?xml version="1.0" encoding="utf-8"?>
<!-- Generator: Adobe Illustrator 24.3.0, SVG Export Plug-In . SVG Version: 6.00 Build 0)  -->
<svg version="1.1" id="レイヤー_1" xmlns="http://www.w3.org/2000/svg" xmlns:xlink="http://www.w3.org/1999/xlink" x="0px"
	 y="0px" viewBox="0 0 300 200" style="enable-background:new 0 0 300 200;" xml:space="preserve">
<style type="text/css">
	.st0{fill:#C4AD9C;}
	.st1{fill:#FFFFFF;}
	.st2{fill:#ECCC5B;}
	.st3{fill:#FAF1E6;}
	.st4{fill:#ABA9A8;}
	.st5{fill:#B4C0B5;}
	.st6{fill:#040000;}
</style>
<g>
	<g id="塗_3_">
		<path class="st0" d="M206.7,51.5l20,2.8l-2.3,61.6l0.5,52c0,0-1.4,2.1-3.8,0.5c-0.3-12.2-0.5-49.5-0.5-49.5l-28.2,13.1l0.2,48.3
			c0,0-0.6,2.6-4-0.2c-0.1-13.7-0.7-46.4-0.7-46.4l-10.6-1.4c0,0-0.1-4.4,8.5-8c8.6-3.6,17.3-3.1,22.2-11.1c4.9-8,4-12.8,3.7-19.5
			c-0.3-6.7-0.9-16-0.9-16s0.9-7.3,0.3-11.4C210.4,61.6,206.7,51.5,206.7,51.5z"/>
		<path class="st1" d="M119.1,175.8c0.2,4.2,4.5,8.6,15.6,6.7c7.2-0.5,9.5,1.4,13.2,1.4s15.2,0.6,29.1-7c0-5.4-0.6-10.8-1.9-16.1
			c0,0-42.6,5.2-46.2,6.8C125.4,169.1,119.9,169.3,119.1,175.8z"/>
		<path class="st0" d="M142.3,78.6c18.4-0.3,36.1,2.5,46.6,5.5c10.5,3,19.1,6.2,18.6,11.2c-0.3,2.5,0.9,6.7-12.6,12.2
			c-12.2,4.9-51.3,6.5-51.3,6.5l-0.2,73.4c0,0,13.7,0.6,22.8,2.6c9.1,2,2.7,5.3-2.4,6.2c-5.1,0.9-14.9,2.2-25.1,1.9
			c-10.3-0.2-30.3-0.9-29.6-5c0.7-4.1,26.5-5.8,26.5-5.8l0.1-73.3c0,0-23.7-0.8-35.6-3.2S79.7,107,75.6,102
			c-4.1-5-4.4-11.6,3.5-14.5c7.9-2.9,16.2-5.9,38.2-7.8C139.3,77.7,142.3,78.6,142.3,78.6z"/>
		<path class="st2" d="M117.8,89.8l22.1-8l19.3,4c0,0,2,1.3,0.2,5.3c-5.7,2.6-21.9,9.1-21.9,9.1s2.3-1.3,0.2-5.7
			C129.2,92.7,117.8,89.8,117.8,89.8z"/>
		<path class="st3" d="M211.9,92.9l-0.8-15c0,0,0,0.3,0.7-4.5c0.7-4.8-1.4-13.1-2.6-16.5s-4.7-8.8-13-14.7c-6.8,4.3-9,3.6-13.6,1.7
			c-4,4.4-1.2,19.4-1.2,19.4s0.4,1-1.3,0.6c-1.8-0.3-5.7-12.4-6.7-17.6c-3.1,3.8-6.7,7.9-6.7,7.9s0.4,12.1-0.8,13.3
			c-4.1,3.9-9.2,2.5-14.4,1.3c-4.1,3.9-9.9,4.1-9.9,4.1c-0.6,2-0.2,4.1,1,5.7c0,0,24.6,1.1,31.7,2.2c19.5,2.9,13.2,5.1,21.7,7.3
			c8.7,2.2,4.2-2.5,11.7,5.5c0.4,0.5-0.9,4.4-0.9,4.4L211.9,92.9"/>
		<path class="st4" d="M176.8,173.5c-0.4-5.5-1.6-13.5-1.6-13.5s-0.6,5.3-10,7.9c-0.7-1.9-1.1-3.9-1.1-3.9s-5.4,0.4-11.8-2.4
			c-6,1-5.5,1.8-8.9,0.4c-0.3,4.7-0.3,17.5-0.3,17.5s3.9,2,14.6,0.3C168.4,178.2,176.8,173.5,176.8,173.5z"/>
		<path class="st4" d="M135.1,166.4c-5.3,0.7-9.1,1.2-12.7,3.4c-3.6,2.3-3.4,5.6-3.4,5.6s1.9,4.7,15.9,3.9
			C135.5,173.9,135.1,166.4,135.1,166.4z"/>
		<path class="st5" d="M211.1,92.9c0.9,10.4-0.3,17.7-5.9,22.3c-5.6,4.7-16.1,7.7-22.2,9.3c-6.1,1.6-7,8.4-7.3,11.8
			c-0.3,3.4,0,23.5,0,23.5s-6.7,5-13.7,4.4c-7-0.5-9.7-3.3-9.7-3.3s-5.2,2.1-9.1,0.3c-0.1-14.1,0.4-47.8,0.4-47.8s22.9-1.3,29.6-2
			c6.7-0.7,16.2-2.4,22.5-5.1c6.5-2.7,6.7-3.4,8.7-5.9c2-2.5,1.5-3.3,1.5-3.3C208.1,96.5,209.9,94.9,211.1,92.9z"/>
		<path class="st1" d="M149.7,51.2l0,16c0,0,2.6,3.8,8.1,3.1c5.5-0.7,8.4-2.3,8.4-2.3s1.1-12.7,0.8-16.5
			C166.7,47.7,150.6,47.6,149.7,51.2z"/>
		<path class="st1" d="M149.8,51.8c-2.6-2.5-5.3-0.3-5.3-0.3s-5.3-0.8-7.3,5.4c-2.1,6.2,2.4,14,4.2,16.1c6.1,0.1,9.9-3.9,9.9-3.9
			l-1.5-1.9L149.8,51.8z"/>
		<path class="st1" d="M117.8,95.6v-5.8l20,4.7c0,0,1.2,2.2,0.8,3.8c-0.4,1.6-1.5,1.9-1.5,1.9L117.8,95.6z"/>
		<path class="st1" d="M180.6,64c-1.3-0.1-2.9,0.4-5.5-8.7s-2.2-8.4-2.2-8.4s4.5-5,6.9-6.3c-6-0.6-8.5-2.1-9.9-3.4
			c-1.4-1.4-3.5-5.5-3.5-5.5s-3.2,0.2-3.8-3.9c-0.4-2.5,0.5-3.4,0.5-3.4s-1-4.9,1.1-10c2.7-6.4,6.9-8.3,11.2-10.8
			c4.3-2.5,14.5-2.2,19.6,1.5c5.1,3.7,7.3,7.7,8.8,11.5c6,1.5,6.3,6.7,6.6,9.6c0.3,2.8-2.5,11.6-2.6,14.4c0,2.7,0,5.4,3.3,8.2
			c-2.8,1.3-7.8-2.7-9.2-7.1c-1.8-5.5,0.5-9.2,0.5-9.2l-2.6,2.5c0,0-1.7,3.4-3,4.3c-1.3,1-1.2,3.6-1.2,3.6s-3.3,2.4-7,2.3
			c-2.4-0.1-4.7-0.6-6.9-1.3c0,0-2.2,3.3-1.9,7.6S180.6,64,180.6,64z"/>
	</g>
	<g id="線_3_">
		<path class="st6" d="M170.8,19c-1.7,1.4-3,3.2-3.9,5.2c-1,2.2-1.2,4.5-0.8,6.9c0.4,2.2,1.5,4.3,3.1,5.9c1.6,1.5,3.5,2.6,5.6,3.2
			c2.7,0.8,5.5,1.2,8.2,1c0.4,0,0.8-0.4,0.8-0.8c0-0.4-0.4-0.8-0.8-0.8c-2.3,0.1-4.6-0.1-6.8-0.7c-1-0.3-1.9-0.6-2.8-1
			c-0.4-0.2-0.9-0.5-1.3-0.7c-0.2-0.1-0.4-0.3-0.6-0.4c-0.2-0.2-0.3-0.2-0.5-0.4c-0.7-0.6-1.4-1.3-1.9-2.1c-1.7-2.6-2-5.9-0.9-8.9
			c0.8-2.1,2.1-3.9,3.8-5.4c0.3-0.3,0.3-0.8,0-1.1C171.6,18.7,171.1,18.7,170.8,19L170.8,19z"/>
		<path class="st6" d="M188.5,30.4c-0.1,0.6-0.2,1.2-0.3,1.7c-0.1,0.3-0.2,0.5-0.3,0.8c0,0,0,0.1,0,0.1c0.1-0.2,0,0,0,0
			c-0.1,0.1-0.1,0.3-0.2,0.4c-0.1,0.2-0.2,0.4-0.3,0.6c-0.1,0.1-0.1,0.2-0.2,0.3l-0.1,0.1c0,0-0.2,0.2,0,0.1
			c-0.3,0.3-0.5,0.6-0.8,0.9c-1.2,1.2-2.6,2.3-3.5,3.8c-0.6,1.2-1,2.5-1.1,3.9c0,0.4,0.4,0.8,0.8,0.8c0.4,0,0.8-0.4,0.8-0.8
			c0-0.3,0.1-0.6,0.1-0.8c0.1-0.3,0.1-0.6,0.2-0.9s0.2-0.5,0.3-0.8c0.1-0.1,0,0,0,0c0-0.1,0-0.1,0.1-0.2c0.1-0.1,0.1-0.3,0.2-0.4
			c0.1-0.2,0.2-0.4,0.3-0.5c0.1-0.1,0.1-0.2,0.2-0.3l0.1-0.1l0.1-0.1l0,0c0.3-0.3,0.5-0.6,0.8-0.9c1.2-1.2,2.6-2.3,3.5-3.9
			c0.6-1.2,1-2.6,1.1-4c0-0.4-0.4-0.8-0.8-0.8C188.9,29.6,188.6,30,188.5,30.4L188.5,30.4z"/>
		<path class="st6" d="M191.6,30.1c-0.1,0.6-0.2,1.3-0.3,1.9c-0.1,0.7-0.2,1.3-0.4,2c-0.1,0.4,0.1,0.8,0.5,1c0.4,0.1,0.8-0.1,1-0.5
			c0.2-0.6,0.3-1.3,0.4-2c0.1-0.6,0.2-1.3,0.3-1.9c0.1-0.4-0.1-0.8-0.5-1C192.2,29.4,191.7,29.6,191.6,30.1L191.6,30.1z"/>
		<path class="st6" d="M194.4,29.9C194.4,30.1,194.4,29.7,194.4,29.9c0,0,0,0.1,0,0.1c0,0.2,0,0.3-0.1,0.5c-0.1,0.4-0.1,0.8-0.2,1.2
			c-0.1,0.6-0.2,1.3-0.3,1.9c-0.1,0.4,0.1,0.9,0.6,1c0.4,0.1,0.9-0.1,1-0.6c0.2-0.6,0.3-1.3,0.3-1.9c0.1-0.7,0.2-1.4,0.3-2.1
			c0.1-0.4-0.4-0.8-0.8-0.8C194.7,29.1,194.4,29.5,194.4,29.9L194.4,29.9z"/>
		<path class="st6" d="M197.1,29.7c0,0.6-0.1,1.3-0.2,1.9l0,0.3c0,0.2,0-0.2,0,0l0,0.1c0,0.2-0.1,0.4-0.1,0.5c0,0.2-0.1,0.5-0.1,0.7
			c-0.1,0.4,0.1,0.9,0.5,1s0.9-0.1,1-0.5c0,0,0,0,0,0c0.2-0.7,0.3-1.4,0.3-2c0.1-0.6,0.2-1.3,0.2-1.9c0-0.4-0.4-0.8-0.8-0.8
			C197.5,29,197.1,29.3,197.1,29.7L197.1,29.7z"/>
		<path class="st6" d="M200,29.4c0.1,1.8-0.1,3.6-0.7,5.3c-0.3,0.8-0.7,1.6-1.2,2.2c-0.1,0.1,0,0.1,0,0l-0.1,0.1
			c-0.1,0.1-0.1,0.2-0.2,0.2c-0.2,0.2-0.4,0.4-0.5,0.5c-0.4,0.4-0.8,0.8-1.1,1.2c-0.7,1-0.9,2.3-0.6,3.5c0.1,0.4,0.6,0.7,1,0.5
			c0.4-0.1,0.7-0.5,0.5-1c-0.1-0.4-0.1-0.8,0-1.2c0.1-0.4,0.2-0.8,0.5-1.1c0.3-0.4,0.7-0.7,1.1-1.1c0.4-0.3,0.7-0.7,1-1.1
			c1.1-1.5,1.6-3.4,1.9-5.2c0.1-1,0.2-2.1,0.1-3.1c0-0.4-0.4-0.8-0.8-0.8C200.3,28.7,200,29,200,29.4L200,29.4z"/>
		<path class="st6" d="M181.8,43.8c3.2,2.6,7.6,2.7,11.3,1.2c1.1-0.4,2.1-1,3.1-1.6c0.4-0.2,0.5-0.7,0.3-1.1
			c-0.2-0.4-0.7-0.5-1.1-0.3c-1.5,1-3.2,1.8-5.1,2.2c-1.7,0.4-3.4,0.3-5-0.2c-0.9-0.3-1.7-0.7-2.4-1.3c-0.3-0.3-0.8-0.3-1.1,0
			C181.5,43,181.4,43.5,181.8,43.8L181.8,43.8z"/>
		<path class="st6" d="M181.8,42.7c-0.8,1.2-1.2,2.6-1.5,4c-0.3,1.5-0.5,3.1-0.6,4.6c-0.2,3.4,0.1,6.9,0.7,10.3
			c0.4,2.1,0.9,4.2,1.3,6.2c0.1,0.4,0.5,0.7,1,0.6c0.4-0.1,0.7-0.5,0.6-1c-0.4-1.8-0.8-3.6-1.2-5.5c-0.3-1.7-0.6-3.4-0.7-5.1
			c-0.2-1.6-0.2-3.3-0.1-4.9c0-0.7,0.1-1.4,0.2-2.1c0.1-0.4,0.1-0.6,0.1-1c0.1-0.4,0.1-0.7,0.2-1.1c0.2-0.8,0.4-1.6,0.6-2.4
			c0.1-0.2,0.1-0.4,0.2-0.5c0-0.1,0.1-0.2,0.1-0.2l0,0c0,0,0-0.1,0.1-0.1c0.1-0.3,0.3-0.6,0.5-0.9c0.2-0.4,0.1-0.9-0.3-1.1
			C182.5,42.3,182,42.4,181.8,42.7L181.8,42.7L181.8,42.7z"/>
		<path class="st6" d="M195.8,42.6c2.1,2.9,3.8,6.2,5.4,9.4c0.8,1.6,1.5,3.3,2.2,4.9c0.6,1.4,1.1,2.8,1.5,4.2
			c0.5,1.6,0.8,3.2,1.1,4.8c0.1,0.4,0.6,0.7,1,0.5c0.4-0.1,0.6-0.5,0.5-1c-0.2-1.4-0.5-2.8-0.9-4.2c-0.4-1.4-0.9-2.8-1.4-4.2
			c-1.4-3.5-3-6.9-4.8-10.1c-0.9-1.8-2-3.5-3.2-5.1c-0.2-0.4-0.7-0.5-1.1-0.3C195.8,41.7,195.6,42.2,195.8,42.6L195.8,42.6z"/>
		<path class="st6" d="M196.4,42.7c1.1,0.6,2.2,1.3,3.2,2.1c1.1,0.9,2.2,1.9,3.1,3c0.2,0.2,0.4,0.5,0.6,0.7l0.2,0.2
			c0,0,0.2,0.2,0.1,0.1c0.1,0.2,0.3,0.4,0.4,0.5c0.5,0.6,0.9,1.3,1.4,1.9c0.9,1.3,1.7,2.7,2.4,4.1c1.4,2.9,2.2,6,2.6,9.2
			c0.4,2.8,0.6,5.6,0.5,8.4c0,0.6-0.1,1.3-0.1,1.9c0,0.3-0.1,0.6-0.1,1c0,0.2,0,0.3-0.1,0.5l0,0.2c0,0.1,0,0.1,0,0
			c0,0.1,0,0.1,0,0.2c-0.2,1.3-0.5,2.5-0.8,3.8c-0.1,0.3-0.2,0.6-0.3,0.9c-0.1,0.1-0.1,0.3-0.2,0.4c0.1-0.1,0,0.1,0,0.1
			c0,0.1-0.1,0.2-0.1,0.2c-0.2,0.5-0.5,1.1-0.9,1.6c-0.1,0.1-0.1,0.2-0.2,0.3c0,0-0.2,0.2,0,0.1l-0.1,0.2c-0.2,0.3-0.5,0.5-0.7,0.8
			c-0.4,0.4-0.9,0.8-1.4,1.1c-1,0.7-2.2,1.2-3.4,1.4c-0.3,0.1-0.6,0.1-0.9,0.2l-0.1,0l-0.2,0c-0.2,0-0.4,0-0.6,0c-0.6,0-1.3,0-1.9,0
			c-0.1,0-0.2,0-0.2,0c-0.3,0,0.1,0-0.1,0l-0.4-0.1c-0.3-0.1-0.7-0.1-1-0.2c-0.6-0.2-1.2-0.4-1.7-0.6c0,0-0.1,0-0.1,0l-0.2-0.1
			l-0.4-0.2c-0.3-0.1-0.7-0.3-1-0.5c-0.6-0.3-1.2-0.6-1.8-1c-0.3-0.2-0.5-0.3-0.7-0.5c0.1,0.1-0.1-0.1-0.2-0.1
			c-0.1-0.1-0.3-0.2-0.4-0.4c-0.5-0.4-0.9-0.9-1.3-1.4c-0.2-0.2,0.1,0.1-0.1-0.1c0-0.1-0.1-0.1-0.1-0.2c-0.1-0.1-0.2-0.3-0.3-0.4
			c-0.2-0.3-0.4-0.5-0.5-0.8c-0.3-0.6-0.7-1.1-0.9-1.7c-1.1-2.3-1.9-4.9-2.6-7.5c-0.2-0.6-0.3-1.2-0.5-1.8c-0.1-0.4-0.5-0.7-1-0.6
			c-0.4,0.1-0.7,0.5-0.6,1l0,0c0.6,2.7,1.3,5.4,2.4,7.9c1.1,2.6,2.4,5,4.5,6.9c1,0.9,2.1,1.6,3.3,2.1c1.2,0.6,2.5,1.1,3.8,1.5
			c2.7,0.7,5.5,0.5,8.1-0.5c2.5-1,4.5-2.9,5.7-5.3c1.2-2.4,1.7-5.2,1.9-7.9c0.2-2.8,0.2-5.5-0.1-8.3c-0.3-3.4-0.9-6.7-2.1-9.9
			c-1.2-3.2-2.9-6-4.9-8.7c-1.8-2.4-4-4.5-6.5-6.2c-0.5-0.3-1-0.6-1.5-0.9c-0.4-0.2-0.9-0.1-1.1,0.3
			C195.9,42.1,196.1,42.5,196.4,42.7L196.4,42.7z"/>
		<path class="st6" d="M176,25.8l-0.3,2.1c0,0.2,0,0.4,0.1,0.6c0.2,0.4,0.7,0.5,1.1,0.3c0,0,0,0,0,0c0.2-0.1,0.3-0.3,0.4-0.5
			l0.3-2.1c0-0.2,0-0.4-0.1-0.6c-0.2-0.4-0.7-0.5-1.1-0.3c0,0,0,0,0,0C176.2,25.4,176,25.6,176,25.8z"/>
		<path class="st6" d="M181,26.1c-0.1,0.7-0.1,1.5-0.2,2.2c0,0.2,0.1,0.4,0.2,0.6c0.2,0.1,0.3,0.2,0.6,0.2c0.2,0,0.4-0.1,0.6-0.2
			c0.1-0.2,0.2-0.4,0.2-0.6c0.1-0.7,0.1-1.5,0.2-2.2c0-0.2-0.1-0.4-0.2-0.6c-0.3-0.3-0.8-0.3-1.1,0l-0.1,0.2
			C181,25.9,181,26,181,26.1L181,26.1z"/>
		<path class="st6" d="M176.2,14.6c0.5,2.9,2.1,5.5,4.4,7.3c0.7,0.5,1.4,1,2.1,1.4c0.4,0.2,0.9,0.1,1.1-0.3c0.2-0.4,0.1-0.9-0.3-1.1
			c-3.1-1.5-5.2-4.4-5.8-7.7c-0.1-0.4-0.6-0.7-1-0.5C176.4,13.8,176.1,14.2,176.2,14.6L176.2,14.6z"/>
		<path class="st6" d="M183.8,16.3c1.8,3.9,5.2,6.8,9.2,8.3c1.1,0.4,2.3,0.7,3.5,0.8c0.4,0.1,0.8-0.4,0.8-0.8c0-0.5-0.4-0.7-0.8-0.8
			c-0.3,0,0.1,0-0.1,0l-0.2,0l-0.4-0.1c-0.2,0-0.5-0.1-0.7-0.2c-0.5-0.1-1-0.2-1.4-0.4c-0.2-0.1-0.5-0.2-0.7-0.3l-0.2-0.1
			c-0.1-0.1-0.3-0.1-0.4-0.2c-0.4-0.2-0.9-0.4-1.3-0.7c-0.4-0.2-0.8-0.5-1.2-0.8c-0.4-0.3-0.7-0.5-1.1-0.8c-0.7-0.6-1.4-1.4-2-2.1
			l0,0c-0.1-0.1-0.1-0.1-0.1-0.2c-0.1-0.1-0.2-0.2-0.2-0.3c-0.2-0.2-0.3-0.5-0.4-0.7c-0.3-0.5-0.6-1-0.8-1.5
			c-0.2-0.4-0.7-0.5-1.1-0.3C183.7,15.4,183.6,15.9,183.8,16.3L183.8,16.3z"/>
		<path class="st6" d="M168.2,21.6c-2.2-0.8-4.5,0.9-5.4,2.8c-1,1.9-0.8,4.2,0.5,6c0.7,1,1.7,1.7,2.8,2.1c0.4,0.1,0.8-0.1,1-0.5
			c0.1-0.4-0.1-0.8-0.5-1c-0.1,0-0.1,0-0.2-0.1c-0.1,0-0.2-0.1-0.3-0.1c-0.2-0.1-0.4-0.2-0.6-0.3c-0.1-0.1-0.3-0.2-0.4-0.3
			c-0.1-0.1-0.3-0.3-0.4-0.4c-0.1-0.1-0.2-0.3-0.3-0.4c-0.1-0.2-0.2-0.4-0.3-0.6c-0.2-0.3-0.3-0.7-0.3-1c0-0.1,0-0.1,0-0.2
			c0,0,0,0.1,0,0c0-0.1,0-0.2,0-0.3c0-0.2,0-0.4,0-0.7c0,0,0-0.2,0-0.1s0-0.1,0-0.1c0-0.1,0-0.2,0.1-0.3c0.1-0.2,0.1-0.4,0.2-0.6
			c0.3-0.7,0.7-1.3,1.3-1.8c-0.1,0.1,0,0,0,0l0.2-0.1c0.1-0.1,0.2-0.1,0.3-0.2c0.2-0.1,0.4-0.2,0.6-0.2c0.4-0.1,0.8-0.1,1.2,0.1
			c0.4,0.1,0.8-0.1,1-0.5C168.8,22.1,168.6,21.7,168.2,21.6L168.2,21.6z"/>
		<path class="st6" d="M164.2,24.4c-0.1-1.1-0.2-2.3-0.1-3.4c0-0.3,0-0.6,0.1-0.9c0-0.1,0-0.3,0-0.4l0-0.2l0-0.2c0,0.1,0,0.1,0,0
			c0.1-0.6,0.2-1.1,0.3-1.7c0.5-2.2,1.3-4.3,2.6-6.2c0.1-0.1,0.2-0.3,0.3-0.4l0.1-0.2l0.1-0.1c0.2-0.2,0.4-0.5,0.6-0.7
			c0.4-0.5,0.9-0.9,1.4-1.3c0.3-0.3,0.3-0.8,0-1.1c-0.3-0.3-0.8-0.3-1.1,0c-3.7,3.1-5.6,8.1-5.9,12.8c-0.1,1.3-0.1,2.6,0.1,3.9
			c0,0.4,0.4,0.8,0.8,0.8C163.8,25.1,164.3,24.8,164.2,24.4L164.2,24.4z"/>
		<path class="st6" d="M172.9,6.2c0.1-0.1,0.3-0.2,0.5-0.4c0.2-0.2,0.4-0.3,0.6-0.4c0.4-0.3,0.8-0.5,1.3-0.7s0.9-0.5,1.4-0.7
			l0.2-0.1l0.3-0.1c0.2-0.1,0.5-0.2,0.7-0.3c1.8-0.6,3.8-1,5.7-1c2-0.1,3.9,0.2,5.8,0.7c1.8,0.5,3.5,1.3,5.1,2.3
			c1.6,1,3,2.2,4.3,3.5c1.3,1.4,2.3,2.9,3.1,4.5c0.1,0.2,0.2,0.4,0.3,0.6c0,0.1,0.1,0.2,0.1,0.3c0,0.1,0.1,0.1,0.1,0.2
			c0-0.1,0,0,0,0.1c0.2,0.4,0.3,0.9,0.5,1.3c0.3,0.8,0.5,1.7,0.6,2.6c0,0.2,0.1,0.4,0.1,0.6c0,0.1,0,0.1,0,0.2c0-0.1,0,0,0,0
			c0,0.1,0,0.3,0,0.4c0.1,0.4,0.1,0.9,0.1,1.3c0,0.9,0,1.8,0,2.8c0,0.9-0.2,1.7-0.3,2.6c-0.2,0.9-0.4,1.7-0.7,2.5
			c-0.1,0.2-0.1,0.4-0.2,0.6c0,0.1-0.1,0.2-0.1,0.3c0.1-0.1-0.1,0.1-0.1,0.2c-0.2,0.4-0.4,0.8-0.6,1.1c-0.2,0.3-0.4,0.7-0.6,1
			l-0.2,0.2c0,0-0.1,0.1-0.1,0.1c0.1-0.1,0,0,0,0c-0.1,0.2-0.3,0.3-0.4,0.5c-0.3,0.3-0.5,0.5-0.8,0.8c-0.3,0.3-0.3,0.8,0,1.1
			c0.3,0.3,0.8,0.3,1.1,0c2.7-2.3,3.9-6.1,4.4-9.5c0.5-3.7,0.1-7.7-1.3-11.2c-1.6-3.7-4.2-7-7.5-9.3c-3.3-2.4-7.3-3.8-11.4-4
			c-4.2-0.2-8.5,0.9-12,3.2c-0.5,0.3-0.9,0.6-1.3,1c-0.3,0.3-0.3,0.8,0,1.1C172.1,6.5,172.6,6.5,172.9,6.2L172.9,6.2z"/>
		<path class="st6" d="M177.6,41.6c-1.6,1.3-3.2,2.7-4.6,4.2c-1.5,1.6-3,3.2-4.3,4.9c-0.7,0.9-1.4,1.8-2,2.8
			c-0.2,0.4-0.1,0.9,0.3,1.1c0.4,0.2,0.9,0.1,1.1-0.3c1.1-1.6,2.3-3.1,3.6-4.6c1.4-1.6,2.9-3.2,4.5-4.6c0.4-0.4,0.8-0.7,1.2-1.1
			c0.2-0.2,0.4-0.4,0.6-0.5c0.1-0.1,0.2-0.2,0.3-0.2l0.1-0.1c0,0,0,0,0,0l0.1-0.1c0.3-0.3,0.5-0.7,0.3-1.1
			C178.5,41.6,178,41.4,177.6,41.6L177.6,41.6z"/>
		<path class="st6" d="M172.9,46.2c0.3,3,1,6,2,8.9c0.5,1.4,1.1,2.9,1.7,4.2c0.3,0.7,0.6,1.4,0.9,2c0.3,0.6,0.6,1.2,0.9,1.8
			c0.5,0.6,1.1,1.2,2,1.1c0.8-0.1,1.5-0.6,1.6-1.5c0-0.4-0.4-0.8-0.8-0.8c-0.4,0-0.8,0.4-0.8,0.8c0,0,0,0,0,0l0-0.1c0,0.1,0,0.1,0,0
			c0,0-0.1,0.1,0,0c-0.1,0.1,0-0.1,0,0c0,0-0.2,0.1,0,0c0,0-0.1,0-0.1,0c-0.2,0.1,0.1,0,0,0c-0.1,0-0.1,0-0.2,0c0.2,0,0,0,0,0
			c0.1,0.1,0,0,0,0c-0.1-0.1,0.1,0.1-0.1,0l-0.1-0.1c0,0-0.1-0.2-0.1-0.1c-0.1-0.2-0.3-0.5-0.4-0.7c-0.6-1.2-1.2-2.4-1.7-3.6
			c-1-2.4-1.9-4.9-2.5-7.5c-0.3-1.4-0.6-2.9-0.8-4.4c0-0.4-0.4-0.8-0.8-0.8C173.3,45.4,172.8,45.8,172.9,46.2L172.9,46.2z"/>
		<path class="st6" d="M154,48.3c-1.2,0.3-2.5,0.5-3.5,1.1c-0.5,0.3-1,0.7-1.2,1.3c-0.2,0.6,0.1,1.2,0.6,1.6c0.9,0.8,2.1,1,3.3,1.2
			c1.4,0.2,2.7,0.4,4.1,0.4c2.7,0,5.4-0.2,8-0.8c0.6-0.1,1.3-0.2,1.8-0.5c0.6-0.4,0.9-1.1,0.8-1.7c-0.1-1.2-1.6-1.6-2.5-1.9
			c-2.9-1-5.8-1.3-8.9-1.1c-0.4,0-0.8,0.4-0.8,0.8c0,0.4,0.4,0.8,0.8,0.8c2.3-0.1,4.6-0.1,6.9,0.5c1,0.2,1.9,0.6,2.8,1
			c0.1,0,0.1,0.1,0.2,0.1c0.1,0.1-0.1-0.1,0,0c0,0,0-0.1-0.1-0.1c0,0,0.1,0.1,0,0c0,0,0,0.2,0,0c0,0-0.1,0.2,0,0.1
			c0-0.1,0,0.1,0,0.1c0,0.1,0.1,0,0,0c-0.1,0,0.1,0,0,0c-0.1,0,0.2,0-0.1,0c-0.3,0.1-0.5,0.1-0.8,0.2c-2.3,0.6-4.6,0.9-6.9,0.9
			c-1.2,0-2.4,0-3.5-0.1c-1.1-0.1-2.2-0.3-3.3-0.6c0,0-0.1,0-0.1,0c-0.1,0,0,0,0,0c-0.1,0-0.2-0.1-0.3-0.2l-0.1-0.1
			c-0.2-0.1,0.1,0.1-0.1-0.1c0,0-0.1-0.1-0.1-0.1s-0.1-0.2-0.1-0.1c0,0,0-0.1-0.1-0.1l0,0.1c0-0.1,0-0.1,0,0v0c0-0.1,0-0.1,0,0
			s0,0.1,0,0l0,0.1c0,0,0.1-0.1,0,0c0-0.1,0.1-0.1,0.2-0.2c0,0,0.1-0.1,0.1-0.1c-0.1,0.1,0,0,0.1,0c0.9-0.6,2.1-0.8,3.3-1
			c0.4-0.1,0.7-0.5,0.5-1C154.8,48.4,154.4,48.1,154,48.3L154,48.3L154,48.3z"/>
		<path class="st6" d="M166.2,51.1c0,3.7-0.1,7.5-0.1,11.2c0,1,0,2,0,3c0,0.4,0.4,0.8,0.8,0.8c0.4,0,0.8-0.4,0.8-0.8
			c0-3.7,0.1-7.3,0.1-11l0-3.2c0-0.4-0.4-0.8-0.8-0.8C166.6,50.3,166.2,50.7,166.2,51.1L166.2,51.1z"/>
		<path class="st6" d="M149.2,51.4c0,4,0.1,8,0.1,12c0,1.1,0,2.2,0,3.3c0,0.4,0.4,0.8,0.8,0.8c0.4,0,0.8-0.4,0.8-0.8
			c0-4,0-7.9,0-11.9c0-1.1,0-2.3,0-3.4c0-0.4-0.3-0.8-0.7-0.8C149.6,50.6,149.2,50.9,149.2,51.4C149.2,51.4,149.2,51.4,149.2,51.4
			L149.2,51.4z"/>
		<path class="st6" d="M149.4,67.2c0.5,1.1,1.6,1.8,2.7,2.2c1.2,0.5,2.5,0.9,3.7,1.1c1.2,0.1,2.5,0.2,3.7,0c1.2-0.1,2.4-0.3,3.6-0.6
			c1.3-0.4,2.5-1.1,3.6-1.9c0.3-0.3,0.4-0.8,0.1-1.1c-0.3-0.3-0.8-0.4-1.1-0.1c0,0-0.1,0.1-0.1,0.1c-0.2,0.1-0.3,0.3-0.5,0.4
			c-0.2,0.2-0.5,0.3-0.7,0.4c-0.4,0.2-0.9,0.4-1.4,0.6c-0.5,0.2-1,0.3-1.6,0.4c-0.3,0.1-0.5,0.1-0.8,0.1c-0.3,0-0.4,0.1-0.7,0.1
			c-1.1,0.1-2.2,0.1-3.3,0.1c-1.2-0.1-2.4-0.5-3.5-0.9l-0.4-0.2l-0.1-0.1c0.1,0-0.1,0-0.1,0c-0.3-0.1-0.5-0.3-0.8-0.4
			c-0.1-0.1-0.2-0.1-0.3-0.2c0.1,0.1-0.1-0.1-0.1-0.1c-0.1-0.1-0.1-0.1-0.2-0.2c-0.1-0.1-0.1-0.1-0.1-0.1c-0.1-0.2,0.1,0.1-0.1-0.1
			c-0.1-0.1-0.2-0.3-0.2-0.4c-0.2-0.4-0.7-0.5-1.1-0.3C149.3,66.3,149.2,66.8,149.4,67.2L149.4,67.2z"/>
		<path class="st6" d="M141,70.1c-2.3-2.8-3.5-6.3-3.5-9.9c0-1.8,0.3-3.4,1-4.9c0.4-0.8,0.9-1.4,1.6-2c0.6-0.5,1.3-0.9,2.1-1.1
			c0.1,0,0.2,0,0.3-0.1c0.1,0-0.1,0,0,0l0.2,0c0.2,0,0.5,0,0.7,0c0.4,0,0.9,0.1,1.3,0.2c0.9,0.1,1.8,0.4,2.6,0.9
			c0.4,0.2,0.9,0.1,1.1-0.3c0.2-0.4,0.1-0.9-0.3-1.1c-0.8-0.5-1.7-0.8-2.7-1c-0.9-0.2-1.8-0.3-2.8-0.3c-2,0.1-3.9,1.4-5,3.1
			c-1.1,1.7-1.6,3.6-1.7,5.6c-0.1,2,0.1,4,0.7,6c0.7,2.2,1.8,4.2,3.3,6c0.3,0.3,0.8,0.3,1.1,0C141.3,70.9,141.3,70.4,141,70.1z"/>
		<path class="st6" d="M143.6,55c0.6,0.1,1.1,0.2,1.7,0.4c0.5,0.1,1.1,0.2,1.6,0.4c0.4,0.1,0.9-0.1,1-0.5c0.1-0.4-0.1-0.8-0.5-1
			c-0.5-0.2-1.1-0.3-1.6-0.4c-0.5-0.1-1.1-0.3-1.7-0.4c-0.2,0-0.4,0-0.6,0.1c-0.2,0.1-0.3,0.3-0.4,0.5C143,54.4,143.2,55,143.6,55z"
			/>
		<path class="st6" d="M143.7,57.4c0.1,0,0.1,0,0.2,0h0.1c0.1,0-0.2,0-0.1,0c0.1,0,0.3,0,0.4,0.1c0.3,0.1,0.7,0.2,1,0.2
			c0.5,0.1,1,0.3,1.5,0.5c0.4,0.1,0.9-0.1,1-0.5c0.1-0.4-0.1-0.8-0.5-1c-0.5-0.2-1-0.3-1.6-0.5c-0.6-0.2-1.3-0.3-2-0.4
			c-0.4,0-0.8,0.4-0.8,0.8C142.9,57.1,143.2,57.4,143.7,57.4L143.7,57.4z"/>
		<path class="st6" d="M143.3,59.8c0.6,0.1,1.1,0.2,1.7,0.4c0.6,0.1,1.2,0.3,1.7,0.4c0.4,0.1,0.9-0.1,1-0.5c0.1-0.4-0.1-0.8-0.5-1
			c-0.6-0.2-1.2-0.3-1.7-0.4c-0.6-0.1-1.1-0.3-1.7-0.4c-0.4-0.1-0.8,0.1-1,0.5C142.7,59.3,142.9,59.7,143.3,59.8L143.3,59.8z"/>
		<path class="st6" d="M143.6,63c0.6-0.1,1.2-0.1,1.8,0l0.2,0c0.1,0,0,0,0,0c0,0,0.1,0,0.1,0c0.1,0,0.3,0.1,0.4,0.1
			c0.1,0,0.3,0.1,0.4,0.1l0.1,0c0.1,0-0.1-0.1,0,0c0.1,0,0.1,0.1,0.2,0.1c0.4,0.2,0.9,0.1,1.1-0.3c0.2-0.4,0.1-0.9-0.3-1.1
			c0,0,0,0,0,0c-0.6-0.3-1.3-0.5-2.1-0.6c-0.6-0.1-1.2-0.1-1.9,0c-0.2,0-0.4,0.1-0.6,0.2c-0.1,0.1-0.2,0.3-0.2,0.6
			C142.8,62.6,143.2,63.1,143.6,63L143.6,63z"/>
		<path class="st6" d="M143.9,62.8c0.5,0.9,1.1,1.8,1.9,2.5c0.8,0.7,1.8,1.2,2.9,1.4c0.4,0.1,0.9-0.1,1-0.5c0.1-0.4-0.1-0.9-0.5-1
			c-0.2-0.1-0.5-0.1-0.7-0.2c-0.1,0-0.2-0.1-0.3-0.1c0.2,0.1,0,0,0,0l-0.2-0.1c-0.2-0.1-0.4-0.2-0.6-0.3l-0.3-0.2c0,0-0.2-0.1,0,0
			l-0.1-0.1c-0.4-0.3-0.7-0.6-1-1c0.1,0.1,0,0.1,0,0l-0.1-0.2c-0.1-0.1-0.1-0.2-0.2-0.3c-0.1-0.2-0.3-0.4-0.4-0.7
			c-0.2-0.4-0.7-0.5-1.1-0.3C143.8,62,143.7,62.4,143.9,62.8L143.9,62.8z"/>
		<path class="st6" d="M145.4,51.8c0.1,0,0.1-0.1,0.2-0.1c0,0,0.2-0.1,0.1-0.1c-0.1,0.1,0.1,0,0.1-0.1l0.2-0.1
			c0.1-0.1,0.2-0.1,0.3-0.2s-0.1,0,0,0l0.2-0.1c0.1,0,0.2-0.1,0.3-0.1c0.1,0,0.1,0,0.2,0c0,0,0.2,0,0.1,0c-0.1,0,0.1,0,0.1,0l0.2,0
			c0.1,0,0.2,0,0.4,0s0.2,0,0.3,0c0.1,0,0.1,0,0.2,0c0.1,0-0.1,0,0,0c0.2,0,0.4,0.1,0.6,0.1c0.1,0,0.2,0.1,0.3,0.1
			c0.2,0.1-0.1-0.1,0,0c0,0,0.1,0,0.1,0.1s0.1,0.1,0.2,0.1c0.1,0.1,0,0,0,0c0,0,0.1,0.1,0.1,0.1c0.3,0.3,0.8,0.2,1.1-0.1
			c0.2-0.3,0.2-0.7,0-1c-0.7-0.7-1.9-0.9-2.9-1c-1.3,0-2.5,0.4-3.4,1.3c-0.3,0.3-0.2,0.8,0.1,1.1C144.6,52.1,145.1,52.1,145.4,51.8
			L145.4,51.8z"/>
		<path class="st6" d="M141.2,73.3c3.1,0.6,6.2-0.7,8.7-2.4c0.7-0.5,1.4-1.1,2.1-1.7c0.3-0.3,0.4-0.8,0.1-1.1
			c-0.3-0.3-0.8-0.4-1.1-0.1c0,0-0.1,0.1-0.1,0.1c-1.3,1.2-2.8,2.2-4.4,3c-0.8,0.3-1.6,0.6-2.4,0.7c-0.4,0.1-0.8,0.1-1.2,0.1
			c-0.2,0-0.4,0-0.7,0c-0.1,0-0.2,0-0.3,0c0.1,0-0.2,0-0.2,0c-0.4-0.1-0.8,0.1-1,0.5C140.6,72.7,140.8,73.2,141.2,73.3L141.2,73.3z"
			/>
		<path class="st6" d="M140.7,72.8c0,2.1,0.5,4.2,1.3,6.1c0.2,0.4,0.7,0.5,1.1,0.3c0.4-0.2,0.5-0.7,0.3-1.1
			c-0.7-1.7-1.1-3.5-1.1-5.3c0-0.4-0.4-0.8-0.8-0.8C141,72,140.7,72.3,140.7,72.8L140.7,72.8z"/>
		<path class="st6" d="M187.5,133.4c0,3.6,0.1,7.1,0.1,10.7c0,2.8,0.1,5.6,0.1,8.4c0,2.5,0.1,5.1,0.1,7.6c0,2.7,0.1,5.5,0.1,8.2
			c0,3.4,0.1,6.9,0.1,10.3l0,1.5c0,0.4,0.4,0.8,0.8,0.8c0.4,0,0.8-0.4,0.8-0.8c0-3.6-0.1-7.1-0.1-10.7c0-2.8-0.1-5.6-0.1-8.4
			c0-2.5-0.1-5.1-0.1-7.6c0-2.7-0.1-5.5-0.1-8.2c0-3.4-0.1-6.9-0.1-10.3l0-1.5c0-0.4-0.4-0.8-0.8-0.8
			C187.8,132.6,187.5,132.9,187.5,133.4C187.5,133.4,187.5,133.4,187.5,133.4z"/>
		<path class="st6" d="M191.5,132.6c0,3.6,0.1,7.2,0.1,10.8c0,2.9,0.1,5.8,0.1,8.6c0,2.6,0.1,5.2,0.1,7.9c0,2.8,0.1,5.6,0.1,8.5
			l0.1,10.4l0,1.5c0,0.4,0.4,0.8,0.8,0.8c0.4,0,0.8-0.4,0.8-0.8c0-3.6-0.1-7.2-0.1-10.8c0-2.9-0.1-5.8-0.1-8.6
			c0-2.6-0.1-5.2-0.1-7.9c0-2.8-0.1-5.6-0.1-8.5c0-3.5-0.1-6.9-0.1-10.4l0-1.5c0-0.4-0.4-0.8-0.8-0.8
			C191.9,131.8,191.5,132.2,191.5,132.6L191.5,132.6z"/>
		<path class="st6" d="M210.7,77.2c0.4,3.9,0.6,7.9,0.7,11.8c0,1.2,0,2.3,0,3.5c0,0.4,0.4,0.8,0.8,0.8c0.4,0,0.8-0.4,0.8-0.8
			c0-3.9-0.1-7.9-0.4-11.8c-0.1-1.2-0.2-2.3-0.3-3.5c0-0.4-0.4-0.8-0.8-0.8C211.1,76.4,210.6,76.8,210.7,77.2L210.7,77.2z"/>
		<path class="st6" d="M211.4,92.4c-0.1,0.1-0.1,0.2-0.2,0.3l-0.1,0.1c0,0-0.1,0.1,0,0c-0.1,0.2-0.3,0.4-0.5,0.6
			c-0.3,0.4-0.7,0.7-1,1c-0.2,0.2-0.4,0.3-0.5,0.5c-0.1,0.1-0.2,0.2-0.3,0.2l-0.1,0.1c0.1-0.1,0,0,0,0c-0.4,0.3-0.8,0.6-1.2,0.8
			c-0.4,0.2-0.5,0.7-0.3,1.1c0.2,0.4,0.7,0.5,1.1,0.3c1.8-1.1,3.4-2.6,4.6-4.3c0.2-0.4,0.1-0.9-0.3-1.1
			C212.1,91.9,211.6,92,211.4,92.4L211.4,92.4z"/>
		<path class="st6" d="M211.4,92.5c0.2,3.2,0.5,6.5,0.1,9.7c-0.3,2.7-1.1,5.3-2.3,7.7c-1.2,2.4-2.8,4.5-5,6.1
			c-2.5,1.8-5.4,3.1-8.3,4.1c-3,0.9-6,1.6-9,2.5c-1.4,0.4-2.8,1-4.2,1.6c-1.2,0.5-2.4,1.2-3.4,2.1c-2.1,1.9-2.9,4.7-3.4,7.4
			c-0.5,2.6-0.8,5.3-0.9,8c-0.3,5.5-0.1,10.9,0.1,16.4c0,0.6,0,1.2,0.1,1.8c0,0.4,0.4,0.8,0.8,0.8c0.4,0,0.8-0.4,0.8-0.8
			c0,0,0,0,0,0c-0.2-5.4-0.4-10.8-0.3-16.1c0.1-2.7,0.3-5.3,0.7-8c0.2-1.2,0.4-2.4,0.7-3.6c0.4-1.3,0.8-2.7,1.6-3.8
			c1.7-2.1,4.4-3,6.8-3.8c2.9-1,6-1.6,9-2.5c1.5-0.4,3-0.9,4.4-1.6c1.5-0.6,2.9-1.4,4.2-2.2c1.3-0.8,2.4-1.7,3.5-2.7
			c0.9-1,1.7-2.1,2.4-3.3c1.4-2.3,2.3-4.8,2.9-7.5c0.7-3.2,0.6-6.5,0.4-9.7c0-0.8-0.1-1.6-0.2-2.3c0-0.4-0.4-0.8-0.8-0.8
			C211.8,91.8,211.4,92.1,211.4,92.5L211.4,92.5z"/>
		<path class="st6" d="M152.3,120.5c-0.6,0.9-1.1,2-1.4,3c-0.3,1.2-0.6,2.4-0.8,3.6c-0.3,2.4-0.5,4.7-0.5,7.1
			c0,5.8,0.3,11.6,0.9,17.4c0.4,3.4,0.8,6.7,1.5,10.1c0.1,0.4,0.5,0.7,1,0.5c0.4-0.1,0.7-0.5,0.5-1c-0.6-2.9-1-5.7-1.3-8.6
			c-0.3-3-0.6-6-0.7-9.1c-0.1-2.8-0.2-5.6-0.3-8.3c0-2.3,0.1-4.6,0.3-6.8c0-0.1,0-0.2,0-0.2l0-0.2c0,0.1,0,0.1,0,0l0.1-0.5
			c0.1-0.3,0.1-0.7,0.2-1c0.1-0.7,0.3-1.4,0.5-2c0.2-0.6,0.4-1.2,0.6-1.8c-0.1,0.2,0,0,0-0.1c0-0.1,0.1-0.1,0.1-0.2
			c0.1-0.1,0.1-0.3,0.2-0.4c0.1-0.2,0.3-0.5,0.4-0.7c0.2-0.4,0.1-0.9-0.3-1.1C153,120,152.5,120.1,152.3,120.5L152.3,120.5z"/>
		<path class="st6" d="M152.3,161.8c1.3,1.2,2.9,2,4.7,2.5c1.7,0.5,3.4,0.7,5.2,0.6c3.3,0,6.5-0.7,9.5-1.9c1.7-0.7,3.3-1.4,4.7-2.6
			c0.3-0.3,0.3-0.8,0-1.1c-0.3-0.3-0.8-0.3-1.1,0l-0.1,0.1c-0.1,0.1,0.1-0.1,0,0l-0.2,0.1c-0.1,0.1-0.3,0.2-0.4,0.3
			c-0.3,0.2-0.6,0.4-0.9,0.6c-0.3,0.2-0.6,0.3-1,0.5c-0.2,0.1-0.3,0.2-0.5,0.2c-0.1,0-0.2,0.1-0.3,0.1l-0.1,0c-0.2,0.1,0.1,0-0.1,0
			c-1.5,0.6-3,1.1-4.5,1.4c-0.4,0.1-0.7,0.2-1.1,0.2c-0.2,0-0.3,0.1-0.5,0.1l-0.3,0l-0.1,0l-0.1,0l-0.2,0l-0.2,0
			c-0.2,0-0.4,0-0.6,0.1c-0.4,0-0.8,0.1-1.2,0.1c-0.8,0-1.7,0-2.5,0c-0.8,0-1.5-0.2-2.3-0.3c-1.7-0.4-3.3-1.1-4.7-2.3
			c-0.3-0.3-0.8-0.3-1.1,0C152,161,152,161.5,152.3,161.8L152.3,161.8z"/>
		<path class="st6" d="M143.4,162.7c3.1,1.1,6.5,1,9.5-0.3c0.4-0.2,0.5-0.7,0.3-1.1c-0.2-0.4-0.7-0.5-1.1-0.3
			c-2.6,1.1-5.6,1.2-8.3,0.2c-0.4-0.2-0.9,0.2-1,0.5C142.8,162.1,143,162.5,143.4,162.7L143.4,162.7z"/>
		<path class="st6" d="M207.1,52.4c2.3,0.3,4.5,0.5,6.8,0.8c1.4,0.2,2.8,0.3,4.2,0.5l2.1,0.3c0.4,0,0.7,0.1,1.1,0.1l0.2,0l0.2,0
			l0.5,0.1c1.4,0.2,2.8,0.4,4.2,0.6c0.4,0.1,0.8-0.1,1-0.5c0.1-0.4-0.1-0.9-0.5-1c-2.7-0.5-5.3-0.8-8-1.1c-2.7-0.3-5.4-0.6-8.2-1
			c-1.2-0.1-2.3-0.3-3.5-0.4c-0.4-0.1-0.8,0.4-0.8,0.8C206.4,52.1,206.7,52.3,207.1,52.4L207.1,52.4z"/>
		<path class="st6" d="M226.1,54.2c-0.2,4.2-0.4,8.3-0.5,12.5c-0.1,4-0.3,8-0.4,11.9c-0.1,3.9-0.2,7.9-0.3,11.8
			c-0.1,4-0.2,7.9-0.3,11.9c-0.1,4.1-0.2,8.3-0.3,12.4c0,0.5,0,1.1,0,1.6c0,0.4,0.4,0.8,0.8,0.8c0.4,0,0.8-0.4,0.8-0.8
			c0.1-4.2,0.2-8.3,0.3-12.5c0.1-4,0.2-7.9,0.3-11.9c0.1-3.9,0.2-7.9,0.3-11.8c0.1-4,0.2-7.9,0.4-11.9c0.1-4.1,0.3-8.3,0.5-12.4
			c0-0.5,0-1.1,0.1-1.6c0-0.4-0.4-0.8-0.8-0.8S226.1,53.8,226.1,54.2C226.1,54.2,226.1,54.2,226.1,54.2L226.1,54.2z"/>
		<path class="st6" d="M222.7,54.2c-0.2,4-0.4,8-0.5,12c-0.1,3.9-0.3,7.8-0.3,11.7c-0.1,3.8-0.2,7.7-0.3,11.5
			c-0.1,3.9-0.2,7.7-0.2,11.6c-0.1,3.9-0.2,7.8-0.3,11.7c0,0.5,0,1,0,1.5c0,0.4,0.4,0.8,0.8,0.8c0.4,0,0.8-0.4,0.8-0.8
			c0.1-3.9,0.2-7.8,0.3-11.7c0.1-3.9,0.2-7.7,0.2-11.6c0.1-3.8,0.2-7.7,0.2-11.5c0.1-3.9,0.2-7.8,0.3-11.7c0.1-4,0.3-8,0.5-11.9
			c0-0.5,0-1,0.1-1.6c0-0.4-0.4-0.8-0.8-0.8C223.1,53.5,222.7,53.8,222.7,54.2C222.7,54.2,222.7,54.2,222.7,54.2L222.7,54.2z"/>
		<path class="st6" d="M188.5,130.3c4.4-1.9,8.7-3.8,13-5.8c4.5-2.1,8.9-4.2,13.4-6.2c2.4-1.1,4.9-2.2,7.3-3.3
			c0.4-0.2,0.5-0.7,0.3-1.1c-0.2-0.4-0.7-0.4-1.1-0.3c-4.4,1.9-8.8,4-13.2,6c-4.4,2.1-8.9,4.2-13.3,6.2c-2.4,1.1-4.8,2.1-7.2,3.2
			c-0.4,0.2-0.5,0.7-0.3,1.1C187.7,130.4,188.1,130.4,188.5,130.3L188.5,130.3z"/>
		<path class="st6" d="M178.3,129.3c1.6,0.3,3.3,0.5,4.9,0.6c0.8,0.1,1.7,0.2,2.5,0.3c0.4,0,0.8,0.1,1.1,0.1l0.3,0c0,0,0.1,0,0.1,0
			l0.6,0.1c0.4,0.1,0.8-0.1,1-0.5c0.1-0.4-0.1-0.9-0.5-1c-1.6-0.2-3.2-0.4-4.8-0.6c-0.8-0.1-1.7-0.2-2.5-0.3c-0.4-0.1-0.6-0.1-1-0.1
			c-0.4-0.1-0.8-0.1-1.1-0.2c-0.4-0.1-0.8,0.1-1,0.5C177.7,128.7,177.9,129.2,178.3,129.3L178.3,129.3z"/>
		<path class="st6" d="M188.6,133.9c4.9-2,9.7-4.1,14.5-6.3c4.7-2.1,9.4-4.3,14.1-6.6c2.7-1.3,5.3-2.6,7.9-4
			c0.4-0.2,0.5-0.7,0.3-1.1c-0.2-0.4-0.7-0.5-1.1-0.3l0,0c-4.6,2.4-9.3,4.7-14,6.9c-4.7,2.2-9.4,4.3-14.1,6.4
			c-2.7,1.2-5.3,2.3-8,3.4c-0.4,0.2-0.7,0.5-0.5,1C187.8,133.7,188.2,134.1,188.6,133.9L188.6,133.9z"/>
		<path class="st6" d="M177.3,132.6c1.6,0.2,3.2,0.4,5,0.7c1.9,0.3,3.8,0.5,5.8,0.7c0.4,0,0.8-0.4,0.8-0.8c0-0.4-0.4-0.8-0.8-0.8
			c-3.6-0.3-7.1-0.9-10.8-1.4c-0.4-0.1-0.8,0.4-0.8,0.8C176.5,132.3,176.9,132.5,177.3,132.6L177.3,132.6z"/>
		<path class="st6" d="M187.3,130c0.1,1,0,2,0.1,2.9c0,0.4,0.4,0.8,0.8,0.8c0.4,0,0.8-0.4,0.8-0.8c0,0,0,0,0,0c-0.1-1,0-2-0.1-2.9
			c0-0.4-0.4-0.8-0.8-0.8C187.7,129.2,187.3,129.6,187.3,130z"/>
		<path class="st6" d="M210.3,112l7.6,1.3c0.4,0.1,0.8-0.1,1-0.5c0.1-0.4-0.1-0.9-0.5-1l-7.6-1.3c-0.4-0.1-0.8,0.1-1,0.5
			C209.6,111.4,209.8,111.9,210.3,112L210.3,112z"/>
		<path class="st6" d="M204.2,17.4c0,0,0.2,0,0.1,0c-0.1,0,0.1,0,0.1,0c0.1,0,0.2,0,0.3,0.1c0.3,0.1,0.5,0.1,0.8,0.2
			c0,0,0.1,0.1,0,0l0.1,0.1c0.1,0.1,0.2,0.1,0.3,0.2c0.2,0.1,0.5,0.3,0.7,0.4l0.1,0.1c0.2,0.1-0.1,0,0.1,0c0.1,0.1,0.2,0.1,0.3,0.2
			c0.2,0.2,0.4,0.4,0.6,0.6c0.3,0.4,0.6,0.8,0.9,1.2c0.5,0.9,0.9,1.8,1.1,2.8c0.2,1.3,0.3,2.6,0.2,3.9c-0.2,2.7-1.1,5.2-1.7,7.8
			c-0.6,2.5-1,5.1-0.7,7.7c0.3,2.4,1.4,4.9,3.4,6.4c0.3,0.3,0.8,0.3,1.1,0c0.3-0.3,0.3-0.9,0-1.1c-0.8-0.6-1.5-1.4-2-2.4
			c-0.5-0.9-0.8-2-1-3c-0.1-0.5-0.1-1-0.1-1.5c0-0.6,0-1.2,0.1-1.9c0.1-1.3,0.4-2.7,0.7-4c1.2-5,3.2-10.7,0.4-15.5
			c-1.3-2.2-3.4-3.8-6-4.1c-0.4,0-0.8,0.4-0.8,0.8C203.4,17.1,203.7,17.4,204.2,17.4L204.2,17.4z"/>
		<path class="st6" d="M201.4,35.7c-0.7,3-0.1,6.1,1.6,8.7c0.2,0.4,0.7,0.5,1.1,0.3c0.4-0.2,0.5-0.7,0.3-1.1
			c-0.7-1.1-1.2-2.4-1.5-3.7c-0.2-1.3-0.2-2.6,0.1-3.8c0.1-0.4-0.1-0.8-0.5-1C202,35,201.6,35.3,201.4,35.7L201.4,35.7z"/>
		<path class="st6" d="M188.4,181.1c1.3,1.3,3.4,1.4,4.8,0.2c0.3-0.3,0.3-0.8,0-1.1c-0.3-0.3-0.8-0.3-1.1,0c-0.1,0.1,0.1-0.1,0,0
			l-0.1,0.1c-0.1,0-0.1,0.1-0.2,0.1l-0.1,0.1c-0.1,0.1,0,0,0.1,0c0,0-0.2,0.1-0.2,0.1c-0.1,0-0.2,0-0.2,0.1l-0.1,0c-0.1,0,0.2,0,0,0
			c-0.2,0-0.3,0-0.5,0h-0.1c-0.1,0,0,0,0,0c-0.1,0-0.1,0-0.2,0c-0.1,0-0.1,0-0.2-0.1l-0.1,0c-0.1,0,0,0,0,0
			c-0.1-0.1-0.3-0.1-0.4-0.2c0,0-0.1-0.1,0,0c0.1,0.1,0,0,0,0c-0.1-0.1-0.1-0.1-0.2-0.2c-0.3-0.3-0.8-0.2-1.1,0.1
			C188.1,180.4,188.1,180.8,188.4,181.1L188.4,181.1z"/>
		<path class="st6" d="M220.3,118.7c0,3.6,0.1,7.3,0.1,10.9c0,3,0,6,0,9c0,2.8,0,5.5,0,8.3c0,2.9,0,5.9,0,8.8c0,3.5,0,7.1,0.1,10.6
			l0,1.5c0,0.4,0.4,0.8,0.8,0.8c0.4,0,0.8-0.4,0.8-0.8c0-3.6-0.1-7.3-0.1-10.9c0-3,0-6,0-9c0-2.8,0-5.5,0-8.3c0-2.9,0-5.9,0-8.8
			c0-3.5,0-7.1-0.1-10.6c0-0.5,0-1,0-1.5c0-0.4-0.3-0.8-0.7-0.8C220.7,117.9,220.4,118.2,220.3,118.7
			C220.3,118.7,220.3,118.7,220.3,118.7L220.3,118.7z"/>
		<path class="st6" d="M224.2,116.5c0,3.7,0.1,7.4,0.1,11.1c0,3.2,0.1,6.3,0.1,9.5c0,3,0.1,5.9,0.1,8.9l0.1,9.4l0.1,10.9l0,1.5
			c0,0.4,0.4,0.8,0.8,0.8c0.4,0,0.8-0.4,0.8-0.8l-0.1-11.1c0-3.2-0.1-6.3-0.1-9.5c0-3-0.1-5.9-0.1-8.9c0-3.1-0.1-6.2-0.1-9.4
			c0-3.6-0.1-7.2-0.1-10.9c0-0.5,0-1,0-1.5c0-0.4-0.4-0.8-0.8-0.8C224.6,115.7,224.2,116.1,224.2,116.5z"/>
		<path class="st6" d="M221.1,168.8c0.6,0.6,1.5,1,2.3,0.9c0.9,0,1.7-0.3,2.4-0.9c0.3-0.3,0.3-0.8,0-1.1c-0.3-0.3-0.8-0.3-1.1,0
			c-0.1,0.1,0.1-0.1,0,0l-0.1,0.1c-0.1,0-0.1,0.1-0.2,0.1s-0.1,0.1-0.2,0.1c-0.1,0.1,0.1,0,0,0l-0.1,0c-0.1,0.1-0.3,0.1-0.5,0.1
			c0,0-0.2,0,0,0c0.1,0,0,0,0,0c-0.1,0-0.2,0-0.2,0c-0.1,0-0.1,0-0.2,0h-0.1c-0.2,0,0.1,0,0,0c-0.2,0-0.3-0.1-0.4-0.1
			c0,0-0.1,0-0.1,0c0.1,0,0.1,0.1,0,0c-0.1-0.1-0.1-0.1-0.2-0.1c-0.1,0-0.1,0-0.1-0.1c-0.1,0,0.1,0.1,0,0c-0.1-0.1-0.1-0.1-0.2-0.2
			c-0.3-0.3-0.8-0.3-1.1,0C220.8,168,220.8,168.5,221.1,168.8L221.1,168.8z"/>
		<path class="st6" d="M202,89c0.9,0.5,1.7,1,2.5,1.6c0.1,0.1,0.1,0.1,0.1,0.1c0.1,0.1,0.2,0.1,0.2,0.2c0.2,0.1,0.3,0.3,0.5,0.4
			c0.3,0.3,0.5,0.5,0.8,0.8c0,0,0.2,0.2,0.1,0.1l0.2,0.2c0.1,0.1,0.2,0.3,0.3,0.4c0.1,0.2,0.2,0.3,0.2,0.4l0.1,0.1c0,0,0-0.1,0,0
			c0,0.1,0.1,0.1,0.1,0.2c0,0.1,0,0.1,0,0.1c0,0,0,0,0,0.1c0,0.1,0-0.1,0-0.1c0,0.1,0,0.2,0,0.3c0,0.1,0-0.2,0,0c0,0,0,0.1,0,0.1
			c0,0,0,0.3-0.1,0.3c0,0,0.1-0.2,0-0.1c0,0,0,0,0,0.1c0,0,0,0.1-0.1,0.1c-0.1,0.1-0.1,0.2-0.2,0.3c0,0-0.1,0.1-0.1,0.1
			c-0.1,0.2,0.1-0.1,0,0c-0.1,0.1-0.2,0.2-0.3,0.3c-0.2,0.2-0.4,0.4-0.6,0.6c-0.1,0.1-0.2,0.2-0.3,0.3l-0.2,0.1l-0.1,0.1
			c0,0-0.2,0.1-0.1,0.1c0.1-0.1-0.1,0.1-0.1,0.1l-0.2,0.1c-0.1,0.1-0.3,0.2-0.4,0.3c-0.3,0.2-0.6,0.4-0.8,0.6
			c-0.6,0.4-1.2,0.7-1.8,1c-1.1,0.6-2.2,1.1-3.3,1.6c-0.4,0.2-0.5,0.7-0.3,1.1c0.2,0.4,0.7,0.5,1.1,0.3c2.3-1,4.6-2.2,6.6-3.8
			c1-0.7,2-1.6,2.6-2.8c0.3-0.5,0.4-1.1,0.3-1.7c-0.2-0.7-0.4-1.3-0.9-1.8c-1.2-1.7-3.1-3-4.9-4c-0.4-0.2-0.9-0.1-1.1,0.3
			C201.5,88.3,201.7,88.8,202,89L202,89z"/>
		<path class="st6" d="M87.9,102.2c-3.8-1.2-7.7-2.3-11-4.6c-0.6-0.4-1.2-1-1.7-1.6c-0.4-0.5-1-1.1-1.2-1.7c-0.3-1,0.4-2,1-2.7
			c0.6-0.8,1.4-1.4,2.2-2c1.7-1.2,3.5-2,5.4-2.8c2.2-0.8,4.4-1.5,6.6-2.1c4.6-1.2,9.2-2,13.9-2.7c9.4-1.4,18.9-2.3,28.4-2.7
			c9.3-0.4,18.6-0.2,27.8,0.6c8.8,0.7,17.5,2,26.1,3.9c1,0.2,2,0.5,3.1,0.7c1,0.2,1.4-1.3,0.4-1.5c-8.8-2.1-17.8-3.6-26.9-4.4
			c-9.5-0.9-19.1-1.2-28.7-0.9c-9.8,0.3-19.6,1.2-29.4,2.6c-4.9,0.7-9.7,1.5-14.5,2.7c-2.4,0.6-4.7,1.3-7,2.1
			c-2,0.7-3.9,1.6-5.7,2.7c-1.7,1.1-3.4,2.6-4.2,4.5c-0.4,0.9-0.4,1.9,0,2.8c0.4,0.7,0.9,1.4,1.5,2c2.6,2.8,6.6,4.3,10.2,5.4
			c1,0.3,2,0.6,3.1,1C88.5,104,88.9,102.5,87.9,102.2L87.9,102.2z"/>
		<path class="st6" d="M91.4,104.5c6.1,1.4,12.3,2.2,18.5,2.8c7.4,0.7,14.8,1.1,22.2,1.2c7.7,0.1,15.5,0,23.2-0.3
			c7.2-0.3,14.4-0.9,21.5-1.8c5.8-0.7,11.6-1.6,17.2-3.2c0.6-0.2,1.1-0.3,1.7-0.5c1-0.3,0.6-1.8-0.4-1.5c-5.3,1.6-10.9,2.6-16.4,3.3
			c-6.9,1-13.9,1.5-20.9,1.9c-7.7,0.4-15.4,0.6-23.1,0.5c-7.4-0.1-14.9-0.4-22.3-1c-6.3-0.5-12.6-1.3-18.8-2.5
			c-0.7-0.1-1.3-0.3-2-0.4C90.9,102.7,90.5,104.2,91.4,104.5L91.4,104.5z"/>
		<path class="st6" d="M72.4,94.1c-0.2,4.6,2.5,8.8,6.3,11.2c3.9,2.4,8.4,3.8,12.9,4.7c11.1,2.3,22.4,3.7,33.7,4.2
			c10.7,0.5,21.4,0.3,32.1-0.5c5.2-0.4,10.4-0.9,15.6-1.5c5.1-0.6,10.3-1.2,15.3-2.4c4-0.9,7.8-2.2,11.5-3.8c3.7-1.7,7-4.6,8.2-8.6
			c0.3-1,0.5-2,0.6-3c0.1-1-1.5-1-1.6,0c-0.3,4.1-2.8,7.4-6.3,9.4c-3.3,1.9-7.1,3.1-10.7,4c-4.8,1.3-9.7,1.9-14.6,2.6
			c-5,0.6-9.9,1.2-14.9,1.6c-10.2,0.9-20.5,1.2-30.8,0.9c-10.8-0.3-21.6-1.4-32.3-3.2c-4.8-0.9-9.7-1.7-14.2-3.7
			c-1.9-0.8-3.9-1.8-5.4-3.1c-1.7-1.4-2.9-3.3-3.5-5.4c-0.3-1.1-0.4-2.2-0.4-3.3C74,93.1,72.4,93.1,72.4,94.1L72.4,94.1z"/>
		<path class="st6" d="M135.2,114.6c0,4.5,0,9,0,13.5c0,5.1-0.1,10.2-0.1,15.3c-0.1,5.3-0.1,10.6-0.2,15.9
			c-0.1,5.1-0.1,10.3-0.1,15.4c0,4.6,0,9.2,0,13.8c0,0.5,0,1,0,1.5c0,1,1.6,1,1.6,0c0-4.5,0-9,0-13.5c0-5.1,0.1-10.2,0.1-15.3
			c0.1-5.3,0.1-10.6,0.2-15.9c0.1-5.1,0.1-10.3,0.1-15.4c0-4.6,0-9.2,0-13.8l0-1.5C136.8,113.6,135.2,113.6,135.2,114.6L135.2,114.6
			z"/>
		<path class="st6" d="M142.9,114.6c0,4.5,0,9,0,13.5c0,5.1-0.1,10.2-0.1,15.3c-0.1,5.3-0.1,10.6-0.2,15.9
			c-0.1,5.1-0.1,10.3-0.1,15.4c0,4.6,0,9.2,0,13.8c0,0.5,0,1,0,1.5c0,1,1.6,1,1.6,0c0-4.5,0-9,0-13.5c0-5.1,0.1-10.2,0.1-15.3
			c0.1-5.3,0.1-10.6,0.2-15.9c0.1-5.1,0.1-10.3,0.1-15.4c0-4.6,0-9.2,0-13.8l0-1.5C144.5,113.6,142.9,113.6,142.9,114.6L142.9,114.6
			z"/>
		<path class="st6" d="M134.8,186.7c-4.3,0.3-8.6,0.7-12.9,1.4c-1.9,0.3-3.8,0.7-5.7,1.1c-1.6,0.3-3.1,0.6-4.6,1.2
			c-0.7,0.3-1.5,0.6-2.1,1c-0.5,0.3-1.1,0.7-1.4,1.3c-0.4,0.9,0,1.9,0.6,2.5c0.7,0.7,1.5,1.1,2.5,1.3c4.3,1.1,8.8,1.6,13.2,2
			c4.6,0.4,9.1,0.5,13.7,0.5c4.6,0,9.3,0,13.9-0.4c4.6-0.3,9.2-0.9,13.7-1.9c1-0.2,2-0.5,3-0.8c0.9-0.3,1.7-0.7,2.4-1.4
			s1-1.5,0.7-2.4c-0.3-0.9-1.1-1.5-1.9-1.9c-0.8-0.4-1.7-0.7-2.6-0.9c-0.9-0.2-1.8-0.4-2.7-0.6c-1.9-0.4-3.9-0.7-5.8-1
			c-4-0.5-8-0.9-12.1-1.1c-0.9,0-1.8-0.1-2.6-0.1c-0.4,0-0.8,0.4-0.8,0.8c0,0.4,0.4,0.8,0.8,0.8c3.7,0.2,7.4,0.4,11.1,0.8
			c3.7,0.4,7.5,0.9,11.1,1.8c0.8,0.2,1.6,0.4,2.4,0.7c0.4,0.1,0.7,0.3,1,0.5c0.2,0.1,0.4,0.3,0.5,0.6c0,0,0,0.2,0,0.2
			c0-0.1,0,0,0,0.1c0,0.1,0,0.1,0,0c0,0,0,0.1,0,0.1c0,0,0,0.1,0,0.1c0,0.2,0-0.1,0,0c0,0.1-0.1,0.2-0.1,0.2c-0.1,0.1,0,0-0.1,0.1
			c-0.1,0.1-0.1,0.1-0.2,0.2l-0.1,0.1c-0.2,0.2,0.1,0-0.1,0.1c-0.7,0.4-1.4,0.8-2.2,1c-4.2,1.1-8.5,1.8-12.8,2.2
			c-4.4,0.4-8.9,0.6-13.3,0.6c-4.4,0-8.8,0-13.2-0.2c-4.3-0.2-8.6-0.7-12.8-1.4c-1-0.2-2-0.4-3-0.6c-0.5-0.1-0.9-0.2-1.4-0.4
			c-0.3-0.1-0.6-0.3-0.9-0.5c-0.2-0.1-0.3-0.3-0.4-0.4c0.1,0.1-0.1-0.1-0.1-0.1c0,0,0-0.1-0.1-0.1c0,0.1,0,0,0,0l0-0.1
			c0,0,0,0.1,0,0c0,0,0-0.3,0-0.1c0,0,0.1-0.2,0-0.1c-0.1,0.1,0,0,0-0.1c0-0.1-0.1,0.1,0,0l0.1-0.1c0.1,0,0.1-0.1,0.2-0.1
			c0.1,0,0,0,0,0l0.1-0.1c0.3-0.2,0.6-0.4,0.9-0.5c0.6-0.3,1.2-0.6,1.9-0.8c0.6-0.2,1.3-0.4,1.9-0.5c1.8-0.4,3.6-0.8,5.4-1.1
			c3.8-0.7,7.7-1.2,11.6-1.6c1.1-0.1,2.2-0.2,3.3-0.2c0.4,0,0.8-0.4,0.8-0.8C135.6,187,135.3,186.7,134.8,186.7L134.8,186.7z"/>
		<path class="st6" d="M135.2,190.9c1.2,1,2.7,1.1,4.2,1c1.4,0,3-0.1,4.2-1c0.3-0.3,0.5-0.7,0.3-1.1c-0.2-0.3-0.7-0.5-1.1-0.3
			c-0.5,0.3-1,0.6-1.6,0.6c-0.3,0-0.5,0.1-0.8,0.1c-0.3,0-0.6,0-0.9,0c-0.6,0-1.2,0-1.8-0.1c-0.3,0-0.6-0.1-0.8-0.2
			c-0.2-0.1-0.4-0.2-0.6-0.3c-0.3-0.3-0.8-0.3-1.1,0C134.9,190.1,134.8,190.7,135.2,190.9L135.2,190.9z"/>
		<path class="st6" d="M117.6,96.3c5,1.4,10.1,2.6,15.1,3.7c1.4,0.3,2.8,0.6,4.2,0.9c0.4,0.1,0.8-0.1,1-0.5c0.1-0.4-0.1-0.8-0.5-1
			c-5.1-1.1-10.2-2.2-15.2-3.5c-1.4-0.4-2.8-0.7-4.2-1.1C117.1,94.5,116.6,96,117.6,96.3z"/>
		<path class="st6" d="M117.7,93.3c4.6,1.3,9.1,2.4,13.8,3.4c1.4,0.3,2.7,0.6,4.1,0.9c0.4,0.1,0.8-0.1,1-0.5c0.1-0.4-0.1-0.8-0.5-1
			c-4.6-1-9.2-2-13.8-3.2c-1.3-0.4-2.7-0.7-4-1.1C117.1,91.5,116.7,93,117.7,93.3L117.7,93.3z"/>
		<path class="st6" d="M117.6,90.4c5.2,1.4,10.4,2.7,15.6,3.8c1.4,0.3,2.9,0.6,4.3,0.9c0.4,0.1,0.8-0.1,1-0.5c0.1-0.4-0.1-0.8-0.5-1
			c-5.2-1.1-10.5-2.3-15.7-3.6c-1.4-0.4-2.9-0.8-4.3-1.2C117.1,88.6,116.6,90.1,117.6,90.4z"/>
		<path class="st6" d="M137.2,94.8c0.1,0.1,0.1,0.2,0.2,0.3l0.1,0.2c0.1,0.1,0-0.1,0,0c0.1,0.2,0.1,0.4,0.2,0.6
			c0.1,0.2,0.1,0.4,0.1,0.7c0,0.1,0,0.2,0.1,0.3c0,0.1,0,0.1,0,0.2c0,0.2,0-0.2,0,0.1c0,0.2,0,0.4,0,0.6c0-0.1,0,0,0,0.1
			c0,0,0,0.1,0,0.2c0,0.1-0.1,0.2-0.1,0.3c0,0-0.1,0.2,0,0.1c0,0,0,0.1-0.1,0.1c0,0.1-0.1,0.2-0.2,0.3c0,0-0.1,0.1,0,0
			c0,0.1-0.1,0.1-0.1,0.1c0,0-0.1,0.1-0.1,0.1s-0.1,0.1,0,0.1c-0.3,0.3-0.5,0.7-0.3,1.1c0.2,0.3,0.7,0.5,1.1,0.3
			c1-0.7,1.5-1.9,1.5-3.2c0-0.6-0.1-1.2-0.3-1.7c-0.1-0.6-0.4-1.1-0.7-1.7C138.1,93.1,136.7,93.9,137.2,94.8L137.2,94.8z"/>
		<path class="st6" d="M139.7,82.3c5.1,1.4,10.3,2.1,15.4,3.1c1.4,0.3,2.8,0.6,4.2,1c0.4,0.1,0.9-0.1,1-0.6s-0.1-0.9-0.6-1
			c-5.2-1.3-10.5-2-15.7-3.1c-1.3-0.3-2.7-0.6-4-0.9C139.1,80.5,138.7,82,139.7,82.3L139.7,82.3z"/>
		<path class="st6" d="M159.1,86.1c0.1,0.1,0.1,0.2,0.2,0.3c0,0.1,0.1,0.1,0.1,0.2c0.1,0.1,0-0.1,0,0c0.1,0.2,0.1,0.4,0.2,0.6
			c0.1,0.2,0.1,0.4,0.1,0.7c0,0.1,0,0.2,0.1,0.3c0,0.1,0,0.1,0,0.2c0,0.2,0-0.2,0,0.1c0,0.2,0,0.4,0,0.6c0-0.1,0,0,0,0.1
			c0,0,0,0.1,0,0.2c0,0.1-0.1,0.2-0.1,0.3c0,0-0.1,0.2,0,0.1c0,0,0,0.1-0.1,0.1c0,0.1-0.1,0.2-0.2,0.3c0,0-0.1,0.1,0,0
			c0,0.1-0.1,0.1-0.1,0.1l-0.1,0.1c0,0-0.1,0.1,0,0c-0.3,0.3-0.5,0.7-0.3,1.1c0.2,0.3,0.7,0.5,1.1,0.3c1-0.7,1.5-1.9,1.5-3.1
			c0-0.6-0.1-1.2-0.3-1.7c-0.1-0.6-0.4-1.1-0.7-1.7C159.9,84.5,158.6,85.3,159.1,86.1L159.1,86.1z"/>
		<path class="st6" d="M137.9,100.8c5.7-2,11.3-4.3,16.8-6.7c1.6-0.7,3.1-1.3,4.7-2c0.4-0.2,0.5-0.7,0.3-1.1
			c-0.2-0.4-0.7-0.4-1.1-0.3c-5.4,2.3-10.9,4.7-16.4,6.8c-1.6,0.6-3.1,1.2-4.7,1.7c-0.4,0.1-0.7,0.5-0.5,1
			C137,100.7,137.4,100.9,137.9,100.8L137.9,100.8z"/>
		<path class="st6" d="M117.9,90.2c5.9-2.1,11.7-4.1,17.6-6.2c1.5-0.5,3-1.1,4.5-1.7c0.4-0.1,0.7-0.6,0.5-1c-0.1-0.4-0.6-0.7-1-0.5
			c-5.7,2.2-11.4,4.1-17.2,6.1c-1.6,0.6-3.3,1.1-4.9,1.7c-0.4,0.1-0.7,0.6-0.5,1C117,90,117.5,90.3,117.9,90.2L117.9,90.2z"/>
		<path class="st6" d="M138.6,95.2c4.8-1.8,9.4-3.8,14.2-5.6c1.3-0.5,2.5-1,3.8-1.4c0.4-0.1,0.7-0.6,0.5-1c-0.1-0.4-0.6-0.7-1-0.5
			c-4.8,1.7-9.5,3.7-14.2,5.6c-1.2,0.5-2.5,1-3.8,1.5c-0.4,0.1-0.7,0.5-0.5,1C137.8,95.1,138.2,95.4,138.6,95.2L138.6,95.2z"/>
		<path class="st6" d="M129.6,89.7c1.7,0.4,3.5,0.9,5.2,1.5c0.4,0.1,0.9-0.1,1-0.5c0.1-0.4-0.1-0.8-0.5-1c-1.7-0.6-3.5-1.1-5.2-1.5
			c-0.4-0.1-0.9,0.1-1,0.5S129.1,89.6,129.6,89.7C129.6,89.7,129.6,89.7,129.6,89.7L129.6,89.7z"/>
		<path class="st6" d="M133.4,88.3c1.6,0.5,3.2,1,4.8,1.5c0.4,0.1,0.8-0.1,1-0.5c0.1-0.4-0.1-0.8-0.5-1c-1.6-0.5-3.2-1-4.8-1.5
			c-0.4-0.1-0.8,0.1-1,0.5C132.8,87.8,133,88.2,133.4,88.3L133.4,88.3z"/>
		<path class="st6" d="M179.2,69.9c-0.1,0-0.2,0.1-0.3,0.1c0,0-0.1,0-0.1,0c-0.2,0.1-0.3,0.2-0.4,0.4c-0.1,0.1-0.1,0.2-0.2,0.3
			c0,0.1-0.1,0.2-0.1,0.4c0,0.1,0,0.1,0,0.2c0,0.1,0,0.2,0.1,0.4c0.1,0.2,0.2,0.4,0.4,0.6c0.1,0.1,0.3,0.2,0.5,0.3c0,0,0,0,0.1,0
			c0.1,0,0.2,0,0.3,0c0.1,0,0.2,0,0.3,0c0,0,0.1,0,0.1,0c0.2-0.1,0.3-0.2,0.5-0.3c0.2-0.2,0.3-0.4,0.4-0.6c0-0.1,0.1-0.2,0.1-0.4
			c0-0.1,0-0.3,0-0.4c0-0.1,0-0.1,0-0.2c0-0.1-0.1-0.2-0.1-0.3c0-0.1-0.1-0.2-0.2-0.2c-0.1-0.1-0.2-0.2-0.3-0.2
			c-0.2-0.1-0.4-0.1-0.6-0.2c-0.2,0-0.4,0.1-0.6,0.2c-0.3,0.3-0.3,0.8,0,1.1l0.2,0.1c0.1,0.1,0.3,0.1,0.4,0.1h0l-0.2,0
			c0,0,0.1,0,0.1,0l-0.2-0.1c0,0,0.1,0,0.1,0.1l-0.2-0.1c0,0,0.1,0.1,0.1,0.1l-0.1-0.2c0,0,0.1,0.1,0.1,0.1l-0.1-0.2
			c0,0.1,0,0.1,0.1,0.2l0-0.2c0,0.1,0,0.1,0,0.2l0-0.2c0,0.1,0,0.1,0,0.2l0.1-0.2c0,0,0,0.1-0.1,0.1l0.1-0.2c0,0-0.1,0.1-0.1,0.1
			l0.2-0.1c0,0-0.1,0-0.1,0l0.2-0.1c0,0-0.1,0-0.1,0l0.2,0c0,0-0.1,0-0.1,0l0.2,0c0,0-0.1,0-0.1,0l0.2,0.1c0,0-0.1,0-0.1-0.1
			l0.2,0.1c0,0-0.1-0.1-0.1-0.1l0.1,0.2c0,0-0.1-0.1-0.1-0.1l0.1,0.2c0-0.1,0-0.1-0.1-0.2l0,0.2c0-0.1,0-0.1,0-0.2l0,0.2
			c0-0.1,0-0.1,0-0.2l-0.1,0.2c0,0,0-0.1,0.1-0.1l-0.1,0.2c0,0,0-0.1,0.1-0.1l-0.2,0.1c0,0,0.1,0,0.1-0.1l-0.2,0.1l0.1,0
			c0.2-0.1,0.4-0.2,0.5-0.4c0.1-0.1,0.1-0.2,0.1-0.3c0-0.1,0-0.2,0-0.3c-0.1-0.2-0.2-0.4-0.4-0.5C179.6,69.9,179.4,69.8,179.2,69.9
			L179.2,69.9z"/>
		<path class="st6" d="M179.6,76c-0.1,0-0.2,0-0.3,0c-0.1,0-0.2,0-0.2,0h0l0,0c-0.1,0-0.1,0.1-0.2,0.1c0,0,0,0-0.1,0
			c-0.1,0.1-0.2,0.1-0.3,0.2c-0.1,0.1-0.2,0.2-0.2,0.3c-0.1,0.2-0.2,0.5-0.2,0.7c0,0.1,0,0.2,0,0.3c0,0.1,0.1,0.1,0.1,0.2
			c0,0,0,0,0,0l0,0c0,0.1,0.1,0.1,0.1,0.2c0,0,0.1,0.1,0.1,0.1c0,0,0.1,0.1,0.2,0.1c0.2,0.1,0.5,0.2,0.7,0.2c0.1,0,0.2,0,0.3,0
			c0.1,0,0.2-0.1,0.3-0.1c0,0,0.1,0,0.1,0c0.1-0.1,0.2-0.1,0.2-0.2c0.1-0.1,0.2-0.3,0.3-0.5c0-0.1,0.1-0.2,0.1-0.4
			c0-0.1,0-0.1,0-0.2c0-0.1,0-0.3-0.1-0.4c0-0.1-0.1-0.2-0.2-0.3c-0.1-0.2-0.2-0.3-0.4-0.4c-0.1,0-0.1-0.1-0.2-0.1L179.6,76
			C179.6,76,179.6,76,179.6,76c-0.1,0-0.1-0.1-0.2-0.1c-0.2,0-0.4,0.1-0.6,0.2c-0.1,0.2-0.2,0.4-0.2,0.6l0,0.2
			c0,0.1,0.1,0.3,0.2,0.3c0.2,0.1,0.4,0.2,0.6,0.2h0l-0.2,0c0,0,0.1,0,0.1,0l-0.2-0.1c0,0,0,0,0.1,0l-0.2-0.1c0,0,0,0,0.1,0.1
			l-0.1-0.2c0,0,0,0.1,0.1,0.1l-0.1-0.2c0,0.1,0,0.1,0,0.2l0-0.2c0,0.1,0,0.1,0,0.2l0-0.2c0,0.1,0,0.1,0,0.2l0.1-0.2
			c0,0,0,0.1-0.1,0.1l0.1-0.2c0,0,0,0-0.1,0.1l0.2-0.1c0,0-0.1,0-0.1,0.1l0.2-0.1c0,0-0.1,0-0.1,0l0.2,0c-0.1,0-0.1,0-0.2,0l0.2,0
			c-0.1,0-0.1,0-0.1,0l0.2,0.1c0,0-0.1,0-0.1-0.1l0.2,0.1c0,0-0.1-0.1-0.1-0.1l0.1,0.2c0,0,0,0,0-0.1l0.1,0.2c0,0,0-0.1,0-0.1l0,0.2
			c0,0,0-0.1,0-0.1l0,0.2c0-0.1,0-0.1,0.1-0.2l-0.1,0.2c0-0.1,0.1-0.1,0.1-0.2l-0.1,0.2c0,0,0.1-0.1,0.1-0.1l-0.2,0.1
			c0,0,0.1,0,0.1-0.1l-0.2,0.1c0,0,0,0,0.1,0l-0.2,0h0.1l-0.2,0h0c0.1,0,0.2,0,0.3,0c0.1,0,0.2,0,0.3-0.1c0.1,0,0.2-0.1,0.2-0.2
			c0.1-0.1,0.1-0.2,0.1-0.3l0-0.2C180.2,76.4,179.9,76.1,179.6,76L179.6,76z"/>
		<path class="st6" d="M155.9,162.6c-0.8,0.2-1.4,0.8-1.8,1.5c-0.4,0.7-0.7,1.5-0.6,2.2c0,0.2,0.1,0.4,0.2,0.6
			c0.3,0.3,0.8,0.3,1.1,0c0.1-0.1,0.2-0.3,0.2-0.6c0-0.1,0-0.3,0-0.4c0-0.1,0,0.2,0,0.1c0,0,0-0.1,0-0.1c0-0.1,0-0.1,0.1-0.2
			c0-0.1,0-0.2,0.1-0.2c0,0,0-0.1,0-0.1c0.1-0.1-0.1,0.2,0,0c0.1-0.2,0.1-0.3,0.2-0.4c0-0.1,0.1-0.1,0.1-0.2c0,0,0.1-0.1,0,0
			c-0.1,0.1,0,0,0,0c0.1-0.1,0.2-0.2,0.3-0.3c0,0,0.1,0,0.1-0.1c-0.2,0.2-0.1,0.1,0,0s0.1-0.1,0.2-0.1l0.1,0c0.1-0.1-0.2,0.1-0.1,0
			c0.1,0,0.1,0,0.2-0.1c0.4-0.1,0.7-0.5,0.5-1C156.8,162.7,156.3,162.5,155.9,162.6L155.9,162.6z"/>
		<path class="st6" d="M154.3,165.6c-1.7,0.2-3.3,0.5-5,0.9c-0.8,0.2-1.6,0.4-2.3,0.6c-0.7,0.3-1.5,0.6-2.2,0.9
			c-0.7,0.3-1.4,0.8-1.9,1.4c-0.3,0.3-0.3,0.8,0,1.1c0.3,0.3,0.8,0.3,1.1,0c0.1-0.1,0.2-0.2,0.2-0.3c0,0,0.1-0.1,0.2-0.1
			c0.1-0.1,0,0,0.1-0.1c0.3-0.2,0.6-0.4,0.9-0.5c0.3-0.2,0.6-0.3,1-0.5l0.2-0.1c0,0,0.1-0.1,0,0l0.1,0c0.2-0.1,0.3-0.1,0.5-0.2
			c0.7-0.2,1.4-0.4,2.1-0.6c0.8-0.2,1.6-0.4,2.4-0.5c0.4-0.1,0.8-0.2,1.3-0.2l0.3,0l0.1,0c0.3,0-0.1,0,0.1,0c0.2,0,0.5-0.1,0.7-0.1
			c0.4,0,0.8-0.4,0.8-0.8C155.1,166,154.7,165.6,154.3,165.6L154.3,165.6z"/>
		<path class="st6" d="M143,183.2c2,1.2,4.3,1.5,6.6,1.6c2.4,0.1,4.8,0,7.1-0.4c4.6-0.6,9-1.9,13.3-3.6c2.6-1,5.1-2.1,7.6-3.3
			c0.4-0.2,0.5-0.7,0.3-1.1c-0.2-0.4-0.7-0.5-1.1-0.3c-4.2,1.9-8.3,3.7-12.7,5.1c-4.3,1.3-8.9,2-13.4,2c-2.3,0-4.8-0.2-6.8-1.4
			c-0.4-0.2-0.9-0.1-1.1,0.3C142.5,182.6,142.6,183,143,183.2L143,183.2z"/>
		<path class="st6" d="M174.7,161c1.3,4,1.9,8.2,1.9,12.3c0,1.2,0,2.3-0.1,3.5c0,0.4,0.4,0.8,0.8,0.8c0.4,0,0.8-0.4,0.8-0.8
			c0.3-4.3,0-8.7-1-12.9c-0.3-1.1-0.6-2.3-0.9-3.4c-0.1-0.4-0.6-0.7-1-0.5C174.8,160.1,174.6,160.6,174.7,161L174.7,161z"/>
		<path class="st6" d="M142.9,180.3c0.9,0.5,1.8,0.8,2.8,1c1.1,0.2,2.2,0.3,3.3,0.4c2.2,0.1,4.5,0,6.7-0.3c4.8-0.6,9.4-1.8,13.9-3.6
			c2.6-1.1,5.2-2.3,7.8-3.6c0.4-0.2,0.5-0.7,0.3-1.1c-0.2-0.4-0.7-0.5-1.1-0.3c-4.3,2.2-8.5,4.1-13.1,5.4c-2.2,0.6-4.5,1.1-6.8,1.4
			c-2.2,0.3-4.5,0.5-6.7,0.4c-0.6,0-1.1,0-1.7-0.1c-0.3,0-0.6-0.1-0.9-0.1c0,0-0.3,0-0.1,0l-0.2,0l-0.4-0.1
			c-0.6-0.1-1.1-0.2-1.6-0.4c-0.1,0-0.2-0.1-0.3-0.1l-0.2-0.1l-0.1,0c0.1,0,0.1,0,0,0c-0.2-0.1-0.4-0.2-0.6-0.3
			c-0.4-0.2-0.9-0.1-1.1,0.3C142.4,179.6,142.5,180.1,142.9,180.3L142.9,180.3L142.9,180.3z"/>
		<path class="st6" d="M134.7,165.7c-3,0-5.9,0.6-8.6,1.7c-1.2,0.5-2.5,1-3.5,1.8c-1,0.7-1.9,1.6-2.6,2.6c-1.4,2-1.7,4.6-0.8,6.9
			c0.5,1,1.2,2,2.1,2.7c1,0.8,2.3,1.4,3.5,1.7c1.6,0.4,3.2,0.6,4.9,0.7c0.8,0,1.6,0,2.4,0s1.7-0.2,2.5-0.2c0.4,0,0.8-0.4,0.8-0.8
			c0-0.4-0.4-0.8-0.8-0.8c-0.7,0-1.4,0.1-2.1,0.2c-0.7,0.1-1.4,0.1-2.1,0.1c-1.3,0-2.6-0.1-3.9-0.3c-0.7-0.1-1.3-0.3-1.9-0.5
			c-0.5-0.2-1-0.4-1.5-0.7c-0.9-0.5-1.6-1.2-2.1-2.1c-1-1.7-1-3.8,0-5.5c0.5-0.9,1.2-1.7,2.1-2.3c0,0-0.1,0.1,0,0l0.2-0.1
			c0.1-0.1,0.2-0.1,0.3-0.2c0.2-0.2,0.5-0.3,0.7-0.4c0.6-0.3,1.1-0.6,1.7-0.8c2.8-1.2,5.8-1.9,8.8-1.9c0.4,0,0.8-0.4,0.8-0.8
			C135.5,166.1,135.1,165.7,134.7,165.7L134.7,165.7z"/>
		<path class="st6" d="M118.6,175.6c0.6,2,2.5,3.2,4.4,3.9c2.3,0.8,4.8,1.1,7.2,1.1c1.5,0,3-0.1,4.4-0.3c0.4,0,0.8-0.4,0.8-0.8
			c0-0.4-0.4-0.8-0.8-0.8c-2.5,0.3-5,0.4-7.5,0.1c-1.1-0.1-2.1-0.4-3.1-0.7c-0.2-0.1-0.4-0.1-0.6-0.2c-0.1,0-0.2-0.1-0.3-0.1
			l-0.1-0.1c0.1,0.1-0.1,0-0.1,0c-0.4-0.2-0.8-0.4-1.2-0.7c-0.1-0.1-0.2-0.1-0.3-0.2c0,0,0.1,0.1,0,0l-0.2-0.1
			c-0.2-0.2-0.3-0.3-0.5-0.5c0,0-0.1-0.1,0,0c0,0-0.1-0.1-0.1-0.1c-0.1-0.1-0.1-0.2-0.2-0.3c0-0.1-0.1-0.1-0.1-0.2
			c0,0-0.1-0.2,0-0.1c0,0.1,0-0.1,0-0.1c0-0.1,0-0.1-0.1-0.2c-0.1-0.4-0.5-0.7-1-0.5C118.7,174.7,118.5,175.1,118.6,175.6
			L118.6,175.6L118.6,175.6z"/>
		<path class="st6" d="M163.8,164.8c0.4,0.4,0.7,0.9,0.8,1.4c0.2,0.5,0.2,1.1,0.1,1.6c-0.1,0.4,0.2,0.9,0.6,1c0.1,0,0.3,0,0.4,0
			c3.3-0.7,6.2-2.6,8.5-5c0.7-0.7,1.3-1.5,1.9-2.3c0.3-0.3,0.1-0.9-0.3-1.1c-0.4-0.2-0.9-0.1-1.1,0.3c-0.5,0.6-0.9,1.2-1.5,1.8
			c-0.5,0.6-1.1,1.1-1.7,1.6c-1.1,1-2.4,1.8-3.8,2.4c-0.1,0.1,0.1,0,0,0l-0.2,0.1l-0.3,0.1c-0.2,0.1-0.4,0.2-0.6,0.2
			c-0.4,0.1-0.9,0.3-1.4,0.4l1,1c0.2-0.8,0.2-1.6-0.1-2.4c-0.3-0.8-0.7-1.5-1.2-2.1c-0.3-0.3-0.8-0.2-1.1,0.1
			C163.6,164.1,163.6,164.5,163.8,164.8L163.8,164.8z"/>
		<path class="st6" d="M160.6,69.4c-0.8,1.8-1.2,3.7-1.6,5.6c-0.1,0.4,0.1,0.8,0.5,1c0.4,0.1,0.8-0.1,1-0.5c0.2-0.9,0.4-1.8,0.6-2.7
			c0.1-0.5,0.2-0.9,0.4-1.4c0.1-0.2,0.1-0.4,0.2-0.6c0-0.1,0.1-0.2,0.1-0.3l0.1-0.2c0-0.1-0.1,0.2,0,0c0.2-0.4,0.1-0.8-0.3-1.1
			C161.4,69,160.8,69.1,160.6,69.4L160.6,69.4z"/>
	</g>
</g>
</svg>
