<?xml version="1.0" encoding="utf-8"?>
<!-- Generator: Adobe Illustrator 24.3.0, SVG Export Plug-In . SVG Version: 6.00 Build 0)  -->
<svg version="1.1" id="レイヤー_1" xmlns="http://www.w3.org/2000/svg" xmlns:xlink="http://www.w3.org/1999/xlink" x="0px"
	 y="0px" viewBox="0 0 300 200" style="enable-background:new 0 0 300 200;" xml:space="preserve">
<style type="text/css">
	.st0{fill:#BCBCBB;}
	.st1{fill:#FFFFFF;}
	.st2{fill:#B7A06E;}
	.st3{fill:#7E7251;}
	.st4{fill:#B49D6C;}
	.st5{fill:#E4C295;}
	.st6{fill:#F9F9F1;}
	.st7{fill:#A13224;}
	.st8{fill:#040000;}
</style>
<g>
	<g id="塗_1_">
		<ellipse class="st0" cx="148" cy="186.6" rx="56.4" ry="12.4"/>
		<path class="st1" d="M160.7,1.8c7.3,0.5,14.2,5.1,17.6,11.2s3.3,14.3,4.2,17.8c0.9,3.5,0.5,4.2,2.8,6.8c2.3,2.6,9.5,8.7,10.8,12
			c1.3,3.3,0.5,5.6,0.5,5.6s-4.7,4.1-17,7.6c4,8.4,6.2,11.4,7.1,15.2c0.9,3.8,1.7,8.7,2,11.3c5.8,5.2,8.5,4.9,8.3,12.5
			c-0.2,7.6,2.4,15.7,2.4,15.7s2.3,7.5,2.3,17.6s-3.1,16.1-1,18.6c2.1,2.5,8.6,7.7,8.6,7.7l2.6,1l5.5,5.4l-0.1,2
			c0,0,2.5,2.5,2.1,7.4c-0.4,4.9-2.8,5.4-6.1,6.3c-2,0.5-4.2,0.2-6-0.9c0,0-1.2,3.5-7,5.5c-5.8,2-9.5-0.3-16.6-4.6
			c-7-4.3-15.1-12.7-14.4-16c0.8-3.3-0.1-3,3.5-5.7c0.6-9.1,0.6-20-0.6-23.3s-46.1-27.6-44-36.8c2.1-9.3,1.3-10.4,1.1-17.1
			c-0.2-6.7,1.4-22,4.9-28.7c2.5-4.6,5.3-9.1,8.3-13.4c0,0-5.9-7.7-4.3-20s6-15.2,9.2-17.1C150.8,3.7,152.7,1.3,160.7,1.8z"/>
		<path class="st2" d="M93.6,86.4c0,0-0.4-6.1,2.8-7.8s5.4,1,7,2.1c1.6,1.1,4.3,0.2,6.7,0.3c2.4,0.1,4.1,2.2,5.8,1.4
			c1.7-0.8,2.9-2.5,6-2c3.1,0.5,3,4.1,4.5,5.7c1.2,1.1,2.5,2.1,3.9,3l2.4,3.9c0,0-0.9,3.7,1.6,8.7c2.5,5.1,8.4,12,14.8,17.2
			c6.4,5.2,10.7,8.5,13.1,9.1c2.4,0.6,3.3-0.9,3.3-0.9c2.2,2.5,4.1,5.3,5.6,8.3c2.5,5.1,2.5,12,2.5,14.4c-5.9,2.5-7.7,4.7-11.2,2.9
			c-3.5-1.7-7.8-4-11.1-2.9c-3.3,1.1-8.1,2.4-12.3,9.9s-16.7,3.4-16.7,3.4s-20.5-2.3-21-7c-0.5-4.6-0.8-7.3-2-9.3
			c-1.1-2-8.1-11.4-8-15.7s1.5-10.9,1.5-10.9s-6.2,0.9-10.1-3.8c-3.9-4.7-1.1-8.5,0.2-9.9s4.5-6.8,5-8.9c0.5-2,1.9-7.5,3.4-8.1
			C92.6,89.2,93.3,88.2,93.6,86.4z"/>
		<path class="st3" d="M132.7,93.1c-0.6,5.6,1.4,12.5,8.9,19.2c7.5,6.7,17.2,15.7,19.5,15.8c1.5,0,3-0.3,4.3-0.9c0,0-3.3-4.2-5.1-6
			c4.4-5.4,10.6-9.3,15.1-8.9c4.5,0.4,6.9,1.3,6.9,1.3s3-4.2,7.8-5.2c4.7-1,6.6,1.1,6.6,1.1s-9.3-9.7-12.1-12.2
			c-2.7-2.6-9.1-9-9.1-9L132.7,93.1z"/>
		<path class="st4" d="M183,95.3c0,0,13.7,13.7,13.7,14.2c0,0.5-1.2,1.2-1.2,1.2l3.4,5.3c0,0,1.1-2.4-0.5-8.4s-5.6-10.3-5.6-10.3
			s0.8,2.8-0.3,3.2C191.4,101,186,93.9,183,95.3z"/>
		<path class="st5" d="M162.4,56.3l-0.2-5.4c0,0,2.1-2.8,6.5-3.2c4.4-0.5,6.7,2.3,6.7,2.3l1.1,18.5c-1.6,1.4-3.6,2.1-5.7,2.1
			c-2.3,0-4.5-0.5-6.6-1.3l2.9-1.4c0,0-0.3-10.6-0.7-12C164.3,56.1,162.4,56.3,162.4,56.3z"/>
		<path class="st6" d="M147.3,40.4c-5.5,3.5-11.7,8.8-14.4,19.3s-6.2,27.7-0.1,33.5c6,5.8,20.8,4.2,26.5,2.6
			c12.2-3.5,14.7-7.6,16.3-6.9c1.5,0.8,7.5,6.5,7.5,6.5s4.9-0.3,5.7-5.9c0.8-5.7-2.8-12.9-4.4-16.6s-8-16.1-8-16.1l0.4,11.8
			c0,0-4.5,2.8-7.9,2.1c-3.4-0.7-4.4-1.3-4.4-1.3l-2.6,2.6c0,0-4.5-1.3-5.2-5.1s0.5-7.9,0.5-7.9l5.5-2.6l-0.2-5.4c0,0,2-3.3,5-3.3
			c-3.7-3.1-8.4-6.2-8.4-6.2s-1.3,4-5.9,2.9S147.3,40.4,147.3,40.4z"/>
		<path class="st7" d="M178.4,175.7l8.2,6.2c0,0,3.4-6.3,10.3-9.1c6.9-2.8,8.3-2.3,8.3-2.3l0.5,1.3c0,0,8.4-3.6,11.7-3.1
			c-1.7-2.6-3.9-4.9-6.4-6.7c0,0-8.1,0.8-10.8,2.5c-1.3-0.4-5.5-0.2-9.9,2C185.9,168.5,178.4,175.7,178.4,175.7z"/>
	</g>
	<g id="線_1_">
		<path class="st8" d="M152.3,35.4c4,3.7,9.8,4.9,15,3.7c2.5-0.5,4.8-1.7,6.7-3.4c1.9-1.8,3.1-4.2,3.5-6.8c0.4-3-0.2-6.1-1.7-8.8
			c-0.6-1-2.1-0.1-1.5,0.9c2.3,4,2.2,9.4-1,12.8c-3.1,3.3-8.1,4.4-12.5,3.7c-2.7-0.4-5.2-1.6-7.2-3.5
			C152.7,33.4,151.5,34.6,152.3,35.4L152.3,35.4z"/>
		<path class="st8" d="M160.2,24.4l-0.3,1.9c-0.1,0.2,0,0.5,0.1,0.7c0.2,0.4,0.8,0.6,1.2,0.3c0.2-0.1,0.4-0.3,0.4-0.5l0.3-1.9
			c0.1-0.2,0-0.5-0.1-0.7c-0.2-0.4-0.8-0.6-1.2-0.3c0,0,0,0,0,0C160.4,24,160.2,24.2,160.2,24.4L160.2,24.4z"/>
		<path class="st8" d="M165.9,25.4l-0.3,1.9c-0.1,0.2,0,0.5,0.1,0.7c0.2,0.4,0.8,0.6,1.2,0.3c0.2-0.1,0.3-0.3,0.4-0.5l0.3-1.9
			c0.1-0.2,0-0.5-0.1-0.7c-0.1-0.2-0.3-0.3-0.5-0.4c-0.2-0.1-0.5,0-0.7,0.1C166.1,25,166,25.2,165.9,25.4L165.9,25.4z"/>
		<path class="st8" d="M150,21.3c-2.6,0.5-4.5,2.6-4.9,5.2c-0.3,2.6,1.4,5.1,3.8,6.1c0.5,0.1,1-0.2,1.1-0.6c0.1-0.5-0.2-1-0.6-1.1
			c-2.1-0.9-3.1-3.3-2.2-5.4c0.6-1.4,1.8-2.3,3.3-2.5c0.5-0.1,0.7-0.7,0.6-1.1C150.9,21.5,150.5,21.2,150,21.3L150,21.3z"/>
		<path class="st8" d="M162.7,13.1c-1.9,2.7-4.6,4.6-7.8,5.5c-1.1,0.3-0.6,2,0.5,1.7c3.6-1,6.7-3.2,8.9-6.3c0.2-0.4,0.1-1-0.3-1.2
			C163.4,12.6,162.9,12.7,162.7,13.1L162.7,13.1L162.7,13.1z"/>
		<path class="st8" d="M168.4,13.9c-0.1,0.3-0.1,0.6-0.2,0.9c0,0.1-0.1,0.1-0.1,0.2s-0.1,0.2,0,0.1c-0.1,0.1-0.1,0.3-0.2,0.4
			c-0.1,0.3-0.3,0.5-0.5,0.8l-0.1,0.2c0.1-0.2,0,0-0.1,0.1c-0.1,0.1-0.2,0.3-0.3,0.4c-0.2,0.2-0.4,0.4-0.7,0.6c0,0-0.1,0.1-0.1,0.1
			l0,0c-0.1,0-0.1,0.1-0.2,0.1c-0.1,0.1-0.3,0.2-0.4,0.2c-0.1,0.1-0.3,0.2-0.4,0.2l-0.2,0.1c0,0-0.2,0.1-0.1,0.1
			c0.1,0-0.1,0-0.1,0.1l-0.2,0.1c-0.2,0.1-0.3,0.1-0.5,0.1c-0.5,0.1-0.8,0.6-0.7,1.1c0.1,0.5,0.6,0.8,1.1,0.7c0,0,0.1,0,0.1,0
			c2.8-0.7,5-3,5.6-5.9c0.1-0.5-0.2-0.9-0.7-1.1C169,13.2,168.5,13.5,168.4,13.9L168.4,13.9z"/>
		<path class="st8" d="M148,35.4l-1.3,4.2c-0.1,0.5,0.2,1,0.6,1.1c0,0,0,0,0,0c0.5,0.1,0.9-0.2,1.1-0.6l1.4-4.2
			c0.1-0.5-0.2-1-0.6-1.1C148.6,34.7,148.2,35,148,35.4L148,35.4z"/>
		<path class="st8" d="M157.5,38.9l-0.7,2.1c-0.1,0.5,0.1,1,0.6,1.1c0.5,0.1,1-0.2,1.1-0.6l0.7-2.1c0.1-0.5-0.2-1-0.6-1.1
			C158.1,38.1,157.7,38.4,157.5,38.9L157.5,38.9z"/>
		<path class="st8" d="M146.8,40.8c0.9,1.7,2.4,3.1,4.1,3.8c1.9,0.8,4.3,1,6.3,0.2c0.5-0.1,0.7-0.6,0.6-1.1
			c-0.1-0.4-0.6-0.8-1.1-0.6c-1.7,0.7-3.6,0.5-5.2-0.1c-1.4-0.5-2.5-1.7-3.2-3C147.7,38.9,146.2,39.8,146.8,40.8L146.8,40.8z"/>
		<path class="st8" d="M157.6,42.3c2.1,1.4,4.2,2.8,6.3,4.3c0.4,0.2,1,0.1,1.2-0.3c0.2-0.4,0.1-1-0.3-1.2c-2-1.5-4.1-3-6.3-4.3
			c-0.4-0.2-1-0.1-1.2,0.3S157.2,42,157.6,42.3L157.6,42.3L157.6,42.3z"/>
		<path class="st8" d="M147,39.2c-3.5,1.7-6.2,4.5-8.5,7.6c-2.4,3.5-4.5,7.2-6,11.2c-2.8,6.8-4.1,14.3-4.2,21.7c0,1.8,0,3.6,0.2,5.5
			c0.1,1.5,0.5,3,1,4.4c0.1,0.5,0.6,0.7,1.1,0.6c0.5-0.1,0.8-0.6,0.6-1.1c-0.4-1.2-0.7-2.4-0.9-3.7c0,0,0,0.1,0-0.1
			c0-0.1,0-0.2,0-0.3c0-0.2,0-0.3-0.1-0.5c0-0.4-0.1-0.8-0.1-1.2c-0.1-0.8-0.1-1.6-0.1-2.4c0-3.5,0.3-6.9,0.8-10.3
			c1.2-7.7,4-15,8.2-21.5c2.3-3.4,5.1-6.5,8.8-8.3c0.4-0.2,0.6-0.8,0.3-1.2C148,39.1,147.4,39,147,39.2L147,39.2z"/>
		<path class="st8" d="M146.1,49.9c1.8,4.6,3.2,9.3,4.3,14.1c0.2,0.5,0.7,0.7,1.1,0.6c0.4-0.1,0.7-0.6,0.6-1
			c-1.1-4.8-2.5-9.5-4.3-14.1c-0.1-0.5-0.6-0.7-1.1-0.6C146.3,48.9,146,49.4,146.1,49.9L146.1,49.9z"/>
		<path class="st8" d="M158.5,59.8c2.1-2.1,5-2.9,7.9-3c0.5,0,0.9-0.4,0.8-0.9c0-0.4-0.4-0.8-0.8-0.8c-3.3,0.2-6.7,1.1-9.1,3.6
			C156.4,59.3,157.7,60.6,158.5,59.8L158.5,59.8z"/>
		<path class="st8" d="M163.2,60.4c0.1-0.1,0.3-0.1,0.4-0.2l0.2-0.1c0.2-0.1-0.2,0.1,0,0c0.3-0.1,0.5-0.2,0.8-0.3
			c0.5-0.2,1.1-0.3,1.7-0.4c0.2-0.1,0.4-0.2,0.5-0.4c0.2-0.4,0.1-1-0.3-1.2c0,0,0,0,0,0c-0.2-0.1-0.4-0.1-0.7-0.1
			c-1.2,0.2-2.4,0.6-3.5,1.2c-0.4,0.2-0.6,0.8-0.3,1.2C162.3,60.5,162.8,60.6,163.2,60.4L163.2,60.4z"/>
		<path class="st8" d="M163.7,63.6c0.2-0.2,0.5-0.3,0.7-0.4c0.1-0.1,0.3-0.1,0.4-0.2l0.2-0.1c0.2-0.1-0.2,0.1,0,0
			c0.5-0.2,1.1-0.3,1.6-0.4l-0.2,0h0.1c0.2,0,0.5-0.1,0.6-0.3c0.2-0.2,0.3-0.4,0.3-0.6c0-0.2-0.1-0.5-0.3-0.6
			c-0.2-0.2-0.4-0.3-0.6-0.3c-1.3,0.1-2.6,0.6-3.6,1.4c-0.2,0.1-0.3,0.3-0.4,0.5c-0.1,0.2,0,0.5,0.1,0.7
			C162.7,63.7,163.3,63.9,163.7,63.6L163.7,63.6z"/>
		<path class="st8" d="M164.2,66.9c0.5-0.4,1-0.6,1.6-0.9l-0.2,0.1c0.4-0.2,0.8-0.3,1.2-0.4c0.5-0.1,0.8-0.6,0.6-1.1
			c-0.1-0.5-0.6-0.7-1.1-0.6c-0.6,0.1-1.1,0.3-1.7,0.6c-0.5,0.2-0.9,0.5-1.4,0.8c-0.2,0.1-0.3,0.3-0.4,0.5c-0.1,0.5,0.2,1,0.6,1.1
			C163.8,67,164,67,164.2,66.9L164.2,66.9z"/>
		<path class="st8" d="M162.3,72.1c0.4-0.4,0.8-0.8,1.2-1.1c0.1-0.1,0.2-0.2,0.3-0.3l0.1-0.1l0.1-0.1c0.2-0.2,0.4-0.3,0.7-0.5
			c0.4-0.3,0.9-0.5,1.4-0.8l0.4-0.2l0.2-0.1l0.1,0l0.1-0.1l0.2-0.1l0.4-0.2c0.5-0.1,0.7-0.6,0.6-1.1c-0.1-0.5-0.6-0.7-1.1-0.6
			c-2.3,0.8-4.3,2.1-5.9,3.8c-0.3,0.3-0.3,0.9,0,1.3S162,72.5,162.3,72.1L162.3,72.1z"/>
		<path class="st8" d="M156.8,59.1c-1.3,2.6-1.6,5.6-0.8,8.5c0.7,2.4,2.5,4.5,5,5.2c1.1,0.3,1.6-1.4,0.5-1.7
			c-4.5-1.2-4.9-7.6-3.1-11C158.8,59,157.3,58.1,156.8,59.1L156.8,59.1z"/>
		<path class="st8" d="M157.8,58c-4.4,1.7-7.6,5.3-10,9.3c-0.7,1.2-1.4,2.4-2,3.6c-0.5,1,1,1.9,1.5,0.9c2.5-4.8,5.7-10,10.9-12.1
			c0.5-0.1,0.7-0.6,0.6-1.1C158.8,58.2,158.3,57.9,157.8,58L157.8,58z"/>
		<path class="st8" d="M161.1,72.1c1.9,6.8-1,13.9-7.1,17.5c-1,0.6-0.1,2.1,0.9,1.5c6.7-4,10-11.9,7.9-19.5
			C162.5,70.5,160.8,71,161.1,72.1L161.1,72.1z"/>
		<path class="st8" d="M133.7,66.8c-0.3,5.5-0.6,11.3,1.3,16.6c1.6,4.6,4.9,8.6,9.7,10.1c2.6,0.8,5.4,0.6,7.8-0.5
			c0.4-0.2,0.6-0.8,0.3-1.2c-0.3-0.4-0.8-0.6-1.2-0.3c-3.9,1.8-8.5,0.2-11.4-2.7c-3.3-3.3-4.6-8.1-4.9-12.7c-0.2-3.1,0-6.2,0.2-9.3
			c0-0.5-0.4-0.9-0.9-0.8C134.1,66,133.7,66.4,133.7,66.8L133.7,66.8z"/>
		<path class="st8" d="M161.3,51.1c0.1,1.8,0.2,3.5,0.2,5.3c0,0.5,0.4,0.9,0.9,0.8c0.4,0,0.8-0.4,0.8-0.8c-0.1-1.8-0.2-3.5-0.3-5.3
			c0-0.5-0.4-0.9-0.9-0.9C161.7,50.2,161.3,50.6,161.3,51.1z"/>
		<path class="st8" d="M163,51.4c0.4-1,1.4-1.5,2.3-2c1.1-0.4,2.2-0.7,3.4-0.8c1.2-0.1,2.3,0,3.4,0.3c1,0.3,1.9,0.8,2.6,1.5
			c0.8,0.8,2.1-0.5,1.3-1.3c-0.7-0.7-1.6-1.3-2.6-1.7c-0.9-0.4-1.9-0.6-2.9-0.6c-2.2-0.1-4.4,0.3-6.4,1.3c-1.1,0.5-2.1,1.3-2.5,2.4
			c-0.2,0.4-0.1,1,0.3,1.2C162.2,51.9,162.8,51.8,163,51.4L163,51.4z"/>
		<path class="st8" d="M174.6,50c0.7,6.1,1.1,12.3,1.1,18.5c0,1.1,1.8,1.1,1.8,0c-0.1-6.2-0.5-12.3-1.1-18.5c0-0.5-0.4-0.9-0.9-0.9
			C175,49.1,174.6,49.5,174.6,50L174.6,50z"/>
		<path class="st8" d="M164.4,70.5c1.9,1.2,4.2,1.4,6.4,1.1c2.2-0.3,4.4-1,6.3-2.2c0.9-0.6,0.1-2.2-0.9-1.5c-1.6,1.1-3.4,1.7-5.4,2
			c-1.9,0.3-3.9,0.2-5.5-0.8C164.3,68.3,163.4,69.9,164.4,70.5L164.4,70.5z"/>
		<path class="st8" d="M161.8,50.6c-0.1,1.5,1.3,2.3,2.6,2.7c1.4,0.4,2.8,0.6,4.3,0.4c1.5-0.1,3-0.5,4.4-1c1.2-0.5,2.4-1.1,2.8-2.5
			c0.3-1.1-1.4-1.6-1.7-0.5c-0.1,0.3-0.3,0.6-0.6,0.8c-0.4,0.2-0.8,0.4-1.3,0.6c-1.1,0.4-2.3,0.7-3.4,0.8c-1.1,0.1-2.3,0.1-3.4-0.2
			c-0.6-0.1-1.8-0.4-1.8-1.2c0-0.5-0.3-0.9-0.8-0.9c-0.5,0-0.9,0.3-0.9,0.8C161.8,50.5,161.8,50.5,161.8,50.6L161.8,50.6z"/>
		<path class="st8" d="M170.6,71.5c1.9,5.1,2.8,10.5,2.8,16c0,1.1,1.8,1.1,1.8,0c0.1-5.6-0.9-11.2-2.9-16.5
			c-0.1-0.5-0.6-0.7-1.1-0.6C170.8,70.5,170.5,71,170.6,71.5L170.6,71.5z"/>
		<path class="st8" d="M130.8,92.2c0.7,1,1.6,2,2.7,2.7c1.1,0.7,2.2,1.2,3.5,1.6c2.9,0.9,5.9,1.4,9,1.5c6.1,0.3,12.3-0.8,18.1-2.7
			c3.3-1.1,6.5-2.4,9.6-3.9c0.4-0.2,0.6-0.8,0.3-1.2c-0.3-0.4-0.8-0.6-1.2-0.3c-5.3,2.5-10.8,4.6-16.5,5.6
			c-5.7,1.1-11.7,1.1-17.3-0.3c-1.4-0.3-2.7-0.8-4-1.4c-1.1-0.6-2-1.4-2.6-2.4c-0.3-0.4-0.8-0.5-1.2-0.3
			C130.7,91.2,130.5,91.8,130.8,92.2L130.8,92.2z"/>
		<path class="st8" d="M131.6,93.1c-0.2,2.6,0.3,5.3,1.1,7.7c0.4,1.3,0.9,2.5,1.5,3.7c0.7,1.2,1.5,2.4,2.3,3.5
			c1.9,2.4,4,4.6,6.2,6.7c2.4,2.2,4.8,4.3,7.2,6.3c2.7,2.3,5.5,4.5,8.4,6.6c0.4,0.2,1,0.1,1.2-0.3c0.2-0.4,0.1-1-0.3-1.2
			c-4.9-3.6-9.7-7.5-14.2-11.7c-2.3-2-4.4-4.1-6.3-6.4c-1.7-2-3.1-4.2-4.1-6.6c-1-2.6-1.6-5.5-1.4-8.3c0-0.5-0.3-0.9-0.8-0.9
			c-0.5,0-0.9,0.3-0.9,0.8C131.6,93,131.6,93,131.6,93.1L131.6,93.1z"/>
		<path class="st8" d="M159.7,125.8c0.3-3.6,3-6.8,5.8-9c3-2.3,6.7-3.5,10.5-3.5c2.1,0,4.3,0.4,6.2,1.3c0.4,0.2,1,0.1,1.2-0.4
			c0.2-0.4,0.1-0.9-0.3-1.2c-3.9-1.9-8.6-1.9-12.7-0.7c-4,1.2-7.5,3.8-10,7.2c-1.4,1.8-2.2,4-2.5,6.3c0,0.5,0.4,0.9,0.9,0.9
			C159.3,126.6,159.7,126.3,159.7,125.8L159.7,125.8z"/>
		<path class="st8" d="M169.3,100c4.4,4.5,8.5,9.3,12.6,14.1c0.3,0.3,0.9,0.3,1.3,0c0.3-0.3,0.3-0.9,0-1.3
			c-4.1-4.8-8.2-9.6-12.6-14.1C169.8,97.9,168.5,99.2,169.3,100z"/>
		<path class="st8" d="M176.1,91.4c5.7,4.3,11,9,15.9,14.2c1.4,1.5,2.8,3,4.1,4.5c0.3,0.3,0.9,0.3,1.3,0c0.3-0.3,0.3-0.9,0-1.3
			c-4.7-5.5-9.9-10.6-15.5-15.2c-1.6-1.3-3.2-2.6-4.9-3.8c-0.4-0.2-1-0.1-1.2,0.3C175.5,90.6,175.7,91.1,176.1,91.4L176.1,91.4z"/>
		<path class="st8" d="M183.5,113.6c1.4-1.8,3.1-3.6,5.5-4.1c2.5-0.5,5.1-0.1,7.3,1.2c1,0.6,1.9-0.9,0.9-1.5c-2.6-1.5-5.6-2-8.5-1.4
			c-2.7,0.6-4.7,2.5-6.4,4.6c-0.3,0.4-0.3,0.9,0,1.3C182.6,114,183.2,114,183.5,113.6C183.5,113.6,183.5,113.6,183.5,113.6
			L183.5,113.6z"/>
		<path class="st8" d="M160.1,122.7c3.7,3,6.7,6.7,9,10.8c1.1,1.9,1.9,4,2.5,6.2c0.6,2.8,1,5.6,1,8.5c0.1,3.3,0,6.5-0.3,9.8
			c0,0.5,0.4,0.9,0.9,0.9c0.5,0,0.9-0.4,0.9-0.9c0.5-5.9,0.6-11.9-0.5-17.7c-1-4.9-3.5-9.3-6.5-13.2c-1.6-2.1-3.5-4-5.6-5.7
			c-0.4-0.3-0.9-0.3-1.3,0C159.8,121.8,159.8,122.4,160.1,122.7C160.1,122.7,160.1,122.7,160.1,122.7L160.1,122.7z"/>
		<path class="st8" d="M180.1,113.4c1.7,1.6,3.1,3.4,4.2,5.4c1.3,2.2,2.3,4.5,3.1,6.8c0.4,1.2,0.8,2.4,1.1,3.6
			c0.3,1.1,0.5,2.2,0.6,3.3c0.4,3.1,0.4,6.3,0.1,9.4c-0.3,3.7-0.9,7.3-1.5,11c-0.1,0.5,0.2,0.9,0.6,1.1c0.5,0.1,1-0.2,1.1-0.6
			c1.1-6.7,2.2-13.4,1.5-20.2c-0.5-5-2.3-10-4.7-14.5c-1.3-2.4-2.9-4.7-4.9-6.5C180.6,111.3,179.3,112.6,180.1,113.4L180.1,113.4z"
			/>
		<path class="st8" d="M193.9,110.1c3.5,3.7,5.2,8.7,6.2,13.5c0.5,2.3,0.8,4.6,0.9,7c0.2,3.2,0,6.5-0.5,9.7c-0.5,3.7-1.1,7.3-1.5,11
			c0,0.5,0.4,0.9,0.9,0.9c0.5,0,0.9-0.4,0.9-0.9c0.8-6.6,2.3-13.2,2-19.8c-0.2-5.1-1.1-10.3-3-15c-1.1-2.8-2.7-5.3-4.7-7.6
			C194.4,108,193.1,109.3,193.9,110.1L193.9,110.1z"/>
		<path class="st8" d="M158,126.9c0.7,1.3,2.1,2,3.6,2.2c0.7,0.1,1.5,0,2.2-0.2c0.7-0.2,1.3-0.5,2-0.8c0.5-0.1,0.7-0.6,0.6-1.1
			c-0.1-0.5-0.6-0.8-1.1-0.6c-1.2,0.4-2.2,1-3.4,0.9l-0.2,0c-0.2,0,0.1,0-0.1,0c-0.2,0-0.3-0.1-0.4-0.1c-0.1,0-0.2-0.1-0.4-0.1
			c-0.1,0-0.2-0.1-0.3-0.1c-0.4-0.2-0.8-0.5-1-0.9C159,125,157.5,125.9,158,126.9L158,126.9z"/>
		<path class="st8" d="M172.1,160.4c-0.4,2.6,0.3,5.2,1.9,7.2c1.6,2.2,3.9,3.7,6.1,5.2c0.4,0.2,1,0.1,1.2-0.3c0.2-0.4,0.1-1-0.3-1.2
			c-1.9-1.3-3.9-2.7-5.4-4.6c-1.3-1.6-2.1-3.8-1.8-5.9c0.1-0.5-0.2-1-0.6-1.1C172.7,159.7,172.3,159.9,172.1,160.4L172.1,160.4z"/>
		<path class="st8" d="M188.1,156.3c2.2,3.4,5.5,5.9,8.8,8.2c0.4,0.2,1,0.1,1.2-0.3c0.2-0.4,0.1-1-0.3-1.2c-3-2.1-6.1-4.4-8.1-7.5
			c-0.3-0.4-0.8-0.6-1.2-0.3C188,155.3,187.9,155.9,188.1,156.3L188.1,156.3z"/>
		<path class="st8" d="M180.1,175.4c3.5-4.5,8.3-7.9,13.7-9.7c1.5-0.5,3-0.8,4.6-0.9c0.5,0,0.9-0.4,0.9-0.9c0-0.5-0.4-0.9-0.9-0.9
			c-6.1,0.6-11.8,3.6-16.3,7.7c-1.3,1.2-2.4,2.5-3.5,3.8c-0.3,0.4-0.1,1,0.3,1.2C179.3,176,179.8,175.9,180.1,175.4L180.1,175.4z"/>
		<path class="st8" d="M187.2,181.4c1.9-2,3.9-3.8,6.2-5.4c2.4-1.6,4.9-2.9,7.6-3.9c1.4-0.5,2.9-0.9,4.4-1.1
			c0.5-0.1,0.7-0.7,0.6-1.1c-0.1-0.5-0.6-0.7-1.1-0.6c-2.8,0.4-5.5,1.4-8.1,2.7c-2.7,1.3-5.2,3-7.6,4.9c-1.2,1-2.3,2.1-3.4,3.2
			C185.2,181,186.5,182.2,187.2,181.4L187.2,181.4z"/>
		<path class="st8" d="M198.4,164.8c1.2,0.8,2.3,1.7,3.4,2.6c0.6,0.5,1.1,0.9,1.6,1.4c0.3,0.2,0.5,0.5,0.8,0.7l0.4,0.4
			c0,0,0.1,0.1,0.1,0.1c-0.2-0.1,0.1-0.7,0-0.5l0.3-0.3l-0.1,0c-0.4,0.3-0.5,0.8-0.3,1.2c0.2,0.4,0.8,0.6,1.2,0.3
			c0.5-0.3,0.7-0.9,0.5-1.4c-0.2-0.4-0.5-0.8-0.9-1.1c-0.6-0.6-1.3-1.2-2-1.8c-1.4-1.2-2.8-2.3-4.3-3.3c-0.4-0.2-1-0.1-1.2,0.4
			C197.8,164.1,198,164.6,198.4,164.8L198.4,164.8z"/>
		<path class="st8" d="M203.5,171.1c0.2,0.1,0.3,0.3,0.4,0.4c0,0,0.1,0.1,0.1,0.1c0,0,0.1,0.1,0,0.1c-0.1-0.1,0.1,0.1,0.1,0.1
			s0.1,0.1,0.1,0.1c0.1,0.2,0.2,0.3,0.3,0.5c0,0.1,0.1,0.2,0.1,0.3c0,0.1-0.1-0.1,0,0c0,0.1,0,0.1,0.1,0.2c0.1,0.2,0.1,0.4,0.2,0.6
			c0,0.1,0,0.2,0.1,0.3c0,0,0,0.1,0,0.1s0,0.2,0,0.1c0-0.1,0,0.1,0,0.1c0,0,0,0.1,0,0.1s0,0.2,0,0.3c0,0.2,0,0.4,0,0.6
			c0,0.5,0.4,0.9,0.9,0.9c0.5,0,0.9-0.4,0.9-0.9c0.2-2-0.6-3.9-2-5.3c-0.3-0.3-0.9-0.3-1.3,0C203.1,170.2,203.1,170.8,203.5,171.1
			L203.5,171.1L203.5,171.1z"/>
		<path class="st8" d="M189.4,179.6C189.6,179.7,189.3,179.5,189.4,179.6L189.4,179.6l0.3,0.3c0.1,0.1,0.3,0.2,0.4,0.4
			s0.2,0.3,0.4,0.4c0.1,0.1-0.1-0.1,0,0l0.1,0.1c0.1,0.1,0.1,0.2,0.2,0.2c0.2,0.3,0.4,0.6,0.5,0.9c0,0,0,0.1,0,0.1
			c-0.1-0.2,0-0.1,0,0c0,0.1,0.1,0.2,0.1,0.2c0.1,0.2,0.1,0.4,0.2,0.5c0.1,0.5,0.6,0.8,1.1,0.6c0.5-0.1,0.7-0.6,0.6-1.1
			c-0.4-1.7-1.4-3.1-2.8-4.2c-0.2-0.1-0.5-0.2-0.7-0.1c-0.2,0.1-0.4,0.2-0.5,0.4C188.9,178.9,189.1,179.4,189.4,179.6L189.4,179.6z"
			/>
		<path class="st8" d="M200.8,174c0.2,0.5,0.4,1,0.5,1.6c0.1,0.3,0.1,0.5,0.1,0.8c0,0,0,0.3,0,0.1c0-0.2,0,0.1,0,0.1
			c0,0.1,0,0.3,0,0.4c0,0.5,0.4,0.9,0.9,0.9c0.5,0,0.9-0.4,0.9-0.9c0,0,0,0,0,0c-0.1-1.2-0.3-2.4-0.8-3.5c-0.1-0.2-0.2-0.4-0.4-0.5
			c-0.4-0.2-1-0.1-1.2,0.3C200.8,173.5,200.7,173.8,200.8,174L200.8,174z"/>
		<path class="st8" d="M197.6,176.6c0.2,0.6,0.3,1.2,0.4,1.8l0-0.2l0,0.2c0,0.2,0.1,0.5,0.3,0.6c0.3,0.3,0.9,0.4,1.2,0c0,0,0,0,0,0
			c0.2-0.2,0.3-0.4,0.3-0.6c-0.1-0.8-0.2-1.5-0.4-2.3c-0.1-0.2-0.2-0.4-0.4-0.5c-0.4-0.2-1-0.1-1.2,0.3
			C197.6,176.1,197.6,176.3,197.6,176.6L197.6,176.6z"/>
		<path class="st8" d="M194.4,178.6l0.3,1.5c0.1,0.5,0.6,0.8,1.1,0.6c0,0,0,0,0,0c0.2-0.1,0.4-0.2,0.5-0.4l0.1-0.2
			c0-0.2,0-0.3,0-0.5l-0.3-1.5c-0.1-0.2-0.2-0.4-0.4-0.5c-0.4-0.2-1-0.1-1.2,0.3c0,0,0,0,0,0l-0.1,0.2
			C194.4,178.3,194.4,178.5,194.4,178.6L194.4,178.6z"/>
		<path class="st8" d="M199.9,154.3c2.4,3.4,5.8,6.1,9.2,8.4c0.4,0.2,1,0.1,1.2-0.3s0.1-1-0.3-1.2c-1.6-1.1-3.2-2.2-4.6-3.5
			c-1.5-1.2-2.8-2.7-3.9-4.2c-0.3-0.4-0.8-0.5-1.2-0.3C199.8,153.4,199.6,153.9,199.9,154.3L199.9,154.3z"/>
		<path class="st8" d="M200.7,165.2c3.2-1.4,6.8-2.3,10.4-2.3c1.1,0,1.1-1.8,0-1.8c-3.9,0-7.7,1.1-11.3,2.6
			c-0.4,0.2-0.5,0.8-0.3,1.2C199.7,165.3,200.3,165.4,200.7,165.2L200.7,165.2z"/>
		<path class="st8" d="M206.2,172.5c3.4-1.8,7.1-2.8,11-2.9c0.5,0,0.9-0.4,0.9-0.9c0-0.5-0.4-0.9-0.9-0.9c0,0,0,0,0,0
			c-2,0.1-4,0.4-5.9,0.9c-2.1,0.5-4.1,1.3-5.9,2.3C204.3,171.5,205.2,173,206.2,172.5L206.2,172.5z"/>
		<path class="st8" d="M210.5,162.6c1.2,1,2.3,2,3.4,3c0.5,0.5,1,1,1.6,1.6c0.3,0.3,0.5,0.6,0.8,0.9c0.1,0.1,0.2,0.3,0.4,0.4
			l0.1,0.1l0,0c0-0.1,0-0.2,0-0.2l0.2-0.4l0.1-0.1c-1,0.6-0.1,2.1,0.9,1.5c0.5-0.3,0.7-0.9,0.5-1.4c-0.2-0.4-0.5-0.8-0.8-1.1
			c-0.6-0.7-1.2-1.3-1.8-1.9c-1.3-1.3-2.6-2.5-4-3.6c-0.4-0.3-0.9-0.3-1.3,0C210.1,161.7,210.1,162.3,210.5,162.6
			C210.5,162.6,210.5,162.6,210.5,162.6L210.5,162.6z"/>
		<path class="st8" d="M215.3,169.6l0.1,0.1c0.1,0.1,0,0.1,0,0c0.1,0.1,0.1,0.2,0.2,0.2c0.1,0.2,0.2,0.3,0.3,0.5c0,0.1,0,0.1,0,0
			l0.1,0.1c0,0.1,0.1,0.2,0.1,0.3c0.1,0.2,0.1,0.4,0.1,0.6c0,0.1,0-0.1,0,0c0,0.1,0,0.1,0,0.1c0,0.1,0,0.2,0,0.3c0,0.2,0,0.4,0,0.6
			l0,0.3c0,0.1,0,0.1,0,0.1c0,0.1,0,0.2,0,0.1c0-0.1,0,0,0,0.1s0,0.1,0,0.1c0,0.1,0,0.2-0.1,0.3c-0.1,0.5,0.2,0.9,0.7,1.1
			c0.4,0.1,0.9-0.2,1-0.6c0.4-2,0.2-4.1-1.1-5.6c-0.3-0.3-0.9-0.3-1.3,0c0,0,0,0,0,0C215,168.7,215,169.2,215.3,169.6L215.3,169.6z"
			/>
		<path class="st8" d="M172.5,161.7c-1.1,0-2,0.7-2.6,1.5c-0.7,0.8-1.2,1.9-1.3,3c-0.3,2.1,0.4,4.2,1.4,6c1,1.8,2.3,3.3,3.8,4.7
			c1.6,1.5,3.4,2.9,5.1,4.2c1.9,1.5,3.8,2.9,5.7,4.3c1.7,1.2,3.5,2.5,5.6,3.2c1.8,0.7,3.7,1.1,5.7,1.1c2.1,0,4.2-0.3,6.1-1.1
			c1.2-0.5,2.2-1.1,3.1-2c0.9-0.8,1.6-1.7,2.2-2.7c1-1.9,1.1-4.3,0.5-6.4c-0.3-1.1-2-0.6-1.7,0.5c0.4,1.5,0.5,3.2-0.2,4.7
			c-0.4,0.8-0.9,1.5-1.6,2.2c-0.6,0.7-1.3,1.3-2.2,1.8c-0.8,0.4-1.6,0.7-2.4,0.9c-0.9,0.2-1.9,0.4-2.8,0.5c-1,0.1-1.9,0-2.9-0.1
			c-0.8-0.2-1.5-0.3-2.3-0.6c-0.8-0.2-1.5-0.4-2.2-0.8c-0.9-0.5-1.8-1-2.6-1.6c-1.8-1.2-3.6-2.5-5.3-3.8s-3.4-2.6-5-4
			c-1.5-1.2-2.8-2.5-4-3.9c-1.2-1.5-2.1-3.3-2.4-5.2c-0.2-1,0-2,0.4-2.9c0.2-0.4,0.5-0.8,0.9-1.1c0.2-0.3,0.6-0.4,0.9-0.4
			C173.6,163.5,173.6,161.8,172.5,161.7L172.5,161.7z"/>
		<path class="st8" d="M168.8,165.1c0,1.1,0.5,2.1,1.1,2.9c0.8,1.2,1.7,2.3,2.6,3.3c2.4,2.5,5,4.9,7.8,7c2.8,2.2,5.7,4.4,8.9,6.1
			c1.1,0.6,2.2,1.1,3.3,1.5c0.8,0.4,1.7,0.7,2.6,0.9c1.4,0.3,2.9,0.4,4.4,0.3c3.6-0.4,7.2-2.1,8.6-5.7c0.1-0.5-0.2-1-0.6-1.1
			c-0.5-0.1-1,0.2-1.1,0.6c-0.5,1.2-1.4,2.3-2.5,3c-1.2,0.7-2.5,1.2-3.9,1.4c0,0-0.3,0-0.1,0l-0.2,0c-0.2,0-0.4,0-0.6,0.1
			c-0.4,0-0.7,0-1.1,0c-0.4,0-0.7,0-1.1-0.1l-0.4,0c0.2,0-0.1,0-0.1,0l-0.3-0.1c-1.8-0.3-3.5-1.1-5-1.9c-3.1-1.5-6-3.6-8.7-5.7
			c-2.7-2.1-5.2-4.3-7.6-6.7c-0.6-0.6-1.1-1.2-1.7-1.8c-0.2-0.3-0.5-0.6-0.7-0.9l-0.1-0.1L172,168c-0.1-0.1-0.2-0.3-0.3-0.4
			c-0.3-0.5-0.6-1-0.9-1.5c-0.1-0.2,0.1,0.2,0,0l-0.1-0.2c0-0.1-0.1-0.2-0.1-0.3c0-0.1,0-0.2-0.1-0.3c0.1,0.3,0,0,0-0.1
			C170.6,164,168.8,164,168.8,165.1L168.8,165.1z"/>
		<path class="st8" d="M208.9,173.3L208.9,173.3l-0.1-0.1c0.2,0.2,0.3,0.5,0.4,0.7l-0.1-0.2c0.1,0.3,0.2,0.6,0.2,0.9l0-0.2
			c0,0.2,0,0.4,0,0.6c0,0.5,0.4,0.9,0.9,0.9c0.5,0,0.9-0.4,0.9-0.9c0-0.5,0-1-0.2-1.4c-0.2-0.5-0.4-1-0.8-1.4
			c-0.2-0.2-0.4-0.3-0.6-0.3c-0.2,0-0.5,0.1-0.6,0.3c-0.2,0.2-0.3,0.4-0.3,0.6l0,0.2C208.7,173.1,208.7,173.2,208.9,173.3
			L208.9,173.3z"/>
		<path class="st8" d="M212.4,172.7c0.2,0.4,0.3,0.9,0.4,1.3c0,0.1,0.1,0.2,0.2,0.3c0.1,0.1,0.1,0.2,0.2,0.2c0.4,0.2,1,0.1,1.2-0.3
			c0.1-0.2,0.2-0.5,0.1-0.7c-0.2-0.4-0.3-0.9-0.4-1.3c-0.1-0.2-0.2-0.4-0.4-0.5c-0.2-0.1-0.5-0.1-0.7-0.1c-0.2,0.1-0.4,0.2-0.5,0.4
			C212.3,172.2,212.3,172.4,212.4,172.7L212.4,172.7z"/>
		<path class="st8" d="M216.4,170.4c1.5,2,2.8,4.8,1.5,7.2c-1.1,2-3.9,2.3-6,2c-1.5-0.2-2.9-0.9-4.2-1.6c-1-0.5-1.9,1-0.9,1.5
			c1.4,0.7,2.8,1.4,4.4,1.7c1.5,0.3,3,0.3,4.4-0.1c1.4-0.3,2.6-1.1,3.5-2.2c0.9-1.3,1.3-2.9,1-4.5c-0.3-1.8-1-3.6-2.2-5
			c-0.3-0.4-0.8-0.5-1.2-0.3C216.4,169.4,216.1,170,216.4,170.4L216.4,170.4z"/>
		<path class="st8" d="M207,183.7c1.3,0.5,2.6,0.6,3.9,0.8s2.7,0.2,4-0.1c2.5-0.7,4.8-2.5,5.3-5.2c0.3-1.4,0.3-2.9-0.1-4.3
			c-0.3-1.1-2-0.6-1.7,0.5c0.2,1,0.3,2,0.1,3c-0.1,1-0.6,2-1.3,2.7c-0.8,0.7-1.7,1.3-2.7,1.6c-1.1,0.3-2.3,0.3-3.4,0.2
			c-1.3-0.1-2.5-0.2-3.7-0.7c-0.5-0.1-1,0.2-1.1,0.6C206.3,183.1,206.5,183.5,207,183.7L207,183.7z"/>
		<path class="st8" d="M175.7,58.1c2.3,4.4,4.6,8.7,6.8,13.1c1.9,3.8,3.6,7.7,4.4,11.8c0.5,2.1,0.7,4.4,0.4,6.6
			c-0.1,0.5,0.2,0.9,0.6,1.1c0.4,0.1,1-0.1,1.1-0.6c0.6-4.3-0.4-8.7-1.9-12.7c-1.6-4.3-3.7-8.3-5.8-12.3l-4.1-7.7
			C176.7,56.2,175.2,57.1,175.7,58.1L175.7,58.1z"/>
		<path class="st8" d="M183.2,96.2c1.3-0.3,2.6-0.7,3.6-1.7c1-1,1.8-2.3,2.1-3.8c0.1-0.5-0.1-1-0.6-1.1c-0.5-0.1-1,0.1-1.1,0.6l0,0
			c-0.1,0.3-0.1,0.6-0.2,0.9c0,0-0.1,0.3,0,0.1c0,0.1-0.1,0.1-0.1,0.2c-0.1,0.1-0.1,0.3-0.2,0.4c-0.2,0.3-0.3,0.5-0.5,0.8
			c0,0-0.1,0.2,0,0.1l-0.2,0.2c-0.1,0.1-0.2,0.2-0.3,0.3c-0.1,0.1-0.2,0.2-0.3,0.3c0.1-0.1,0,0,0,0l-0.2,0.1
			c-0.2,0.2-0.5,0.3-0.8,0.4c0.1-0.1,0,0,0,0l-0.2,0.1c-0.1,0.1-0.3,0.1-0.5,0.1c-0.3,0.1-0.6,0.1-0.8,0.2c-0.5,0.1-0.7,0.6-0.6,1.1
			C182.3,96,182.8,96.3,183.2,96.2L183.2,96.2z"/>
		<path class="st8" d="M167.3,2.7c-7-3.2-15.5-1.8-21.4,3c-3.4,2.8-5.6,6.7-7.1,10.8c-1.4,4.1-1.9,8.4-1.6,12.7
			c0.4,4.9,2,9.7,4.5,13.9c0.6,1,2.1,0.1,1.5-0.9c-4.2-7-5.6-15.6-3.3-23.6c1.1-3.9,3-7.8,6-10.7c2.5-2.4,5.7-4.1,9.1-4.8
			c3.7-0.8,7.8-0.6,11.3,1.1c0.4,0.2,1,0.1,1.2-0.3C167.9,3.5,167.7,2.9,167.3,2.7L167.3,2.7z"/>
		<path class="st8" d="M170.7,6.5c1.5,0.7,2.8,1.8,3.9,3c1.1,1.3,2.1,2.7,3,4.1c2,3.3,2.9,7.1,3.4,10.9c0.2,2,0.3,4,0.5,6
			c0.2,2,0.8,4,1.8,5.8c1.9,3.4,5.1,5.8,7.8,8.5c2.8,2.8,5.6,6.7,4.4,10.9c-0.3,1.1,1.4,1.6,1.7,0.5c1.1-4-0.8-8-3.3-10.9
			c-2.5-3-5.9-5.3-8.2-8.5c-1.1-1.5-1.9-3.3-2.3-5.2c-0.4-2.1-0.4-4.2-0.6-6.3c-0.4-4.1-1.3-8.2-3.3-11.8c-1-1.8-2.1-3.4-3.4-4.9
			c-1.3-1.5-2.8-2.9-4.6-3.7c-0.4-0.2-1-0.1-1.2,0.3C170.1,5.7,170.3,6.2,170.7,6.5L170.7,6.5z"/>
		<path class="st8" d="M184.6,48.7c2.8,2.4,4.6,5.9,4.7,9.6c0,1.1,1.8,1.1,1.8,0c-0.1-4.2-2-8.1-5.2-10.9c-0.4-0.3-0.9-0.3-1.3,0
			C184.2,47.8,184.2,48.4,184.6,48.7C184.6,48.7,184.6,48.7,184.6,48.7L184.6,48.7z"/>
		<path class="st8" d="M181.9,55.5c0.7,1.8,1.2,3.7,1.4,5.6c0,0.5,0.4,0.9,0.9,0.9c0.4,0,0.9-0.4,0.9-0.9c-0.2-2.1-0.7-4.1-1.5-6
			c-0.1-0.5-0.6-0.7-1.1-0.6C182.1,54.5,181.7,55,181.9,55.5L181.9,55.5z"/>
		<path class="st8" d="M104.1,80.2c-1.7-1.6-3.9-3.4-6.4-2.9c-2.3,0.4-3.9,2.6-4.4,4.8c-0.3,1.5-0.3,3-0.2,4.6c0,1.1,1.8,1.1,1.8,0
			c-0.1-2.4-0.2-5.5,1.9-7.1c2.2-1.6,4.5,0.4,6.1,1.9C103.6,82.2,104.9,80.9,104.1,80.2L104.1,80.2z"/>
		<path class="st8" d="M106.3,82.3c1-0.3,2.1-0.4,3.2-0.2c1,0.2,2,0.4,2.9,0.8c1,0.3,2.1,0.6,3.1,0.6c1-0.1,1.9-0.5,2.7-1.1
			c0.7-0.5,1.4-1.1,2.2-1.1c0.8,0,1.6,0.2,2.2,0.7c1.5,1.1,2.2,3.1,3,4.8c0.2,0.6,0.6,1.1,1.1,1.5c0.3,0.2,0.6,0.4,0.9,0.5
			c0.4,0.2,0.8,0.4,1.2,0.6c0.2,0.1,0.3,0.2,0.5,0.3c0.2,0.2-0.1-0.1,0.1,0.1c0.1,0.1,0.1,0.1,0.2,0.2c0.3,0.3,0.9,0.3,1.3,0
			c0.3-0.4,0.3-0.9,0-1.3c-0.5-0.6-1.3-0.9-2-1.3c-0.3-0.2-0.7-0.3-1-0.5c-0.1,0-0.3-0.3-0.2-0.1c-0.2-0.2-0.3-0.4-0.4-0.7
			c-0.9-1.8-1.5-3.8-3.1-5.2c-1.6-1.3-3.8-1.9-5.7-0.8c-0.8,0.4-1.4,1.1-2.2,1.4c-0.9,0.4-1.9,0.1-2.8-0.1c-1.2-0.4-2.4-0.8-3.6-1
			c-1.3-0.2-2.7-0.1-3.9,0.3C104.8,80.9,105.3,82.6,106.3,82.3L106.3,82.3z"/>
		<path class="st8" d="M91.5,89c-3.9,2-4.1,7.2-5.2,10.9c-0.3,0.9-0.6,1.8-1.1,2.7c-0.1,0.2-0.2,0.4-0.4,0.6c0,0-0.1,0.2-0.1,0.1
			s-0.1,0.1-0.1,0.1c-0.1,0.1-0.2,0.2-0.3,0.3c-0.5,0.5-0.9,0.9-1.4,1.4c-0.5,0.5-0.9,1-1.3,1.5c-0.5,0.6-0.9,1.1-1.3,1.8
			c-0.6,1.2-0.9,2.5-0.8,3.9c0.1,1.3,0.6,2.6,1.3,3.7c0.8,1.1,1.9,2.1,3,2.9c2.1,1.6,4.5,2.3,7.1,2.7c3.3,0.6,6.6,0.9,10,1.1
			c2.7,0.2,5.6,0.2,7.7-1.6c0.5-0.4,1-0.9,1.4-1.5c0.5-0.6,1-1.3,1.5-2c0.6-0.9,1.4-1.7,2.3-2.4c1.9-1.4,4.2-2.4,5.8-4.2
			c0.4-0.5,0.8-1,1.1-1.5c0.6-1-1-1.9-1.5-0.9c-1.1,1.9-3.1,3-4.9,4.2c-1,0.6-1.9,1.3-2.8,2.1c-0.9,0.9-1.5,2-2.3,3
			c-0.8,1-1.5,1.9-2.7,2.4c-1.1,0.4-2.3,0.7-3.5,0.6c-1.5,0-2.9-0.2-4.4-0.3c-1.6-0.1-3.1-0.3-4.7-0.5c-2.5-0.3-5.4-0.7-7.6-1.9
			c-1-0.6-1.9-1.2-2.7-2c-0.9-0.8-1.6-1.7-2-2.9c-0.4-1.1-0.4-2.2-0.1-3.3c0.4-1.2,1.2-2.1,1.9-3.1c0.4-0.5,0.8-0.9,1.3-1.4
			c0.4-0.5,0.8-0.8,1.2-1.2c0.7-0.8,1.2-1.8,1.5-2.8c0.7-1.9,1.1-3.9,1.6-5.9c0.1-0.5,0.3-0.9,0.4-1.4c0.1-0.2,0.1-0.4,0.2-0.6
			c0.1-0.3,0.1-0.3,0.2-0.6c0.2-0.4,0.4-0.8,0.7-1.2c0.1-0.1,0.1-0.2,0.2-0.3c-0.1,0.1,0.1-0.1,0.1-0.1c0.1-0.2,0.3-0.3,0.5-0.5
			c0.1-0.1,0.2-0.1,0.3-0.2c-0.1,0.1,0.1-0.1,0.2-0.1c0.2-0.1,0.4-0.2,0.6-0.3C93.4,90,92.5,88.5,91.5,89L91.5,89z"/>
		<path class="st8" d="M91.2,121.7c-1.1,3.9-1.2,8.1-0.1,12.1c0.5,1.9,1.3,3.8,2.3,5.5c0.9,1.6,2,3.1,3.1,4.7c1,1.5,2,3,2.6,4.7
			c0.3,0.8,0.6,1.6,0.7,2.5c0.1,1,0.2,2,0.2,3c0.1,1.9,0.7,3.6,2.2,4.9c1.3,1.1,2.9,1.7,4.5,2.2c2,0.6,4.1,0.9,6.1,1.3
			c2.3,0.4,4.5,0.8,6.8,1.2c2.3,0.4,4.6,0.7,6.9,1c2.1,0.3,4.3,0.7,6.4,0.4c1.9-0.2,3.7-1.2,5.1-2.6c1.3-1.3,2.2-2.9,3.2-4.4
			c2.2-3.1,5.1-5.8,8.7-6.9c1.9-0.6,3.8-0.7,5.7-0.3c0.9,0.2,1.9,0.6,2.7,1c0.9,0.5,1.7,1,2.6,1.4c3.6,1.6,7.6,0.5,10.8-1.5
			c0.8-0.5,1.5-1,2.1-1.6c0.9-0.8-0.4-2-1.3-1.3c-1.3,1.1-2.8,2-4.4,2.7c-1.5,0.6-3.2,0.9-4.9,0.6c-1.9-0.3-3.4-1.5-5.1-2.3
			c-1.9-0.8-3.9-1.2-5.9-1c-4,0.4-7.5,2.4-10.2,5.2c-1.3,1.4-2.4,2.8-3.4,4.4c-0.9,1.4-1.9,2.9-3.3,3.8c-1.6,1.1-3.5,1.2-5.3,1
			c-2.1-0.2-4.3-0.5-6.4-0.8c-4.5-0.7-9-1.4-13.4-2.4c-2.8-0.6-6.8-1.2-8.1-4c-0.4-0.8-0.4-1.8-0.5-2.8c0-1-0.1-2-0.3-3
			c-0.4-1.7-1-3.4-1.9-4.9c-1.8-3.2-4.3-6-5.7-9.3c-1.5-3.5-2-7.3-1.5-11.1c0.1-1,0.4-1.9,0.6-2.8C93.3,121.1,91.6,120.6,91.2,121.7
			L91.2,121.7z"/>
		<path class="st8" d="M152.3,149c-1.8,0.7-3.4,1.8-4.8,3.1c-0.7,0.7-1.4,1.4-1.9,2.1c-0.6,0.8-1.2,1.7-1.3,2.7
			c-0.2,1,0.2,1.9,0.7,2.7c0.4,0.8,1,1.4,1.7,1.9c1.6,0.9,3.5,1.4,5.3,1.4c1.9,0.1,3.7-0.1,5.5-0.6c0.9-0.2,1.7-0.5,2.5-0.8
			c0.8-0.3,1.6-0.6,2.4-1.1c0.8-0.6,1.6-1.4,1.4-2.5c-0.2-0.9-1-1.6-1.8-2c-1.7-0.9-3.9-0.8-5.7-0.6c-2,0.2-4,0.7-5.9,1.5
			c-1.8,0.7-3.5,1.7-4.9,3.1c-1.3,1.3-2,3.2-1.4,5c0.6,1.6,1.9,2.9,3.4,3.6c3.5,1.9,8,1.8,11.8,0.7c1-0.3,1.9-0.7,2.9-1.1
			c0.7-0.3,1.5-0.8,1.9-1.5c0.5-0.9,0.3-2-0.4-2.7c-0.6-0.6-1.6-0.9-2.4-1.1c-1.7-0.3-3.5-0.2-5.2,0c-1.8,0.2-3.5,0.6-5.2,1.3
			c-1.6,0.7-3.2,1.6-4.4,2.8c-1.3,1.3-2.5,3-2.3,5c0.4,3.4,4.2,4.9,7.2,5.3c3.7,0.5,7.5-0.2,10.9-1.9c0.3-0.1,0.6-0.3,0.9-0.5
			c0.4-0.3,0.7-0.8,0.9-1.3c0.3-0.7,0.4-1.5-0.1-2.2c-0.9-1.3-2.7-1.4-4.1-1.6c-4-0.4-8.1,0.6-11.3,3c-1.6,1.2-2.9,2.6-3.5,4.5
			c-0.6,1.7-0.4,3.8,0.7,5.4c1.1,1.5,2.9,2.1,4.7,2.3c2.1,0.3,4.3,0.3,6.4,0.1c1.8-0.2,3.7-0.6,5.3-1.4c0.8-0.4,1.5-0.9,2-1.6
			c0.6-0.8,0.6-2,0-2.8c-0.5-0.7-1.3-1.2-2.1-1.3c-0.7-0.2-1.5-0.3-2.2-0.3c-1.6-0.1-3.2,0-4.7,0.3c-3.2,0.6-6.5,2-8.7,4.4
			c-1.3,1.4-2.2,3.3-0.9,5c0.6,0.8,1.4,1.4,2.3,1.7c0.9,0.3,1.8,0.6,2.7,0.8c1.9,0.3,3.8,0.5,5.8,0.5c1.1,0,1.1-1.8,0-1.8
			c-1.7,0-3.4-0.1-5.1-0.4c-0.8-0.2-1.6-0.4-2.4-0.6c-0.7-0.2-1.4-0.5-1.8-1.1c-0.4-0.4-0.5-1.1-0.2-1.6c0.3-0.6,0.7-1.1,1.2-1.6
			c1-1,2.1-1.8,3.3-2.3c2.5-1.2,5.2-1.7,8-1.6c0.3,0,0.6,0,0.9,0.1l0.5,0.1l0.2,0c0,0,0.1,0,0.1,0c0.3,0,0.7,0.1,1,0.2
			c0.1,0,0.3,0.1,0.4,0.1c-0.1,0,0.1,0,0.1,0c0,0,0.1,0,0.1,0.1c-0.1-0.1-0.1-0.1,0,0c1.1,1-0.5,2-1.5,2.4c-1.5,0.6-3,1-4.6,1.1
			c-1.9,0.2-3.8,0.2-5.6-0.1c-1.3-0.2-2.8-0.4-3.6-1.5c-0.9-1.2-0.9-2.7-0.4-4.1c0.5-1.4,1.7-2.6,2.9-3.5c1.4-1,3-1.7,4.6-2.2
			c1.6-0.4,3.3-0.6,5-0.5c0.2,0,0.4,0,0.6,0.1l0.3,0h0.1c0.3,0,0.6,0.1,0.9,0.2c0.3,0.1,0.6,0.1,0.8,0.2c0.3,0.1-0.1,0,0.1,0
			c0.1,0,0.1,0.1,0.2,0.1l0.1,0.1c0.2,0.1-0.1-0.1,0.1,0.1s-0.1,0,0,0c0,0,0.2,0.2,0,0c0,0,0,0.1,0,0.1c0-0.2,0,0,0,0
			c0,0.2,0.1-0.2,0,0c0,0.1,0,0.1,0,0.2c0,0.2-0.1,0.3-0.2,0.5c0,0.1-0.1,0.1-0.1,0.2c0-0.1,0,0,0,0c0.1-0.1-0.1,0.1-0.1,0.1
			l-0.2,0.1c-0.3,0.2-0.6,0.3-1,0.5c-1.4,0.6-2.9,1.1-4.4,1.3c-2.8,0.5-5.9,0.3-8.4-1.1c-0.6-0.3-1-0.7-1.4-1.2
			c-0.1-0.2-0.3-0.4-0.4-0.6c-0.1-0.2-0.2-0.5-0.2-0.8c0,0.1,0,0,0-0.1c0-0.1,0-0.2,0-0.3c0-0.1,0-0.2,0-0.4
			c0.1-0.4,0.2-0.8,0.4-1.2c0.4-0.7,0.9-1.3,1.4-1.8c2.1-2,5-3.1,7.9-3.5c1.5-0.2,3-0.3,4.4-0.2c0.7,0,1.3,0.2,1.9,0.4
			c0.2,0.1,0.4,0.2,0.5,0.5c0,0,0,0,0,0.1c0,0.1,0,0.2-0.1,0.3c0.1-0.1-0.2,0.2-0.2,0.2c-0.1,0.1-0.2,0.2-0.4,0.2
			c-0.3,0.2-0.6,0.3-0.9,0.5c-0.8,0.4-1.6,0.7-2.5,0.9c-1.7,0.5-3.4,0.7-5.2,0.6c-1.6,0-3.2-0.4-4.7-1.1c-1.1-0.6-2.3-1.5-2.8-2.6
			c-0.5-1.3,0-2.6,1-3.5c1.1-1.2,2.6-2,4.1-2.6c1.6-0.7,3.2-1.1,4.9-1.3c0.9-0.1,1.8-0.2,2.7-0.2c0.8,0,1.5,0.1,2.3,0.3
			c0.3,0.1,0.6,0.3,0.8,0.5c0.2,0.2,0.4,0.4,0.5,0.6c0-0.1-0.1,0.1-0.1,0.1c-0.1,0.1-0.2,0.2-0.3,0.3c-0.3,0.2-0.6,0.4-0.9,0.5
			c-1.3,0.6-2.8,1.1-4.2,1.5c-2.9,0.7-6.3,0.8-9-0.7c-0.5-0.3-0.9-0.8-1.2-1.3c-0.3-0.6-0.6-1.1-0.4-1.8c0.3-0.7,0.7-1.4,1.2-2
			c0.5-0.6,1.1-1.2,1.7-1.7c1.1-1,2.5-1.8,3.9-2.4c0.5-0.1,0.7-0.6,0.6-1.1C153.3,149.2,152.8,148.9,152.3,149L152.3,149z"/>
		<path class="st8" d="M192.2,97.9c3.4,3.7,5.7,8.6,6,13.7c0.1,1.4,0.1,2.8-0.1,4.2c-0.1,0.5,0.2,0.9,0.6,1.1c0.5,0.1,1-0.2,1.1-0.6
			c0.9-5.5-0.6-11.2-3.5-15.8c-0.8-1.3-1.8-2.6-2.8-3.7C192.7,95.8,191.5,97.1,192.2,97.9L192.2,97.9z"/>
		<path class="st8" d="M184.8,95.8c1.3,0.9,2.5,1.8,3.7,2.8c0.6,0.5,1.1,0.9,1.7,1.4c0.6,0.5,1.1,1.2,1.9,1.3
			c0.8,0.1,1.6-0.3,1.8-1.1c0.2-0.6,0.2-1.2,0.1-1.8c-0.3-1.4-0.9-2.7-1.9-3.8c-0.8-0.8-2,0.4-1.3,1.3c0.7,0.8,1.2,1.7,1.4,2.8
			c0,0.2,0.1,0.4,0.1,0.6c0,0.1,0,0.1,0,0.2c0,0-0.1,0.3,0,0.1c0,0.2-0.1,0,0,0c0.2,0,0.1,0,0.1-0.1c-0.1-0.1-0.2-0.2-0.3-0.2
			l-0.3-0.3c-1.9-1.7-3.9-3.3-6-4.8c-0.4-0.2-1-0.1-1.2,0.3C184.2,95.1,184.4,95.6,184.8,95.8L184.8,95.8z"/>
		<path class="st8" d="M188,90c2.1,1.6,4.3,3.3,5.9,5.4c1.4,1.9,2.1,4.2,2.1,6.5c0,1.1,1.7,1.1,1.8,0c0-2.6-0.8-5.2-2.3-7.3
			c-1.7-2.3-4-4.1-6.2-5.8c-0.4-0.3-0.9-0.3-1.3,0C187.7,89.1,187.7,89.7,188,90L188,90z"/>
		<circle class="st8" cx="99.7" cy="94.3" r="1.2"/>
		<circle class="st8" cx="106.7" cy="95.5" r="1.2"/>
	</g>
</g>
</svg>
