<?xml version="1.0" encoding="utf-8"?>
<!-- Generator: Adobe Illustrator 24.3.0, SVG Export Plug-In . SVG Version: 6.00 Build 0)  -->
<svg version="1.1" id="レイヤー_1" xmlns="http://www.w3.org/2000/svg" xmlns:xlink="http://www.w3.org/1999/xlink" x="0px"
	 y="0px" viewBox="0 0 300 200" style="enable-background:new 0 0 300 200;" xml:space="preserve">
<style type="text/css">
	.st0{fill:#A68A73;}
	.st1{fill:#B66157;}
	.st2{fill:#A24431;}
	.st3{fill:#D6D6D6;}
	.st4{fill:#1B2F41;}
	.st5{fill:#2F3437;}
	.st6{fill:#040000;}
	.st7{fill:#FFFFFF;}
	.st8{fill:#231926;}
	.st9{fill:#DED4C4;}
</style>
<g>
	<g id="塗り_4_">
		<path class="st0" d="M135,171.9c4.4-0.2,13.2-3.8,13.2-3.8l-1.6-29.3h8.3l0.6-22.5c0,0-4.3,1.4-5.8,0.4c0.7-4,0.9-9.9-0.7-11.8
			c-1.6-1.9-5.9-4.2-10.1-3.8c-2.7-1.2-2.8-3-9.2-3.1c-6.5-0.1-8.1,2.9-8.1,2.9s-4.6,5.8-4.7,8c-0.1,1.3-0.3,2.6-0.7,3.8
			c0,0-5.1,2-6.7,5.1c-1.6,3.2-3.4,6.2-3.3,9.8s1,16.5,1.8,20.7c0.8,4.3,2.7,17.8,2.7,17.8s4.4,2.9,7.9,2.9c3.5,0,5-0.6,5-0.6
			s3.1,1.8,5.8,2.7C132,172,135,171.9,135,171.9z"/>
		<path class="st1" d="M182.9,108.1l30.3-9.7c0,0,0.3-22.5-1.5-27.2s-3.9-6.9-8.5-7.2c-4.7-0.3-14.1-1.8-14.1-1.8l-5.6,7.1
			c0,0,2.5,11.2,3.1,20.8C187,99.8,184.7,106.2,182.9,108.1z"/>
		<path class="st2" d="M143,58.8c-3.5,5.6-9.6,17.4-11.2,31.7c-3.1,3-11.2,11-12.9,13.5c-1.7,2.5-2.5,5.9-2.5,7.9
			c-3.2,2-10,6.9-10.3,16.1c-0.3,9.2,0.9,10.6,0.9,10.6l-37.4-6c0,0-0.7-6.6,0-11.1c0.7-5.1,11.6-13.5,29.9-20
			c0.7-7.4,1.1-19.2,3.4-27.3c2.1-7.3,7.9-17.3,12.8-17.9C120.6,55.8,143,58.8,143,58.8z"/>
		<polygon class="st1" points="147.1,144.8 154.8,146.3 154.8,138.8 146.6,138.8 		"/>
		<polygon class="st3" points="210.9,135.5 209.4,168.4 178.4,180.8 145.4,174.8 145.4,169.4 148.2,168.1 147.1,144.8 155,145.9 
			154.8,148.5 169,150.8 		"/>
		<path class="st3" d="M115.2,169.5c-0.8-0.8-4.2-3.3-4.2-3.3s-3.7-28.4-4.2-28c-0.5,0.4-36.9-5.4-36.9-5.4l3.1,30.9"/>
		<path class="st4" d="M151.4,49.4c-1.8,1.4-6.2,5.6-10,12.1c-3.8,6.5-5.3,9.7-6.5,14.4c-1.2,4.7-3.2,15.4-3.2,15.4
			s-6.7,4.2-8.5,7.9c5.1-2.3,12.2-1.4,14.1,1.2c2.4,1,3.7-0.4,3.7-0.4s7.1,2.6,8.4,6.3s0.2,10.3,0.2,10.3s6.1-0.4,7.8-0.8
			c1.7-0.5,6.1-2.1,6.1-2.1l19.3-5.6c0,0,4.7-7.5,3.6-18.5c-1.1-11.9-3.5-26.7-9.5-32.5c-4.5-4.4-5.6-6-9.1-8.2
			C161.7,52.9,153.9,51,151.4,49.4z"/>
		<path class="st3" d="M163.2,114.8c1.2,1.4,4.7,3.2,6.8,0.3c0.8-10.4,2.3-28.5,11.8-43.8s22.2-18.9,37-23.2c2.7-1.4,2.3-4.8,0-5.5
			s-20.3,4.1-28.1,10.7c-7.7,6.7-11.7,10-16.7,19.5s-7.8,21.3-8.7,25.9S163.2,114.8,163.2,114.8z"/>
		<path class="st5" d="M145.4,174.3c1.7,2.2,2.5,11.5,1.7,16c-11.3,4.6-26.9,8.4-30.5,7.3s-6.7-3.3-6.7-3.3s-6.1,1.4-10.3-0.1
			c-4.2-1.5-4.6-2.4-4.6-2.4s-1.9-6.1,1.9-9.1c3.8-3.1,3.2-4.5,15.1-6.8c0.8-1.7,2-3.3,4.4-2.9c2.3,0.4,4,1.2,4.1,3.1
			c4.2-0.7,8.9-3.3,8.9-3.3l-0.4,1.5c0,0,3.9-0.3,5.1,0.4s1.9,2.4,1.9,3.2C141.9,176.5,145.4,174.3,145.4,174.3z"/>
		<path class="st6" d="M171.3,52.1c-3.9,6.7-15.6,21.6-18.6,25.1c-3.1,3.5-11.2,12.2-13.2,13.3c0.2-2.7,0.5-2.7,0.5-2.7
			s11.9-12.4,15.4-17.3c3.6-4.9,12.9-17.3,14.4-20C171.3,51.5,171.3,52.1,171.3,52.1z"/>
		<path class="st7" d="M136.4,178c2.8-0.5,8.4-2.9,8.8-4c0.2-1.7,0.2-4.6,0.2-4.6s-10.4,3.8-15.5,1.9c-5.2-1.9-6.4-3.3-6.4-3.3
			s-1.9,1.9-8,0c0.5,3,0.7,5,0.7,5s3,0.4,3.4,1.3c0.4,0.9,1.5,2.1,1.5,2.1s8.4-2.9,8.8-3.5l0.3,1.7c0,0,4-0.4,4.7,0.5
			c0.7,0.9,1.3,2.8,1.3,2.8"/>
		<path class="st7" d="M229.6,128.8l0.2-29.4l-15.9-1.4l-43.5,14l-0.4,3c0,0-0.5,2-2.9,1.5c-2.4-0.5-3.5-1.8-3.5-1.8v-1l-9.1,2.9
			v31.6l14.1,2.6L229.6,128.8z"/>
		<path class="st7" d="M151.9,49.7c-1,0.5-4.7,4.1-5.2,4.4c-3-0.2-4.5,0.3-12.2-1.3c1.7-1.8,2.4-3.7,2-5.4
			c-0.3-1.7-4.9-9.9-5.6-13.2s-1.3-12.5,3-19.7c4.4-7.2,11.9-11.5,18.1-12.1c6.1-0.6,14.2,1.5,17.6,3.4s10,6,11.9,14.2
			s0.8,10.9-0.1,14.5s-4.5,8.6-3.7,12.4c0.8,3.8,1.2,4.2,3,5.2c-1.7,0.6-5,1.7-7.3,1.1c-1.7-1.3-5.3-4.2-5.3-4.2s-5,2.9-9.2,2.3
			C156.4,51,154.1,50.5,151.9,49.7z"/>
	</g>
	<path class="st7" d="M132.4,97.6c-4.7-0.5-11.2,1.3-14.3,6.5c-2.4,3.9-2,8.5-1,11c0.3,0.7,0.6,1.4,1.3,1.8c1.8,1.2,4-0.7,5.6,0.4
		c0.9,0.6,0.5,1.4,1.5,2.4c1,1,2.4,1.1,3.2,1.1c4,0.3,7.2-2.6,12.8-4.4c5.3-1.8,7-0.8,8.3-2.7c1.7-2.6,0.4-7.1-2-9.6
		c-0.9-0.9-1.8-1.4-5.9-3C136.1,98.8,133.2,97.7,132.4,97.6z"/>
	<g id="線画_4_">
		<path class="st6" d="M165.4,50.9c-0.6,0-1-0.4-1-1l-0.2-6.9c-5.3,2.5-17.4,4.6-24.5-0.9c-7-5.4-5-15.4-2-20.9
			c0.3-0.5,0.9-0.7,1.4-0.4c0.5,0.3,0.7,0.9,0.4,1.4l0,0c-1.9,3.3-5.2,13.1,1.5,18.3c7.2,5.6,20.4,2.2,23.7,0
			c0.5-0.3,1.1-0.2,1.4,0.3c0.1,0.2,0.2,0.4,0.2,0.6l0.2,8.6C166.4,50.4,166,50.9,165.4,50.9C165.4,50.9,165.4,50.9,165.4,50.9
			L165.4,50.9z"/>
		<path class="st6" d="M170.5,40.4c-0.6,0-1-0.5-1-1c0-0.4,0.2-0.8,0.6-0.9c3.6-1.6,5-3.6,4.4-6.6c-0.2-1.3-0.8-2.1-1.7-2.6
			c-1.3-0.7-3-0.5-4,0c-0.2,0.1-0.5,0.1-0.7,0.1c-0.3-0.1-6.8-1.9-10.4-5.9c-2.7-3-4.8-6.6-6-10.5c-0.2-0.5,0.1-1.1,0.7-1.3
			c0.5-0.2,1.1,0.1,1.3,0.7c0,0,0,0,0,0c0.8,2.5,2.6,6.4,5.6,9.7c2.8,3.1,7.8,4.8,9.1,5.2c1.5-0.6,3.7-0.7,5.4,0.2
			c1,0.5,2.4,1.7,2.8,4.1c0.7,3.9-1.2,6.9-5.6,8.9C170.8,40.4,170.6,40.4,170.5,40.4z"/>
		<path class="st6" d="M151.3,27c-0.2,0-0.5-0.1-0.6-0.2c-4.3-3.5-6.7-9.8-6.8-14.2c0-0.6,0.4-1,1-1.1c0.6,0,1,0.4,1.1,1
			c0.1,3.9,2.2,9.5,6,12.6c0.4,0.4,0.5,1,0.2,1.4C151.9,26.9,151.6,27,151.3,27L151.3,27z"/>
		<path class="st6" d="M159.2,23.5c-0.6,0-1-0.5-1-1c0-0.3,0.1-0.5,0.3-0.7l4.2-4.4c0.4-0.4,1-0.4,1.5,0c0.4,0.4,0.4,1,0,1.5
			c0,0,0,0,0,0l-4.2,4.4C159.7,23.4,159.4,23.5,159.2,23.5z"/>
		<path class="st6" d="M162.8,27c-0.6,0-1-0.5-1-1c0-0.4,0.2-0.7,0.6-0.9l5.1-2.6c0.5-0.3,1.1-0.1,1.4,0.4c0.3,0.5,0.1,1.1-0.4,1.4
			c0,0,0,0-0.1,0l-5.1,2.6C163.1,27,163,27,162.8,27z"/>
		<path class="st6" d="M134.5,53.8c-0.3,0-0.5-0.1-0.7-0.3c-0.4-0.4-0.4-1,0-1.5c0,0,0,0,0,0c1.6-1.7,1.9-2.8,1.5-5.3
			c-0.4-2-1.1-3.3-2-4.9c-1.1-1.9-2.4-4.1-3.3-8.2c-2.6-10.7,3.1-21.8,9.7-26.9c7.5-5.8,16.4-6.1,21.7-4.6c0.5,0.2,0.8,0.7,0.7,1.3
			c-0.2,0.5-0.7,0.8-1.2,0.7c-4.9-1.4-13-1-19.9,4.3c-6.1,4.7-11.3,14.9-8.9,24.8c0.9,3.7,2.1,5.8,3.1,7.6c0.9,1.7,1.8,3.2,2.3,5.6
			c0.6,3.1,0.1,4.9-2,7.1C135,53.7,134.7,53.8,134.5,53.8z"/>
		<path class="st6" d="M180.5,53.1c-0.2,0-0.3,0-0.5-0.1c-3.3-1.7-4.4-4.9-3.3-9.6c0.3-1.4,0.9-2.8,1.6-4.4
			c1.6-3.8,3.7-8.5,2.6-16.4c-1.3-9.4-8.2-15-14.3-17c-0.5-0.2-0.8-0.8-0.6-1.3c0.2-0.5,0.8-0.8,1.3-0.6C174,5.9,181.6,12,183,22.3
			c1.1,8.4-1.1,13.6-2.8,17.5c-0.6,1.5-1.2,2.8-1.5,4c-1.1,4.9,0.7,6.5,2.3,7.3c0.5,0.3,0.7,0.9,0.4,1.4
			C181.3,52.8,180.9,53.1,180.5,53.1L180.5,53.1z"/>
		<path class="st6" d="M155,51.5c-0.6,0-1-0.5-1-1v-6.2c0-0.6,0.5-1,1-1s1,0.5,1,1v6.2C156,51.1,155.6,51.5,155,51.5z"/>
		<path class="st6" d="M158.8,52.6c-3.4,0-5.9-0.7-7.7-2c-0.5-0.3-0.5-1-0.2-1.4c0.3-0.5,1-0.5,1.4-0.2c1.6,1.2,4.4,1.7,8.3,1.5
			c2.5-0.2,4.9-1,6.7-2.3c0.5-0.3,1.1-0.2,1.4,0.2c0.3,0.5,0.2,1.1-0.2,1.4c-2.1,1.5-4.9,2.5-7.8,2.7
			C160,52.5,159.4,52.6,158.8,52.6z"/>
		<path class="st6" d="M137.7,102.4c-0.4,0-0.8-0.2-0.9-0.6c-0.4-0.9-2.5-2.2-4.4-2.5h-0.1c-2-0.3-4.9-0.7-9.4,1.6
			c-0.5,0.3-1.1,0.1-1.4-0.4c-0.2-0.3-0.2-0.7,0-1c2.2-3.4,7.7-7.6,9.1-8.7c0.4-2.4,2.1-13.6,4.8-20.5c3-7.7,8.3-15.5,11.8-18.9
			c0.4-0.4,1-0.4,1.5-0.1c0.4,0.4,0.4,1,0.1,1.5c0,0,0,0-0.1,0.1c-3.4,3.3-8.5,11.1-11.3,18.2c-2.9,7.3-4.7,20.3-4.8,20.4
			c0,0.3-0.2,0.5-0.4,0.7c-2.2,1.6-4.3,3.4-6.3,5.3c3-0.8,5.2-0.5,6.7-0.3h0.1c2.2,0.3,5.1,1.9,6,3.6c0.2,0.5,0,1.1-0.5,1.4
			C138,102.4,137.9,102.4,137.7,102.4z"/>
		<path class="st6" d="M180.2,63.1c-0.4,0-0.7-0.2-0.9-0.6c-3.1-6.1-9-11.1-11.9-12.7c-0.5-0.3-0.7-0.9-0.4-1.4
			c0.3-0.5,0.9-0.7,1.4-0.4l0,0c3.3,1.8,9.3,7,12.7,13.6c0.3,0.5,0.1,1.1-0.4,1.4C180.6,63.1,180.4,63.1,180.2,63.1L180.2,63.1z"/>
		<path class="st6" d="M167.1,117.6c-1.7,0-3.2-0.7-4-1.9c-0.1-0.2-0.2-0.4-0.2-0.6c0.8-18.4,5-34.1,12.5-46.7
			C188,47.2,211.2,42.5,218,41.5c0,0,0.1,0,0.1,0c1.7,0,3.2,1.2,3.5,3c0.4,1.9-0.6,3.7-2.4,4.5c0,0-0.1,0-0.2,0.1
			c-17.8,4.5-29.7,10.1-38.1,25.6c-8.5,15.8-9.4,30.8-10,39.7l0,0.7c0,0.1,0,0.3-0.1,0.4c-0.6,1.1-1.9,1.9-3.4,2
			C167.4,117.6,167.2,117.6,167.1,117.6z M165,114.7c0.5,0.5,1.4,0.8,2.4,0.8c0.7-0.1,1.3-0.3,1.6-0.7l0-0.5
			c0.6-9.1,1.5-24.4,10.2-40.6s21-22,39.3-26.6c0.8-0.3,1.3-1.2,1.1-2.1c-0.1-0.6-0.6-1.3-1.4-1.4c-6.7,0.9-28.9,5.5-41,25.8
			C169.9,81.6,165.8,96.9,165,114.7L165,114.7z"/>
		<path class="st6" d="M170.4,113.1c-0.6,0-1-0.5-1-1c0-0.5,0.3-0.9,0.7-1l44-14c0.5-0.2,1.1,0.1,1.3,0.6c0.2,0.5-0.1,1.1-0.6,1.3
			c0,0,0,0-0.1,0l-44,14C170.6,113,170.5,113.1,170.4,113.1z"/>
		<path class="st6" d="M154.8,117.6c-0.6,0-1-0.5-1-1c0-0.5,0.3-0.9,0.8-1l9-2.4c0.5-0.1,1.1,0.2,1.3,0.7c0.1,0.5-0.2,1.1-0.7,1.3
			l0,0l-9,2.4C155,117.6,154.9,117.6,154.8,117.6z"/>
		<path class="st6" d="M168.8,151.8c-0.1,0-0.1,0-0.2,0l-13.9-2.3c-0.5-0.1-0.9-0.5-0.9-1v-30.8c0-0.6,0.5-1,1-1c0,0,0.1,0,0.1,0
			l13.7,1.9l60.6-20c0.5-0.2,1.1,0.1,1.3,0.7c0,0.1,0.1,0.2,0.1,0.3l-0.3,29.5c0,0.4-0.3,0.8-0.7,1l-60.5,21.8
			C169,151.8,168.9,151.8,168.8,151.8z M155.9,147.6l12.8,2.1l59.6-21.5l0.3-27.4l-59.4,19.7c-0.1,0-0.3,0.1-0.5,0l-12.8-1.7V147.6z
			"/>
		<path class="st6" d="M168.6,147.8c-0.6,0-1-0.5-1-1v-23.8c0-0.6,0.5-1,1-1c0.6,0,1,0.5,1,1v23.8
			C169.6,147.3,169.2,147.8,168.6,147.8z"/>
		<path class="st6" d="M213.2,98.2L213.2,98.2c-0.6,0-1-0.5-1-1c0.1-9.3,0-17.5-0.9-23.3c-0.7-4.5-3.4-9.4-8.6-8.7
			c-3.4,0.5-5.2,3.9-5.7,5.9c-0.2,0.5-0.7,0.9-1.3,0.7c-0.5-0.2-0.8-0.7-0.7-1.2c0.9-3.3,3.5-6.8,7.4-7.4c5.4-0.7,9.8,3.5,10.9,10.4
			c1,5.9,1,14.2,1,23.6C214.2,97.8,213.7,98.2,213.2,98.2z"/>
		<path class="st6" d="M229.6,100.5L229.6,100.5l-15.3-1.4c-0.6,0-1-0.6-0.9-1.1c0-0.6,0.6-1,1.1-0.9l15.2,1.3c0.6,0,1,0.5,1,1.1
			C230.6,100,230.1,100.5,229.6,100.5L229.6,100.5z"/>
		<path class="st6" d="M192.9,105.1c-0.5,0-1-0.4-1-0.9c-0.5-4.8,0.3-19.8,2.1-29.3c0.1-0.6,0.6-0.9,1.2-0.8
			c0.6,0.1,0.9,0.6,0.8,1.2c-1.8,9.3-2.5,24-2,28.7c0.1,0.6-0.4,1.1-0.9,1.1c0,0,0,0,0,0L192.9,105.1z"/>
		<path class="st6" d="M182.2,109.2c-0.6,0-1-0.5-1-1c0-0.3,0.1-0.6,0.4-0.8c3.3-2.6,3.7-7.7,3.8-12.7c0.2-6.2-0.6-18-3.1-24.8
			c-0.2-0.5,0-1.1,0.6-1.3c0.5-0.2,1.1,0,1.3,0.6c0,0,0,0.1,0,0.1c2.5,7.1,3.3,19.2,3.2,25.6c-0.2,5.5-0.6,11.2-4.6,14.3
			C182.7,109.1,182.5,109.2,182.2,109.2z"/>
		<path class="st6" d="M163.6,92c0,0-0.1,0-0.1,0c-0.6-0.1-1-0.6-0.9-1.2c0.6-4.8,1.7-13.9,1.7-20.8c0-0.6,0.5-1,1-1l0,0
			c0.6,0,1,0.5,1,1c0,7-1.1,16.2-1.7,21.1C164.6,91.6,164.2,92,163.6,92z"/>
		<path class="st6" d="M151.6,117.9c-0.7,0-1.4-0.1-2.1-0.2c-0.6-0.1-0.9-0.7-0.8-1.2c0,0,0-0.1,0-0.1c0.8-2.1,1.1-6.7-0.4-10
			c-2-4.2-8.4-4.5-8.5-4.5c-0.6,0-1-0.5-1-1.1c0-0.3,0.2-0.6,0.5-0.8c4.5-2.9,15-7.9,24.1-9.9c0.6-0.1,1.1,0.2,1.2,0.8
			c0.1,0.5-0.2,1.1-0.8,1.2c-7.5,1.7-15.9,5.4-21,8.2c2.5,0.6,5.8,2,7.3,5.2c1.6,3.4,1.5,7.7,0.8,10.4c1.5,0.1,3.1-0.2,4.6-0.5
			c0.5-0.1,1.1,0.2,1.3,0.7c0.1,0.5-0.2,1.1-0.7,1.3c0,0-0.1,0-0.1,0C154.6,117.7,153.1,117.9,151.6,117.9z"/>
		<path class="st6" d="M123.4,115.7c-0.4,0-0.8-0.3-1-0.7c-1.3-3.4,0.1-7.2,3.7-10.3c4.2-3.6,11-4.8,16-4.8c0.6,0,1,0.5,1,1
			c0,0.6-0.5,1-1,1l0,0c-4.6,0-10.9,1.1-14.7,4.3c-2.9,2.5-4.1,5.4-3.1,8c0.2,0.5-0.1,1.1-0.6,1.3c0,0,0,0,0,0
			C123.6,115.7,123.5,115.7,123.4,115.7z"/>
		<path class="st6" d="M124.1,119.2c-0.7-0.1-1.3-0.5-1.7-1.2c-0.4-0.8-0.4-1.7,0.1-2.9c1-2.2,4.5-7.5,8.9-9.1
			c0.5-0.2,1.1,0.1,1.3,0.6s-0.1,1.1-0.6,1.3c-3.5,1.3-6.8,6-7.7,8c-0.3,0.7-0.2,1-0.2,1c0.1,0.1,0.1,0.1,0.2,0.1h0L124.1,119.2z"/>
		<path class="st6" d="M126.2,121.6c-0.3,0-0.5,0-0.8-0.1c-0.7-0.2-1.3-0.8-1.5-1.4c-0.2-0.5-0.9-1.9,3.2-6.2c2.3-2.4,5-4.5,7.1-5.7
			c0.5-0.3,1.1-0.1,1.4,0.4c0.3,0.5,0.1,1.1-0.4,1.4c0,0,0,0,0,0c-4.6,2.5-9.3,8.1-9.4,9.2c0.1,0.2,0.2,0.3,0.3,0.3
			c0.3,0,0.6,0,0.9-0.2c0.5-0.3,1.1-0.1,1.4,0.4c0.3,0.5,0.1,1.1-0.4,1.4C127.4,121.4,126.8,121.6,126.2,121.6z M125.7,119.3
			L125.7,119.3z"/>
		<path class="st6" d="M129.2,122.7c-0.3,0-0.7,0-1-0.2c-0.7-0.3-1.3-0.8-1.6-1.5c-0.2-0.4-0.2-0.8,0-1.2c0.8-2.2,7-6.8,9.9-8.1
			c0.5-0.2,1.1,0,1.4,0.5c0.2,0.5,0,1.1-0.5,1.4c-3.1,1.5-8.1,5.5-8.8,6.8c0.1,0.1,0.2,0.2,0.3,0.3c0.7,0.3,2.4-0.6,4.2-1.5
			c0.6-0.3,1.1-0.6,1.8-0.9c4.3-2,8.7-3.2,14.7-3.8c0.6,0,1.1,0.4,1.1,0.9c0,0.5-0.3,1-0.9,1.1c-5.8,0.6-10,1.7-14.1,3.6
			c-0.6,0.3-1.2,0.6-1.7,0.8C132,121.9,130.5,122.7,129.2,122.7z"/>
		<path class="st6" d="M119.2,119c-0.8,0-1.5-0.3-2-0.8c-1.6-1.4-2-4.4-1.7-6.6c0.6-4.5,2.6-8.5,6.3-12.2c0.4-0.4,1.1-0.4,1.5,0
			c0.4,0.4,0.4,1.1,0,1.5c-3.3,3.4-5.2,7-5.7,11.1c-0.3,2,0.2,4.1,1.1,4.9c0.3,0.2,0.6,0.3,1,0.2c0.6-0.1,1.1,0.2,1.2,0.8
			c0.1,0.6-0.2,1.1-0.8,1.2C119.7,119,119.5,119,119.2,119z"/>
		<path class="st6" d="M121.8,119.3c-0.5,0-1-0.1-1.4-0.4c-1.2-0.7-1.7-2.3-1.7-4.7c0-2.1,0.2-4.5,2-8.6c0.2-0.5,0.8-0.8,1.4-0.5
			c0.5,0.2,0.8,0.8,0.5,1.4c0,0,0,0,0,0c-1.7,3.7-1.8,5.8-1.8,7.8c0,1.8,0.4,2.7,0.8,2.9c0.4,0.2,1-0.1,1.3-0.2
			c0.5-0.3,1.1-0.1,1.4,0.5c0.3,0.5,0.1,1.1-0.5,1.4l0,0C123.2,119.1,122.5,119.3,121.8,119.3z"/>
		<path class="st6" d="M137.8,101.1c-0.6,0-1-0.4-1-1c-0.2-5.6,4-24.1,6.2-32c0.2-0.5,0.7-0.9,1.3-0.7s0.9,0.7,0.7,1.3l0,0
			c-2.6,8.9-6.4,26.5-6.2,31.3C138.8,100.6,138.4,101.1,137.8,101.1L137.8,101.1z"/>
		<path class="st6" d="M203.1,65.2L203.1,65.2c-0.1,0-7.7-0.4-13.8-1.1c-0.6-0.1-1-0.6-0.9-1.1c0.1-0.6,0.6-1,1.1-0.9
			c6,0.6,13.6,1.1,13.7,1.1c0.6,0,1,0.5,1,1.1C204.1,64.7,203.7,65.2,203.1,65.2L203.1,65.2z"/>
		<path class="st6" d="M142.6,59.9L142.6,59.9c-0.3,0-20.7-2-27-2.4c-0.6,0-1-0.5-1-1.1c0-0.6,0.5-1,1.1-1c6.4,0.4,26.7,2.4,27,2.4
			c0.6,0,1,0.5,1,1.1S143.2,59.9,142.6,59.9L142.6,59.9z"/>
		<path class="st6" d="M134,172.7c-4.2,0-7.9-1-11-3.1c-0.2-0.1-0.4-0.4-0.4-0.6c-2.2-8.7-4.8-31.8-4.8-38.5c0-6.4,1.4-11.4,3.8-13
			c0.5-0.3,1.1-0.2,1.4,0.2c0.3,0.5,0.2,1.1-0.2,1.4c0,0,0,0-0.1,0c-0.3,0.2-1.2,1-1.9,3.5c-0.6,2.1-1,4.8-1,7.8
			c0,6.5,2.5,28.8,4.6,37.6c7.8,4.9,18.4,1.4,22.2-0.6c-0.3-11-0.8-31.6-1.4-34.6c-0.1-0.6,0.3-1.1,0.8-1.2c0.6-0.1,1.1,0.3,1.2,0.8
			c0.8,4,1.4,34.3,1.5,35.6c0,0.4-0.2,0.7-0.5,0.9c-2.1,1.2-6.2,2.8-10.8,3.4C136.4,172.7,135.2,172.7,134,172.7z"/>
		<path class="st6" d="M147.1,139.8c-0.6,0-1-0.5-1-1s0.5-1,1-1c2.1,0,7,0,7,0c0.6,0,1,0.5,1,1s-0.5,1-1,1l0,0
			C154.1,139.8,149.2,139.8,147.1,139.8L147.1,139.8z"/>
		<path class="st6" d="M107.1,124.2c-0.1,0-0.1,0-0.2,0c-0.6-0.1-0.9-0.6-0.8-1.2c0,0,0,0,0,0c0.7-3.9,4.8-9.6,9.4-11.4
			c0.5-0.2,1.1,0,1.3,0.6c0.2,0.5,0,1.1-0.6,1.3c0,0,0,0,0,0c-3.8,1.5-7.5,6.6-8.1,9.8C108,123.8,107.6,124.2,107.1,124.2z"/>
		<path class="st6" d="M119.1,170c-5.7,0-9.1-3.2-9.2-3.4c-0.1-0.1-0.2-0.3-0.3-0.5c-2-10.4-4.8-32.9-4.5-38.6c0-0.6,0.5-1,1.1-1
			c0.6,0,1,0.5,1,1.1l0,0c-0.3,4.9,2.2,26.6,4.4,37.7c1,0.8,5.1,3.9,11.5,2.1c0.5-0.2,1.1,0.2,1.3,0.7c0.2,0.5-0.2,1.1-0.7,1.3
			C122.1,169.8,120.6,170,119.1,170z"/>
		<path class="st6" d="M119.2,198.6c-2,0-4-0.3-6-1c-1.8-0.6-4-1.7-4.5-3.6c-1-3.5-0.6-8.7,3.7-12c3.3-2.5,6.2-3.2,8.6-3.8
			c0.5-0.1,1-0.2,1.4-0.4c1.8-0.5,3.4-1.1,4.2-1.3c0.1-0.8,0.4-1.6,1-2.2c1.1-1,2.7-1.1,4.1-1c2.1,0.1,3.6,0.7,4.5,1.7
			c0.4,0.5,0.7,1.1,0.8,1.8c3-0.6,6-2.3,7.3-3.4c0.4-0.4,1.1-0.3,1.5,0.1c0,0,0.1,0.1,0.1,0.1c2.7,4,3.4,12.5,2.2,16.9
			c-0.1,0.3-0.3,0.6-0.6,0.7c-8.4,3.6-22.7,7.1-27.2,7.4C119.9,198.6,119.5,198.6,119.2,198.6z M131,175.4c-1,0-1.6,0.1-1.9,0.4
			c-0.3,0.3-0.4,0.7-0.4,1.4c0,0.4-0.3,0.8-0.7,1c-0.1,0-2.3,0.9-5,1.6c-0.5,0.1-1,0.3-1.5,0.4c-2.2,0.5-4.9,1.2-7.8,3.4
			c-4.6,3.5-3.2,9.2-3,9.8c0.5,1.6,5,3.3,9.5,3c4.2-0.3,17.9-3.6,26-7c0.7-3.4,0.4-9.9-1.5-13.8c-2,1.3-5.3,2.9-8.5,3.3
			c-0.6,0.1-1.1-0.3-1.1-0.9c0-0.1,0-0.1,0-0.2c0.1-0.7-0.1-1.2-0.4-1.5c-0.5-0.5-1.5-0.9-3-1C131.4,175.4,131.2,175.4,131,175.4
			L131,175.4z"/>
		<path class="st6" d="M145.4,175.3c-0.6,0-1-0.5-1-1v-4.9c0-0.6,0.5-1,1-1s1,0.5,1,1v4.9C146.4,174.9,145.9,175.3,145.4,175.3z"/>
		<path class="st6" d="M130.2,175c-0.5,0-1-0.4-1-1l-0.1-2.3c0-0.6,0.4-1.1,1-1.1s1.1,0.4,1.1,1l0.1,2.3
			C131.3,174.5,130.8,175,130.2,175C130.3,175,130.3,175,130.2,175L130.2,175z"/>
		<path class="st8" d="M120.4,194.1c-3.3,0-6.5-0.7-8.6-1.9c-0.5-0.3-0.7-0.9-0.4-1.4c0.3-0.5,0.9-0.7,1.4-0.4l0,0
			c2.5,1.4,6.9,1.9,10.9,1.4c4.5-0.7,17.9-4.9,20.1-6c0.5-0.3,1.1-0.1,1.4,0.4c0.3,0.5,0.1,1.1-0.4,1.4c0,0,0,0,0,0
			c-2.6,1.4-16.3,5.6-20.7,6.3C122.8,194,121.6,194.1,120.4,194.1z"/>
		<path class="st6" d="M106.4,196.3c-5.7,0-11.2-1.9-12-4.5c-0.9-3.3-0.5-8.3,3.6-11.5c3.1-2.4,5.9-3.1,8.2-3.6
			c0.5-0.1,0.9-0.2,1.3-0.3c1.7-0.5,3.2-1,4-1.3c0.1-0.8,0.4-1.5,1-2.1c1-1,2.6-1,4-0.9c2.1,0.1,3.5,0.6,4.3,1.6
			c0.4,0.5,0.7,1.1,0.8,1.7c2.9-0.5,6.2-1.9,7.4-2.9c0.4-0.3,1.1-0.3,1.4,0.2c0.3,0.4,0.3,1-0.1,1.4c-1.8,1.5-6.3,3.2-9.6,3.6
			c-0.6,0.1-1.1-0.4-1.1-0.9c0-0.1,0-0.1,0-0.2c0.1-0.6-0.1-1.1-0.3-1.4c-0.4-0.5-1.4-0.8-2.9-0.9c-0.8,0-2-0.1-2.4,0.4
			c-0.2,0.2-0.4,0.7-0.4,1.3c0,0.4-0.3,0.8-0.7,1c-0.1,0-2.2,0.8-4.8,1.5c-0.5,0.1-0.9,0.3-1.4,0.4c-2.1,0.5-4.7,1.2-7.5,3.3
			c-4.4,3.3-3,8.7-2.9,9.3c0.4,1.4,6.8,4,13.8,2.7c0.6-0.1,1.1,0.3,1.2,0.8c0.1,0.6-0.3,1.1-0.8,1.2
			C109.2,196.1,107.8,196.3,106.4,196.3z"/>
		<path class="st8" d="M105.5,192c-3,0-5.8-0.6-7.9-1.8c-0.5-0.3-0.7-0.9-0.4-1.4c0.3-0.5,0.9-0.7,1.4-0.4c2.4,1.4,6.1,1.8,9.9,1.3
			c0.6-0.1,1.1,0.3,1.2,0.9c0.1,0.6-0.3,1.1-0.9,1.2C107.7,191.9,106.6,192,105.5,192z"/>
		<path class="st6" d="M115.6,172.9c-0.5,0-0.9-0.4-1-0.9l-0.5-3.5c-0.1-0.6,0.4-1.1,0.9-1.1c0.5-0.1,1,0.3,1.1,0.8l0.5,3.5
			c0.1,0.6-0.3,1.1-0.9,1.2L115.6,172.9z"/>
		<path class="st6" d="M151.3,33.9c-0.6,0-1-0.5-1-1v-2.2c0-0.6,0.5-1,1-1c0.6,0,1,0.5,1,1v2.2C152.3,33.5,151.9,33.9,151.3,33.9z"
			/>
		<path class="st6" d="M145.4,33.7c-0.6,0-1-0.5-1-1v-2.2c0-0.6,0.5-1,1-1s1,0.5,1,1v2.2C146.5,33.3,146,33.7,145.4,33.7z"/>
		<path class="st6" d="M142,54.3c-0.6,0-1-0.5-1-1c0-0.3,0.1-0.5,0.3-0.7c1.1-1.1,1.2-3.5,1-4.8c-0.1-0.6,0.3-1.1,0.8-1.2
			c0.6-0.1,1.1,0.3,1.2,0.8c0,0,0,0,0,0c0.3,1.6,0.2,4.8-1.6,6.5C142.6,54.2,142.3,54.3,142,54.3z"/>
		<path class="st6" d="M172.5,53.4c-0.3,0-0.6-0.1-0.8-0.4c-1.5-1.8-1.6-6.6-1.1-8.5c0.1-0.6,0.7-0.9,1.2-0.8
			c0.6,0.1,0.9,0.7,0.8,1.2l0,0c-0.4,1.8-0.1,5.7,0.7,6.7c0.4,0.4,0.3,1.1-0.2,1.4C172.9,53.3,172.7,53.4,172.5,53.4L172.5,53.4z"/>
		<path class="st6" d="M178.4,181.8c-0.6,0-1-0.5-1-1c0-0.4,0.3-0.8,0.6-1l30.3-12.2l1.3-31.6c0-0.6,0.5-1,1.1-1c0.6,0,1,0.5,1,1.1
			l-1.3,32.3c0,0.4-0.3,0.8-0.6,0.9l-30.9,12.4C178.7,181.8,178.6,181.8,178.4,181.8z"/>
		<path class="st6" d="M176.8,176.7c-0.6,0-1-0.5-1-1v-26.9c0-0.6,0.5-1,1-1s1,0.5,1,1v26.9C177.8,176.2,177.4,176.7,176.8,176.7z"
			/>
		<path class="st6" d="M173.6,181.1c-0.1,0-0.1,0-0.2,0l-27.7-4.9c-0.6-0.1-1-0.6-0.9-1.2c0.1-0.6,0.6-1,1.2-0.9c0,0,0.1,0,0.1,0
			l27.7,4.9c0.6,0.1,0.9,0.6,0.8,1.2C174.5,180.7,174.1,181.1,173.6,181.1z"/>
		<path class="st6" d="M115.2,171.2c-0.1,0-0.1,0-0.2,0l-41.8-6.9c-0.6-0.1-0.9-0.6-0.8-1.2c0.1-0.6,0.6-0.9,1.2-0.8l0,0l41.8,6.9
			c0.6,0,1,0.5,0.9,1.1C116.2,170.8,115.7,171.2,115.2,171.2L115.2,171.2z"/>
		<path class="st6" d="M106.1,128.6c-0.1,0-0.1,0-0.2,0l-35.7-5.4c-0.6-0.1-0.9-0.6-0.9-1.2c0.1-0.6,0.6-0.9,1.2-0.9l35.7,5.4
			c0.6,0.1,0.9,0.6,0.9,1.2C107.1,128.2,106.6,128.6,106.1,128.6L106.1,128.6z"/>
		<path class="st6" d="M106.1,139.2c-0.1,0-0.1,0-0.2,0l-35.7-5.4c-0.6-0.1-0.9-0.6-0.9-1.2c0.1-0.6,0.6-0.9,1.2-0.9l35.7,5.5
			c0.6,0.1,0.9,0.6,0.9,1.2C107.1,138.9,106.6,139.3,106.1,139.2L106.1,139.2z"/>
		<path class="st6" d="M154.8,146.7c-0.1,0-0.1,0-0.2,0l-7.7-1.1c-0.6-0.1-1-0.6-0.9-1.1c0.1-0.6,0.6-1,1.1-0.9c0,0,0,0,0.1,0
			l7.7,1.1c0.6,0,1,0.5,1,1.1C155.9,146.3,155.4,146.8,154.8,146.7z"/>
		<path class="st6" d="M118.9,105.1c0,0-0.1,0-0.1,0l-19.4-2.2c-0.6,0-1-0.5-1-1.1c0-0.6,0.5-1,1.1-1c0,0,0.1,0,0.1,0l19.4,2.2
			c0.6,0,1,0.5,1,1.1C119.9,104.7,119.5,105.2,118.9,105.1L118.9,105.1z"/>
		<path class="st9" d="M139.9,88.9c-0.6,0-1-0.5-1-1c0-0.3,0.1-0.6,0.3-0.8c5.1-4.8,23-26.3,29.7-37.4c0.3-0.5,0.9-0.6,1.4-0.4
			c0.5,0.3,0.6,0.9,0.4,1.4c-6.3,10.6-24.3,32.5-30.1,37.8C140.4,88.8,140.2,88.9,139.9,88.9z"/>
		<path class="st9" d="M139.4,91.6c-0.6,0-1-0.5-1-1c0-0.3,0.2-0.7,0.5-0.9c3.5-2.3,9.8-9,17.3-18.4c6.2-7.8,12.3-16.1,14.3-19.8
			c0.2-0.5,0.9-0.7,1.4-0.5c0.5,0.2,0.7,0.9,0.5,1.4c0,0,0,0.1-0.1,0.1c-3.9,7.1-23.8,33.3-32.2,38.9
			C139.8,91.5,139.6,91.6,139.4,91.6z"/>
	</g>
</g>
</svg>
