<?xml version="1.0" encoding="utf-8"?>
<!-- Generator: Adobe Illustrator 24.3.0, SVG Export Plug-In . SVG Version: 6.00 Build 0)  -->
<svg version="1.1" id="レイヤー_1" xmlns="http://www.w3.org/2000/svg" xmlns:xlink="http://www.w3.org/1999/xlink" x="0px"
	 y="0px" viewBox="0 0 200 200" style="enable-background:new 0 0 200 200;" xml:space="preserve">
<style type="text/css">
	.st0{fill:#366284;}
	.st1{fill:#E8C24F;}
	.st2{fill:#D64B37;}
	.st3{fill:#B1B1B1;}
	.st4{fill:#4F4D4D;}
	.st5{fill:#FFFFFF;}
	.st6{fill:#070001;}
</style>
<g>
	<g id="塗">
		<path class="st0" d="M139,158.1c7.7-1.4,18.4-4.6,20.8-18.1s-0.3-29.6-5.7-39.2c-5.4-9.7-13.4-21.6-20.5-25.7
			c-7.1-4.1-9.6-5.4-9.6-5.4s-7.8,2.8-10.9,3c-3.2,0.2-7.6-0.8-9.2-2.3c-3.3,1.5-10,5.8-13.9,10.1c-4,4.3-14.5,15.6-17.7,23.8
			s-5.5,14.2-5.9,16c-2.3,0.2-10.8,1.9-10.8,1.9s3.3,5.3,3.6,7.8s0.9,5.6-0.1,7.1c1.5,1.7,4.3,4.8,4.3,4.8l47,6
			c0,0,3.9-7.1,12.7-8.1c8.5-1,12.6,2.8,13.9,4.4c1.3,1.6,3.3,4.3,3.2,6.6c-0.1,2.4-0.7,5.4-1.2,6.3"/>
		<path class="st1" d="M39.4,132.7c-9.2,3.4-17.5,9.5-19.5,16.6s-4,13,1.3,23s14.4,16.4,28.2,17.9s22-1,27.6-4.1s8.7-10.6,9.9-14.3
			s-0.5-11.9-2.9-14.4s-13.7-8.9-14.9-9.7c-1.2-0.9-7.4-8.1-9.4-9.7s-6.4-5.8-13.1-6c-2.3,4.4-2.9,7.9-6.1,8.1
			C37.4,140.1,39.4,132.7,39.4,132.7z"/>
		<ellipse class="st2" cx="44.7" cy="151" rx="3.7" ry="3.4"/>
		<ellipse class="st2" cx="57.6" cy="153.9" rx="3.7" ry="3.4"/>
		<ellipse class="st2" cx="35.3" cy="160.5" rx="3.7" ry="3.4"/>
		<ellipse class="st2" cx="43.6" cy="172.6" rx="3.7" ry="3.4"/>
		<ellipse class="st2" cx="57.6" cy="174.2" rx="3.7" ry="3.4"/>
		<ellipse class="st2" cx="67.3" cy="163.8" rx="3.7" ry="3.4"/>
		<path class="st3" d="M106.6,166.6c1.1,7.2-1.5,13-8.7,14.4s-9.7-7-9.7-12.8s3.4-10.9,9.3-11S106.1,163.2,106.6,166.6z"/>
		<path class="st4" d="M104.6,160.2c1.2,1.9,2,6.4,2,6.4l14.1-8.5c0,0,0.3-5.3-2.6-7.1C113.9,153.8,104.6,160.2,104.6,160.2z"/>
		<path class="st5" d="M17.7,163.6c-5.9,2.9-10.4,6.5-10.5,13.9c0,7.4,5,14.7,24.8,19.2s50.3-1.6,52.7-2.4s12.9-5.8,13.4-9.9
			c0.5-4.1-0.3-3.3-0.3-3.3s-5.6,0.8-7.5-3.6s-2.2-9.2-2.2-9.2s-0.3,6.1-4.2,11.4c-3.9,5.3-11.8,11-24.1,11.1s-23.3-3.2-29.4-7.9
			C24.4,178,18.8,169.8,17.7,163.6z"/>
		<path class="st5" d="M30.2,137.4c-0.9-5.4,4.7-12.7,8-14.2c3.4-1.5,13.6-1.7,17.4-0.9c4.2,3.8,4.4,12.9,3.5,14.9
			c-4.2-3.3-11.4-5-12.5-5.6c-1.1,4.1-3.1,8.2-5.3,8.4s-2.5-4.1-1.8-7.3C35.7,133.9,30.2,137.4,30.2,137.4z"/>
		<path class="st5" d="M108.8,157.2c-1.3-5.1,3-13.3,11-16.6s13.9,0.7,13.9,0.7s6.9,3.7,6.4,9.7s-0.9,9.1-5.1,9.9
			c-1.1,1.3-3.2,2-4.9,1.1c-1.3,1.9-3.8,2.6-6.2,1.7c0,0-0.9,1.5-4.1,1.9s-5-3.3-5-3.3l5.6-3.3c0,0,0.9-6.5-2.3-7.8
			C113.6,153.8,108.8,157.2,108.8,157.2z"/>
		<path class="st5" d="M107,71.8l0.1-6.2c0,0-9,0.7-15.8-2.6c-6.8-3.3-8.2-7.7-8.2-7.7s-6.1-0.6-7.4-7.2s2-7,2-7s-2.4-3.2-2.5-9.3
			S77.9,18.4,86.3,10s26.1-10,35-6.3s17.1,11.4,19.4,19.2c2.3,7.8,1.9,13.3,1.9,13.3s8.3-0.7,9.4,7.7c1.2,8.4-2.8,15.7-3.8,19.2
			s-1.9,8.2-1.2,10.1c0.8,1.9,2.5,4,3.7,4.8c-4.4,0-8.3-1-9.8-2.2s-5.8-4.1-5.7-12.4s1.1-12.7,1.1-12.7s-6.6,5.1-8,6.2
			C126.9,58,123,61,123,61v9.2c0,0-4.7,2-8.9,2.2C110,72.6,107,71.8,107,71.8z"/>
	</g>
	<g id="線">
		<path class="st6" d="M29.5,138.6c-0.1,0-0.1,0-0.2,0L7,135.7c-0.7-0.1-1.1-0.7-1.1-1.4c0.1-0.7,0.7-1.1,1.4-1.1l0,0l22.3,2.9
			c0.7,0,1.2,0.6,1.1,1.3C30.8,138.1,30.2,138.7,29.5,138.6L29.5,138.6z"/>
		<path class="st6" d="M110.4,149.1c-0.1,0-0.1,0-0.2,0l-46.9-6c-0.7-0.1-1.2-0.7-1.1-1.3c0.1-0.7,0.7-1.2,1.3-1.1c0,0,0,0,0.1,0
			l46.9,5.9c0.7,0,1.2,0.6,1.2,1.3C111.6,148.7,111,149.2,110.4,149.1L110.4,149.1L110.4,149.1z"/>
		<path class="st6" d="M192.9,159.8c-0.1,0-0.1,0-0.2,0l-40.8-5.4c-0.7-0.1-1.2-0.7-1.1-1.3c0.1-0.7,0.7-1.2,1.3-1.1c0,0,0,0,0.1,0
			l40.8,5.4c0.7,0,1.2,0.6,1.1,1.3C194.2,159.3,193.6,159.8,192.9,159.8L192.9,159.8z"/>
		<path class="st6" d="M103.8,67c-0.4,0-0.8,0-1.2,0c-7.3-0.2-13-2.4-16.9-6.6c-4.1-4.3-6-9.9-5.7-16.6c0.3-6.6,2.7-12.4,4.1-15.4
			c0.3-0.6,1-0.9,1.6-0.6s0.9,1,0.6,1.6v0.1c-1.3,2.7-3.6,8.3-3.9,14.4c-0.3,6,1.4,11,5,14.8c3.4,3.6,8.6,5.6,15.2,5.8
			c4.2,0.1,8.4-0.4,12.4-1.5c4.1-1.3,10.9-5.3,12.9-7.4c0.5-0.5,1.2-0.5,1.7,0s0.5,1.2,0,1.7c-2.5,2.6-9.7,6.8-13.9,8.1
			C113.2,66.1,108.6,67,103.8,67z"/>
		<path class="st6" d="M132.4,55.1c-0.7,0-1.2-0.5-1.2-1.2c0-0.5,0.3-0.9,0.7-1.1c4-1.7,6-4.4,6-8c0-1.6-0.5-2.7-1.4-3.3
			c-1.1-0.7-2.9-0.8-4.7,0c-0.6,0.3-1.3,0-1.6-0.7c-0.3-0.6,0-1.3,0.7-1.6c2.5-1,5.1-0.9,6.9,0.3c1.1,0.8,2.5,2.3,2.5,5.3
			c0,4.6-2.5,8.2-7.4,10.3C132.7,55,132.5,55.1,132.4,55.1z"/>
		<path class="st6" d="M83,56.6c-0.1,0-0.1,0-0.2,0c-2.1-0.3-4.2-1.4-5.8-3.1c-1.9-2-2.9-4.6-2.9-7.3c0-2.2,0.7-4.2,2.2-5.6
			c1.4-1.4,3.4-2.2,5.4-2.2c0.7,0,1.2,0.6,1.2,1.2s-0.6,1.2-1.2,1.2c-1.3,0-2.6,0.6-3.6,1.5c-1,1-1.5,2.2-1.5,3.8
			c0,4.9,3.8,7.6,6.5,7.9c0.7,0.1,1.1,0.7,1.1,1.4C84.1,56.2,83.6,56.6,83,56.6z"/>
		<path class="st6" d="M77.3,42.7c-0.4,0-0.8-0.2-1.1-0.6c-1.7-3-2.6-7.7-2.2-12.2c0.3-3.9,1.7-9.6,6.3-14.2c0.5-0.5,1.2-0.5,1.7,0
			c0.5,0.5,0.5,1.2,0,1.7l0,0c-7.6,7.5-6.1,19.2-3.7,23.5c0.3,0.6,0.1,1.3-0.5,1.7C77.7,42.7,77.5,42.7,77.3,42.7z"/>
		<path class="st6" d="M139.1,46.5c-0.7,0-1.2-0.5-1.2-1.2c0-0.4,0.2-0.7,0.4-0.9c0,0,3.9-3.7,3.1-13.5
			c-0.9-11.2-9.9-24.6-24.8-27.2C104.7,1.6,95,4,87.1,11.1c-0.5,0.4-1.3,0.4-1.7-0.1S85,9.7,85.5,9.3l0,0
			c8.6-7.6,18.9-10.2,31.6-7.9c16.1,2.9,25.8,17.3,26.8,29.4c0.9,11.2-3.7,15.3-3.9,15.5C139.6,46.4,139.3,46.5,139.1,46.5z"/>
		<path class="st6" d="M151.5,78.9c-0.1,0-0.3,0-0.4-0.1c-3.8-1.3-5.6-4.2-5.5-8.8c0.1-3.4,1.2-6.3,2.3-9.5
			c1.3-3.5,2.6-7.1,2.9-12.1c0.3-4.5-0.6-7.8-2.5-9.5c-1.8-1.7-4.2-1.6-5.5-1.5c-0.7,0.1-1.3-0.4-1.4-1c-0.1-0.7,0.4-1.3,1-1.4
			c3-0.4,5.6,0.3,7.5,2.1c2.5,2.3,3.6,6.2,3.2,11.5c-0.4,5.4-1.8,9.3-3.1,12.8c-1.1,3-2.1,5.7-2.1,8.7c-0.1,4.5,1.9,5.8,3.8,6.4
			c0.6,0.2,1,0.9,0.8,1.6C152.5,78.6,152,78.9,151.5,78.9L151.5,78.9z"/>
		<path class="st6" d="M142.7,77.7c-0.1,0-0.2,0-0.4-0.1c-4.8-1.5-7.5-5.4-8.1-11.5c-0.5-4.9,0.5-10.1,1.1-13.6
			c0.2-0.8,0.3-1.5,0.4-2.1c0.1-0.7,0.7-1.1,1.4-1s1.1,0.7,1,1.4c-0.1,0.6-0.2,1.3-0.4,2.2c-0.6,3.3-1.5,8.4-1.1,12.9
			c0.5,5.1,2.6,8.2,6.4,9.4c0.6,0.2,1,0.9,0.8,1.5C143.7,77.4,143.2,77.7,142.7,77.7L142.7,77.7z"/>
		<path class="st6" d="M107,72.2c-0.7,0-1.2-0.5-1.2-1.2l0,0v-5.3c0-0.7,0.5-1.2,1.2-1.2s1.2,0.5,1.2,1.2l0,0V71
			C108.3,71.7,107.7,72.2,107,72.2z"/>
		<path class="st6" d="M123.1,71c-0.7,0-1.2-0.5-1.2-1.2l0,0v-9.2c0-0.7,0.5-1.2,1.2-1.2s1.2,0.5,1.2,1.2v9.2
			C124.3,70.5,123.7,71,123.1,71L123.1,71z"/>
		<path class="st6" d="M138.7,158.9c-0.7,0-1.2-0.5-1.2-1.2c0-0.6,0.4-1.1,1-1.2c10.7-2.1,19-5,20.7-20.1c1.7-14.6-1.4-27.6-9.8-42
			c-6.6-11.2-14.1-18.1-25.3-23.2c-6.9,3.6-17,2.7-20.2,0.9c-0.6-0.3-0.8-1-0.5-1.7c0.3-0.6,1-0.8,1.7-0.5c0,0,0,0,0.1,0
			c2.4,1.4,12.1,2.3,18.3-1.2c0.3-0.2,0.8-0.2,1.1-0.1c11.9,5.3,20,12.6,26.9,24.5c8.8,14.9,11.9,28.3,10.2,43.5
			c-0.9,7.6-3.4,13-7.8,16.5c-3.8,3.1-8.7,4.5-14.9,5.7C138.8,158.9,138.8,158.9,138.7,158.9z"/>
		<path class="st6" d="M66.8,120.5c-0.1,0-0.2,0-0.3,0c-0.7-0.2-1-0.9-0.9-1.5l0,0c2.6-9.6,7.9-20,14.9-29.3
			c6.1-8.2,13.2-15.1,19-18.3c0.6-0.4,1.3-0.2,1.7,0.4s0.2,1.3-0.4,1.7c0,0,0,0-0.1,0c-9.9,5.6-26.8,24.8-32.7,46.2
			C67.9,120.2,67.4,120.5,66.8,120.5z"/>
		<path class="st6" d="M111.6,79.8c-4.6,0-8.8-0.9-11.5-2.4c-0.6-0.3-0.8-1.1-0.5-1.7s1.1-0.8,1.7-0.5l0,0
			c4.7,2.5,14.1,3.3,22.2-0.3c0.6-0.3,1.3,0,1.6,0.6s0,1.3-0.6,1.6C120.3,78.9,116,79.8,111.6,79.8z"/>
		<path class="st6" d="M55.3,123.7c-0.7,0-1.2-0.5-1.2-1.2c0-0.5,0.3-0.9,0.7-1.1c4.3-2,15.1-2.6,18.7-2.5c0.7,0,1.2,0.6,1.2,1.3
			c0,0.7-0.6,1.2-1.3,1.2c-3.5-0.1-13.8,0.6-17.6,2.3C55.7,123.6,55.5,123.7,55.3,123.7z"/>
		<path class="st6" d="M84.7,144.1c-0.1,0-0.1,0-0.2,0c-0.7-0.1-1.1-0.7-1-1.4l0,0c0-0.3,4.8-30.4,6.4-39.3c0.1-0.7,0.8-1.1,1.4-1
			c0.7,0.1,1.1,0.8,1,1.4c-1.6,8.8-6.3,38.9-6.4,39.2C85.8,143.7,85.3,144.1,84.7,144.1z"/>
		<path class="st6" d="M123.1,141.1c-0.2,0-0.3,0-0.5-0.1c-0.6-0.3-0.9-1-0.6-1.6c3-6.5,8.7-16.8,10.9-19.3c0.5-0.5,1.2-0.5,1.7-0.1
			c0.5,0.5,0.5,1.2,0.1,1.7l0,0c-1.9,2-7.3,11.8-10.4,18.6C124,140.8,123.5,141.1,123.1,141.1z"/>
		<path class="st6" d="M59,138.3c-0.1,0-0.2,0-0.3,0c-0.7-0.2-1-0.8-0.9-1.5c1-3.8,0.4-9.6-3.4-13.5c-0.5-0.5-0.5-1.3,0-1.7
			c0.5-0.5,1.3-0.5,1.7,0c4.5,4.5,5.2,11.4,4,15.8C60.1,138,59.6,138.3,59,138.3z"/>
		<path class="st6" d="M30.2,138.3c-0.6,0-1.2-0.5-1.2-1.1c-0.4-4.5,2.4-10.2,7.1-14.1c5.1-4.3,19.1-2.1,19.7-2.1
			c0.7,0.1,1.1,0.8,1,1.4c-0.1,0.7-0.7,1.1-1.4,1c-3.7-0.6-14.2-1.5-17.7,1.5c-3.3,2.8-6.6,7.7-6.2,12c0.1,0.7-0.4,1.3-1.1,1.3
			C30.3,138.3,30.2,138.3,30.2,138.3z"/>
		<path class="st6" d="M41,141.3c-0.2,0-0.5,0-0.7-0.1c-3.4-0.9-2.1-7.2-1-12.2l0.1-0.4c0.1-0.7,0.8-1.1,1.5-0.9
			c0.7,0.1,1.1,0.8,0.9,1.5l-0.1,0.4c-0.4,1.9-0.9,4.2-1.1,6.1c-0.3,2.8,0.3,3.2,0.3,3.2c0.3,0.1,0.9-0.4,1.7-1.5
			c0.8-1.3,1.5-2.9,2-4c0.1-0.3,0.3-0.6,0.4-0.8c0.6-1.3,1.8-3.5,3.6-4.2c0.6-0.3,1.3,0,1.6,0.6s0,1.3-0.6,1.6c0,0,0,0-0.1,0
			c-0.7,0.3-1.6,1.4-2.3,3c-0.1,0.2-0.2,0.4-0.3,0.8C45.8,136.8,43.8,141.3,41,141.3z"/>
		<path class="st6" d="M108.8,158.1c-0.5,0-1-0.3-1.2-0.9c-0.5-1.5-0.4-3.6,0.3-5.9c0.7-2.4,1.9-4.6,3.5-6.5
			c4.8-5.4,12.3-7,17.2-6.2c0.7,0.1,1.1,0.7,1,1.4s-0.7,1.1-1.4,1c-4.4-0.7-11,1-15,5.5c-2.9,3.3-3.9,8-3.3,10
			c0.2,0.6-0.2,1.3-0.8,1.5C109,158,108.9,158.1,108.8,158.1L108.8,158.1z"/>
		<path class="st6" d="M135,162c-0.7,0-1.2-0.6-1.2-1.2c0-0.6,0.4-1.1,1-1.2c3.1-0.4,4.4-6,4-9.5c-0.4-3.3-3.1-6.5-6.6-8
			c-0.6-0.2-0.9-1-0.7-1.6s1-0.9,1.6-0.7c0,0,0,0,0.1,0c4.3,1.8,7.5,5.8,8.1,10c0.5,3.7-0.9,11.4-6.1,12.2
			C135.1,162,135,162,135,162z"/>
		<path class="st6" d="M131.5,163.8c-0.4,0-0.8-0.1-1.2-0.2c-0.8-0.4-1.4-1.1-1.7-2l2.4-0.7l0,0c0.1,0.2,0.2,0.3,0.3,0.4
			c0.2,0.1,0.6,0,1-0.2c0.6-0.3,2-1.8,2.4-9.1c0-0.7,0.6-1.2,1.3-1.2s1.2,0.6,1.2,1.3c-0.3,6.5-1.5,10-3.7,11.2
			C132.8,163.6,132.1,163.8,131.5,163.8z"/>
		<path class="st6" d="M126.3,165.5c-0.4,0-0.7-0.1-1.1-0.2c-0.5-0.2-1-0.5-1.4-0.9l1.9-1.5l0,0c0.2,0.2,0.6,0.4,1.5-0.2
			c1.6-1.1,2.5-4.4,2.6-9.4c0-0.7,0.6-1.2,1.2-1.2s1.2,0.6,1.2,1.2c-0.1,6-1.3,9.8-3.6,11.4C127.9,165.2,127.1,165.5,126.3,165.5z"
			/>
		<path class="st6" d="M120.2,166.7c-0.5,0-1-0.1-1.4-0.2c-2.3-0.6-4.6-2.4-5-3.3c-0.3-0.6,0-1.3,0.6-1.6s1.3,0,1.6,0.5
			c0.3,0.4,2,1.8,3.7,2.1c0.7,0.1,1.3,0,1.8-0.3c2.1-1.5,3.4-5.4,3.4-9.7c0-0.7,0.5-1.2,1.2-1.2s1.2,0.5,1.2,1.2l0,0
			c0,4.1-1.2,9.3-4.4,11.7C122.1,166.4,121.1,166.7,120.2,166.7z M115.9,162L115.9,162L115.9,162z"/>
		<path class="st6" d="M97.2,182.2c-2.5,0-4.9-1-6.7-2.7c-1.7-1.6-3.8-4.7-3.7-10.2c0.1-9.2,5.4-13.4,10.5-13.4h0.1
			c2.9,0,5.4,1,7.2,3c2,2.1,3.1,5.3,3.2,9.1s-0.8,7.3-2.7,9.9c-1.9,2.5-4.4,4-7.2,4.2C97.7,182.2,97.4,182.2,97.2,182.2z
			 M97.4,158.4c-3.7,0-8,2.9-8.1,11c-0.1,4.6,1.6,7.1,2.9,8.4c1.5,1.4,3.5,2.1,5.5,2c2.1-0.1,4-1.3,5.4-3.2c1.6-2.1,2.4-5.1,2.3-8.4
			C105.3,162.1,102.3,158.4,97.4,158.4L97.4,158.4z"/>
		<path class="st6" d="M107.9,167.3c-0.7,0-1.2-0.6-1.2-1.2c0-0.4,0.2-0.8,0.6-1c0.7-0.5,2.5-1.5,4.6-2.7c2.7-1.5,6.2-3.6,7.4-4.3
			c0.4-1.8-0.3-4-1.4-5.4c-2.6,1.7-10.2,6.6-12.5,8.6c-0.5,0.4-1.3,0.4-1.7-0.2c-0.4-0.5-0.4-1.3,0.2-1.7c3-2.4,13.2-9,13.6-9.3
			c0.5-0.3,1.1-0.3,1.5,0.1c2.1,1.9,3.7,5.8,2.7,9.1c-0.1,0.2-0.2,0.4-0.4,0.6c-0.7,0.6-3.8,2.3-8,4.8c-2,1.1-3.9,2.2-4.5,2.6
			C108.4,167.3,108.2,167.3,107.9,167.3z"/>
		<ellipse class="st6" cx="98.1" cy="169.4" rx="2.4" ry="2.8"/>
		<path class="st6" d="M56.9,191.9c-1.8,0-3.6-0.1-5.4-0.3c-7.6-0.7-14.7-3.2-20.4-7c-5.4-3.7-9.5-8.5-12-14
			c-2.3-5.1-3-10.2-2.2-15.2c0.8-4.5,2.6-8.7,5.5-12.2c5.2-6.6,12.1-10.3,16.8-11.6c0.7-0.2,1.3,0.2,1.5,0.9
			c0.2,0.6-0.2,1.3-0.8,1.5c-4.1,1.1-10.7,4.6-15.5,10.7c-3.4,4.3-8.2,13.2-3,24.9c2.3,5.1,6.2,9.6,11.2,13c5.4,3.7,12,6,19.3,6.6
			c6.7,0.6,13.3,0,18.9-1.7c5.5-1.7,9.6-4.4,11.9-7.8c4.9-7.4,4-15.3,1.5-20.3c-1.9-3.8-6.6-6.2-10.7-8.3c-2.6-1.3-5.1-2.6-6.7-4.1
			c-1.3-1.3-2.6-2.6-3.8-4.1c-2.4-2.7-4.8-5.5-8.6-7.7c-2.9-1.6-7.2-2.2-7.2-2.2c-0.7-0.1-1.1-0.7-1-1.4c0.1-0.6,0.7-1.1,1.4-1
			c0.2,0,4.8,0.7,8.1,2.5c4.2,2.3,6.8,5.3,9.3,8.2c1.1,1.4,2.3,2.6,3.6,3.9c1.4,1.3,3.7,2.4,6.1,3.7c4.5,2.3,9.6,4.8,11.8,9.4
			c2.8,5.6,3.8,14.5-1.7,22.7C80,187.8,69.3,191.9,56.9,191.9z"/>
		<path class="st6" d="M80.5,175.4c-0.1,0-0.2,0-0.3,0l-0.4-0.1c-4.5-1-18.4-3.9-27-8.8c-9.2-5.3-22.3-15.6-25.9-20.5
			c-0.4-0.5-0.3-1.3,0.3-1.7c0.5-0.4,1.3-0.3,1.7,0.3l0,0c3.4,4.6,16.4,14.8,25.2,19.9c5.5,3.2,14.4,6.1,26.3,8.6l0.4,0.1
			c0.7,0.1,1.1,0.8,0.9,1.5C81.5,175,81,175.4,80.5,175.4L80.5,175.4z"/>
		<path class="st6" d="M25.2,170c-0.7,0-1.2-0.5-1.3-1.2c0-0.7,0.5-1.2,1.2-1.3c7.7-0.4,21.3-3.5,28.5-6.4c7.6-3.1,15.2-7.2,16.5-8
			c0.5-0.4,1.3-0.3,1.7,0.3s0.3,1.3-0.3,1.7c0,0,0,0-0.1,0c-1.5,1-9.2,5.2-16.9,8.3C47.1,166.5,33.4,169.6,25.2,170L25.2,170z"/>
		<path class="st6" d="M50.3,187.4c-0.6,0-1.2-0.5-1.2-1.1c-0.2-2.2,0.3-16.4,0.4-19.5c0-0.9,0.2-3,0.4-5.7
			c0.5-7.1,1.4-18.9,1.3-23.6c0-0.7,0.5-1.2,1.2-1.2l0,0l0,0c0.7,0,1.2,0.5,1.2,1.2c0,4.7-0.8,16.7-1.3,23.8
			c-0.2,2.6-0.3,4.7-0.4,5.6c-0.2,3.5-0.6,17.2-0.4,19.2C51.5,186.7,51,187.3,50.3,187.4L50.3,187.4z"/>
		<path class="st6" d="M49.4,139.4c-0.2,0-0.3,0-0.5-0.1c-1.3-0.6-2.8-0.9-4.3-1c-0.7,0-1.2-0.6-1.2-1.3s0.6-1.2,1.3-1.2
			c1.8,0.1,3.5,0.5,5.1,1.2c0.6,0.3,0.9,1,0.6,1.6C50.3,139.1,49.9,139.4,49.4,139.4z"/>
		<path class="st6" d="M30.9,144.5c-0.7,0-1.2-0.5-1.2-1.2c0-0.3,0.1-0.6,0.4-0.9c1-1,4.1-4.1,8.7-5.7c0.6-0.2,1.3,0.1,1.6,0.7
			c0.2,0.6-0.1,1.3-0.7,1.6h-0.1c-4,1.3-6.8,4.1-7.7,5.1C31.5,144.4,31.2,144.5,30.9,144.5z"/>
		<path class="st6" d="M25.2,166.4c-0.5,0-1-0.4-1.2-0.9c-1.9-6.6-0.6-13.2,1.1-16.8c0.3-0.6,1-0.9,1.6-0.6c0.6,0.3,0.8,1,0.6,1.6
			c-1.7,3.5-2.6,9.5-1,15c0.2,0.7-0.2,1.3-0.8,1.5C25.5,166.3,25.4,166.4,25.2,166.4z"/>
		<path class="st6" d="M45.5,184.9c-0.1,0-0.2,0-0.3,0c-6.5-1.6-14.9-7.8-17.4-11.9c-0.4-0.6-0.2-1.3,0.3-1.7
			c0.6-0.4,1.3-0.2,1.7,0.3c0,0,0,0,0,0.1c2.2,3.6,10.2,9.4,15.9,10.8c0.7,0.2,1.1,0.8,0.9,1.5C46.6,184.5,46.1,184.9,45.5,184.9
			L45.5,184.9z"/>
		<path class="st6" d="M55.3,186.1c-0.6,0-1.3,0-1.9,0c-0.7,0-1.2-0.6-1.2-1.3s0.6-1.2,1.3-1.2c5.8,0.2,11.3-0.6,16-2.2
			c3.7-1.3,6.5-3.4,7.8-4.8c0.5-0.5,1.2-0.5,1.7-0.1c0.5,0.5,0.5,1.2,0.1,1.7c-1.5,1.7-4.7,4.1-8.8,5.5
			C65.9,185.3,60.7,186.1,55.3,186.1z"/>
		<path class="st6" d="M80.9,172.1c-0.1,0-0.1,0-0.2,0c-0.7-0.1-1.1-0.7-1-1.4c0.3-2.2,0.2-5.8-0.9-8.3c-1.3-2.9-4.4-4.5-5.5-4.8
			c-0.7-0.2-1-0.8-0.9-1.5c0.2-0.7,0.8-1,1.5-0.9c1.6,0.4,5.5,2.5,7.1,6.2c1.3,3,1.5,7.1,1.1,9.7C82,171.6,81.5,172.1,80.9,172.1z"
			/>
		<path class="st6" d="M66.8,153.3c-0.1,0-0.2,0-0.4-0.1c-5.1-1.5-11.7-10.8-11.8-10.9c-0.4-0.6-0.3-1.3,0.3-1.7s1.3-0.3,1.7,0.3
			c1.4,1.9,2.9,3.8,4.6,5.5c3,3.2,4.9,4.2,5.9,4.5c0.6,0.2,1,0.9,0.8,1.5C67.8,153,67.3,153.3,66.8,153.3L66.8,153.3z"/>
		<path class="st6" d="M44.9,155.7c-1.8,0-3.5-1-4.4-2.5c-1.2-2-0.4-4.8,1.6-6.2l0,0c1-0.7,2.3-0.8,3.6-0.5c1.5,0.4,2.7,1.4,3.2,2.6
			c1.1,2.3,0.2,5-2.1,6.1c-0.2,0.1-0.4,0.2-0.6,0.2C45.8,155.6,45.4,155.7,44.9,155.7z M43.5,149.1c-0.8,0.6-1.4,1.9-0.8,2.9
			s1.9,1.5,2.8,1.2c0.6-0.2,1.1-0.6,1.3-1.2c0.2-0.6,0.2-1.3-0.1-1.8c-0.2-0.4-0.8-1-1.7-1.3C44.7,148.8,44,148.7,43.5,149.1
			L43.5,149.1z"/>
		<path class="st6" d="M35.5,165.2c-0.1,0-0.1,0-0.2,0c-3-0.2-4.5-2.5-4.5-4.7c0-1.2,0.4-2.3,1.2-3.1c0.9-0.8,2.1-1.3,3.3-1.2l0,0
			c2.4,0,4.4,1.9,4.6,4.4c0.1,1.2-0.5,2.5-1.5,3.5C37.6,164.7,36.6,165.2,35.5,165.2z M35.1,158.6c-0.5,0-1,0.2-1.4,0.5
			c-0.3,0.4-0.5,0.8-0.5,1.3c0,1.5,1.2,2.2,2.3,2.3c0.3,0,0.8-0.2,1.1-0.5c0.5-0.5,0.8-1.2,0.8-1.6
			C37.3,159.5,36.3,158.6,35.1,158.6L35.1,158.6L35.1,158.6z"/>
		<path class="st6" d="M43.8,177.3c-2.2,0-4.2-1.5-4.7-3.6c-0.4-1.2-0.2-2.4,0.4-3.5s1.7-1.9,2.9-2.2l0,0c2.5-0.7,5,0.7,5.8,3.1
			c0.4,1.2,0.2,2.7-0.6,3.9c-0.7,1.1-1.6,1.9-2.7,2.1C44.6,177.3,44.2,177.3,43.8,177.3z M43.6,170.3c-0.2,0-0.5,0-0.7,0.1l0,0
			c-0.6,0.1-1.1,0.5-1.4,1s-0.3,1.1-0.1,1.6c0.4,1.5,1.9,2,3.1,1.7c0.4-0.1,0.8-0.4,1.1-0.9c0.4-0.7,0.5-1.5,0.4-1.9
			C45.5,171,44.6,170.4,43.6,170.3L43.6,170.3z M42.6,169.2L42.6,169.2z"/>
		<path class="st6" d="M57.3,179c-1.1,0-2.1-0.4-2.9-1.1c-2.2-2.2-1.9-5.1-0.4-6.8c0.8-0.9,1.9-1.5,3.1-1.6c1.3-0.1,2.5,0.4,3.5,1.2
			l0,0c1.9,1.7,2.2,4.6,0.7,6.6c-0.8,1-2.1,1.6-3.6,1.7C57.5,179,57.4,179,57.3,179z M57.4,171.9L57.4,171.9c-0.7,0-1.2,0.3-1.5,0.8
			c-1,1.2-0.6,2.7,0.2,3.5c0.3,0.3,0.8,0.4,1.4,0.4c0.8-0.1,1.5-0.4,1.8-0.8c0.8-1,0.6-2.4-0.4-3.3
			C58.5,172.1,57.9,171.9,57.4,171.9L57.4,171.9z"/>
		<path class="st6" d="M66.9,168.8c-1.1,0-2.1-0.4-2.9-1.1c-2.2-2.2-1.9-5.1-0.4-6.8c0.8-0.9,1.9-1.5,3.1-1.6
			c1.3-0.1,2.5,0.4,3.4,1.2l0,0c1.9,1.7,2.2,4.6,0.7,6.6c-0.8,1-2.1,1.6-3.6,1.7C67.1,168.8,67,168.8,66.9,168.8z M67,161.7
			L67,161.7c-0.7,0-1.2,0.3-1.5,0.8c-1,1.2-0.6,2.7,0.2,3.5c0.3,0.3,0.8,0.4,1.4,0.4c0.8-0.1,1.5-0.4,1.8-0.8c0.8-1,0.6-2.4-0.4-3.3
			l0,0C68.1,161.9,67.6,161.7,67,161.7z"/>
		<path class="st6" d="M57.4,158.5c-1,0-2-0.3-2.7-1c-2-2-1.7-4.7-0.4-6.3c0.7-0.9,1.7-1.4,2.9-1.5s2.3,0.4,3.2,1.1l0,0
			c1.8,1.5,2,4.2,0.6,6.1c-0.7,0.9-2,1.5-3.3,1.6C57.6,158.5,57.5,158.5,57.4,158.5z M57.5,152.2L57.5,152.2c-0.6,0-1,0.3-1.3,0.6
			c-0.9,1-0.5,2.2,0.2,2.9c0.2,0.2,0.6,0.3,1.1,0.3c0.7,0,1.3-0.4,1.5-0.6c0.6-0.8,0.5-2-0.3-2.7l0,0
			C58.5,152.4,58,152.2,57.5,152.2z"/>
		<path class="st6" d="M50.2,199.5c-13.7,0-25.2-2.3-33.1-6.7c-6.4-3.6-10.5-8.4-11-13.4c-0.8-6.8,4.2-14.4,11.2-17
			c0.6-0.2,1.3,0.1,1.6,0.7c0.2,0.6-0.1,1.3-0.7,1.6c-5.2,1.9-10.3,8.1-9.6,14.4c0.2,2,1.6,7,9.8,11.5C26,194.8,37,197,50.3,197
			c13.2,0,24.5-1.2,32.8-3.6c7-2,11.7-4.8,13.3-7.8c1.3-2.5,0.5-3.9,0.5-4l0,0l2.1-1.3c0.2,0.3,1.6,2.6-0.4,6.4
			C94.4,194.7,76.3,199.5,50.2,199.5z"/>
		<path class="st6" d="M95.6,38c-0.4,0-0.7-0.2-0.9-0.4c-2.9-3.5-3.9-8.5-2.8-13.6c0.1-0.7,0.8-1.1,1.5-0.9c0.7,0.1,1.1,0.8,0.9,1.5
			c-0.5,2-1.2,7.3,2.3,11.4c0.4,0.5,0.4,1.3-0.2,1.7C96.2,37.9,95.9,38,95.6,38L95.6,38z"/>
		<path class="st6" d="M106.1,37.5c-0.3,0-0.7-0.1-0.9-0.4c-2.8-3-4.2-7.5-3.9-12.9c0-0.7,0.6-1.2,1.3-1.2s1.2,0.6,1.2,1.3
			c-0.3,4.7,0.9,8.6,3.2,11.1c0.5,0.5,0.4,1.3,0,1.7C106.7,37.4,106.4,37.5,106.1,37.5L106.1,37.5z"/>
		<path class="st6" d="M124.9,40.2c-0.1,0-0.1,0-0.2,0c-4-0.6-7.6-2.8-10-6c-2-2.7-3.3-5.9-3.7-9.3c-0.1-0.7,0.4-1.3,1.1-1.3
			c0.7-0.1,1.2,0.4,1.3,1c1,8.4,6.7,12.3,11.6,13.1c0.7,0.1,1.1,0.7,1,1.4C126.1,39.8,125.5,40.2,124.9,40.2L124.9,40.2z"/>
		<path class="st6" d="M98.6,51c-0.7,0-1.3-0.6-1.3-1.3l-0.2-2.9c0-0.7,0.5-1.4,1.3-1.4c0.7,0,1.4,0.5,1.4,1.3l0.2,2.9
			C100,50.3,99.4,50.9,98.6,51L98.6,51z"/>
		<path class="st6" d="M107.1,51c-0.7,0-1.3-0.6-1.3-1.3l-0.2-2.9c0-0.7,0.5-1.4,1.3-1.4c0.7,0,1.4,0.5,1.4,1.3l0.2,2.9
			C108.5,50.3,108,50.9,107.1,51L107.1,51z"/>
	</g>
</g>
</svg>
