<?xml version="1.0" encoding="utf-8"?>
<!-- Generator: Adobe Illustrator 24.3.0, SVG Export Plug-In . SVG Version: 6.00 Build 0)  -->
<svg version="1.1" id="レイヤー_1" xmlns="http://www.w3.org/2000/svg" xmlns:xlink="http://www.w3.org/1999/xlink" x="0px"
	 y="0px" viewBox="0 0 300 200" style="enable-background:new 0 0 300 200;" xml:space="preserve">
<style type="text/css">
	.st0{fill:#FFFFFF;}
	.st1{fill:#D0D0D0;}
	.st2{fill:#F6C359;}
	.st3{fill:#040000;}
</style>
<g id="塗り_5_">
	<path class="st0" d="M166.6,136.1l-4.8-10.9c0,0,3-3.1,3.9-3.8c-2.1-4.8-9.6-24.4-17.9-33.5s-17.2-13.9-20.2-15.1
		c0.2-3.5,0.5-7.1,0.5-7.1s14.4-1.7,18.3-9.6c5.6,0.3,9.2-6.9,9.2-10.3s-2.2-4.9-2.2-4.9s1.9-10.3-2-19.5s-14.3-17-25.9-18.3
		s-23.7,3.6-31.3,13.7c-7.6,10.1-5.3,20.7-5.3,20.7s-4.9-0.9-8,7s2,19,2.6,22c0.6,2.9,1.6,10.5-0.3,12.7c-1.9,2.2-3.2,3.4-5.1,3.6
		c2.3,2,6.9,3.4,10.8,1.8c-3.6,4.1-10.6,12.2-14.5,21.6c-3.9,9.4-6.3,16.8-6.3,16.8s2.2,3.3,3.9,4.1c-1,6.7-1.8,16.1-1.1,18.7
		c0.7,2.6,3.7,9.3,3.7,9.3s9.2-7.4,21.5-4.1c1,1.8,1.8,4.9,1.8,4.9l76.9-6.4c0.5-2.6,0-6.1,4.6-8.7
		C177.1,139.9,166.6,136.1,166.6,136.1z M111.2,71.5c0,0-8.8,2.6-15,6.8c1.7-4.9,2-18.9,0.7-24.1c1.4,0.3,4.2,2,5.2,2.7
		c1,0.7,5.4,5.1,9.6,6.2C111.6,66.5,111.2,71.5,111.2,71.5z"/>
	<path class="st1" d="M194.9,154.2c0,0-4.9-4.7-9-5.1c-4.1-0.5-88.4,6.3-88.4,6.3l1.9,6c0,0,12.8,10.2,12.2,14
		c-0.7,3.9-6.6,5.4-11.2,3.4c3.8,6,17.7,18.1,20.7,18.1c3,0,105.2-8.5,107.5-9.6c2.3-1.1,5.2-1.8,2.3-6.1
		c-3-4.3-24.6-19.2-24.6-19.2s-0.6,3.8-4.5,3.1C197.8,164.3,196.7,160.7,194.9,154.2z"/>
	<path class="st2" d="M96,78.8c1.6,6.8,4.1,21.3,3.2,30.2c-0.9,8.9-3.2,23.5-3.2,23.5l-3.9,0.2l-1.5,10.2l2.5,7.6l2.9,0.6l1.4,4.3
		l54-4.7c0,0-5.1-54.3-10.2-69.4c-3.1-2.7-7.8-5.8-7.8-5.8s2.8,19.2,2.7,22.7c-7.7,0.2-27.6,0.4-27.6,0.4s-2.2-21.5-4.5-24.3
		C101.3,75.6,98.6,77.1,96,78.8z"/>
	<path class="st2" d="M117.8,160c-3.1,3.3-5.6,8-3.1,10.3c2.5,2.3,6.3,0.7,7.9-1.4c2.9,1.6,7.7,2,7.7-1.8
		C130.3,163.3,117.8,160,117.8,160z"/>
	<path class="st2" d="M146.7,157.5c-3,3.1-5.4,7.7-3,9.9c2.4,2.2,6.1,0.7,7.6-1.3c2.7,1.5,7.4,2,7.3-1.7
		C158.6,160.7,146.7,157.5,146.7,157.5z"/>
	<path class="st2" d="M133.3,175.8c-3.3,3.4-5.8,8.3-3.2,10.7c2.6,2.4,6.6,0.8,8.2-1.5c3,1.7,8,2.1,8-1.8
		C146.3,179.2,133.3,175.8,133.3,175.8z"/>
	<path class="st2" d="M162.8,172.7c-3.3,3.4-5.8,8.3-3.2,10.7s6.6,0.8,8.2-1.5c3,1.7,8,2.1,8-1.8
		C175.8,176.2,162.8,172.7,162.8,172.7z"/>
	<path class="st2" d="M193,169.6c-3.3,3.4-5.8,8.4-3.2,10.7s6.6,0.8,8.2-1.5c3,1.7,8,2.1,8-1.8C206,173.1,193,169.6,193,169.6z"/>
	<path class="st2" d="M173.9,155.3c-3,3-5.4,7.4-3,9.5c2.4,2.1,6.1,0.7,7.6-1.3c2.7,1.5,7.4,1.9,7.3-1.6S173.9,155.3,173.9,155.3z"
		/>
	<path class="st2" d="M99.4,161.3l-3.2-10.2c0,0-14.4-3.4-23.9,6.2c1.9,3.9,5.2,7.9,6,10.4c0.7,2.6,5.2,17.3,15,20.4
		c9.9,3.1,16.8,1.1,16.8,1.1l-11-10.4c0,0,8.5,2.6,11-0.9c2.5-3.4,1.6-4.2-0.2-6.4C108.1,169.3,99.4,161.3,99.4,161.3z"/>
	<path class="st2" d="M174.4,149c1.4-4,2.2-7.7,7.6-9.7c16.1,3.3,30.8,9.4,34.2,16.9s2.7,10.6,1,13.9c-3.7-3.1-11-8.2-11-8.2
		s-0.4,3.5-4.5,3.1c-4.1-0.3-4.9-4.7-6.2-10.3c-3.5-2.6-6.8-5.2-9.6-5.7C183.1,148.5,174.4,149,174.4,149z"/>
</g>
<g id="線画_5_">
	<path class="st3" d="M125.5,66.9c-7.7,0-15.3-2.2-19.4-5.5c-0.6-0.5-0.7-1.3-0.2-1.8c0.5-0.6,1.3-0.7,1.8-0.2
		c6.8,5.4,25.1,7.6,34-0.1c4-3.4,6-8,6.1-13.5c0.1-5.6-2-10.5-2.8-12.4c-0.3-0.7,0-1.4,0.6-1.7c0.7-0.3,1.4,0,1.7,0.6
		c4.1,8.9,5.2,21.1-3.9,29C138.9,65.3,132.1,66.9,125.5,66.9z"/>
	<path class="st3" d="M102.9,58.2c-0.1,0-0.2,0-0.4,0c-3.4-1-9.4-5.7-8.7-11.2c0.3-2.2,1.6-4.2,3.6-5.2c2-1.1,4.5-1.2,6.3-0.3
		c0.6,0.3,0.9,1.1,0.6,1.8c-0.3,0.6-1.1,0.9-1.8,0.6c-0.9-0.4-2.5-0.5-3.9,0.3c-1.3,0.6-2.1,1.9-2.3,3.3c-0.3,2.2,1.2,4.2,2.1,5.2
		c1.5,1.7,3.5,2.8,4.7,3.1c0.7,0.2,1.1,0.9,1,1.6C104.1,57.8,103.6,58.2,102.9,58.2L102.9,58.2z"/>
	<path class="st3" d="M146.5,57.6c-0.7,0-1.3-0.5-1.4-1.2c0-0.7,0.5-1.3,1.2-1.4c4.5-0.5,8.2-4.7,7.9-9.1c-0.1-1.8-0.6-3-1.5-3.7
		c-1.3-1-3.1-0.8-3.9-0.6c-0.7,0.1-1.4-0.3-1.5-1s0.3-1.4,1-1.5l0,0c1.1-0.2,3.8-0.5,6,1.1c1.5,1.2,2.4,3.1,2.5,5.7
		c0.3,5.8-4.4,11.2-10.3,11.9C146.5,57.6,146.5,57.6,146.5,57.6z"/>
	<path class="st3" d="M136.8,37.4c-0.7,0-1.3-0.6-1.3-1.3c0-0.3,0.1-0.7,0.4-0.9c3.2-3.5,3.1-11.2,1.6-15.2
		c-0.3-0.7,0.1-1.4,0.8-1.7c0.7-0.3,1.4,0.1,1.7,0.8c1.8,4.7,2,13.5-2.1,17.9C137.5,37.2,137.2,37.4,136.8,37.4z"/>
	<path class="st3" d="M125.5,37.4c-0.7,0-1.3-0.6-1.3-1.3c0-0.4,0.2-0.7,0.4-1c3-2.7,4.6-9.3,3.6-14.5c-0.1-0.7,0.3-1.4,1.1-1.5
		c0.7-0.1,1.4,0.3,1.5,1.1c1.1,6.1-0.8,13.6-4.4,16.9C126.1,37.2,125.8,37.4,125.5,37.4z"/>
	<path class="st3" d="M107.1,40.3c-0.7,0-1.3-0.5-1.4-1.3c0-0.5,0.3-1,0.8-1.3c6.3-2.9,11.5-10,12-16.5c0.1-0.7,0.7-1.3,1.4-1.2
		c0.7,0.1,1.3,0.7,1.2,1.4c-0.6,7.4-6.3,15.3-13.5,18.6C107.5,40.3,107.3,40.3,107.1,40.3z"/>
	<path class="st3" d="M153.3,42.2c-0.7,0-1.3-0.6-1.3-1.3c0-0.1,0-0.2,0-0.3c0.5-2.2,1.1-7.9-0.4-14.1c-1.8-7.5-5.9-13-12.2-16.4
		c-0.6-0.3-0.9-1.1-0.5-1.8c0.3-0.6,1.1-0.9,1.8-0.5c15.7,8.4,15.3,27.4,13.9,33.4C154.5,41.8,153.9,42.2,153.3,42.2z"/>
	<path class="st3" d="M99.2,56.1c-0.1,0-0.2,0-0.3,0c-3.8-1-7.2-4.7-9.4-10.2c-2.8-7.2-3.6-18.5,2.8-28.5
		C98.2,8.2,106.5,4.5,112.4,3c6.9-1.7,14.6-1.4,20.6,0.8c0.7,0.3,1,1,0.8,1.7c-0.3,0.7-1,1-1.7,0.8c-9.2-3.4-27.6-3.1-37.6,12.5
		c-5.8,9.1-5.1,19.5-2.5,26.1c1.8,4.6,4.6,7.8,7.6,8.6c0.7,0.1,1.2,0.8,1,1.5C100.4,55.7,99.8,56.1,99.2,56.1z"/>
	<path class="st3" d="M111.2,72.2L111.2,72.2c-0.8,0-1.3-0.6-1.3-1.4c0,0,0,0,0,0l0.4-7c0-0.7,0.7-1.3,1.4-1.2
		c0.7,0,1.3,0.7,1.2,1.4l-0.4,7C112.5,71.6,111.9,72.2,111.2,72.2z"/>
	<path class="st3" d="M149.4,130.9c-0.7,0-1.3-0.5-1.4-1.2c0-0.7,0.5-1.3,1.2-1.4l0,0c8.5-1.2,13.4-5.4,14.9-6.9
		c-1.6-4.1-9.6-24.1-18.4-33.9C136.3,77,127.3,74,127.2,74c-0.6-0.2-1-0.7-0.9-1.3l0.4-5.9c0-0.7,0.7-1.3,1.4-1.2
		c0.7,0,1.3,0.7,1.2,1.4l-0.3,4.9c2.7,1.1,10.5,4.7,18.7,13.9c4.3,4.8,8.8,12.2,13.5,22.1c3.5,7.3,5.7,13.4,5.7,13.4
		c0.2,0.4,0.1,0.9-0.2,1.3c-0.2,0.3-5.6,6.8-17.1,8.4C149.6,130.9,149.5,130.9,149.4,130.9z"/>
	<path class="st3" d="M96,133.8L96,133.8c-0.9-0.1-1.7-0.1-2.5-0.1c-9.2-0.5-19.6-1.1-26.5-9.8c-0.3-0.3-0.4-0.8-0.2-1.2
		c2.9-9.5,6.7-19.8,14.3-30.8c9-13,19-18,25.8-19.8c0.7-0.2,1.4,0.2,1.6,0.9c0.2,0.7-0.2,1.4-0.9,1.6c-6.4,1.8-15.7,6.5-24.3,18.8
		c-7.3,10.4-10.9,20.3-13.8,29.4c6.2,7.3,15.7,7.8,24.1,8.3l1.3,0.1c1.6-8.4,3.4-23,3.1-27.8c0-0.7,0.5-1.3,1.2-1.4s1.3,0.5,1.4,1.2
		c0.4,5.6-1.8,22.2-3.3,29.6C97.2,133.4,96.6,133.8,96,133.8z"/>
	<path class="st3" d="M121.5,81.9c-4,0-8.7-1.2-12.4-4.6c-0.5-0.5-0.6-1.3-0.1-1.9c0.5-0.5,1.3-0.6,1.9-0.1l0,0
		c4.4,4.1,10.5,4.4,14.3,3.5c2.9-0.7,4.9-2.1,5.6-3.7c0.3-0.7,1-1,1.7-0.8c0.7,0.3,1,1,0.8,1.7l0,0c-0.9,2.5-3.6,4.5-7.4,5.4
		C124.4,81.7,122.9,81.9,121.5,81.9z"/>
	<path class="st3" d="M93.2,151.8c-0.6,0-1.1-0.4-1.2-0.9l-2.5-7.6c-0.1-0.2-0.1-0.4-0.1-0.6c0-0.3,0.9-6.9,1.5-10.2
		c0.1-0.7,0.8-1.2,1.5-1s1.2,0.8,1,1.5c-0.5,2.9-1.2,8.4-1.4,9.8l2.4,7.3c0.2,0.7-0.1,1.4-0.8,1.7c0,0,0,0,0,0
		C93.5,151.7,93.4,151.7,93.2,151.8z"/>
	<path class="st3" d="M74.6,156.4c-0.5,0-0.9-0.2-1.1-0.6c-0.1-0.2-2.9-4.9-3.9-9.7c-0.8-3.8-0.4-10.3,1.1-19.2
		c0.1-0.7,0.8-1.2,1.5-1.1c0.7,0.1,1.2,0.8,1.1,1.5c-1.4,8.5-1.8,14.8-1.1,18.2c0.9,4.3,3.5,8.8,3.6,8.9c0.4,0.6,0.2,1.4-0.4,1.8
		c0,0,0,0,0,0C75.1,156.3,74.8,156.4,74.6,156.4z"/>
	<path class="st3" d="M103.5,191.5c-1.2,0-2.3-0.1-3.5-0.2c-5.1-0.6-9.8-2.6-13.1-5.5c-6.9-6-8.9-13.4-9.7-16.5
		c-0.1-0.5-0.2-0.9-0.3-1.1c-0.2-0.6-0.7-1.3-1.4-2.3c-1.8-2.5-3.3-5.2-4.5-8c-0.2-0.5-0.1-1,0.3-1.4c9.7-10,24.5-6.7,25.1-6.5
		c0.4,0.1,0.8,0.4,0.9,0.8c0.1,0.3,2.6,7.1,3.2,10c1.6,1.5,8.5,7.9,10.5,10c1.7,1.7,2.2,4.2,1.4,6.4c-0.8,2.2-2.9,3.6-5.4,3.8
		c-5.9,0.4-10.8-2.4-12.7-3.5c-0.6-0.4-0.8-1.2-0.5-1.8s1.2-0.8,1.8-0.5c2.8,1.6,6.7,3.5,11.2,3.1c1.6-0.1,2.7-0.9,3.2-2.1
		c0.5-1.3,0.1-2.7-0.8-3.7c-2.2-2.3-10.6-10.1-10.7-10.2c-0.2-0.2-0.4-0.5-0.4-0.8c-0.3-1.7-2-6.8-2.9-9.3
		c-2.8-0.5-13.9-1.8-21.4,5.3c1.1,2.4,2.4,4.6,3.9,6.7c0.8,1.2,1.4,2.1,1.7,2.9c0.1,0.3,0.2,0.8,0.4,1.3c0.8,2.9,2.6,9.7,8.9,15.3
		c6.9,6.1,17.8,5.7,20.8,4c0.6-0.4,1.4-0.2,1.8,0.4s0.2,1.4-0.4,1.8C109.2,190.9,106.6,191.5,103.5,191.5z"/>
	<path class="st3" d="M99,98.2c-0.7,0-1.3-0.5-1.3-1.2c-0.4-6.2-1.7-14.3-3-17.7c-0.2-0.7,0.1-1.4,0.8-1.7c0.7-0.2,1.4,0.1,1.7,0.8
		c1.3,3.6,2.7,12,3.1,18.4c0,0.7-0.5,1.3-1.2,1.4C99.1,98.2,99.1,98.2,99,98.2L99,98.2z"/>
	<path class="st3" d="M110.8,100c-0.8,0-1.6,0-2.2,0c-0.7,0-1.3-0.5-1.3-1.2c-0.5-7.9-2.6-20.1-4.4-23.3c-0.4-0.6-0.1-1.4,0.5-1.8
		s1.4-0.1,1.8,0.5c2.1,3.7,4,15.6,4.6,23.2c7.1,0,20.7-0.3,25-0.4c-0.5-6.8-1.4-13.5-2.7-20.2c-0.1-0.7,0.3-1.4,1-1.5s1.4,0.3,1.5,1
		c1.4,7.2,2.3,14.5,2.8,21.9c0,0.7-0.5,1.3-1.2,1.4c0,0,0,0-0.1,0C136,99.6,119.6,100,110.8,100z"/>
	<path class="st3" d="M151.4,152c-0.7,0-1.3-0.5-1.3-1.2c-0.7-13.4-7.4-59.2-10.2-69.1c-0.2-0.7,0.2-1.4,0.9-1.6
		c0.7-0.2,1.4,0.2,1.6,0.9c2.8,9.9,9.6,56.2,10.3,69.7C152.8,151.3,152.3,151.9,151.4,152C151.5,152,151.5,152,151.4,152L151.4,152z
		"/>
	<path class="st3" d="M98.3,156.6c-0.7,0-1.3-0.5-1.4-1.2c0-0.7,0.5-1.3,1.2-1.4c3.2-0.3,77.2-6.5,81.8-6.7
		c4.9-0.2,7.6,0.5,11.3,2.9l0.5,0.3c0.9,0.6,2.5,1.6,3.8,2.6c0.6,0.4,0.7,1.2,0.3,1.8s-1.2,0.7-1.8,0.3l0,0c-1.3-1-2.9-2-3.7-2.5
		l-0.5-0.3c-3.2-2.1-5.4-2.7-9.7-2.4c-4.6,0.2-81,6.6-81.7,6.7L98.3,156.6z"/>
	<path class="st3" d="M124.1,198.1c-4,0-6.1-1-8.8-3.1c-3.9-3-17.4-15.6-18-16.1c-0.5-0.5-0.6-1.3-0.1-1.9c0.5-0.5,1.3-0.6,1.9-0.1
		c0.1,0.1,14,13,17.8,15.9c2.7,2.1,4.4,2.9,9.9,2.4c7.3-0.6,97.4-8.8,101-9.4c1.4-0.2,2.5-0.9,2.7-1.7c0.3-1-0.5-2.3-2-3.7
		c-2.7-2.3-13.8-10.6-22.7-17.3c-0.6-0.4-0.7-1.3-0.3-1.8c0.4-0.6,1.3-0.7,1.8-0.3l0,0c9.4,7,20.2,15,22.9,17.4
		c3.3,2.9,3.2,5.3,2.8,6.4c-0.5,1.9-2.4,3.2-4.9,3.6c-3.9,0.6-97.2,9-101.1,9.4C126,198.1,125,198.1,124.1,198.1z"/>
	<path class="st3" d="M179.5,142c-0.2,0-0.3,0-0.5-0.1c-0.3-0.1-1.5-0.5-2.8-1c-3-1-7.4-2.5-10.1-3.6c-0.3-0.1-0.5-0.3-0.6-0.6
		c-1.5-2.7-2.8-5.9-4-8.7c-0.3-0.8-0.6-1.6-1-2.3c-0.3-0.7,0-1.4,0.7-1.7c0.7-0.3,1.4,0,1.7,0.7c0.3,0.7,0.6,1.5,1,2.3
		c1.1,2.6,2.3,5.6,3.6,8.1c2.6,1.1,6.7,2.4,9.5,3.4c1.5,0.5,2.5,0.8,2.9,1c0.7,0.2,1,1,0.8,1.7C180.6,141.7,180.1,142.1,179.5,142
		L179.5,142z"/>
	<path class="st3" d="M217,171.2c-0.7,0-1.3-0.5-1.3-1.3c0-0.4,0.2-0.8,0.5-1.1c0.5-0.4,1.1-1.7,1.2-3.6c0.3-5.6-3.5-10.3-5.2-12
		c-6-6.2-19-9.6-26.7-11.6c-1.3-0.3-2.4-0.6-3.3-0.9c-3.9,1.9-5.9,5.9-5.9,8c0,0.7-0.6,1.3-1.4,1.3s-1.3-0.6-1.3-1.4
		c0.1-2.9,2.7-8.1,7.9-10.5c0.3-0.1,0.6-0.1,0.9-0.1c1,0.3,2.3,0.6,3.7,1c8,2.1,21.3,5.6,27.9,12.3c4.1,4.2,6.2,9.3,6,14
		c-0.1,2.5-1,4.5-2.2,5.5C217.5,171.1,217.3,171.2,217,171.2z"/>
	<path class="st3" d="M202.3,166.3c-6.1,0-7.8-7.4-8.7-15.5c-0.1-0.7,0.4-1.4,1.2-1.4c0.7-0.1,1.4,0.4,1.4,1.2
		c1.3,11.7,3.8,13.2,6.3,13.1c2-0.1,3.2-2.7,3.7-7.8c0.1-0.7,0.7-1.2,1.4-1.2c0.7,0.1,1.2,0.7,1.2,1.4l0,0c-0.2,2.5-0.9,10-6.2,10.2
		L202.3,166.3z"/>
	<path class="st3" d="M78.1,84.1c-0.7,0.1-1.3-0.5-1.4-1.2c-0.1-0.7,0.5-1.3,1.2-1.4l0,0c3.2-0.5,5.2-3.4,5.3-7.4
		c0.1-3.5-0.9-7.4-2-11.5c-1.2-4.6-2.5-9.4-2.2-14.2c0.3-5.4,2.3-8.3,4-9.8c2.1-1.8,4.5-2.4,6-2.3c0.7,0,1.3,0.7,1.2,1.4
		c0,0.7-0.7,1.3-1.4,1.2l0,0c-1-0.1-2.6,0.3-4.1,1.6c-1.9,1.7-2.9,4.4-3.1,8c-0.2,4.4,1,9,2.1,13.4c1.1,4.3,2.2,8.3,2.1,12.2
		c-0.1,5.3-3,9.2-7.5,9.9C78.2,84.1,78.2,84.1,78.1,84.1z"/>
	<path class="st3" d="M96,80.1c-0.7,0-1.3-0.6-1.3-1.3c0-0.3,0.1-0.5,0.2-0.7c1.8-2.9,2-9.2,0.7-18.9l0-0.3
		c-0.1-0.7,0.4-1.4,1.1-1.5c0.7-0.1,1.4,0.4,1.5,1.1l0,0.3c0.9,6.6,1.8,16-1.1,20.6C96.8,79.9,96.4,80.1,96,80.1z"/>
	<path class="st3" d="M117.8,172.7c-1.1,0-2.2-0.3-3.1-0.8c-2.2-1.2-3.1-3.6-2.2-5.8c1.2-3.1,3.2-6.1,4.9-7.2
		c0.3-0.2,0.7-0.3,1.1-0.2c2.5,0.7,4.9,1.7,7.3,2.8c3.3,1.6,5.1,3.1,5.7,4.7c0.5,1.5,0.1,3.3-1.2,4.3c-1,0.8-3.2,1.9-7.3,0
		c-1,1.1-2.4,1.8-3.8,2.1C118.7,172.7,118.3,172.7,117.8,172.7z M118.4,161.5c-1.2,1.1-2.6,3.4-3.4,5.6c-0.4,1.2,0.3,2.1,1.1,2.6
		c1.5,0.8,3.8,0.7,5.6-1.6c0.4-0.5,1.1-0.6,1.6-0.3c3.5,1.9,4.9,1.1,5.3,0.8c0.4-0.4,0.6-0.9,0.4-1.5
		C128.4,165.6,124,163.2,118.4,161.5z"/>
	<path class="st3" d="M146.9,169.8c-1,0-2.1-0.3-2.9-0.8c-2.1-1.2-2.9-3.4-2.1-5.5c1.1-3,3-5.8,4.6-6.9c0.3-0.2,0.7-0.3,1.1-0.2
		c2.4,0.7,4.7,1.6,6.9,2.6c3.1,1.5,4.9,3,5.4,4.5c0.5,1.5,0.1,3.2-1.1,4.2c-1,0.8-3.1,1.8-7,0C150.5,168.9,148.7,169.8,146.9,169.8z
		 M147.5,159.1c-1,1-2.3,3-3.2,5.3c-0.5,1.3,0.6,2.1,1,2.3c1.4,0.8,3.5,0.6,5.2-1.5c0.4-0.5,1.1-0.6,1.6-0.3
		c2.6,1.4,4.3,1.3,4.9,0.8c0.4-0.3,0.5-0.9,0.4-1.3C156.9,162.9,152.8,160.7,147.5,159.1L147.5,159.1z"/>
	<path class="st3" d="M173.8,167.1c-1,0-2-0.3-2.8-0.8c-2.1-1.2-3-3.4-2.2-5.5c0.9-2.4,2.7-5.6,4.5-6.9c0.3-0.2,0.7-0.3,1.1-0.2
		c2.3,0.7,4.6,1.5,6.8,2.5c3.1,1.4,4.9,2.9,5.4,4.4c0.5,1.5,0.1,3.1-1.1,4.2c-0.9,0.8-3,1.8-6.9,0.1
		C177.4,166.2,175.6,167.1,173.8,167.1z M174.3,156.6c-1,1-2.2,3-3.1,5.2c-0.5,1.3,0.6,2.1,1,2.3c1.3,0.8,3.4,0.6,5.1-1.5
		c0.4-0.5,1.1-0.6,1.6-0.3c2.6,1.4,4.2,1.2,4.8,0.7c0.4-0.3,0.5-0.8,0.3-1.3C183.6,160.2,179.5,158.2,174.3,156.6L174.3,156.6z"/>
	<path class="st3" d="M133,189c-1.1,0-2.2-0.3-3.2-0.8c-2.2-1.3-3.2-3.7-2.3-5.9c1.2-3.2,3.3-6.3,5-7.5c0.3-0.2,0.7-0.3,1.1-0.2
		c2.6,0.8,5.1,1.7,7.6,2.9c3.4,1.6,5.3,3.2,5.9,4.9c0.6,1.6,0.1,3.4-1.2,4.5c-1,0.9-3.3,2-7.6,0c-1.1,1.1-2.5,1.9-4,2.2
		C133.9,188.9,133.5,189,133,189z M133.6,177.2c-1.2,1.1-2.7,3.5-3.6,5.9c-0.5,1.3,0.3,2.2,1.1,2.7c1.5,0.9,4,0.7,5.9-1.6
		c0.4-0.5,1.1-0.6,1.6-0.3c2.5,1.4,4.6,1.7,5.6,0.8c0.5-0.4,0.6-1,0.4-1.6C144.1,181.5,139.5,179.1,133.6,177.2L133.6,177.2z"/>
	<path class="st3" d="M162.8,186c-1.1,0-2.2-0.3-3.2-0.8c-2.2-1.3-3.2-3.7-2.3-5.9c1.2-3.2,3.3-6.3,5-7.5c0.3-0.2,0.7-0.3,1.1-0.2
		c2.6,0.8,5.1,1.7,7.6,2.9c3.4,1.6,5.3,3.2,5.9,4.9c0.5,1.6,0.1,3.4-1.2,4.5c-1,0.9-3.3,2-7.6,0c-1.1,1.1-2.5,1.9-4,2.2
		C163.7,185.9,163.2,186,162.8,186z M163.4,174.2c-1.2,1.1-2.7,3.5-3.6,5.9c-0.5,1.2,0.3,2.2,1.1,2.7c1.6,0.9,4,0.7,5.9-1.6
		c0.4-0.5,1.1-0.6,1.6-0.3c2.5,1.4,4.6,1.7,5.6,0.8c0.5-0.4,0.6-1,0.4-1.6C173.9,178.5,169.3,176,163.4,174.2L163.4,174.2z"/>
	<path class="st3" d="M193.1,182.9c-1.1,0-2.3-0.3-3.2-0.9c-2.2-1.3-3.2-3.7-2.3-6c1.2-3.3,3.3-6.4,5.1-7.6c0.3-0.2,0.7-0.3,1.1-0.2
		c2.6,0.8,5.2,1.8,7.6,2.9c3.4,1.6,5.3,3.2,5.9,4.9c0.5,1.6,0.1,3.4-1.2,4.5c-1,0.9-3.4,2-7.6-0.1c-1.1,1.1-2.5,1.9-4,2.2
		C194,182.8,193.6,182.9,193.1,182.9z M193.7,171c-1.2,1.1-2.7,3.6-3.6,6c-0.5,1.3,0.3,2.3,1.2,2.8c1.6,0.9,4,0.7,6-1.7
		c0.4-0.5,1.1-0.6,1.6-0.3c2.5,1.4,4.6,1.7,5.6,0.8c0.5-0.4,0.6-1,0.4-1.6C204.3,175.4,199.6,172.9,193.7,171L193.7,171z"/>
	<path class="st3" d="M133.1,48.8c-0.7,0-1.3-0.6-1.3-1.3v-3.1c0-0.7,0.6-1.3,1.3-1.3s1.3,0.6,1.3,1.3v3.1
		C134.4,48.2,133.9,48.8,133.1,48.8C133.1,48.8,133.1,48.8,133.1,48.8z"/>
	<path class="st3" d="M123.8,48.7c-0.7,0-1.3-0.6-1.3-1.3v-3.1c0-0.7,0.6-1.3,1.3-1.3c0.7,0,1.3,0.6,1.3,1.3v3.1
		C125.1,48.1,124.5,48.7,123.8,48.7C123.8,48.7,123.8,48.7,123.8,48.7z"/>
</g>
</svg>
