<?xml version="1.0" encoding="utf-8"?>
<!-- Generator: Adobe Illustrator 24.3.0, SVG Export Plug-In . SVG Version: 6.00 Build 0)  -->
<svg version="1.1" id="レイヤー_1" xmlns="http://www.w3.org/2000/svg" xmlns:xlink="http://www.w3.org/1999/xlink" x="0px"
	 y="0px" viewBox="0 0 300 200" style="enable-background:new 0 0 300 200;" xml:space="preserve">
<style type="text/css">
	.st0{fill:#D7A527;}
	.st1{fill:#CA634A;}
	.st2{fill:#E0A91F;}
	.st3{fill:#FFFFFF;}
	.st4{fill:#040000;}
	.st5{fill:#E83D19;}
	.st6{fill:#22211F;}
</style>
<g>
	<g id="塗り_1_">
		<path class="st0" d="M77.9,80c-0.8,1.8-1.7,4.5-0.3,7.3c1.8,0.3,5.2,0.7,5.2,0.7l-0.2,46.3l-4.3-0.2c-1.1,2.6-1.2,5.5-0.2,8.1
			c2.9,0.8,7.3,1.1,8,1.1c0.7,0,2.4-0.3,2.4-3.4V84.9c0-1.8-1.2-3.8-2.5-4C84.8,80.7,77.9,80,77.9,80z"/>
		<path class="st1" d="M197.5,63.2c-2.5,0-6.9,0.7-10.3,4.5c-2.5,2.8-4.5,7.3-7.9,15.9c-3.4,8.6-5.8,13.5-5.8,19.8
			c0,6.3,6.7,8.7,6.7,8.7s-1.7,34.1-2.1,35.4c-0.4,1.4-4.1,10.2-5,12.8c1.4,2.3,5.6,2,7.4,1.7c1.7-0.3,5.7-0.3,7.9,1.3
			c2.2,1.6,7.5,3.3,10.7-1.4c-1.4-5.1-3.3-13.3-3.3-13.3l0.6-4.9c0,0,12.8,0.2,15,0c0.5,7.9,0.8,24.3-1.1,27
			c-1.9,2.7-15.2,1.6-15.2,1.6s0.4,11.6,0.4,12.6c0.1,1.6-2.5,2.4-2.9,1.6c-1.4,1.3-2.9,1.5-3.9,0.9c-1.1,1.1-3.8,1.1-4.2-0.1
			c-1.1,0.5-2.7,0.2-4.9-3.4c-2.1-3.6-3.1-10.2-3.4-12.8c-0.8,0-1.6-0.1-2.3-0.2c0,0-4.6,22.4-4.1,24.7c9.5,5.5,56.3,3.2,64.4-1.6
			c-1.2-5-16.6-67.4-16.7-67.6c1.2-1.7,7.2-10.4,7.4-15.2s-0.4-12.6-1.4-18.5c-0.9-5.9-4.1-24.6-4.1-24.6s-15.7,2.4-23.9,2.2
			C196.9,68.4,198.2,65.2,197.5,63.2z"/>
		<path class="st2" d="M195,172.3c3.2,0,13.3,1.1,15.2-1.6c1.9-2.7,1.8-23.3,1.1-27c-3.3,0.1-15,0-15,0l-0.6,4.9l3.4,13.3
			c0,0-0.8,1.9-4.4,3C194.9,167.8,195,172.3,195,172.3z"/>
		<path class="st2" d="M178.5,143.2l-5.6-1.1c0,0-2.8,22-1.6,26c1.2,4,5,3.1,5,3.1s0.8-7,1.2-8.8c-1.7-0.5-4-1.3-4.3-2.1
			c-0.4-0.8,5-12.8,5-12.8L178.5,143.2z"/>
		<path class="st3" d="M173.9,36.7c-3.6-6.8-2.3-14.3,0.4-18c2.7-3.7,8.8-11.3,16.6-13.6s15.5-3.5,25.8,3s11.9,17.8,12.3,22.4
			c0.4,4.6-0.6,11.9-2.2,16.7c-1.6,4.8-1.8,7.1-1.3,8.8s2.3,6,2.6,7.2s-0.5,3.5-0.5,3.5s-15.2,4.6-31.9,3.8c2.1-2.7,3.2-5.1,1.9-7.2
			c-1.2-2.2-3.4-5.3-1-10.9c-4.4,3.1-13.9,1.9-17.3-1C175.9,48.3,173.6,44.1,173.9,36.7z"/>
		<path class="st3" d="M177.4,162.4c-0.9,6.1-0.9,12.7,0,15.8c0.9,3.1,3.1,10,7,9.2c1.6,1.3,3.1,1.2,4.1,0.4c2,0.9,3.7-0.4,4-1.2
			c2.2,1.4,2.9-1.3,3-3.5c0.1-2.8-0.9-18.2-0.9-18.2s-2.2,0.4-3.9-0.4c-1.7-0.8-3.1-2.4-6-2.5C181.8,161.8,179.3,162.7,177.4,162.4z
			"/>
		<polygon class="st3" points="102.4,18.6 102.1,86.5 148.3,74.3 148.3,8.2 		"/>
	</g>
	<g id="線画_1_">
		<path class="st4" d="M101.8,87.7c-0.6,0-1.1-0.5-1.1-1.1V18.8c0-0.5,0.3-0.9,0.8-1.1l45.8-10.8c0.6-0.1,1.2,0.2,1.3,0.8
			c0.1,0.6-0.2,1.2-0.8,1.3l-45,10.6v65.6l44.3-11.7V12.3c0-0.6,0.5-1.1,1.1-1.1c0.6,0,1.1,0.5,1.1,1.1v62.1c0,0.5-0.3,0.9-0.8,1
			l-46.4,12.2C102,87.7,101.9,87.7,101.8,87.7z"/>
		<path class="st4" d="M115.5,24.6c-0.6,0-1.1-0.5-1.1-1.1c0-0.5,0.3-0.9,0.8-1.1l20.1-4.9c0.6-0.2,1.2,0.2,1.3,0.7
			c0.2,0.6-0.2,1.2-0.7,1.3c0,0-0.1,0-0.1,0l-20.1,4.9C115.7,24.6,115.6,24.6,115.5,24.6z"/>
		<path class="st4" d="M115.5,28.7c-0.6,0-1.1-0.5-1.1-1.1c0-0.5,0.3-0.9,0.8-1.1l20.1-4.9c0.6-0.1,1.2,0.2,1.3,0.8
			c0.1,0.6-0.2,1.2-0.8,1.3l0,0l-20.1,4.9C115.7,28.7,115.6,28.7,115.5,28.7z"/>
		<path class="st4" d="M113.7,57c-0.6,0-1.1-0.5-1.1-1.1c0-0.3,0.2-0.7,0.4-0.9l17-12.5c0.3-0.2,0.7-0.3,1.1-0.1
			c3.5,1.7,7.2,6.1,7.4,6.3c0.2,0.3,0.3,0.7,0.2,1c-0.1,0.4-0.4,0.6-0.8,0.7L114,56.9C113.9,57,113.8,57,113.7,57z M130.9,44.7
			l-11.8,8.6l16.8-4.5C134.6,47.6,132.7,45.8,130.9,44.7z"/>
		<path class="st4" d="M137.8,63.9c-0.6,0-1.1-0.5-1.1-1.1V50.2c0-0.6,0.5-1.1,1.1-1.1s1.1,0.5,1.1,1.1v12.6
			C138.9,63.4,138.4,63.9,137.8,63.9z"/>
		<path class="st4" d="M113.7,70.1c-0.6,0-1.1-0.5-1.1-1.1V55.9c0-0.6,0.5-1.1,1.1-1.1c0.6,0,1.1,0.5,1.1,1.1v11.7l19.7-5.4
			c0.6-0.2,1.2,0.2,1.3,0.7c0.2,0.6-0.2,1.2-0.7,1.3c0,0,0,0,0,0L114,70.1C113.9,70.1,113.8,70.1,113.7,70.1z"/>
		<path class="st5" d="M117.4,62.8c-0.6,0-1.1-0.5-1.1-1.1c0-0.5,0.3-0.9,0.8-1l16.3-4.5c0.6-0.2,1.2,0.2,1.3,0.8
			c0.2,0.6-0.2,1.2-0.8,1.3l-16.3,4.5C117.6,62.8,117.5,62.8,117.4,62.8z"/>
		<path class="st4" d="M117,74.4c-0.4,0-0.8,0-1.2,0c-4.5-0.2-7.3-1.5-8.3-3.9c-0.7-1.8-0.4-3.9,0.8-5.9c1.1-1.7,2.6-3,4.4-3.9
			c0.5-0.3,1.2,0,1.5,0.5c0.3,0.5,0,1.2-0.5,1.5c-2.4,1.2-5.2,4.3-4.2,7c1.3,3.2,9.2,2.9,15.7,1.7c0.6-0.1,1.2,0.2,1.3,0.8
			c0.1,0.6-0.2,1.2-0.8,1.3c0,0,0,0-0.1,0C122.8,74.1,119.9,74.4,117,74.4z"/>
		<path class="st4" d="M129.3,72.5c-0.6,0-1.1-0.5-1.1-1.1c0-0.5,0.3-0.9,0.8-1.1c5.4-1.4,11.9-4.3,12.1-8c0.2-3.6-3-4-3.4-4.1
			c-0.6-0.1-1-0.6-1-1.2c0.1-0.6,0.6-1,1.2-1c2,0.2,5.7,1.8,5.4,6.4c-0.4,6.1-10.6,9.2-13.7,10C129.5,72.5,129.4,72.5,129.3,72.5z"
			/>
		<path class="st4" d="M65.8,197.5c-0.6,0-1.1-0.5-1.1-1.1V2.2c0-0.6,0.5-1.1,1.1-1.1s1.1,0.5,1.1,1.1v194.2
			C66.9,197,66.4,197.5,65.8,197.5z"/>
		<path class="st4" d="M86.3,144.1L86.3,144.1c-1.9,0-7.8-1-8.1-1.1c-0.3-0.1-0.6-0.2-0.7-0.5c-0.1-0.2-2.6-4.5,0-9
			c0.2-0.4,0.6-0.6,1-0.5c1.2,0.1,2.5,0.3,3.3,0.4V89c-1.2-0.1-3.3-0.4-4.5-0.7c-0.2,0-0.4-0.1-0.5-0.3c-1.5-1.6-1.6-6.8,0.3-8.8
			c0.2-0.2,0.6-0.3,0.9-0.3c0.2,0,6.2,0.8,8.1,1.1c3.6,0.6,3.6,4.9,3.6,6.6v52.9c0,0.9-0.2,2.6-1.2,3.7
			C87.9,143.8,87.1,144.1,86.3,144.1z M79.1,141.1c2,0.3,6,0.9,7.2,1l0,0c0.3,0,0.5-0.1,0.7-0.3c0.4-0.4,0.6-1.4,0.6-2.2V86.7
			c0-2.1-0.2-4.3-1.9-4.5c-1.5-0.2-5.8-0.8-7.4-1.1c-0.8,1.4-0.7,4.3-0.1,5.3c1.6,0.3,4.7,0.6,4.8,0.6c0.5,0.1,0.9,0.5,0.9,1v48.6
			c0,0.6-0.5,1-1,1c-0.6,0-1-0.5-1-1v-1.1c-0.6-0.1-1.7-0.3-2.8-0.4C77.8,137.8,78.6,140.2,79.1,141.1L79.1,141.1z"/>
		<path class="st4" d="M82.8,89.8c-0.6,0-1-0.5-1-1V86c0-0.6,0.5-1,1-1c0.6,0,1,0.5,1,1v2.7C83.8,89.3,83.4,89.8,82.8,89.8z"/>
		<path class="st4" d="M114.9,36.3c-0.4,0-0.8-0.2-1-0.6l-0.8-1.5c-0.2-0.5,0-1.2,0.5-1.4c0.5-0.2,1.1-0.1,1.4,0.4l0.8,1.5
			c0.3,0.5,0.1,1.2-0.4,1.5C115.2,36.3,115.1,36.3,114.9,36.3L114.9,36.3z"/>
		<path class="st4" d="M116.9,35.8c-0.6,0-1.1-0.5-1.1-1.1c0-0.1,0-0.3,0.1-0.4l0.8-1.9c0.2-0.6,0.9-0.8,1.4-0.6s0.8,0.9,0.6,1.4
			l-0.8,1.9C117.7,35.6,117.3,35.8,116.9,35.8z"/>
		<path class="st4" d="M112.9,37.5c-0.6,0-1.1-0.5-1.1-1.1c0-0.5,0.3-1,0.8-1.1l5.8-1.5c0.6-0.1,1.2,0.2,1.3,0.8
			c0.1,0.6-0.2,1.2-0.8,1.3l-5.8,1.5C113.1,37.4,113,37.5,112.9,37.5z"/>
		<path class="st4" d="M112.9,40.4c-0.6,0-1.1-0.5-1.1-1.1c0-0.5,0.3-0.9,0.8-1.1l5.8-1.5c0.6-0.1,1.2,0.2,1.3,0.8
			c0.1,0.6-0.2,1.2-0.8,1.3l-5.8,1.5C113.1,40.3,113,40.4,112.9,40.4z"/>
		<path class="st4" d="M115.8,42.6c-0.6,0-1.1-0.5-1.1-1.1v-5.9c0-0.6,0.5-1.1,1.1-1.1s1.1,0.5,1.1,1.1v5.9
			C116.9,42.1,116.4,42.6,115.8,42.6z"/>
		<path class="st4" d="M124.6,38L124.6,38c-0.4,0.1-0.8-0.1-0.9-0.5c0-0.1,0-0.1,0-0.2v-3.8c0-0.3,0.2-0.6,0.6-0.7l0,0
			c0.4-0.1,0.8,0.1,0.9,0.5c0,0.1,0,0.1,0,0.2v3.8C125.2,37.6,125,37.9,124.6,38z"/>
		<path class="st4" d="M124.5,38.7c-0.8,0-1.4-0.6-1.4-1.4v-3.8c0-0.8,0.7-1.4,1.5-1.4c0.7,0,1.3,0.6,1.4,1.4v3.8
			c0,0.7-0.4,1.2-1.1,1.4l0,0C124.7,38.7,124.6,38.7,124.5,38.7z M124.6,38L124.6,38z M124.5,33.4L124.5,33.4
			C124.4,33.4,124.4,33.4,124.5,33.4l-0.1,3.9c0,0,0,0,0,0.1c0,0,0,0,0.1,0l0,0c0,0,0.1,0,0.1-0.1L124.5,33.4
			C124.5,33.4,124.5,33.4,124.5,33.4C124.5,33.4,124.5,33.4,124.5,33.4z"/>
		<path class="st4" d="M130.2,36.8L130.2,36.8c-0.4,0.1-0.8-0.1-0.9-0.5c0-0.1,0-0.1,0-0.2v-3.8c0-0.3,0.2-0.6,0.6-0.7l0,0
			c0.4-0.1,0.8,0.1,0.9,0.5c0,0.1,0,0.1,0,0.2v3.8C130.8,36.4,130.6,36.7,130.2,36.8z"/>
		<path class="st4" d="M130.1,37.5c-0.8,0-1.4-0.6-1.4-1.4v-3.8c0-0.8,0.6-1.4,1.4-1.4c0.3,0,0.6,0.1,0.9,0.3
			c0.3,0.3,0.5,0.7,0.5,1.1v3.8c0,0.7-0.4,1.2-1.1,1.4l0,0C130.3,37.5,130.2,37.5,130.1,37.5z M130.2,36.8L130.2,36.8z M130.1,32.2
			L130.1,32.2C130,32.2,130,32.2,130.1,32.2l-0.1,3.9c0,0,0,0,0,0.1c0,0,0,0,0.1,0l0,0c0,0,0.1,0,0.1-0.1L130.1,32.2
			C130.1,32.2,130.1,32.2,130.1,32.2C130.1,32.1,130.1,32.1,130.1,32.2L130.1,32.2z"/>
		<path class="st4" d="M135.8,35.3L135.8,35.3c-0.4,0.1-0.8-0.1-0.9-0.5c0-0.1,0-0.1,0-0.2v-3.8c0-0.3,0.2-0.6,0.6-0.7l0,0
			c0.4-0.1,0.8,0.1,0.9,0.5c0,0.1,0,0.1,0,0.2v3.8C136.4,34.9,136.2,35.2,135.8,35.3z"/>
		<path class="st4" d="M135.7,36c-0.8,0-1.4-0.6-1.4-1.4v-3.8c0-0.8,0.7-1.4,1.5-1.4c0.7,0,1.3,0.6,1.4,1.4v3.8
			c0,0.7-0.4,1.2-1.1,1.4l0,0C135.9,36,135.8,36,135.7,36z M135.8,35.3L135.8,35.3z M135.7,30.7L135.7,30.7
			C135.6,30.7,135.6,30.7,135.7,30.7l-0.1,3.9c0,0,0,0,0,0.1c0,0,0,0,0.1,0l0,0c0,0,0.1,0,0.1-0.1L135.7,30.7
			C135.7,30.7,135.7,30.7,135.7,30.7C135.7,30.7,135.7,30.7,135.7,30.7L135.7,30.7z"/>
		<path class="st5" d="M126.3,43.8c-1.7,0.2-3.8,5.5-0.2,5.5S128.3,43.5,126.3,43.8z"/>
		<path class="st5" d="M126.1,50.3L126.1,50.3c-1.8,0-3-1.1-3.1-2.7c-0.1-2,1.3-4.7,3.1-4.9l0,0c0.9-0.1,1.7,0.3,2.4,1.2
			c0.8,1.2,1.3,3.3,0.5,4.8C128.5,49.8,127.4,50.3,126.1,50.3z M126.4,44.8c-0.4,0.2-1.4,1.6-1.2,2.7c0,0.2,0.1,0.6,0.9,0.6
			c0.5,0,1-0.1,1.1-1C127.4,46,126.7,44.9,126.4,44.8z M126.3,43.7L126.3,43.7z"/>
		<path class="st4" d="M188.2,54.9c-1.6,0-3.2-0.2-4.8-0.6c-4.3-1.1-7.5-3.8-9.1-7.7c-3.8-9.2,0.9-19.7,4.2-24.4
			c0.3-0.5,1-0.6,1.5-0.3c0.5,0.3,0.6,1,0.3,1.5c0,0,0,0-0.1,0.1c-1.9,2.8-3.3,5.8-4.3,9.1c-1.4,4.9-1.3,9.4,0.3,13.3
			c1.4,3.3,3.9,5.5,7.7,6.4c2.2,0.5,4.6,0.6,6.9,0.3c0.6-0.1,1.1,0.3,1.2,0.9c0.1,0.6-0.3,1.1-0.9,1.2l0,0
			C190.1,54.8,189.2,54.9,188.2,54.9z"/>
		<path class="st4" d="M194.4,47c-0.6,0-1.1-0.5-1.1-1.1c0-0.5,0.3-0.9,0.7-1c0.5-0.2,4.1-2.2,4-5.2c0-1.1-0.4-1.9-1.2-2.5
			c-0.8-0.6-1.9-0.9-2.9-0.7c-0.6,0.1-1.2-0.3-1.3-0.8c-0.1-0.6,0.2-1.1,0.8-1.3c1.6-0.3,3.3,0.1,4.7,1.1c0.9,0.7,1.9,1.9,2,4.1
			c0.2,4.4-4.6,7-5.5,7.3C194.6,47,194.5,47,194.4,47z"/>
		<path class="st4" d="M192,33.5c-0.1,0-0.3,0-0.4-0.1c-4.8-1.8-7-8.1-7.5-10.4c-0.1-0.6,0.2-1.2,0.8-1.3c0.6-0.1,1.2,0.2,1.3,0.8
			c0,0,0,0,0,0.1c0.5,2.3,2.6,7.5,6.2,8.8c0.6,0.2,0.8,0.8,0.6,1.4C192.8,33.2,192.4,33.5,192,33.5z"/>
		<path class="st4" d="M174,39.1c-0.4,0-0.8-0.2-1-0.6c-3.9-7.8-2.4-14.5-0.4-18.8c2.2-4.9,5.9-8.5,8.3-9.8c0.5-0.3,1.2-0.2,1.5,0.3
			c0.3,0.5,0.2,1.2-0.3,1.5c-0.1,0-0.1,0.1-0.2,0.1c-3.5,1.9-13.6,12.6-7,25.7c0.3,0.5,0.1,1.2-0.5,1.5
			C174.3,39.1,174.1,39.1,174,39.1L174,39.1z"/>
		<path class="st4" d="M182.9,32.6c-0.3,0-0.5-0.1-0.7-0.3c-2.9-2.5-4.2-9.2-4-12.8c0-0.6,0.5-1.1,1.1-1s1.1,0.5,1,1.1
			c-0.2,3.6,1.2,9.3,3.3,11.1c0.4,0.4,0.5,1.1,0.1,1.5C183.5,32.5,183.2,32.6,182.9,32.6L182.9,32.6z"/>
		<path class="st4" d="M181.3,40.4c-0.6,0-1.1-0.5-1.1-1.1v-2.6c0-0.6,0.5-1.1,1.1-1.1s1.1,0.5,1.1,1.1v2.6
			C182.3,39.9,181.9,40.4,181.3,40.4z"/>
		<path class="st4" d="M195.6,71.5c-0.6,0-1.1-0.5-1.1-1.1c0-0.3,0.1-0.6,0.4-0.8c0.4-0.4,1.9-2.9,1.7-5c-0.1-1.1-0.4-2.2-1-3.2
			c-0.6-1-1.2-2.1-1.2-4.8c0-2.7,1.1-5.3,2.3-7.5c0.3-0.5,0.9-0.7,1.5-0.5s0.7,0.9,0.5,1.5l0,0c-1,2.1-2,4.3-2,6.6
			c0,2.1,0.4,2.8,0.9,3.7c0.8,1.2,1.2,2.6,1.3,4.1c0.3,3.1-1.7,6.2-2.4,6.9C196.1,71.4,195.8,71.5,195.6,71.5z"/>
		<path class="st4" d="M207.9,70.3c-0.1,0-0.3,0-0.4-0.1c-0.5-0.2-0.8-0.9-0.6-1.4c0,0,0,0,0,0c1.2-2.7,0.9-5.2-0.8-8.2
			c-2.1-3.7-1.6-7.8-0.3-10.4c0.3-0.5,0.9-0.8,1.4-0.5c0.5,0.3,0.8,0.9,0.5,1.4c-1,2-1.5,5.4,0.2,8.3c2.1,3.6,2.4,6.9,1,10.2
			C208.7,70,208.4,70.3,207.9,70.3z"/>
		<path class="st4" d="M218.6,68.5c-0.1,0-0.2,0-0.3,0c-0.6-0.2-0.9-0.8-0.7-1.4c0,0,0,0,0,0c1-3.3-0.5-5.6-1.9-7.8
			c-1.8-2.8-1.4-6.9-0.2-9.5c0.3-0.5,0.9-0.8,1.4-0.5c0.5,0.3,0.8,0.9,0.5,1.4l0,0c-1,2-1.3,5.3,0.1,7.4c1.4,2.3,3.4,5.4,2.1,9.6
			C219.5,68.1,219.1,68.5,218.6,68.5z"/>
		<path class="st4" d="M227.8,67.7c-0.6,0-1.1-0.5-1.1-1.1c0-0.1,0-0.2,0-0.3c0.8-2.6-0.1-4.2-0.9-6c-0.4-0.8-0.8-1.6-1-2.4
			c-1-3.3-0.4-7.8,1.8-13.7c1.2-3.3,2.3-9.4,1.3-16c-0.8-5.4-3.4-13.2-11-19c-11.5-8.8-26.5-3.9-29.6-1.2c-0.4,0.4-1.1,0.4-1.5-0.1
			c-0.4-0.4-0.4-1.1,0.1-1.5c0,0,0,0,0,0c2-1.7,7-3.7,12.8-4.3c5.1-0.5,12.7,0.1,19.6,5.3c6.5,4.9,10.6,12,11.8,20.4
			c1,6.9-0.1,13.3-1.5,17c-2,5.4-2.6,9.5-1.7,12.3c0.2,0.7,0.5,1.4,0.9,2c0.9,1.9,2.1,4.2,1.1,7.6C228.7,67.4,228.3,67.7,227.8,67.7
			z"/>
		<path class="st4" d="M193.2,165.9c-1.5,0-3-0.4-4.3-1.1c-2.5-1.4-5.3-1.9-8.1-1.4c-3.8,0.7-7.4-1-8.4-2.1c-0.8-0.9-0.3-2.3,2.3-8
			c1.1-2.4,2.3-5,2.4-6c0.2-1.4,0.6-9.2,1.1-17.5c0.3-6.1,0.7-12.5,1-17.2c-6-3.8-9.4-7.6-4.2-20.9c0.6-1.5,1.2-3.1,1.7-4.6
			c4.4-11.8,8.2-21.9,16.6-24.3c0.6-0.2,1.2,0.2,1.3,0.7c0.2,0.6-0.2,1.2-0.7,1.3c-7.4,2.1-11,11.8-15.1,23
			c-0.6,1.5-1.1,3.1-1.7,4.6c-5,13.1-1.1,15.5,3.9,18.6c0.3,0.2,0.5,0.6,0.5,1c-0.3,4.8-0.7,11.4-1,17.9c-0.5,8.7-0.9,16.2-1.1,17.6
			c-0.1,1.2-1.1,3.3-2.5,6.6c-0.9,2-2.2,4.9-2.4,5.9c0.8,0.6,3.4,1.8,6.2,1.2c3.3-0.6,6.8,0,9.7,1.7c1.5,0.9,3.4,1.1,5.2,0.5
			c1.2-0.4,2.1-1,2.6-1.7c-1.1-3.3-3.1-12.5-3.2-12.9c0-0.1,0-0.2,0-0.3l2.7-34.6c0-0.5,0.4-0.9,0.9-1c0.2,0,5.7-1,6.1-6.2
			c1.4-18.2,0.5-30.7-2.4-34.1c-0.4-0.5-0.3-1.1,0.1-1.5c0.5-0.4,1.1-0.3,1.5,0.1c4.2,5.1,3.9,22.2,2.9,35.7c-0.4,5-4.4,7.3-7.1,8
			l-2.7,33.6c0.3,1.3,2.3,10.5,3.3,12.9c0.1,0.3,0.1,0.6,0,0.9c-0.7,1.4-2.2,2.6-4.2,3.2C195.1,165.8,194.1,165.9,193.2,165.9z"/>
		<path class="st4" d="M190.4,114.4c-1.2,0-4.6-0.4-6-0.8c-0.6-0.2-0.9-0.8-0.7-1.4s0.8-0.9,1.4-0.7l0,0c1.1,0.3,4.4,0.7,5.4,0.7
			c0.6,0,1.1,0.5,1.1,1.1C191.6,113.9,191.1,114.4,190.4,114.4L190.4,114.4z"/>
		<path class="st4" d="M217.8,127.1c-0.6,0-1.1-0.5-1.1-1.1c0-0.2,0-0.3,0.1-0.5c0.4-0.6,0.8-1.3,1.2-1.9c1.9-2.7,5.4-7.8,5.9-13.7
			c0.4-5-1.5-18.9-5.4-38.3c-0.1-0.6,0.2-1.2,0.8-1.3c0.6-0.1,1.2,0.2,1.3,0.8c0,0,0,0,0,0.1c2.3,11.5,6.1,31.8,5.4,38.9
			c-0.6,6.4-4.3,11.8-6.3,14.7c-0.5,0.7-0.9,1.3-1,1.6C218.6,126.9,218.2,127.1,217.8,127.1z"/>
		<path class="st4" d="M234.2,194.9c-0.5,0-0.9-0.3-1-0.8c-1-3.6-5-19.8-8.9-35.5c-3.4-13.6-6.6-26.4-7.1-28.1
			c-0.2-0.6,0.1-1.2,0.7-1.4c0.6-0.2,1.2,0.1,1.4,0.7c0,0,0,0.1,0,0.1c0.5,1.8,3.7,14.6,7.1,28.2c3.7,15,8,31.9,8.9,35.5
			c0.2,0.6-0.2,1.2-0.8,1.3c0,0,0,0,0,0C234.4,194.9,234.3,194.9,234.2,194.9z"/>
		<path class="st4" d="M193.7,187.6c-1.6,0-2.8-1.4-3.3-2.8c-1.2-3.6-1.6-6.6-1.9-9.8c-0.1-0.6,0.4-1.1,1-1.2c0.6-0.1,1.1,0.4,1.2,1
			l0,0c0.4,3.2,0.7,6,1.9,9.4c0.3,1,1,1.4,1.4,1.3c0.3-0.1,0.7-0.7,0.6-1.8c-0.2-2.2-0.3-6.4-0.5-10.5c-0.1-3.3-0.2-6.5-0.3-8.2
			c0-0.6,0.4-1.1,1-1.2s1.1,0.4,1.2,1c0.1,1.8,0.2,5,0.3,8.3c0.1,4,0.3,8.2,0.5,10.4c0.2,2.6-1.1,3.8-2.3,4.1
			C194.1,187.6,193.9,187.6,193.7,187.6z"/>
		<path class="st4" d="M190.4,189.1c-0.8,0-1.8-0.3-2.8-1.4c-2.6-3-3.6-9.8-3.9-12.7c-0.1-0.6,0.4-1.1,1-1.2s1.1,0.4,1.2,1
			c0.6,5.4,1.9,9.7,3.4,11.5c0.4,0.5,0.9,0.7,1.2,0.7c0.4-0.1,0.8-0.3,1-0.6c0.2-0.5,0.9-0.8,1.4-0.5c0.5,0.2,0.8,0.9,0.5,1.4
			c0,0,0,0,0,0c-0.5,1-1.5,1.7-2.6,1.9C190.7,189.1,190.5,189.1,190.4,189.1z"/>
		<path class="st4" d="M186.9,189.3c-1.4,0-2.7-0.8-3.4-2c-1.7-2.8-3.6-8.7-3.9-12.3c-0.1-0.6,0.4-1.1,1-1.2c0.6-0.1,1.1,0.4,1.2,1
			c0.3,3.3,2,8.8,3.6,11.4c0.3,0.5,1.2,1.5,2.8,0.6c0.5-0.3,1.2-0.2,1.5,0.3c0.3,0.5,0.2,1.2-0.3,1.5c-0.1,0-0.1,0.1-0.2,0.1
			C188.4,189.1,187.7,189.3,186.9,189.3z"/>
		<path class="st4" d="M183.7,188.6c-2.7,0-4.8-2.4-6.7-7.8c-2.4-6.6-1.4-14.5-0.6-18.6c0.1-0.6,0.7-1,1.3-0.9
			c0.6,0.1,1,0.7,0.9,1.3c0,0,0,0,0,0.1c-0.8,3.9-1.7,11.3,0.5,17.4c2.5,6.8,4.3,6.5,5.2,6.3c0.6-0.1,1.2,0.3,1.3,0.9
			c0.1,0.6-0.3,1.2-0.9,1.3C184.3,188.5,184,188.6,183.7,188.6z"/>
		<path class="st4" d="M169.8,196.8c0,0-0.1,0-0.1,0c-0.6-0.1-1-0.6-0.9-1.2c0,0,0,0,0,0c0.6-4.8,3.3-20.7,4.1-24.8
			c0.1-0.6,0.7-0.9,1.3-0.8c0.5,0.1,0.9,0.7,0.8,1.2c-0.8,3.9-3.5,19.9-4.1,24.6C170.8,196.4,170.4,196.8,169.8,196.8z"/>
		<path class="st6" d="M211.3,144.8c-0.6,0-1.1-0.5-1.1-1.1c0-0.3-0.2-25.9-0.5-46.6c-0.3-20-3.3-24.3-3.3-24.3
			c-0.4-0.5-0.3-1.2,0.2-1.5c0.5-0.4,1.2-0.3,1.5,0.2c0.4,0.4,3.5,5,3.8,25.6c0.3,20.7,0.5,46.3,0.5,46.6
			C212.4,144.3,211.9,144.8,211.3,144.8L211.3,144.8z"/>
		<path class="st6" d="M199.5,173.4c-0.8,0-1.5,0-2.3,0c-0.6,0-1.2,0-1.6,0c-0.6,0-1.1-0.5-1.1-1.1s0.5-1.1,1.1-1.1c0.5,0,1,0,1.6,0
			c2.2,0,5.2,0.1,7.7-0.2c3.9-0.3,4.6-1.1,4.7-1.2c1.4-2,1.3-19.2,0.8-24.9c-3,0.1-6.6,0.1-9.6,0c-1.9,0-3.5-0.1-4.4,0
			c-0.6,0-1.1-0.4-1.1-1c0-0.6,0.4-1.1,1-1.1l0,0c1,0,2.7,0,4.6,0c3.3,0.1,7.4,0.2,10.4,0c0.6,0,1.1,0.4,1.2,0.9
			c0.3,2.1,0.6,8.4,0.5,14c-0.1,7.6-0.6,12.2-1.5,13.5C210,173,205.2,173.4,199.5,173.4z"/>
		<path class="st6" d="M175.5,172.3c-1.7,0-4.2-0.5-5.3-3.9c-1.6-5,1.2-24.3,1.6-26.5c0.1-0.6,0.6-1,1.2-0.9
			c2.7,0.3,5.6,0.5,5.6,0.5c0.6,0.1,1,0.6,1,1.2c-0.1,0.6-0.6,1-1.2,1c0,0-2.2-0.2-4.6-0.4c-1.1,7.5-2.6,21-1.5,24.5
			c0.7,2.2,2.1,2.5,4.2,2.3c0.6-0.1,1.1,0.4,1.2,1s-0.4,1.1-1,1.2C176.3,172.3,175.9,172.3,175.5,172.3z"/>
		<path class="st6" d="M172.9,143.2h-0.1c-0.6-0.1-1-0.6-0.9-1.2c0-0.2,2.3-19.1,4.3-32.3c0.1-0.6,0.6-1,1.2-0.9
			c0.6,0.1,1,0.6,0.9,1.2l0,0c-2,13.1-4.2,32-4.3,32.2C173.9,142.8,173.4,143.2,172.9,143.2z"/>
		<path class="st6" d="M203,129.6c-0.4,0-0.7,0-0.9,0c-0.6,0-1-0.6-1-1.2c0-0.6,0.6-1,1.2-1c2.2,0.2,9.9-0.6,10.8-0.9
			c0.6-0.2,1.2,0.2,1.3,0.8c0.2,0.6-0.2,1.2-0.8,1.3l0,0C212.6,129,206.1,129.6,203,129.6z"/>
	</g>
</g>
</svg>
