<?xml version="1.0" encoding="utf-8"?>
<!-- Generator: Adobe Illustrator 24.3.0, SVG Export Plug-In . SVG Version: 6.00 Build 0)  -->
<svg version="1.1" id="レイヤー_1" xmlns="http://www.w3.org/2000/svg" xmlns:xlink="http://www.w3.org/1999/xlink" x="0px"
	 y="0px" viewBox="0 0 300 200" style="enable-background:new 0 0 300 200;" xml:space="preserve">
<style type="text/css">
	.st0{fill:#D54A36;}
	.st1{fill:#F1C84C;}
	.st2{fill:#E14B36;}
	.st3{fill:#B1B1B1;}
	.st4{fill:#4E4D4D;}
	.st5{fill:#FFFFFF;}
	.st6{fill:#040000;}
</style>
<g>
	<g id="塗">
		<path class="st0" d="M188.9,158.1c7.7-1.4,18.4-4.6,20.8-18.1s-0.3-29.6-5.7-39.2c-5.4-9.7-13.4-21.6-20.5-25.7s-9.6-5.4-9.6-5.4
			s-7.8,2.8-10.9,3c-3.2,0.2-7.6-0.8-9.2-2.3c-3.3,1.5-10,5.8-13.9,10.1c-4,4.3-14.5,15.6-17.7,23.8s-5.5,14.2-5.9,16
			c-2.3,0.2-10.8,1.9-10.8,1.9s3.3,5.3,3.6,7.8c0.3,2.5,0.9,5.6-0.1,7.1c1.5,1.7,4.3,4.8,4.3,4.8l47,6c0,0,3.9-7.1,12.7-8.1
			c8.5-1,12.6,2.8,13.9,4.4c1.3,1.6,3.3,4.3,3.2,6.6c-0.1,2.4-0.7,5.4-1.2,6.3"/>
		<path class="st1" d="M89.3,132.7c-9.2,3.4-17.5,9.5-19.5,16.6s-4,13,1.3,23c5.3,10,14.4,16.4,28.2,17.9s22-1,27.6-4.1
			c5.6-3.1,8.7-10.6,9.9-14.3c1.2-3.7-0.5-11.9-2.9-14.4c-2.4-2.5-13.7-8.9-14.9-9.7c-1.2-0.9-7.4-8.1-9.4-9.7s-6.4-5.8-13.1-6
			c-2.3,4.4-2.9,7.9-6.1,8.1C87.3,140.1,89.3,132.7,89.3,132.7z"/>
		<ellipse class="st2" cx="94.6" cy="151" rx="3.7" ry="3.4"/>
		<ellipse class="st2" cx="107.5" cy="153.9" rx="3.7" ry="3.4"/>
		<ellipse class="st2" cx="85.2" cy="160.5" rx="3.7" ry="3.4"/>
		<ellipse class="st2" cx="93.5" cy="172.6" rx="3.7" ry="3.4"/>
		<ellipse class="st2" cx="107.5" cy="174.2" rx="3.7" ry="3.4"/>
		<ellipse class="st2" cx="117.2" cy="163.8" rx="3.7" ry="3.4"/>
		<path class="st3" d="M156.5,166.6c1.1,7.2-1.5,13-8.7,14.4s-9.7-7-9.7-12.8c0-5.8,3.4-10.9,9.3-11S156,163.2,156.5,166.6z"/>
		<path class="st4" d="M154.5,160.2c1.2,1.9,2,6.4,2,6.4l14.1-8.5c0,0,0.3-5.3-2.6-7.1C163.8,153.8,154.5,160.2,154.5,160.2z"/>
		<path class="st5" d="M67.6,163.6c-5.9,2.9-10.4,6.5-10.5,13.9c0,7.4,5,14.7,24.8,19.2c19.8,4.5,50.3-1.6,52.7-2.4
			s12.9-5.8,13.4-9.9c0.5-4.1-0.3-3.3-0.3-3.3s-5.6,0.8-7.5-3.6s-2.2-9.2-2.2-9.2s-0.3,6.1-4.2,11.4c-3.9,5.3-11.8,11-24.1,11.1
			s-23.3-3.2-29.4-7.9C74.3,178,68.7,169.8,67.6,163.6z"/>
		<path class="st5" d="M80.1,137.4c-0.9-5.4,4.7-12.7,8-14.2c3.4-1.5,13.6-1.7,17.4-0.9c4.2,3.8,4.4,12.9,3.5,14.9
			c-4.2-3.3-11.4-5-12.5-5.6c-1.1,4.1-3.1,8.2-5.3,8.4c-2.2,0.2-2.5-4.1-1.8-7.3C85.6,133.9,80.1,137.4,80.1,137.4z"/>
		<path class="st5" d="M158.7,157.2c-1.3-5.1,3-13.3,11-16.6c8-3.3,13.9,0.7,13.9,0.7s6.9,3.7,6.4,9.7s-0.9,9.1-5.1,9.9
			c-1.1,1.3-3.2,2-4.9,1.1c-1.3,1.9-3.8,2.6-6.2,1.7c0,0-0.9,1.5-4.1,1.9c-3.2,0.4-5-3.3-5-3.3l5.6-3.3c0,0,0.9-6.5-2.3-7.8
			C163.5,153.8,158.7,157.2,158.7,157.2z"/>
		<path class="st5" d="M156.9,71.8l0.1-6.2c0,0-9,0.7-15.8-2.6c-6.8-3.3-8.2-7.7-8.2-7.7s-6.1-0.6-7.4-7.2s2-7,2-7s-2.4-3.2-2.5-9.3
			c-0.1-6.1,2.7-13.4,11.1-21.8S162.3,0,171.2,3.7c8.9,3.7,17.1,11.4,19.4,19.2c2.3,7.8,1.9,13.3,1.9,13.3s8.3-0.7,9.4,7.7
			c1.2,8.4-2.8,15.7-3.8,19.2c-1,3.5-1.9,8.2-1.2,10.1c0.8,1.9,2.5,4,3.7,4.8c-4.4,0-8.3-1-9.8-2.2c-1.5-1.2-5.8-4.1-5.7-12.4
			c0.1-8.3,1.1-12.7,1.1-12.7s-6.6,5.1-8,6.2c-1.4,1.1-5.3,4.1-5.3,4.1v9.2c0,0-4.7,2-8.9,2.2C159.9,72.6,156.9,71.8,156.9,71.8z"/>
	</g>
	<g id="線">
		<path class="st6" d="M79.4,138.6c-0.1,0-0.1,0-0.2,0l-22.3-2.9c-0.7-0.1-1.1-0.7-1.1-1.4c0.1-0.7,0.7-1.1,1.4-1.1l0,0l22.3,2.9
			c0.7,0,1.2,0.6,1.1,1.3C80.7,138.1,80.1,138.7,79.4,138.6L79.4,138.6z"/>
		<path class="st6" d="M160.3,149.1c-0.1,0-0.1,0-0.2,0l-46.9-6c-0.7-0.1-1.2-0.7-1.1-1.3c0.1-0.7,0.7-1.2,1.3-1.1c0,0,0,0,0.1,0
			l46.9,5.9c0.7,0,1.2,0.6,1.2,1.3C161.5,148.7,160.9,149.2,160.3,149.1L160.3,149.1L160.3,149.1z"/>
		<path class="st6" d="M242.8,159.8c-0.1,0-0.1,0-0.2,0l-40.8-5.4c-0.7-0.1-1.2-0.7-1.1-1.3c0.1-0.7,0.7-1.2,1.3-1.1c0,0,0,0,0.1,0
			l40.8,5.4c0.7,0,1.2,0.6,1.1,1.3C244.1,159.3,243.5,159.8,242.8,159.8L242.8,159.8z"/>
		<path class="st6" d="M153.7,67c-0.4,0-0.8,0-1.2,0c-7.3-0.2-13-2.4-16.9-6.6c-4.1-4.3-6-9.9-5.7-16.6c0.3-6.6,2.7-12.4,4.1-15.4
			c0.3-0.6,1-0.9,1.6-0.6c0.6,0.3,0.9,1,0.6,1.6c0,0,0,0.1,0,0.1c-1.3,2.7-3.6,8.3-3.9,14.4c-0.3,6,1.4,11,5,14.8
			c3.4,3.6,8.6,5.6,15.2,5.8c4.2,0.1,8.4-0.4,12.4-1.5c4.1-1.3,10.9-5.3,12.9-7.4c0.5-0.5,1.2-0.5,1.7,0c0.5,0.5,0.5,1.2,0,1.7
			c-2.5,2.6-9.7,6.8-13.9,8.1C163.1,66.1,158.5,67,153.7,67z"/>
		<path class="st6" d="M182.3,55.1c-0.7,0-1.2-0.5-1.2-1.2c0-0.5,0.3-0.9,0.7-1.1c4-1.7,6-4.4,6-8c0-1.6-0.5-2.7-1.4-3.3
			c-1.1-0.7-2.9-0.8-4.7,0c-0.6,0.3-1.3,0-1.6-0.7c-0.3-0.6,0-1.3,0.7-1.6c2.5-1,5.1-0.9,6.9,0.3c1.1,0.8,2.5,2.3,2.5,5.3
			c0,4.6-2.5,8.2-7.4,10.3C182.6,55,182.4,55.1,182.3,55.1z"/>
		<path class="st6" d="M132.9,56.6c-0.1,0-0.1,0-0.2,0c-2.1-0.3-4.2-1.4-5.8-3.1c-1.9-2-2.9-4.6-2.9-7.3c0-2.2,0.7-4.2,2.2-5.6
			c1.4-1.4,3.4-2.2,5.4-2.2c0.7,0,1.2,0.6,1.2,1.2s-0.6,1.2-1.2,1.2c-1.3,0-2.6,0.6-3.6,1.5c-1,1-1.5,2.2-1.5,3.8
			c0,4.9,3.8,7.6,6.5,7.9c0.7,0.1,1.1,0.7,1.1,1.4C134,56.2,133.5,56.6,132.9,56.6z"/>
		<path class="st6" d="M127.2,42.7c-0.4,0-0.8-0.2-1.1-0.6c-1.7-3-2.6-7.7-2.2-12.2c0.3-3.9,1.7-9.6,6.3-14.2c0.5-0.5,1.2-0.5,1.7,0
			c0.5,0.5,0.5,1.2,0,1.7c0,0,0,0,0,0c-7.6,7.5-6.1,19.2-3.7,23.5c0.3,0.6,0.1,1.3-0.5,1.7C127.6,42.7,127.4,42.7,127.2,42.7z"/>
		<path class="st6" d="M189,46.5c-0.7,0-1.2-0.5-1.2-1.2c0-0.4,0.2-0.7,0.4-0.9c0,0,3.9-3.7,3.1-13.5c-0.9-11.2-9.9-24.6-24.8-27.2
			c-11.9-2.1-21.6,0.3-29.5,7.4c-0.5,0.4-1.3,0.4-1.7-0.1c-0.4-0.5-0.4-1.3,0.1-1.7l0,0c8.6-7.6,18.9-10.2,31.6-7.9
			c16.1,2.9,25.8,17.3,26.8,29.4c0.9,11.2-3.7,15.3-3.9,15.5C189.5,46.4,189.2,46.5,189,46.5z"/>
		<path class="st6" d="M201.4,78.9c-0.1,0-0.3,0-0.4-0.1c-3.8-1.3-5.6-4.2-5.5-8.8c0.1-3.4,1.2-6.3,2.3-9.5
			c1.3-3.5,2.6-7.1,2.9-12.1c0.3-4.5-0.6-7.8-2.5-9.5c-1.8-1.7-4.2-1.6-5.5-1.5c-0.7,0.1-1.3-0.4-1.4-1c-0.1-0.7,0.4-1.3,1-1.4
			c3-0.4,5.6,0.3,7.5,2.1c2.5,2.3,3.6,6.2,3.2,11.5c-0.4,5.4-1.8,9.3-3.1,12.8c-1.1,3-2.1,5.7-2.1,8.7c-0.1,4.5,1.9,5.8,3.8,6.4
			c0.6,0.2,1,0.9,0.8,1.6C202.4,78.6,201.9,78.9,201.4,78.9L201.4,78.9z"/>
		<path class="st6" d="M192.6,77.7c-0.1,0-0.2,0-0.4-0.1c-4.8-1.5-7.5-5.4-8.1-11.5c-0.5-4.9,0.5-10.1,1.1-13.6
			c0.2-0.8,0.3-1.5,0.4-2.1c0.1-0.7,0.7-1.1,1.4-1s1.1,0.7,1,1.4c-0.1,0.6-0.2,1.3-0.4,2.2c-0.6,3.3-1.5,8.4-1.1,12.9
			c0.5,5.1,2.6,8.2,6.4,9.4c0.6,0.2,1,0.9,0.8,1.5C193.6,77.4,193.1,77.7,192.6,77.7L192.6,77.7z"/>
		<path class="st6" d="M156.9,72.2c-0.7,0-1.2-0.5-1.2-1.2l0,0v-5.3c0-0.7,0.5-1.2,1.2-1.2s1.2,0.5,1.2,1.2l0,0V71
			C158.2,71.7,157.6,72.2,156.9,72.2z"/>
		<path class="st6" d="M173,71c-0.7,0-1.2-0.5-1.2-1.2l0,0v-9.2c0-0.7,0.5-1.2,1.2-1.2c0.7,0,1.2,0.5,1.2,1.2v9.2
			C174.2,70.5,173.6,71,173,71L173,71z"/>
		<path class="st6" d="M188.6,158.9c-0.7,0-1.2-0.5-1.2-1.2c0-0.6,0.4-1.1,1-1.2c10.7-2.1,19-5,20.7-20.1c1.7-14.6-1.4-27.6-9.8-42
			c-6.6-11.2-14.1-18.1-25.3-23.2c-6.9,3.6-17,2.7-20.2,0.9c-0.6-0.3-0.8-1-0.5-1.7c0.3-0.6,1-0.8,1.7-0.5c0,0,0,0,0.1,0
			c2.4,1.4,12.1,2.3,18.3-1.2c0.3-0.2,0.8-0.2,1.1-0.1c11.9,5.3,20,12.6,26.9,24.5c8.8,14.9,11.9,28.3,10.2,43.5
			c-0.9,7.6-3.4,13-7.8,16.5c-3.8,3.1-8.7,4.5-14.9,5.7C188.7,158.9,188.7,158.9,188.6,158.9z"/>
		<path class="st6" d="M116.7,120.5c-0.1,0-0.2,0-0.3,0c-0.7-0.2-1-0.9-0.9-1.5c0,0,0,0,0,0c2.6-9.6,7.9-20,14.9-29.3
			c6.1-8.2,13.2-15.1,19-18.3c0.6-0.4,1.3-0.2,1.7,0.4c0.4,0.6,0.2,1.3-0.4,1.7c0,0,0,0-0.1,0c-9.9,5.6-26.8,24.8-32.7,46.2
			C117.8,120.2,117.3,120.5,116.7,120.5z"/>
		<path class="st6" d="M161.5,79.8c-4.6,0-8.8-0.9-11.5-2.4c-0.6-0.3-0.8-1.1-0.5-1.7s1.1-0.8,1.7-0.5l0,0
			c4.7,2.5,14.1,3.3,22.2-0.3c0.6-0.3,1.3,0,1.6,0.6c0.3,0.6,0,1.3-0.6,1.6C170.2,78.9,165.9,79.8,161.5,79.8z"/>
		<path class="st6" d="M105.2,123.7c-0.7,0-1.2-0.5-1.2-1.2c0-0.5,0.3-0.9,0.7-1.1c4.3-2,15.1-2.6,18.7-2.5c0.7,0,1.2,0.6,1.2,1.3
			c0,0.7-0.6,1.2-1.3,1.2c-3.5-0.1-13.8,0.6-17.6,2.3C105.6,123.6,105.4,123.7,105.2,123.7z"/>
		<path class="st6" d="M134.6,144.1c-0.1,0-0.1,0-0.2,0c-0.7-0.1-1.1-0.7-1-1.4c0,0,0,0,0,0c0-0.3,4.8-30.4,6.4-39.3
			c0.1-0.7,0.8-1.1,1.4-1c0.7,0.1,1.1,0.8,1,1.4c-1.6,8.8-6.3,38.9-6.4,39.2C135.7,143.7,135.2,144.1,134.6,144.1z"/>
		<path class="st6" d="M173,141.1c-0.2,0-0.3,0-0.5-0.1c-0.6-0.3-0.9-1-0.6-1.6c3-6.5,8.7-16.8,10.9-19.3c0.5-0.5,1.2-0.5,1.7-0.1
			c0.5,0.5,0.5,1.2,0.1,1.7l0,0c-1.9,2-7.3,11.8-10.4,18.6C173.9,140.8,173.4,141.1,173,141.1z"/>
		<path class="st6" d="M108.9,138.3c-0.1,0-0.2,0-0.3,0c-0.7-0.2-1-0.8-0.9-1.5c1-3.8,0.4-9.6-3.4-13.5c-0.5-0.5-0.5-1.3,0-1.7
			c0.5-0.5,1.3-0.5,1.7,0c4.5,4.5,5.2,11.4,4,15.8C110,138,109.5,138.3,108.9,138.3z"/>
		<path class="st6" d="M80.1,138.3c-0.6,0-1.2-0.5-1.2-1.1c-0.4-4.5,2.4-10.2,7.1-14.1c5.1-4.3,19.1-2.1,19.7-2.1
			c0.7,0.1,1.1,0.8,1,1.4c-0.1,0.7-0.7,1.1-1.4,1c-3.7-0.6-14.2-1.5-17.7,1.5c-3.3,2.8-6.6,7.7-6.2,12c0.1,0.7-0.4,1.3-1.1,1.3
			C80.2,138.3,80.1,138.3,80.1,138.3z"/>
		<path class="st6" d="M90.9,141.3c-0.2,0-0.5,0-0.7-0.1c-3.4-0.9-2.1-7.2-1-12.2l0.1-0.4c0.1-0.7,0.8-1.1,1.5-0.9
			c0.7,0.1,1.1,0.8,0.9,1.5l-0.1,0.4c-0.4,1.9-0.9,4.2-1.1,6.1c-0.3,2.8,0.3,3.2,0.3,3.2c0.3,0.1,0.9-0.4,1.7-1.5
			c0.8-1.3,1.5-2.9,2-4c0.1-0.3,0.3-0.6,0.4-0.8c0.6-1.3,1.8-3.5,3.6-4.2c0.6-0.3,1.3,0,1.6,0.6c0.3,0.6,0,1.3-0.6,1.6
			c0,0,0,0-0.1,0c-0.7,0.3-1.6,1.4-2.3,3c-0.1,0.2-0.2,0.4-0.3,0.8C95.7,136.8,93.7,141.3,90.9,141.3z"/>
		<path class="st6" d="M158.7,158.1c-0.5,0-1-0.3-1.2-0.9c-0.5-1.5-0.4-3.6,0.3-5.9c0.7-2.4,1.9-4.6,3.5-6.5
			c4.8-5.4,12.3-7,17.2-6.2c0.7,0.1,1.1,0.7,1,1.4c-0.1,0.7-0.7,1.1-1.4,1c-4.4-0.7-11,1-15,5.5c-2.9,3.3-3.9,8-3.3,10
			c0.2,0.6-0.2,1.3-0.8,1.5C158.9,158,158.8,158.1,158.7,158.1L158.7,158.1z"/>
		<path class="st6" d="M184.9,162c-0.7,0-1.2-0.6-1.2-1.2c0-0.6,0.4-1.1,1-1.2c3.1-0.4,4.4-6,4-9.5c-0.4-3.3-3.1-6.5-6.6-8
			c-0.6-0.2-0.9-1-0.7-1.6c0.2-0.6,1-0.9,1.6-0.7c0,0,0,0,0.1,0c4.3,1.8,7.5,5.8,8.1,10c0.5,3.7-0.9,11.4-6.1,12.2
			C185,162,184.9,162,184.9,162z"/>
		<path class="st6" d="M181.4,163.8c-0.4,0-0.8-0.1-1.2-0.2c-0.8-0.4-1.4-1.1-1.7-2l2.4-0.7v0c0.1,0.2,0.2,0.3,0.3,0.4
			c0.2,0.1,0.6,0,1-0.2c0.6-0.3,2-1.8,2.4-9.1c0-0.7,0.6-1.2,1.3-1.2c0.7,0,1.2,0.6,1.2,1.3c-0.3,6.5-1.5,10-3.7,11.2
			C182.7,163.6,182,163.8,181.4,163.8z"/>
		<path class="st6" d="M176.2,165.5c-0.4,0-0.7-0.1-1.1-0.2c-0.5-0.2-1-0.5-1.4-0.9l1.9-1.5l0,0c0.2,0.2,0.6,0.4,1.5-0.2
			c1.6-1.1,2.5-4.4,2.6-9.4c0-0.7,0.6-1.2,1.2-1.2s1.2,0.6,1.2,1.2c-0.1,6-1.3,9.8-3.6,11.4C177.8,165.2,177,165.5,176.2,165.5z"/>
		<path class="st6" d="M170.1,166.7c-0.5,0-1-0.1-1.4-0.2c-2.3-0.6-4.6-2.4-5-3.3c-0.3-0.6,0-1.3,0.6-1.6c0.6-0.3,1.3,0,1.6,0.5
			c0.3,0.4,2,1.8,3.7,2.1c0.7,0.1,1.3,0,1.8-0.3c2.1-1.5,3.4-5.4,3.4-9.7c0-0.7,0.5-1.2,1.2-1.2c0.7,0,1.2,0.5,1.2,1.2l0,0
			c0,4.1-1.2,9.3-4.4,11.7C172,166.4,171,166.7,170.1,166.7z M165.8,162C165.8,162,165.8,162,165.8,162
			C165.8,162,165.8,162,165.8,162z"/>
		<path class="st6" d="M147.1,182.2c-2.5,0-4.9-1-6.7-2.7c-1.7-1.6-3.8-4.7-3.7-10.2c0.1-9.2,5.4-13.4,10.5-13.4h0.1
			c2.9,0,5.4,1,7.2,3c2,2.1,3.1,5.3,3.2,9.1c0.1,3.8-0.8,7.3-2.7,9.9c-1.9,2.5-4.4,4-7.2,4.2C147.6,182.2,147.3,182.2,147.1,182.2z
			 M147.3,158.4c-3.7,0-8,2.9-8.1,11c-0.1,4.6,1.6,7.1,2.9,8.4c1.5,1.4,3.5,2.1,5.5,2c2.1-0.1,4-1.3,5.4-3.2
			c1.6-2.1,2.4-5.1,2.3-8.4C155.2,162.1,152.2,158.4,147.3,158.4L147.3,158.4z"/>
		<path class="st6" d="M157.8,167.3c-0.7,0-1.2-0.6-1.2-1.2c0-0.4,0.2-0.8,0.6-1c0.7-0.5,2.5-1.5,4.6-2.7c2.7-1.5,6.2-3.6,7.4-4.3
			c0.4-1.8-0.3-4-1.4-5.4c-2.6,1.7-10.2,6.6-12.5,8.6c-0.5,0.4-1.3,0.4-1.7-0.2c-0.4-0.5-0.4-1.3,0.2-1.7c3-2.4,13.2-9,13.6-9.3
			c0.5-0.3,1.1-0.3,1.5,0.1c2.1,1.9,3.7,5.8,2.7,9.1c-0.1,0.2-0.2,0.4-0.4,0.6c-0.7,0.6-3.8,2.3-8,4.8c-2,1.1-3.9,2.2-4.5,2.6
			C158.3,167.3,158.1,167.3,157.8,167.3z"/>
		<ellipse class="st6" cx="148" cy="169.4" rx="2.4" ry="2.8"/>
		<path class="st6" d="M106.8,191.9c-1.8,0-3.6-0.1-5.4-0.3c-7.6-0.7-14.7-3.2-20.4-7c-5.4-3.7-9.5-8.5-12-14
			c-2.3-5.1-3-10.2-2.2-15.2c0.8-4.5,2.6-8.7,5.5-12.2c5.2-6.6,12.1-10.3,16.8-11.6c0.7-0.2,1.3,0.2,1.5,0.9
			c0.2,0.6-0.2,1.3-0.8,1.5c-4.1,1.1-10.7,4.6-15.5,10.7c-3.4,4.3-8.2,13.2-3,24.9c2.3,5.1,6.2,9.6,11.2,13c5.4,3.7,12,6,19.3,6.6
			c6.7,0.6,13.3,0,18.9-1.7c5.5-1.7,9.6-4.4,11.9-7.8c4.9-7.4,4-15.3,1.5-20.3c-1.9-3.8-6.6-6.2-10.7-8.3c-2.6-1.3-5.1-2.6-6.7-4.1
			c-1.3-1.3-2.6-2.6-3.8-4.1c-2.4-2.7-4.8-5.5-8.6-7.7c-2.9-1.6-7.2-2.2-7.2-2.2c-0.7-0.1-1.1-0.7-1-1.4c0.1-0.6,0.7-1.1,1.4-1
			c0.2,0,4.8,0.7,8.1,2.5c4.2,2.3,6.8,5.3,9.3,8.2c1.1,1.4,2.3,2.6,3.6,3.9c1.4,1.3,3.7,2.4,6.1,3.7c4.5,2.3,9.6,4.8,11.8,9.4
			c2.8,5.6,3.8,14.5-1.7,22.7C129.9,187.8,119.2,191.9,106.8,191.9z"/>
		<path class="st6" d="M130.4,175.4c-0.1,0-0.2,0-0.3,0l-0.4-0.1c-4.5-1-18.4-3.9-27-8.8c-9.2-5.3-22.3-15.6-25.9-20.5
			c-0.4-0.5-0.3-1.3,0.3-1.7c0.5-0.4,1.3-0.3,1.7,0.3l0,0c3.4,4.6,16.4,14.8,25.2,19.9c5.5,3.2,14.4,6.1,26.3,8.6l0.4,0.1
			c0.7,0.1,1.1,0.8,0.9,1.5C131.4,175,130.9,175.4,130.4,175.4L130.4,175.4z"/>
		<path class="st6" d="M75.1,170c-0.7,0-1.2-0.5-1.3-1.2c0-0.7,0.5-1.2,1.2-1.3c7.7-0.4,21.3-3.5,28.5-6.4c7.6-3.1,15.2-7.2,16.5-8
			c0.5-0.4,1.3-0.3,1.7,0.3s0.3,1.3-0.3,1.7c0,0,0,0-0.1,0c-1.5,1-9.2,5.2-16.9,8.3C97,166.5,83.3,169.6,75.1,170L75.1,170z"/>
		<path class="st6" d="M100.2,187.4c-0.6,0-1.2-0.5-1.2-1.1c-0.2-2.2,0.3-16.4,0.4-19.5c0-0.9,0.2-3,0.4-5.7
			c0.5-7.1,1.4-18.9,1.3-23.6c0-0.7,0.5-1.2,1.2-1.2c0,0,0,0,0,0h0c0.7,0,1.2,0.5,1.2,1.2c0,4.7-0.8,16.7-1.3,23.8
			c-0.2,2.6-0.3,4.7-0.4,5.6c-0.2,3.5-0.6,17.2-0.4,19.2C101.4,186.7,100.9,187.3,100.2,187.4L100.2,187.4z"/>
		<path class="st6" d="M99.3,139.4c-0.2,0-0.3,0-0.5-0.1c-1.3-0.6-2.8-0.9-4.3-1c-0.7,0-1.2-0.6-1.2-1.3c0-0.7,0.6-1.2,1.3-1.2
			c1.8,0.1,3.5,0.5,5.1,1.2c0.6,0.3,0.9,1,0.6,1.6C100.2,139.1,99.8,139.4,99.3,139.4z"/>
		<path class="st6" d="M80.8,144.5c-0.7,0-1.2-0.5-1.2-1.2c0-0.3,0.1-0.6,0.4-0.9c1-1,4.1-4.1,8.7-5.7c0.6-0.2,1.3,0.1,1.6,0.7
			c0.2,0.6-0.1,1.3-0.7,1.6c0,0-0.1,0-0.1,0c-4,1.3-6.8,4.1-7.7,5.1C81.4,144.4,81.1,144.5,80.8,144.5z"/>
		<path class="st6" d="M75.1,166.4c-0.5,0-1-0.4-1.2-0.9c-1.9-6.6-0.6-13.2,1.1-16.8c0.3-0.6,1-0.9,1.6-0.6c0.6,0.3,0.8,1,0.6,1.6
			c-1.7,3.5-2.6,9.5-1,15c0.2,0.7-0.2,1.3-0.8,1.5C75.4,166.3,75.3,166.4,75.1,166.4z"/>
		<path class="st6" d="M95.4,184.9c-0.1,0-0.2,0-0.3,0c-6.5-1.6-14.9-7.8-17.4-11.9c-0.4-0.6-0.2-1.3,0.3-1.7
			c0.6-0.4,1.3-0.2,1.7,0.3c0,0,0,0,0,0.1c2.2,3.6,10.2,9.4,15.9,10.8c0.7,0.2,1.1,0.8,0.9,1.5C96.5,184.5,96,184.9,95.4,184.9
			L95.4,184.9z"/>
		<path class="st6" d="M105.2,186.1c-0.6,0-1.3,0-1.9,0c-0.7,0-1.2-0.6-1.2-1.3s0.6-1.2,1.3-1.2c5.8,0.2,11.3-0.6,16-2.2
			c3.7-1.3,6.5-3.4,7.8-4.8c0.5-0.5,1.2-0.5,1.7-0.1c0.5,0.5,0.5,1.2,0.1,1.7c-1.5,1.7-4.7,4.1-8.8,5.5
			C115.8,185.3,110.6,186.1,105.2,186.1z"/>
		<path class="st6" d="M130.8,172.1c-0.1,0-0.1,0-0.2,0c-0.7-0.1-1.1-0.7-1-1.4c0.3-2.2,0.2-5.8-0.9-8.3c-1.3-2.9-4.4-4.5-5.5-4.8
			c-0.7-0.2-1-0.8-0.9-1.5c0.2-0.7,0.8-1,1.5-0.9c1.6,0.4,5.5,2.5,7.1,6.2c1.3,3,1.5,7.1,1.1,9.7
			C131.9,171.6,131.4,172.1,130.8,172.1z"/>
		<path class="st6" d="M116.7,153.3c-0.1,0-0.2,0-0.4-0.1c-5.1-1.5-11.7-10.8-11.8-10.9c-0.4-0.6-0.3-1.3,0.3-1.7
			c0.6-0.4,1.3-0.3,1.7,0.3c1.4,1.9,2.9,3.8,4.6,5.5c3,3.2,4.9,4.2,5.9,4.5c0.6,0.2,1,0.9,0.8,1.5
			C117.7,153,117.2,153.3,116.7,153.3L116.7,153.3z"/>
		<path class="st6" d="M94.8,155.7c-1.8,0-3.5-1-4.4-2.5c-1.2-2-0.4-4.8,1.6-6.2l0,0c1-0.7,2.3-0.8,3.6-0.5c1.5,0.4,2.7,1.4,3.2,2.6
			c1.1,2.3,0.2,5-2.1,6.1c-0.2,0.1-0.4,0.2-0.6,0.2C95.7,155.6,95.3,155.7,94.8,155.7z M93.4,149.1c-0.8,0.6-1.4,1.9-0.8,2.9
			c0.6,1,1.9,1.5,2.8,1.2c0.6-0.2,1.1-0.6,1.3-1.2c0.2-0.6,0.2-1.3-0.1-1.8c-0.2-0.4-0.8-1-1.7-1.3
			C94.6,148.8,93.9,148.7,93.4,149.1L93.4,149.1z"/>
		<path class="st6" d="M85.4,165.2c-0.1,0-0.1,0-0.2,0c-3-0.2-4.5-2.5-4.5-4.7c0-1.2,0.4-2.3,1.2-3.1c0.9-0.8,2.1-1.3,3.3-1.2l0,0
			c2.4,0,4.4,1.9,4.6,4.4c0.1,1.2-0.5,2.5-1.5,3.5C87.5,164.7,86.5,165.2,85.4,165.2z M85,158.6c-0.5,0-1,0.2-1.4,0.5
			c-0.3,0.4-0.5,0.8-0.5,1.3c0,1.5,1.2,2.2,2.3,2.3c0.3,0,0.8-0.2,1.1-0.5c0.5-0.5,0.8-1.2,0.8-1.6C87.2,159.5,86.2,158.6,85,158.6
			L85,158.6L85,158.6z"/>
		<path class="st6" d="M93.7,177.3c-2.2,0-4.2-1.5-4.7-3.6c-0.4-1.2-0.2-2.4,0.4-3.5c0.6-1.1,1.7-1.9,2.9-2.2l0,0
			c2.5-0.7,5,0.7,5.8,3.1c0.4,1.2,0.2,2.7-0.6,3.9c-0.7,1.1-1.6,1.9-2.7,2.1C94.5,177.3,94.1,177.3,93.7,177.3z M93.5,170.3
			c-0.2,0-0.5,0-0.7,0.1l0,0c-0.6,0.1-1.1,0.5-1.4,1c-0.3,0.5-0.3,1.1-0.1,1.6c0.4,1.5,1.9,2,3.1,1.7c0.4-0.1,0.8-0.4,1.1-0.9
			c0.4-0.7,0.5-1.5,0.4-1.9C95.4,171,94.5,170.4,93.5,170.3L93.5,170.3z M92.5,169.2L92.5,169.2z"/>
		<path class="st6" d="M107.2,179c-1.1,0-2.1-0.4-2.9-1.1c-2.2-2.2-1.9-5.1-0.4-6.8c0.8-0.9,1.9-1.5,3.1-1.6
			c1.3-0.1,2.5,0.4,3.5,1.2l0,0c1.9,1.7,2.2,4.6,0.7,6.6c-0.8,1-2.1,1.6-3.6,1.7C107.4,179,107.3,179,107.2,179z M107.3,171.9
			c0,0-0.1,0-0.1,0c-0.6,0-1.1,0.3-1.4,0.8c-1,1.2-0.6,2.7,0.2,3.5c0.3,0.3,0.8,0.4,1.4,0.4c0.8-0.1,1.5-0.4,1.8-0.8
			c0.8-1,0.6-2.4-0.4-3.3C108.4,172.1,107.8,171.9,107.3,171.9L107.3,171.9z"/>
		<path class="st6" d="M116.8,168.8c-1.1,0-2.1-0.4-2.9-1.1c-2.2-2.2-1.9-5.1-0.4-6.8c0.8-0.9,1.9-1.5,3.1-1.6
			c1.3-0.1,2.5,0.4,3.4,1.2l0,0c1.9,1.7,2.2,4.6,0.7,6.6c-0.8,1-2.1,1.6-3.6,1.7C117,168.8,116.9,168.8,116.8,168.8z M116.9,161.7
			h-0.1c-0.6,0-1.1,0.3-1.4,0.8c-1,1.2-0.6,2.7,0.2,3.5c0.3,0.3,0.8,0.4,1.4,0.4c0.8-0.1,1.5-0.4,1.8-0.8c0.8-1,0.6-2.4-0.4-3.3l0,0
			C118,161.9,117.5,161.7,116.9,161.7z"/>
		<path class="st6" d="M107.3,158.5c-1,0-2-0.3-2.7-1c-2-2-1.7-4.7-0.4-6.3c0.7-0.9,1.7-1.4,2.9-1.5c1.2-0.1,2.3,0.4,3.2,1.1l0,0
			c1.8,1.5,2,4.2,0.6,6.1c-0.7,0.9-2,1.5-3.3,1.6C107.5,158.5,107.4,158.5,107.3,158.5z M107.4,152.2L107.4,152.2
			c-0.6,0-1,0.3-1.3,0.6c-0.9,1-0.5,2.2,0.2,2.9c0.2,0.2,0.6,0.3,1.1,0.3c0.7,0,1.3-0.4,1.5-0.6c0.6-0.8,0.5-2-0.3-2.7l0,0
			C108.4,152.4,107.9,152.2,107.4,152.2z"/>
		<path class="st6" d="M100.1,199.5c-13.7,0-25.2-2.3-33.1-6.7c-6.4-3.6-10.5-8.4-11-13.4c-0.8-6.8,4.2-14.4,11.2-17
			c0.6-0.2,1.3,0.1,1.6,0.7c0.2,0.6-0.1,1.3-0.7,1.6c-5.2,1.9-10.3,8.1-9.6,14.4c0.2,2,1.6,7,9.8,11.5c7.6,4.2,18.6,6.4,31.9,6.4
			c13.2,0,24.5-1.2,32.8-3.6c7-2,11.7-4.8,13.3-7.8c1.3-2.5,0.5-3.9,0.5-4l0,0l2.1-1.3c0.2,0.3,1.6,2.6-0.4,6.4
			C144.3,194.7,126.2,199.5,100.1,199.5z"/>
		<path class="st6" d="M145.5,38c-0.4,0-0.7-0.2-0.9-0.4c-2.9-3.5-3.9-8.5-2.8-13.6c0.1-0.7,0.8-1.1,1.5-0.9
			c0.7,0.1,1.1,0.8,0.9,1.5c-0.5,2-1.2,7.3,2.3,11.4c0.4,0.5,0.4,1.3-0.2,1.7C146.1,37.9,145.8,38,145.5,38L145.5,38z"/>
		<path class="st6" d="M156,37.5c-0.3,0-0.7-0.1-0.9-0.4c-2.8-3-4.2-7.5-3.9-12.9c0-0.7,0.6-1.2,1.3-1.2c0.7,0,1.2,0.6,1.2,1.3
			c-0.3,4.7,0.9,8.6,3.2,11.1c0.5,0.5,0.4,1.3,0,1.7C156.6,37.4,156.3,37.5,156,37.5L156,37.5z"/>
		<path class="st6" d="M174.8,40.2c-0.1,0-0.1,0-0.2,0c-4-0.6-7.6-2.8-10-6c-2-2.7-3.3-5.9-3.7-9.3c-0.1-0.7,0.4-1.3,1.1-1.3
			c0.7-0.1,1.2,0.4,1.3,1c1,8.4,6.7,12.3,11.6,13.1c0.7,0.1,1.1,0.7,1,1.4C176,39.8,175.4,40.2,174.8,40.2L174.8,40.2z"/>
		<path class="st6" d="M148.5,51c-0.7,0-1.3-0.6-1.3-1.3l-0.2-2.9c0-0.7,0.5-1.4,1.3-1.4c0.7,0,1.4,0.5,1.4,1.3l0.2,2.9
			C149.9,50.3,149.3,50.9,148.5,51L148.5,51z"/>
		<path class="st6" d="M157,51c-0.7,0-1.3-0.6-1.3-1.3l-0.2-2.9c0-0.7,0.5-1.4,1.3-1.4c0.7,0,1.4,0.5,1.4,1.3l0.2,2.9
			C158.4,50.3,157.9,50.9,157,51L157,51z"/>
	</g>
</g>
</svg>
