<?xml version="1.0" encoding="utf-8"?>
<!-- Generator: Adobe Illustrator 24.3.0, SVG Export Plug-In . SVG Version: 6.00 Build 0)  -->
<svg version="1.1" id="レイヤー_1" xmlns="http://www.w3.org/2000/svg" xmlns:xlink="http://www.w3.org/1999/xlink" x="0px"
	 y="0px" viewBox="0 0 300 200" style="enable-background:new 0 0 300 200;" xml:space="preserve">
<style type="text/css">
	.st0{fill:#FFFFFF;}
	.st1{fill:#E2DDD2;}
	.st2{fill:#325D7F;}
	.st3{fill:#040000;}
</style>
<g>
	<g id="塗り">
		<path class="st0" d="M151.5,128.6l-52.9,5.1V14.4l82-5.8l-0.5,23.6c0,0,3.5-1.4,10.9,0.8s11.4,7.8,14.3,14.9
			c2.8,7.1,0.2,16.8-0.2,19.7c-0.4,2.9,0.2,6.5,1.5,8.2s0.9,3.8,0.4,6.3s1,3.7,1,3.7c-3.7,1-7.5,1.7-11.3,2.1
			C190.8,88.3,151.5,128.6,151.5,128.6z"/>
		<path class="st1" d="M166.9,159.1c4.6,1.5,12.3,2.7,17.5,2.9c-1,6.7-2.5,17.3-2.5,17.3s-11.9-0.1-18.7-2.9
			C163.5,173.2,166.1,161.2,166.9,159.1z"/>
		<path class="st1" d="M153,128.4l-54.5,5.3V14.4l82-5.8l-0.5,23.6c0,0,4-0.9,6.4-0.6V2.4L92.3,8.6v131.8l60.7-6.1
			c0,0-2.1-1.5-2.2-2.4C151.5,130.5,153,128.4,153,128.4z"/>
		<path class="st2" d="M163.3,84.7c-2-2.1-7.7-6-9.9-6.5c0.4-2.5,0.9-4.7,0.9-4.7s-2.9,0.1-3.8,0.7c-0.9,0.6-1.6,1.1-2.1,1
			c-0.5-0.1-2.1-2.4-5.2-2.2c-3.1,0.1-4.6,2.3-5.4,2.4c-0.8,0.1-3.4-2.1-5.8-1.1l1.1,4.1c0,0-7.9,2.8-11.6,6.5
			c-3.7,3.7-11.3,19.8-12.3,24.5c-1,4.7-1.1,7.6-0.5,8.9c0.6,1.3,2.2,3.2,2.2,3.2l-2.1,3.9c0,0,1.3,1.7,3.2,2.1c1.9,0.4,3-0.3,5,0.4
			c1.6,0.5,2.8,1.8,3.3,3.4c2.4-0.3,31.2-3.1,31.2-3.1s-2.4-2.8-2.6-6.2c-0.2-3.5,9.1-20.6,10.6-23c1.5-2.4,5.6-9,7-10.1
			c-4-0.2-6.1-0.9-6.1-0.9S163.5,86.9,163.3,84.7z"/>
		<path class="st2" d="M166.6,89.1c8.5,0.2,21.9-0.3,30-1.4c1.8,6.8,8.8,44.3,8.3,52.7c-0.5,8.4-4.7,10.2-4.7,10.2l3.6,5
			c0,0-3.8,2.9-5.9,2.6c-2.1-0.3-5.2-1.9-6.4-2.4c-1.3-0.4-4.1,3.1-7.5,2.4c-3.3-0.7-5.6-4-7.1-4.2c-1.4-0.2-3.3,2.6-9.1,1.2
			c1.1-4.4,4-16.8,4-16.8s-2.8-3.5-3.8-3.5c-1.1,0-4,2.8-7,1.6c-3-1.2-2.8-3-3.6-3.3c-0.8-0.3-5.9,3-8.2-1.3
			c0.4-1.6,2.4-3.3,2.4-3.3s-3.4-3.8-2.5-7.8S159.5,96.8,166.6,89.1z"/>
		<path class="st0" d="M171.7,138.4l-8.4,35.8c0,0,0.5,5.7,0.3,8.5c-0.3,2.7-0.9,5.6-0.7,7.7c0.2,2.2,0.7,5.5,0.4,6.3
			s-1.9,0.9-2.7,0.6c-1.5,0.6-3.6-1.1-3.6-1.1s-1.9,0.5-3.8-1.2c-1.9-1.7-1.8-4.8-1.8-4.8s-2.9-0.4-3.4-6.4
			c-0.5-6,4.3-11.1,4.3-11.1l4.3-39.4c0,0,1-0.4,2,1.1c1,1.5,2.7,2.5,4.1,2.5c1.4,0,4.3-1.9,4.9-1.9
			C168.2,135,170.5,138.1,171.7,138.4z"/>
	</g>
	<g id="線画">
		<path class="st3" d="M161.2,75.5c-0.3,0-0.5-0.1-0.7-0.3c-3.3-3.1-4-10.2-3.2-13.9c0.1-0.5,0.6-0.9,1.2-0.8
			c0.5,0.1,0.9,0.6,0.8,1.2l0,0c-0.7,3.2,0,9.5,2.6,12c0.4,0.4,0.4,1,0,1.4C161.7,75.4,161.5,75.5,161.2,75.5z"/>
		<path class="st3" d="M160.5,89.2c-0.6,0-1-0.5-1-1c0-0.4,0.3-0.8,0.7-0.9c2.2-0.8,2.6-2.3,2.4-4.3c0-0.7-0.4-1.2-0.9-1.8
			c-0.6-0.8-1.4-1.9-1.4-3.7c0-1,0.3-2,0.7-3.1c0.6-1.8,1.2-3.7,0.3-6.1c-1.4-3.7-2-10.6-1.6-13.8c0.1-0.6,0.6-0.9,1.1-0.9
			c0.6,0.1,0.9,0.6,0.9,1.1l0,0c-0.4,3,0.2,9.5,1.5,12.8c1.2,3,0.4,5.5-0.2,7.4c-0.3,0.9-0.6,1.8-0.6,2.5c0,1.1,0.4,1.7,1,2.5
			c0.6,0.7,1.2,1.6,1.3,2.9c0.1,2.1-0.1,4.9-3.8,6.3C160.7,89.2,160.6,89.2,160.5,89.2z"/>
		<path class="st3" d="M161.2,65.4c-0.2,0-0.5-0.1-0.7-0.2l-0.1-0.1c-1.9-1.7-5.2-4.5-5.6-10.8c-0.5-7.2,5.2-18.7,17-20.9
			c0.5-0.1,1.1,0.3,1.2,0.8c0.1,0.5-0.3,1.1-0.8,1.2c-6.2,1.1-9.9,4.9-11.9,7.9c-2.8,4.1-3.6,8.3-3.4,10.9c0.4,5.5,3,7.7,4.9,9.4
			l0.1,0.1c0.4,0.4,0.5,1,0.1,1.4C161.8,65.3,161.5,65.4,161.2,65.4L161.2,65.4z"/>
		<path class="st3" d="M174,89.7c-0.6,0-1-0.4-1-1c0-0.3,0.2-0.7,0.5-0.8c1.5-1,2.4-2.6,2.5-4.3c0.1-1.8-1.1-3.5-2.2-5.2
			c-0.4-0.6-0.8-1.2-1.2-1.8c-1.6-2.8-0.6-6.9,0.9-9.8c0.2-0.5,0.8-0.7,1.3-0.5c0.5,0.2,0.7,0.8,0.5,1.3c0,0,0,0,0,0
			c-1.3,2.5-2,6-0.9,7.9c0.3,0.5,0.7,1.1,1.1,1.7c1.3,1.9,2.7,4,2.5,6.4c-0.2,2.4-1.4,4.6-3.4,5.9C174.4,89.6,174.2,89.7,174,89.7z"
			/>
		<path class="st3" d="M188.4,88.8c-0.6,0-1-0.5-1-1c0-0.2,0.1-0.4,0.2-0.5c1-1.6,1.2-3.8,0.5-6c-0.4-1.4-1.1-2.1-2-3.1
			c-0.7-0.8-1.4-1.7-2-2.6c-2-3.4-0.6-8.2-0.1-9.5c0.2-0.5,0.8-0.8,1.3-0.6c0.5,0.2,0.8,0.8,0.6,1.3c-0.9,2.4-1.3,5.7-0.1,7.8
			c0.5,0.8,1.1,1.6,1.7,2.3c0.9,1,1.8,2,2.4,3.8c0.9,2.7,0.6,5.6-0.8,7.7C189.1,88.7,188.8,88.8,188.4,88.8z"/>
		<path class="st3" d="M199.5,87.7c-0.2,0-0.3,0-0.5-0.1c-0.5-0.2-0.7-0.9-0.5-1.4c0.4-0.9,1.4-2.7,0.7-5.4c-0.3-1.2-1-1.9-1.8-2.8
			c-0.7-0.8-1.6-1.8-2.2-3.2c-0.8-2-1.4-5.7,0-9.4c0.2-0.5,0.8-0.8,1.3-0.6c0.5,0.2,0.8,0.8,0.6,1.3c-1.1,3.1-0.7,6.2,0,7.9
			c0.5,1.1,1.1,1.8,1.8,2.6c0.9,1,1.8,2,2.2,3.6c0.9,3.4-0.3,5.8-0.8,6.8C200.2,87.5,199.9,87.7,199.5,87.7z"/>
		<path class="st3" d="M207.9,86.7c-0.3,0-0.5-0.1-0.7-0.3c-1.8-1.7-1.4-3.5-1.1-5.1c0.2-1,0.5-2.1,0.3-3.3c-0.2-0.9-0.5-1.6-1-2.3
			c-0.7-1.1-1.4-2.3-1.6-4.5c-0.2-2.3,0.3-4.4,0.8-6.8c0.5-2.2,0.9-4.4,1.1-6.7c0.4-5-1.9-17-11.4-22.3c-7.9-4.4-15.1-3-17.8-1.7
			c-0.5,0.3-1.1,0.1-1.4-0.4c-0.3-0.5-0.1-1.1,0.4-1.4c0,0,0,0,0.1,0c3-1.5,11.1-3.1,19.7,1.7c5.6,3.1,8.6,8.2,10.1,11.9
			c2,4.8,2.5,9.5,2.3,12.3c-0.2,2.3-0.6,4.7-1.1,7c-0.5,2.3-0.9,4.2-0.8,6.2c0.1,1.7,0.7,2.7,1.3,3.7c0.5,0.9,1.1,1.7,1.3,3.1
			c0.3,1.6,0,3-0.3,4c-0.4,1.6-0.5,2.3,0.5,3.1c0.4,0.4,0.4,1,0.1,1.4C208.5,86.6,208.2,86.7,207.9,86.7L207.9,86.7z"/>
		<path class="st3" d="M174.3,139.9c-0.7,0-1.5-0.1-2.2-0.3c-1.8-0.4-2.8-1.7-3.6-2.6c-0.2-0.3-0.5-0.5-0.8-0.8
			c-0.2,0.1-0.5,0.3-0.7,0.4c-1.1,0.7-2.7,1.6-5.1,1.2c-2.7-0.5-3.6-2-4.2-2.9c-0.2-0.3-0.4-0.6-0.5-0.7s-0.8,0.2-1.3,0.4
			c-1,0.4-2.4,0.9-4,0.6c-3.1-0.6-3.8-3-3.9-3.2c-0.1-0.3,0-0.7,0.2-0.9c0,0,0.7-0.9,2-2.6c-1.3-1.5-2.6-4-2.2-8
			c0.2-2.6,4-10.2,7.5-16.3c3.5-6.2,7.9-13.3,10-14.9c0.4-0.3,1.1-0.3,1.4,0.2s0.3,1.1-0.2,1.4l0,0c-1.5,1.2-5.4,7-9.5,14.3
			s-7,13.7-7.2,15.5c-0.3,3,0.5,5.4,2.2,6.9c0.4,0.4,0.4,0.9,0.1,1.3c-1,1.4-1.8,2.4-2.2,2.9c0.5,0.7,1.2,1.2,2.1,1.3
			c1,0.2,1.9-0.2,2.8-0.5c0.9-0.4,1.9-0.8,2.8-0.3c0.7,0.3,1.1,0.9,1.4,1.5c0.5,0.8,1,1.7,2.8,2c1.7,0.3,2.7-0.3,3.7-0.9
			c0.7-0.4,1.3-0.8,2.1-0.7c0.8,0.1,1.3,0.7,2,1.5c0.7,0.8,1.5,1.7,2.6,2c1,0.2,2.1,0.3,3.1,0.1l-1-3.6c-0.1-0.5,0.2-1.1,0.7-1.2
			c0.1,0,0.2,0,0.3,0h0c0.2,0,4.4-0.1,6.1-5.6c2-6.1,1.4-24.9,0-27.8c-0.2-0.5,0-1.1,0.5-1.3c0.5-0.2,1.1,0,1.3,0.5
			c1.7,3.7,2.1,23,0,29.3c-1.6,5-4.9,6.5-6.8,6.9l1,3.5c0.1,0.5-0.1,1-0.6,1.2C176.3,139.7,175.3,139.9,174.3,139.9z"/>
		<path class="st3" d="M184.3,159.6c-0.3,0-0.6,0-0.9,0c-3-0.3-4.2-1.8-5-2.9c-0.5-0.7-0.8-1-1.3-1.1c-0.9-0.2-1.6,0.2-2.6,0.6
			c-1.4,0.7-3.2,1.5-6.3,0.6c-0.5-0.2-0.8-0.7-0.7-1.3c0.2-0.5,0.7-0.8,1.2-0.7c2.4,0.7,3.6,0.1,4.9-0.5c1-0.5,2.2-1,3.8-0.8
			c1.2,0.2,1.9,1.1,2.5,1.8c0.8,1,1.5,1.9,3.6,2.1c2.3,0.2,3.5-0.6,4.6-1.4c0.8-0.6,1.6-1.2,2.7-1.3c1.6-0.1,2.5,0.5,3.3,1.1
			c0.8,0.6,1.7,1,2.7,1.2c2.9,0.5,4.5-1,5.2-1.8l-2.8-4c-0.2-0.2-0.2-0.5-0.2-0.8c0.1-0.3,0.2-0.5,0.4-0.7c0,0,3.9-2.6,4.4-7.7
			c0.5-5.7-5.3-47.5-8.1-53.6c-0.2-0.5,0-1.1,0.5-1.3c0.5-0.2,1.1,0,1.3,0.5c2,4.5,4.7,22.4,5.5,27.7c1.5,10.7,3.1,23.7,2.8,26.9
			c-0.3,3.3-1.9,6.3-4.4,8.5l2.7,3.8c0.2,0.3,0.2,0.7,0.1,1.1c-0.8,1.5-3.4,4.1-7.6,3.4c-1.3-0.2-2.5-0.7-3.5-1.5
			c-0.7-0.5-1.1-0.8-2-0.7c-0.5,0-1,0.4-1.6,0.9C188.2,158.5,186.8,159.6,184.3,159.6z"/>
		<path class="st3" d="M161.4,198.5c-0.9,0-1.8-0.5-2.3-1.5c-1.1-2-1.8-7.1-1.9-11c0-0.6,0.4-1,0.9-1.1h0c0.5,0,1,0.4,1,0.9
			c0.2,4.3,0.9,8.8,1.7,10.2c0.2,0.3,0.4,0.4,0.6,0.4c0.2,0,0.4-0.2,0.4-0.4c0.1-0.5,0-1.5-0.1-2.5c-0.1-0.9-0.2-1.8-0.2-2.8
			c-0.1-1.6,0.2-3.3,0.5-5.1c0.1-0.6,0.2-1.2,0.3-1.9c0.2-1.3,0.1-3.3,0-5.2c-0.1-1.7-0.1-3.3,0-4.4c0.2-1.7,4.2-18.2,7.6-32.3
			c0.4-1.5,0.7-2.7,0.8-3.3c0.1-0.5,0.7-0.9,1.2-0.7s0.9,0.7,0.7,1.2c-0.1,0.6-0.4,1.7-0.8,3.3c-2,8.3-7.4,30.3-7.6,32.1
			c-0.1,0.9,0,2.4,0,4.1c0.1,2,0.2,4,0,5.5c-0.1,0.7-0.2,1.3-0.3,1.9c-0.3,1.8-0.5,3.3-0.4,4.8c0,0.9,0.1,1.8,0.2,2.6
			c0.1,1.2,0.2,2.2,0.1,2.9c-0.1,1.1-1,2-2.1,2.2C161.7,198.5,161.6,198.5,161.4,198.5z"/>
		<path class="st3" d="M159.4,198.6c-0.8,0-1.7-0.3-2.3-0.8c-1.3-1.1-2.3-3.2-3-6.3c-0.4-2.2-0.6-4.4-0.7-6.7c0-0.6,0.5-1,1-1
			c0.6,0,1,0.5,1,1c0,3.7,0.8,9.7,2.9,11.4c0.4,0.4,1,0.5,1.5,0.3c0.5-0.1,1.1,0.2,1.2,0.8c0.1,0.5-0.2,1.1-0.8,1.2l0,0
			C160,198.6,159.7,198.6,159.4,198.6z"/>
		<path class="st3" d="M156.7,197.7c-1.4,0-2.8-0.6-3.8-1.7c-3.4-3.6-3.3-11.9-3.1-13.9c0.1-0.6,0.6-1,1.1-0.9
			c0.6,0.1,1,0.6,0.9,1.1c0,0,0,0,0,0c-0.2,2-0.1,4,0.2,6c0.4,2.9,1.2,5.1,2.3,6.3c0.6,0.7,1.5,1.1,2.5,1c0.6-0.1,1,0.4,1.1,0.9
			c0.1,0.6-0.4,1-0.9,1.1c0,0-0.1,0-0.1,0C156.9,197.7,156.8,197.7,156.7,197.7z"/>
		<path class="st3" d="M151.4,191.4c0,0-0.1,0-0.1,0c-2.1-0.3-4.3-3.5-4.3-8.3c0-5.3,2.6-8.7,4.2-10.7l0.1-0.1
			c0.3-3.6,3.2-34.1,4.3-38.8c0.1-0.5,0.7-0.9,1.2-0.7s0.9,0.7,0.7,1.2c-1.1,4.8-4.3,38.5-4.3,38.8c0,0.2-0.1,0.4-0.2,0.5l-0.3,0.3
			c-1.5,1.9-3.8,4.8-3.8,9.4c0,4.1,1.8,6.2,2.5,6.3c0.6,0.1,0.9,0.6,0.9,1.1C152.3,191.1,151.9,191.4,151.4,191.4L151.4,191.4z"/>
		<path class="st3" d="M182,180.3L182,180.3c-0.5,0-11.2-0.1-19-2.7c-0.5-0.2-0.8-0.7-0.6-1.3c0.2-0.5,0.7-0.8,1.3-0.6
			c6.3,2.1,14.8,2.5,17.5,2.6l2-14.3c0,0,0,0,0,0c7.2-43.2,3.7-69,1-74.2c-0.3-0.5-0.1-1.1,0.4-1.4c0.5-0.3,1.1-0.1,1.4,0.4l0,0
			c2.2,4.1,3.2,15.3,3.4,23.5c0.3,10.5-0.3,28-4.2,51.9l-2.1,15.2C182.9,179.9,182.5,180.3,182,180.3z"/>
		<path class="st3" d="M183.9,163.2c-4.4,0-14.8-1.7-17.3-2.7c-0.5-0.2-0.8-0.8-0.6-1.3c0.2-0.5,0.8-0.8,1.3-0.6l0,0
			c2.1,0.8,12.3,2.6,16.6,2.6c0.6,0,1,0.5,1,1C184.9,162.7,184.5,163.2,183.9,163.2L183.9,163.2z"/>
		<path class="st3" d="M139.2,70.4c-0.3,0-0.7,0-1,0c-6.3-0.2-11.4-2.3-14-5.9c-4-5.5-2.1-13-0.6-17c0.2-0.5,0.8-0.8,1.3-0.6
			s0.8,0.8,0.6,1.3c-1.1,2.9-3.2,10.2,0.4,15.1c4.7,6.4,19.2,6.8,28.4,0.8c0.5-0.3,1.1-0.2,1.4,0.2c0.3,0.5,0.2,1.1-0.2,1.4
			c0,0,0,0-0.1,0C150.8,68.7,145,70.4,139.2,70.4z"/>
		<path class="st3" d="M138.1,75.5c-0.6,0-1-0.5-1-1l0,0v-4.9c0-0.6,0.5-1,1-1c0.6,0,1,0.5,1,1v4.9C139.1,75,138.7,75.5,138.1,75.5z
			"/>
		<path class="st3" d="M149.9,75.7c-0.6,0-1-0.5-1-1v-7.2c0-0.6,0.5-1,1-1s1,0.5,1,1v7.2C150.9,75.3,150.4,75.7,149.9,75.7
			L149.9,75.7z"/>
		<path class="st3" d="M132.4,51.1c-0.3,0-0.5-0.1-0.7-0.3c-3.6-3.5-2.3-10-2-11.3c0.1-0.5,0.7-0.9,1.2-0.8c0.5,0.1,0.9,0.7,0.8,1.2
			c-0.7,3-0.7,7.2,1.5,9.4c0.4,0.4,0.4,1,0,1.4c0,0,0,0,0,0C132.9,51,132.7,51.1,132.4,51.1z"/>
		<path class="st3" d="M142.4,51.1c-0.2,0-0.4-0.1-0.6-0.2c-3.3-2.3-4.2-7.4-4-11.2c0-0.6,0.5-1,1.1-1c0.6,0,1,0.5,1,1.1
			c-0.2,3.5,0.7,7.8,3.1,9.4c0.5,0.3,0.6,0.9,0.3,1.4C143,50.9,142.7,51.1,142.4,51.1z"/>
		<path class="st3" d="M152.9,51.1c-0.2,0-0.4,0-0.5-0.1c-4.1-2.4-5.4-6.7-6.2-11c-0.1-0.5,0.3-1.1,0.8-1.2c0.5-0.1,1.1,0.3,1.2,0.8
			c0.7,3.8,1.8,7.6,5.2,9.6c0.5,0.3,0.6,0.9,0.4,1.4C153.6,50.9,153.3,51.1,152.9,51.1L152.9,51.1z"/>
		<path class="st3" d="M161.9,36.2c-0.3,0-0.6-0.2-0.8-0.4c-4.5-6.7-11.5-8-14.2-8.2c-0.6-0.1-1-0.5-0.9-1.1
			c0.1-0.5,0.5-0.9,1.1-0.9c3.1,0.3,10.7,1.6,15.7,9.1c0.3,0.5,0.2,1.1-0.3,1.4C162.3,36.2,162.1,36.2,161.9,36.2L161.9,36.2z"/>
		<path class="st3" d="M117.1,83.4c-0.6,0-1-0.4-1-1c0-0.4,0.2-0.7,0.6-0.9c0.9-0.4,1.9-1.7,1.6-3.5c-0.1-0.7-0.4-1.1-0.8-1.6
			c-0.5-0.7-1.2-1.6-1.4-3.3c-0.1-1.3,0.1-2.7,0.7-3.9c0.3-0.8,0.6-1.3,0.5-2.3c-0.1-1-0.4-1.7-0.9-2.5c-0.5-0.8-0.8-1.7-1.1-2.6
			c-0.7-2-3.7-12.6,3.7-24.3c7.3-11.6,19.2-12.5,22.6-12.5l0,0c0.6,0,1,0.5,1,1c0,0.6-0.5,1-1,1l0,0c-3.2,0-14.2,0.8-20.9,11.5
			c-6.9,10.9-4.1,20.7-3.5,22.6c0.3,0.8,0.6,1.5,1,2.2c0.5,0.9,1,1.8,1.1,3.3c0.2,1.5-0.3,2.5-0.6,3.4c-0.4,0.9-0.7,1.5-0.6,2.9
			c0.1,1.1,0.5,1.6,1,2.3c0.6,0.7,1,1.5,1.2,2.4c0.5,2.6-1,4.9-2.7,5.7C117.4,83.4,117.2,83.4,117.1,83.4z"/>
		<path class="st3" d="M125.5,80.2c-0.6,0-1-0.5-1-1c0-0.3,0.1-0.6,0.3-0.7c1.1-1,0.5-2.7,0.1-3.6c-0.9-1.9-1-4,0-5.7
			c0.3-0.5,0.9-0.7,1.4-0.4c0.5,0.3,0.7,0.9,0.4,1.4c0,0,0,0,0,0c-0.6,1.1-0.6,2.5,0.1,3.9c1.2,2.4,1,4.6-0.6,6
			C125.9,80.1,125.7,80.2,125.5,80.2z"/>
		<path class="st3" d="M119.5,130.9c-0.3,0-0.7-0.2-0.9-0.5c-0.8-1.2-2-1.7-4.2-1.6c-5.3,0.2-6.5-2.2-6.7-2.4
			c-0.1-0.3-0.1-0.6,0-0.9c0-0.1,0.8-1.4,2-3.5c-2.2-2.3-2.7-4.4-2.7-7.7c0-1.9,1.4-6.6,3.5-11.8c2.4-5.9,5.2-11.3,7.8-14.8
			c3.4-4.6,8.1-8.1,13.5-9.9l-0.8-3.1c-0.1-0.5,0.1-1,0.6-1.2c0.2-0.1,2-0.9,3.5-0.4c0.6,0.2,1.1,0.5,1.6,0.9
			c0.5,0.3,0.7,0.5,1.1,0.5l0,0c0.1,0,0.5-0.3,0.8-0.5c0.9-0.7,2.2-1.8,4.6-1.8c2.6,0,3.9,1.2,4.7,1.9c0.1,0.1,0.3,0.2,0.4,0.3
			c0.3,0,0.5-0.1,1-0.4c0.9-0.6,2-1.5,4.9-1.2c0.6,0,1,0.5,0.9,1.1c0,0,0,0.1,0,0.1c-0.2,1.1-0.5,2.8-0.6,3.8
			c1.3,0.6,4.2,2.1,6.4,4.3c0.4,0.4,0.4,1,0,1.4c-0.4,0.4-1,0.4-1.4,0l0,0c-2.7-2.7-6.5-4.2-6.5-4.2c-0.4-0.2-0.7-0.6-0.6-1.1
			c0-0.1,0.3-1.9,0.5-3.5c-0.9,0-1.7,0.3-2.4,0.9c-0.6,0.4-1.3,0.9-2.5,0.8c-0.6-0.1-1-0.5-1.5-0.8c-0.7-0.6-1.5-1.4-3.4-1.4
			c-1.7,0-2.5,0.7-3.3,1.4c-0.6,0.5-1.2,1.1-2.1,1c-1,0-1.7-0.5-2.2-0.8c-0.3-0.3-0.7-0.5-1.1-0.6c-0.4-0.1-0.9-0.1-1.3,0l0.8,3.2
			c0.1,0.5-0.2,1.1-0.7,1.2c0,0,0,0,0,0c-0.1,0-7.9,2-13.3,9.5c-5.6,7.7-10.8,22.1-10.8,25.4c0,3.5,0.5,4.9,2.6,6.8
			c0.4,0.3,0.4,0.9,0.2,1.3c-0.9,1.5-1.7,2.7-2,3.4c0.5,0.4,1.8,1.1,4.5,0.9c1.8-0.1,4.4,0.1,6,2.5c0.3,0.5,0.2,1.1-0.3,1.4
			C119.9,130.8,119.7,130.9,119.5,130.9L119.5,130.9z"/>
		<path class="st3" d="M120.4,132.4L120.4,132.4c-0.6,0-1-0.5-1-1.1c0,0,0,0,0,0c0.4-5.7,1.7-20.5,2.9-27.1c0.1-0.5,0.6-0.9,1.2-0.8
			c0.5,0.1,0.9,0.6,0.8,1.2c-1.2,6.5-2.6,21.1-2.9,26.8C121.4,132,120.9,132.4,120.4,132.4z"/>
		<path class="st3" d="M98.3,134.7c-0.3,0-0.5-0.1-0.7-0.3c-0.2-0.2-0.3-0.5-0.3-0.7V14.4c0-0.5,0.4-1,0.9-1l82-5.8
			c0.6,0,1,0.4,1.1,0.9c0,0,0,0,0,0.1v22.9c0,0.6-0.5,1-1,1c-0.6,0-1-0.5-1-1V9.7l-80,5.7v117.3l51.9-5.1c0.6-0.1,1,0.4,1.1,0.9
			c0.1,0.6-0.4,1-0.9,1.1L98.3,134.7C98.4,134.7,98.3,134.7,98.3,134.7z"/>
		<path class="st3" d="M92.1,141.4c-0.6,0-1-0.5-1-1l0,0V8.6c0-0.5,0.4-1,0.9-1l94.2-6.2c0.6,0,1,0.4,1.1,0.9c0,0,0,0,0,0.1v29.1
			c0,0.6-0.5,1-1,1s-1-0.5-1-1v-28L93.1,9.5v129.8l58.7-6.1c0.6-0.1,1,0.3,1.1,0.9c0.1,0.6-0.3,1-0.9,1.1l-59.8,6.2
			C92.1,141.4,92.1,141.4,92.1,141.4z"/>
		<path class="st3" d="M136.2,58.1c-0.6,0-1-0.5-1-1l0,0v-2c0-0.6,0.5-1,1-1c0.6,0,1,0.5,1,1v2C137.3,57.6,136.8,58.1,136.2,58.1
			L136.2,58.1z"/>
		<path class="st3" d="M143.5,58.1c-0.6,0-1-0.5-1-1l0,0v-2c0-0.6,0.5-1,1-1s1,0.5,1,1v2C144.5,57.6,144.1,58.1,143.5,58.1
			L143.5,58.1z"/>
		<path class="st3" d="M110.7,133c-0.1,0-0.1,0-0.2,0c-0.5-0.1-0.9-0.6-0.8-1.2c0,0,0,0,0,0l0.6-3.9c0.1-0.5,0.6-0.9,1.2-0.8
			c0.5,0.1,0.9,0.6,0.8,1.1l-0.6,3.9C111.6,132.7,111.2,133,110.7,133z"/>
		<path class="st3" d="M126.9,131.6L126.9,131.6c-0.6,0-1-0.5-1-1.1c1.5-18.6,3-41.1,1.5-49.4c-0.1-0.5,0.3-1.1,0.8-1.2
			c0.5-0.1,1.1,0.3,1.2,0.8l0,0c1.6,8.6,0.1,31.2-1.4,49.9C127.8,131.2,127.4,131.6,126.9,131.6z"/>
	</g>
</g>
</svg>
