<?xml version="1.0" encoding="utf-8"?>
<!-- Generator: Adobe Illustrator 24.3.0, SVG Export Plug-In . SVG Version: 6.00 Build 0)  -->
<svg version="1.1" id="レイヤー_1" xmlns="http://www.w3.org/2000/svg" xmlns:xlink="http://www.w3.org/1999/xlink" x="0px"
	 y="0px" viewBox="0 0 200 200" style="enable-background:new 0 0 200 200;" xml:space="preserve">
<style type="text/css">
	.st0{fill:#D7A527;}
	.st1{fill:#CA5918;}
	.st2{fill:#E0A91F;}
	.st3{fill:#FFFFFF;}
	.st4{fill:#040000;}
	.st5{fill:#E83D19;}
	.st6{fill:#22211F;}
</style>
<g>
	<g id="塗り_1_">
		<path class="st0" d="M27.9,80c-0.8,1.8-1.7,4.5-0.3,7.3c1.8,0.3,5.2,0.7,5.2,0.7l-0.2,46.3l-4.3-0.2c-1.1,2.6-1.2,5.5-0.2,8.1
			c2.9,0.8,7.3,1.1,8,1.1c0.7,0,2.4-0.3,2.4-3.4V84.9c0-1.8-1.2-3.8-2.5-4C34.8,80.7,27.9,80,27.9,80z"/>
		<path class="st1" d="M147.5,63.2c-2.5,0-6.9,0.7-10.3,4.5c-2.5,2.8-4.5,7.3-7.9,15.9c-3.4,8.6-5.8,13.5-5.8,19.8
			c0,6.3,6.7,8.7,6.7,8.7s-1.7,34.1-2.1,35.4c-0.4,1.4-4.1,10.2-5,12.8c1.4,2.3,5.6,2,7.4,1.7c1.7-0.3,5.7-0.3,7.9,1.3
			c2.2,1.6,7.5,3.3,10.7-1.4c-1.4-5.1-3.3-13.3-3.3-13.3l0.6-4.9c0,0,12.8,0.2,15,0c0.5,7.9,0.8,24.3-1.1,27
			c-1.9,2.7-15.2,1.6-15.2,1.6s0.4,11.6,0.4,12.6c0.1,1.6-2.5,2.4-2.9,1.6c-1.4,1.3-2.9,1.5-3.9,0.9c-1.1,1.1-3.8,1.1-4.2-0.1
			c-1.1,0.5-2.7,0.2-4.9-3.4c-2.1-3.6-3.1-10.2-3.4-12.8c-0.8,0-1.6-0.1-2.3-0.2c0,0-4.6,22.4-4.1,24.7c9.5,5.5,56.3,3.2,64.4-1.6
			c-1.2-5-16.6-67.4-16.7-67.6c1.2-1.7,7.2-10.4,7.4-15.2s-0.4-12.6-1.4-18.5c-0.9-5.9-4.1-24.6-4.1-24.6s-15.7,2.4-23.9,2.2
			C146.9,68.4,148.2,65.2,147.5,63.2z"/>
		<path class="st2" d="M145,172.3c3.2,0,13.3,1.1,15.2-1.6c1.9-2.7,1.8-23.3,1.1-27c-3.3,0.1-15,0-15,0l-0.6,4.9l3.4,13.3
			c0,0-0.8,1.9-4.4,3C144.9,167.8,145,172.3,145,172.3z"/>
		<path class="st2" d="M128.5,143.2l-5.6-1.1c0,0-2.8,22-1.6,26c1.2,4,5,3.1,5,3.1s0.8-7,1.2-8.8c-1.7-0.5-4-1.3-4.3-2.1
			c-0.4-0.8,5-12.8,5-12.8L128.5,143.2z"/>
		<path class="st3" d="M123.9,36.7c-3.6-6.8-2.3-14.3,0.4-18c2.7-3.7,8.8-11.3,16.6-13.6s15.5-3.5,25.8,3s11.9,17.8,12.3,22.4
			c0.4,4.6-0.6,11.9-2.2,16.7c-1.6,4.8-1.8,7.1-1.3,8.8s2.3,6,2.6,7.2s-0.5,3.5-0.5,3.5s-15.2,4.6-31.9,3.8c2.1-2.7,3.2-5.1,1.9-7.2
			c-1.2-2.2-3.4-5.3-1-10.9c-4.4,3.1-13.9,1.9-17.3-1C125.9,48.3,123.6,44.1,123.9,36.7z"/>
		<path class="st3" d="M127.4,162.4c-0.9,6.1-0.9,12.7,0,15.8c0.9,3.1,3.1,10,7,9.2c1.6,1.3,3.1,1.2,4.1,0.4c2,0.9,3.7-0.4,4-1.2
			c2.2,1.4,2.9-1.3,3-3.5c0.1-2.8-0.9-18.2-0.9-18.2s-2.2,0.4-3.9-0.4c-1.7-0.8-3.1-2.4-6-2.5C131.8,161.8,129.3,162.7,127.4,162.4z
			"/>
		<polygon class="st3" points="52.4,18.6 52.1,86.5 98.3,74.3 98.3,8.2 		"/>
	</g>
	<g id="線画_1_">
		<path class="st4" d="M51.8,87.7c-0.6,0-1.1-0.5-1.1-1.1V18.8c0-0.5,0.3-0.9,0.8-1.1L97.4,6.9c0.6-0.1,1.2,0.2,1.3,0.8
			c0.1,0.6-0.2,1.2-0.8,1.3l-45,10.6v65.6l44.3-11.7V12.3c0-0.6,0.5-1.1,1.1-1.1s1.1,0.5,1.1,1.1v62.1c0,0.5-0.3,0.9-0.8,1
			L52.1,87.7C52,87.7,51.9,87.7,51.8,87.7z"/>
		<path class="st4" d="M65.5,24.6c-0.6,0-1.1-0.5-1.1-1.1c0-0.5,0.3-0.9,0.8-1.1l20.1-4.9c0.6-0.2,1.2,0.2,1.3,0.7
			c0.2,0.6-0.2,1.2-0.7,1.3c0,0-0.1,0-0.1,0l-20.1,4.9C65.7,24.6,65.6,24.6,65.5,24.6z"/>
		<path class="st4" d="M65.5,28.7c-0.6,0-1.1-0.5-1.1-1.1c0-0.5,0.3-0.9,0.8-1.1l20.1-4.9c0.6-0.1,1.2,0.2,1.3,0.8s-0.2,1.2-0.8,1.3
			l0,0l-20.1,4.9C65.7,28.7,65.6,28.7,65.5,28.7z"/>
		<path class="st4" d="M63.7,57c-0.6,0-1.1-0.5-1.1-1.1c0-0.3,0.2-0.7,0.4-0.9l17-12.5c0.3-0.2,0.7-0.3,1.1-0.1
			c3.5,1.7,7.2,6.1,7.4,6.3c0.2,0.3,0.3,0.7,0.2,1c-0.1,0.4-0.4,0.6-0.8,0.7L64,56.9C63.9,57,63.8,57,63.7,57z M80.9,44.7l-11.8,8.6
			l16.8-4.5C84.6,47.6,82.7,45.8,80.9,44.7z"/>
		<path class="st4" d="M87.8,63.9c-0.6,0-1.1-0.5-1.1-1.1V50.2c0-0.6,0.5-1.1,1.1-1.1s1.1,0.5,1.1,1.1v12.6
			C88.9,63.4,88.4,63.9,87.8,63.9z"/>
		<path class="st4" d="M63.7,70.1c-0.6,0-1.1-0.5-1.1-1.1V55.9c0-0.6,0.5-1.1,1.1-1.1c0.6,0,1.1,0.5,1.1,1.1v11.7l19.7-5.4
			c0.6-0.2,1.2,0.2,1.3,0.7c0.2,0.6-0.2,1.2-0.7,1.3c0,0,0,0,0,0L64,70.1C63.9,70.1,63.8,70.1,63.7,70.1z"/>
		<path class="st5" d="M67.4,62.8c-0.6,0-1.1-0.5-1.1-1.1c0-0.5,0.3-0.9,0.8-1l16.3-4.5c0.6-0.2,1.2,0.2,1.3,0.8
			c0.2,0.6-0.2,1.2-0.8,1.3l-16.3,4.5C67.6,62.8,67.5,62.8,67.4,62.8z"/>
		<path class="st4" d="M67,74.4c-0.4,0-0.8,0-1.2,0c-4.5-0.2-7.3-1.5-8.3-3.9c-0.7-1.8-0.4-3.9,0.8-5.9c1.1-1.7,2.6-3,4.4-3.9
			c0.5-0.3,1.2,0,1.5,0.5c0.3,0.5,0,1.2-0.5,1.5c-2.4,1.2-5.2,4.3-4.2,7c1.3,3.2,9.2,2.9,15.7,1.7c0.6-0.1,1.2,0.2,1.3,0.8
			c0.1,0.6-0.2,1.2-0.8,1.3c0,0,0,0-0.1,0C72.8,74.1,69.9,74.4,67,74.4z"/>
		<path class="st4" d="M79.3,72.5c-0.6,0-1.1-0.5-1.1-1.1c0-0.5,0.3-0.9,0.8-1.1c5.4-1.4,11.9-4.3,12.1-8c0.2-3.6-3-4-3.4-4.1
			c-0.6-0.1-1-0.6-1-1.2c0.1-0.6,0.6-1,1.2-1c2,0.2,5.7,1.8,5.4,6.4c-0.4,6.1-10.6,9.2-13.7,10C79.5,72.5,79.4,72.5,79.3,72.5z"/>
		<path class="st4" d="M15.8,197.5c-0.6,0-1.1-0.5-1.1-1.1V2.2c0-0.6,0.5-1.1,1.1-1.1c0.6,0,1.1,0.5,1.1,1.1v194.2
			C16.9,197,16.4,197.5,15.8,197.5z"/>
		<path class="st4" d="M36.3,144.1L36.3,144.1c-1.9,0-7.8-1-8.1-1.1c-0.3-0.1-0.6-0.2-0.7-0.5c-0.1-0.2-2.6-4.5,0-9
			c0.2-0.4,0.6-0.6,1-0.5c1.2,0.1,2.5,0.3,3.3,0.4V89c-1.2-0.1-3.3-0.4-4.5-0.7c-0.2,0-0.4-0.1-0.5-0.3c-1.5-1.6-1.6-6.8,0.3-8.8
			c0.2-0.2,0.6-0.3,0.9-0.3c0.2,0,6.2,0.8,8.1,1.1c3.6,0.6,3.6,4.9,3.6,6.6v52.9c0,0.9-0.2,2.6-1.2,3.7
			C37.9,143.8,37.1,144.1,36.3,144.1z M29.1,141.1c2,0.3,6,0.9,7.2,1l0,0c0.3,0,0.5-0.1,0.7-0.3c0.4-0.4,0.6-1.4,0.6-2.2V86.7
			c0-2.1-0.2-4.3-1.9-4.5c-1.5-0.2-5.8-0.8-7.4-1.1c-0.8,1.4-0.7,4.3-0.1,5.3c1.6,0.3,4.7,0.6,4.8,0.6c0.5,0.1,0.9,0.5,0.9,1v48.6
			c0,0.6-0.5,1-1,1c-0.6,0-1-0.5-1-1v-1.1c-0.6-0.1-1.7-0.3-2.8-0.4C27.8,137.8,28.6,140.2,29.1,141.1L29.1,141.1z"/>
		<path class="st4" d="M32.8,89.8c-0.6,0-1-0.5-1-1V86c0-0.6,0.5-1,1-1c0.6,0,1,0.5,1,1v2.7C33.8,89.3,33.4,89.8,32.8,89.8z"/>
		<path class="st4" d="M64.9,36.3c-0.4,0-0.8-0.2-1-0.6l-0.8-1.5c-0.2-0.5,0-1.2,0.5-1.4c0.5-0.2,1.1-0.1,1.4,0.4l0.8,1.5
			c0.3,0.5,0.1,1.2-0.4,1.5C65.2,36.3,65.1,36.3,64.9,36.3L64.9,36.3z"/>
		<path class="st4" d="M66.9,35.8c-0.6,0-1.1-0.5-1.1-1.1c0-0.1,0-0.3,0.1-0.4l0.8-1.9c0.2-0.6,0.9-0.8,1.4-0.6s0.8,0.9,0.6,1.4
			l-0.8,1.9C67.7,35.6,67.3,35.8,66.9,35.8z"/>
		<path class="st4" d="M62.9,37.5c-0.6,0-1.1-0.5-1.1-1.1c0-0.5,0.3-1,0.8-1.1l5.8-1.5c0.6-0.1,1.2,0.2,1.3,0.8
			c0.1,0.6-0.2,1.2-0.8,1.3l-5.8,1.5C63.1,37.4,63,37.5,62.9,37.5z"/>
		<path class="st4" d="M62.9,40.4c-0.6,0-1.1-0.5-1.1-1.1c0-0.5,0.3-0.9,0.8-1.1l5.8-1.5c0.6-0.1,1.2,0.2,1.3,0.8
			c0.1,0.6-0.2,1.2-0.8,1.3l-5.8,1.5C63.1,40.3,63,40.4,62.9,40.4z"/>
		<path class="st4" d="M65.8,42.6c-0.6,0-1.1-0.5-1.1-1.1v-5.9c0-0.6,0.5-1.1,1.1-1.1s1.1,0.5,1.1,1.1v5.9
			C66.9,42.1,66.4,42.6,65.8,42.6z"/>
		<path class="st4" d="M74.6,38L74.6,38c-0.4,0.1-0.8-0.1-0.9-0.5c0-0.1,0-0.1,0-0.2v-3.8c0-0.3,0.2-0.6,0.6-0.7l0,0
			c0.4-0.1,0.8,0.1,0.9,0.5c0,0.1,0,0.1,0,0.2v3.8C75.2,37.6,75,37.9,74.6,38z"/>
		<path class="st4" d="M74.5,38.7c-0.8,0-1.4-0.6-1.4-1.4v-3.8c0-0.8,0.7-1.4,1.5-1.4c0.7,0,1.3,0.6,1.4,1.4v3.8
			c0,0.7-0.4,1.2-1.1,1.4l0,0C74.7,38.7,74.6,38.7,74.5,38.7z M74.6,38L74.6,38z M74.5,33.4L74.5,33.4
			C74.4,33.4,74.4,33.4,74.5,33.4l-0.1,3.9c0,0,0,0,0,0.1c0,0,0,0,0.1,0l0,0c0,0,0.1,0,0.1-0.1L74.5,33.4
			C74.5,33.4,74.5,33.4,74.5,33.4C74.5,33.4,74.5,33.4,74.5,33.4z"/>
		<path class="st4" d="M80.2,36.8L80.2,36.8c-0.4,0.1-0.8-0.1-0.9-0.5c0-0.1,0-0.1,0-0.2v-3.8c0-0.3,0.2-0.6,0.6-0.7l0,0
			c0.4-0.1,0.8,0.1,0.9,0.5c0,0.1,0,0.1,0,0.2v3.8C80.8,36.4,80.6,36.7,80.2,36.8z"/>
		<path class="st4" d="M80.1,37.5c-0.8,0-1.4-0.6-1.4-1.4v-3.8c0-0.8,0.6-1.4,1.4-1.4c0.3,0,0.6,0.1,0.9,0.3
			c0.3,0.3,0.5,0.7,0.5,1.1v3.8c0,0.7-0.4,1.2-1.1,1.4l0,0C80.3,37.5,80.2,37.5,80.1,37.5z M80.2,36.8L80.2,36.8z M80.1,32.2
			L80.1,32.2C80,32.2,80,32.2,80.1,32.2L80,36.1c0,0,0,0,0,0.1c0,0,0,0,0.1,0l0,0c0,0,0.1,0,0.1-0.1L80.1,32.2
			C80.1,32.2,80.1,32.2,80.1,32.2C80.1,32.1,80.1,32.1,80.1,32.2L80.1,32.2z"/>
		<path class="st4" d="M85.8,35.3L85.8,35.3c-0.4,0.1-0.8-0.1-0.9-0.5c0-0.1,0-0.1,0-0.2v-3.8c0-0.3,0.2-0.6,0.6-0.7l0,0
			c0.4-0.1,0.8,0.1,0.9,0.5c0,0.1,0,0.1,0,0.2v3.8C86.4,34.9,86.2,35.2,85.8,35.3z"/>
		<path class="st4" d="M85.7,36c-0.8,0-1.4-0.6-1.4-1.4v-3.8c0-0.8,0.7-1.4,1.5-1.4c0.7,0,1.3,0.6,1.4,1.4v3.8
			c0,0.7-0.4,1.2-1.1,1.4l0,0C85.9,36,85.8,36,85.7,36z M85.8,35.3L85.8,35.3z M85.7,30.7L85.7,30.7C85.6,30.7,85.6,30.7,85.7,30.7
			l-0.1,3.9c0,0,0,0,0,0.1c0,0,0,0,0.1,0l0,0c0,0,0.1,0,0.1-0.1L85.7,30.7C85.7,30.7,85.7,30.7,85.7,30.7
			C85.7,30.7,85.7,30.7,85.7,30.7L85.7,30.7z"/>
		<path class="st5" d="M76.3,43.8c-1.7,0.2-3.8,5.5-0.2,5.5S78.3,43.5,76.3,43.8z"/>
		<path class="st5" d="M76.1,50.3L76.1,50.3c-1.8,0-3-1.1-3.1-2.7c-0.1-2,1.3-4.7,3.1-4.9l0,0c0.9-0.1,1.7,0.3,2.4,1.2
			c0.8,1.2,1.3,3.3,0.5,4.8C78.5,49.8,77.4,50.3,76.1,50.3z M76.4,44.8c-0.4,0.2-1.4,1.6-1.2,2.7c0,0.2,0.1,0.6,0.9,0.6
			c0.5,0,1-0.1,1.1-1C77.4,46,76.7,44.9,76.4,44.8z M76.3,43.7L76.3,43.7z"/>
		<path class="st4" d="M138.2,54.9c-1.6,0-3.2-0.2-4.8-0.6c-4.3-1.1-7.5-3.8-9.1-7.7c-3.8-9.2,0.9-19.7,4.2-24.4
			c0.3-0.5,1-0.6,1.5-0.3c0.5,0.3,0.6,1,0.3,1.5c0,0,0,0-0.1,0.1c-1.9,2.8-3.3,5.8-4.3,9.1c-1.4,4.9-1.3,9.4,0.3,13.3
			c1.4,3.3,3.9,5.5,7.7,6.4c2.2,0.5,4.6,0.6,6.9,0.3c0.6-0.1,1.1,0.3,1.2,0.9c0.1,0.6-0.3,1.1-0.9,1.2l0,0
			C140.1,54.8,139.2,54.9,138.2,54.9z"/>
		<path class="st4" d="M144.4,47c-0.6,0-1.1-0.5-1.1-1.1c0-0.5,0.3-0.9,0.7-1c0.5-0.2,4.1-2.2,4-5.2c0-1.1-0.4-1.9-1.2-2.5
			c-0.8-0.6-1.9-0.9-2.9-0.7c-0.6,0.1-1.2-0.3-1.3-0.8c-0.1-0.6,0.2-1.1,0.8-1.3c1.6-0.3,3.3,0.1,4.7,1.1c0.9,0.7,1.9,1.9,2,4.1
			c0.2,4.4-4.6,7-5.5,7.3C144.6,47,144.5,47,144.4,47z"/>
		<path class="st4" d="M142,33.5c-0.1,0-0.3,0-0.4-0.1c-4.8-1.8-7-8.1-7.5-10.4c-0.1-0.6,0.2-1.2,0.8-1.3c0.6-0.1,1.2,0.2,1.3,0.8
			c0,0,0,0,0,0.1c0.5,2.3,2.6,7.5,6.2,8.8c0.6,0.2,0.8,0.8,0.6,1.4C142.8,33.2,142.4,33.5,142,33.5z"/>
		<path class="st4" d="M124,39.1c-0.4,0-0.8-0.2-1-0.6c-3.9-7.8-2.4-14.5-0.4-18.8c2.2-4.9,5.9-8.5,8.3-9.8c0.5-0.3,1.2-0.2,1.5,0.3
			c0.3,0.5,0.2,1.2-0.3,1.5c-0.1,0-0.1,0.1-0.2,0.1c-3.5,1.9-13.6,12.6-7,25.7c0.3,0.5,0.1,1.2-0.5,1.5
			C124.3,39.1,124.1,39.1,124,39.1L124,39.1z"/>
		<path class="st4" d="M132.9,32.6c-0.3,0-0.5-0.1-0.7-0.3c-2.9-2.5-4.2-9.2-4-12.8c0-0.6,0.5-1.1,1.1-1s1.1,0.5,1,1.1
			c-0.2,3.6,1.2,9.3,3.3,11.1c0.4,0.4,0.5,1.1,0.1,1.5C133.5,32.5,133.2,32.6,132.9,32.6L132.9,32.6z"/>
		<path class="st4" d="M131.3,40.4c-0.6,0-1.1-0.5-1.1-1.1v-2.6c0-0.6,0.5-1.1,1.1-1.1s1.1,0.5,1.1,1.1v2.6
			C132.3,39.9,131.9,40.4,131.3,40.4z"/>
		<path class="st4" d="M145.6,71.5c-0.6,0-1.1-0.5-1.1-1.1c0-0.3,0.1-0.6,0.4-0.8c0.4-0.4,1.9-2.9,1.7-5c-0.1-1.1-0.4-2.2-1-3.2
			c-0.6-1-1.2-2.1-1.2-4.8c0-2.7,1.1-5.3,2.3-7.5c0.3-0.5,0.9-0.7,1.5-0.5s0.7,0.9,0.5,1.5l0,0c-1,2.1-2,4.3-2,6.6
			c0,2.1,0.4,2.8,0.9,3.7c0.8,1.2,1.2,2.6,1.3,4.1c0.3,3.1-1.7,6.2-2.4,6.9C146.1,71.4,145.8,71.5,145.6,71.5z"/>
		<path class="st4" d="M157.9,70.3c-0.1,0-0.3,0-0.4-0.1c-0.5-0.2-0.8-0.9-0.6-1.4c0,0,0,0,0,0c1.2-2.7,0.9-5.2-0.8-8.2
			c-2.1-3.7-1.6-7.8-0.3-10.4c0.3-0.5,0.9-0.8,1.4-0.5c0.5,0.3,0.8,0.9,0.5,1.4c-1,2-1.5,5.4,0.2,8.3c2.1,3.6,2.4,6.9,1,10.2
			C158.7,70,158.4,70.3,157.9,70.3z"/>
		<path class="st4" d="M168.6,68.5c-0.1,0-0.2,0-0.3,0c-0.6-0.2-0.9-0.8-0.7-1.4c0,0,0,0,0,0c1-3.3-0.5-5.6-1.9-7.8
			c-1.8-2.8-1.4-6.9-0.2-9.5c0.3-0.5,0.9-0.8,1.4-0.5c0.5,0.3,0.8,0.9,0.5,1.4l0,0c-1,2-1.3,5.3,0.1,7.4c1.4,2.3,3.4,5.4,2.1,9.6
			C169.5,68.1,169.1,68.5,168.6,68.5z"/>
		<path class="st4" d="M177.8,67.7c-0.6,0-1.1-0.5-1.1-1.1c0-0.1,0-0.2,0-0.3c0.8-2.6-0.1-4.2-0.9-6c-0.4-0.8-0.8-1.6-1-2.4
			c-1-3.3-0.4-7.8,1.8-13.7c1.2-3.3,2.3-9.4,1.3-16c-0.8-5.4-3.4-13.2-11-19c-11.5-8.8-26.5-3.9-29.6-1.2c-0.4,0.4-1.1,0.4-1.5-0.1
			c-0.4-0.4-0.4-1.1,0.1-1.5c0,0,0,0,0,0c2-1.7,7-3.7,12.8-4.3c5.1-0.5,12.7,0.1,19.6,5.3c6.5,4.9,10.6,12,11.8,20.4
			c1,6.9-0.1,13.3-1.5,17c-2,5.4-2.6,9.5-1.7,12.3c0.2,0.7,0.5,1.4,0.9,2c0.9,1.9,2.1,4.2,1.1,7.6C178.7,67.4,178.3,67.7,177.8,67.7
			z"/>
		<path class="st4" d="M143.2,165.9c-1.5,0-3-0.4-4.3-1.1c-2.5-1.4-5.3-1.9-8.1-1.4c-3.8,0.7-7.4-1-8.4-2.1c-0.8-0.9-0.3-2.3,2.3-8
			c1.1-2.4,2.3-5,2.4-6c0.2-1.4,0.6-9.2,1.1-17.5c0.3-6.1,0.7-12.5,1-17.2c-6-3.8-9.4-7.6-4.2-20.9c0.6-1.5,1.2-3.1,1.7-4.6
			c4.4-11.8,8.2-21.9,16.6-24.3c0.6-0.2,1.2,0.2,1.3,0.7c0.2,0.6-0.2,1.2-0.7,1.3c-7.4,2.1-11,11.8-15.1,23
			c-0.6,1.5-1.1,3.1-1.7,4.6c-5,13.1-1.1,15.5,3.9,18.6c0.3,0.2,0.5,0.6,0.5,1c-0.3,4.8-0.7,11.4-1,17.9c-0.5,8.7-0.9,16.2-1.1,17.6
			c-0.1,1.2-1.1,3.3-2.5,6.6c-0.9,2-2.2,4.9-2.4,5.9c0.8,0.6,3.4,1.8,6.2,1.2c3.3-0.6,6.8,0,9.7,1.7c1.5,0.9,3.4,1.1,5.2,0.5
			c1.2-0.4,2.1-1,2.6-1.7c-1.1-3.3-3.1-12.5-3.2-12.9c0-0.1,0-0.2,0-0.3l2.7-34.6c0-0.5,0.4-0.9,0.9-1c0.2,0,5.7-1,6.1-6.2
			c1.4-18.2,0.5-30.7-2.4-34.1c-0.4-0.5-0.3-1.1,0.1-1.5c0.5-0.4,1.1-0.3,1.5,0.1c4.2,5.1,3.9,22.2,2.9,35.7c-0.4,5-4.4,7.3-7.1,8
			l-2.7,33.6c0.3,1.3,2.3,10.5,3.3,12.9c0.1,0.3,0.1,0.6,0,0.9c-0.7,1.4-2.2,2.6-4.2,3.2C145.1,165.8,144.1,165.9,143.2,165.9z"/>
		<path class="st4" d="M140.4,114.4c-1.2,0-4.6-0.4-6-0.8c-0.6-0.2-0.9-0.8-0.7-1.4s0.8-0.9,1.4-0.7l0,0c1.1,0.3,4.4,0.7,5.4,0.7
			c0.6,0,1.1,0.5,1.1,1.1C141.6,113.9,141.1,114.4,140.4,114.4L140.4,114.4z"/>
		<path class="st4" d="M167.8,127.1c-0.6,0-1.1-0.5-1.1-1.1c0-0.2,0-0.3,0.1-0.5c0.4-0.6,0.8-1.3,1.2-1.9c1.9-2.7,5.4-7.8,5.9-13.7
			c0.4-5-1.5-18.9-5.4-38.3c-0.1-0.6,0.2-1.2,0.8-1.3c0.6-0.1,1.2,0.2,1.3,0.8c0,0,0,0,0,0.1c2.3,11.5,6.1,31.8,5.4,38.9
			c-0.6,6.4-4.3,11.8-6.3,14.7c-0.5,0.7-0.9,1.3-1,1.6C168.6,126.9,168.2,127.1,167.8,127.1z"/>
		<path class="st4" d="M184.2,194.9c-0.5,0-0.9-0.3-1-0.8c-1-3.6-5-19.8-8.9-35.5c-3.4-13.6-6.6-26.4-7.1-28.1
			c-0.2-0.6,0.1-1.2,0.7-1.4c0.6-0.2,1.2,0.1,1.4,0.7c0,0,0,0.1,0,0.1c0.5,1.8,3.7,14.6,7.1,28.2c3.7,15,8,31.9,8.9,35.5
			c0.2,0.6-0.2,1.2-0.8,1.3c0,0,0,0,0,0C184.4,194.9,184.3,194.9,184.2,194.9z"/>
		<path class="st4" d="M143.7,187.6c-1.6,0-2.8-1.4-3.3-2.8c-1.2-3.6-1.6-6.6-1.9-9.8c-0.1-0.6,0.4-1.1,1-1.2c0.6-0.1,1.1,0.4,1.2,1
			l0,0c0.4,3.2,0.7,6,1.9,9.4c0.3,1,1,1.4,1.4,1.3c0.3-0.1,0.7-0.7,0.6-1.8c-0.2-2.2-0.3-6.4-0.5-10.5c-0.1-3.3-0.2-6.5-0.3-8.2
			c0-0.6,0.4-1.1,1-1.2s1.1,0.4,1.2,1c0.1,1.8,0.2,5,0.3,8.3c0.1,4,0.3,8.2,0.5,10.4c0.2,2.6-1.1,3.8-2.3,4.1
			C144.1,187.6,143.9,187.6,143.7,187.6z"/>
		<path class="st4" d="M140.4,189.1c-0.8,0-1.8-0.3-2.8-1.4c-2.6-3-3.6-9.8-3.9-12.7c-0.1-0.6,0.4-1.1,1-1.2s1.1,0.4,1.2,1
			c0.6,5.4,1.9,9.7,3.4,11.5c0.4,0.5,0.9,0.7,1.2,0.7c0.4-0.1,0.8-0.3,1-0.6c0.2-0.5,0.9-0.8,1.4-0.5c0.5,0.2,0.8,0.9,0.5,1.4
			c0,0,0,0,0,0c-0.5,1-1.5,1.7-2.6,1.9C140.7,189.1,140.5,189.1,140.4,189.1z"/>
		<path class="st4" d="M136.9,189.3c-1.4,0-2.7-0.8-3.4-2c-1.7-2.8-3.6-8.7-3.9-12.3c-0.1-0.6,0.4-1.1,1-1.2c0.6-0.1,1.1,0.4,1.2,1
			c0.3,3.3,2,8.8,3.6,11.4c0.3,0.5,1.2,1.5,2.8,0.6c0.5-0.3,1.2-0.2,1.5,0.3c0.3,0.5,0.2,1.2-0.3,1.5c-0.1,0-0.1,0.1-0.2,0.1
			C138.4,189.1,137.7,189.3,136.9,189.3z"/>
		<path class="st4" d="M133.7,188.6c-2.7,0-4.8-2.4-6.7-7.8c-2.4-6.6-1.4-14.5-0.6-18.6c0.1-0.6,0.7-1,1.3-0.9s1,0.7,0.9,1.3
			c0,0,0,0,0,0.1c-0.8,3.9-1.7,11.3,0.5,17.4c2.5,6.8,4.3,6.5,5.2,6.3c0.6-0.1,1.2,0.3,1.3,0.9c0.1,0.6-0.3,1.2-0.9,1.3
			C134.3,188.5,134,188.6,133.7,188.6z"/>
		<path class="st4" d="M119.8,196.8c0,0-0.1,0-0.1,0c-0.6-0.1-1-0.6-0.9-1.2c0,0,0,0,0,0c0.6-4.8,3.3-20.7,4.1-24.8
			c0.1-0.6,0.7-0.9,1.3-0.8c0.5,0.1,0.9,0.7,0.8,1.2c-0.8,3.9-3.5,19.9-4.1,24.6C120.8,196.4,120.4,196.8,119.8,196.8z"/>
		<path class="st6" d="M161.3,144.8c-0.6,0-1.1-0.5-1.1-1.1c0-0.3-0.2-25.9-0.5-46.6c-0.3-20-3.3-24.3-3.3-24.3
			c-0.4-0.5-0.3-1.2,0.2-1.5c0.5-0.4,1.2-0.3,1.5,0.2c0.4,0.4,3.5,5,3.8,25.6c0.3,20.7,0.5,46.3,0.5,46.6
			C162.4,144.3,161.9,144.8,161.3,144.8L161.3,144.8z"/>
		<path class="st6" d="M149.5,173.4c-0.8,0-1.5,0-2.3,0c-0.6,0-1.2,0-1.6,0c-0.6,0-1.1-0.5-1.1-1.1s0.5-1.1,1.1-1.1c0.5,0,1,0,1.6,0
			c2.2,0,5.2,0.1,7.7-0.2c3.9-0.3,4.6-1.1,4.7-1.2c1.4-2,1.3-19.2,0.8-24.9c-3,0.1-6.6,0.1-9.6,0c-1.9,0-3.5-0.1-4.4,0
			c-0.6,0-1.1-0.4-1.1-1c0-0.6,0.4-1.1,1-1.1l0,0c1,0,2.7,0,4.6,0c3.3,0.1,7.4,0.2,10.4,0c0.6,0,1.1,0.4,1.2,0.9
			c0.3,2.1,0.6,8.4,0.5,14c-0.1,7.6-0.6,12.2-1.5,13.5C160,173,155.2,173.4,149.5,173.4z"/>
		<path class="st6" d="M125.5,172.3c-1.7,0-4.2-0.5-5.3-3.9c-1.6-5,1.2-24.3,1.6-26.5c0.1-0.6,0.6-1,1.2-0.9
			c2.7,0.3,5.6,0.5,5.6,0.5c0.6,0.1,1,0.6,1,1.2c-0.1,0.6-0.6,1-1.2,1c0,0-2.2-0.2-4.6-0.4c-1.1,7.5-2.6,21-1.5,24.5
			c0.7,2.2,2.1,2.5,4.2,2.3c0.6-0.1,1.1,0.4,1.2,1c0.1,0.6-0.4,1.1-1,1.2C126.3,172.3,125.9,172.3,125.5,172.3z"/>
		<path class="st6" d="M122.9,143.2h-0.1c-0.6-0.1-1-0.6-0.9-1.2c0-0.2,2.3-19.1,4.3-32.3c0.1-0.6,0.6-1,1.2-0.9s1,0.6,0.9,1.2l0,0
			c-2,13.1-4.2,32-4.3,32.2C123.9,142.8,123.4,143.2,122.9,143.2z"/>
		<path class="st6" d="M153,129.6c-0.4,0-0.7,0-0.9,0c-0.6,0-1-0.6-1-1.2c0-0.6,0.6-1,1.2-1c2.2,0.2,9.9-0.6,10.8-0.9
			c0.6-0.2,1.2,0.2,1.3,0.8c0.2,0.6-0.2,1.2-0.8,1.3l0,0C162.6,129,156.1,129.6,153,129.6z"/>
	</g>
</g>
</svg>
