<?xml version="1.0" encoding="utf-8"?>
<!-- Generator: Adobe Illustrator 24.3.0, SVG Export Plug-In . SVG Version: 6.00 Build 0)  -->
<svg version="1.1" id="レイヤー_1" xmlns="http://www.w3.org/2000/svg" xmlns:xlink="http://www.w3.org/1999/xlink" x="0px"
	 y="0px" viewBox="0 0 24 24" style="enable-background:new 0 0 24 24;" xml:space="preserve">
<style type="text/css">
	.st0{fill:none;stroke:#CDBCAC;stroke-width:1.9592;stroke-linejoin:round;stroke-miterlimit:1.9592;}
</style>
<path class="st0" d="M8.6,3.8c0.4,0,0.7,0.2,0.9,0.5l1.2,2.2c0.2,0.3,0.2,0.6,0,0.9L9.5,9.6c0,0,0.3,1.7,1.7,3.1
	c1.4,1.4,3.1,1.7,3.1,1.7l2.3-1.2c0.3-0.1,0.6-0.1,0.9,0l2.2,1.2c0.3,0.2,0.5,0.5,0.5,0.9v2.5c0,1.3-1.2,2.2-2.4,1.8
	c-2.5-0.8-6.3-2.4-8.7-4.8c-2.4-2.4-4-6.2-4.8-8.7C3.9,4.9,4.8,3.8,6.1,3.8H8.6z"/>
</svg>
