<?xml version="1.0" encoding="utf-8"?>
<!-- Generator: Adobe Illustrator 24.3.0, SVG Export Plug-In . SVG Version: 6.00 Build 0)  -->
<svg version="1.1" id="レイヤー_1" xmlns="http://www.w3.org/2000/svg" xmlns:xlink="http://www.w3.org/1999/xlink" x="0px"
	 y="0px" viewBox="0 0 24 24" style="enable-background:new 0 0 24 24;" xml:space="preserve">
<style type="text/css">
	.st0{fill-rule:evenodd;clip-rule:evenodd;fill:#CDBCAC;}
	.st1{fill:none;stroke:#CDBCAC;stroke-width:2;stroke-linejoin:round;stroke-miterlimit:2;}
</style>
<path class="st0" d="M6.8,16C7.4,16,8,15.4,8,14.8s-0.6-1.2-1.2-1.2s-1.2,0.6-1.2,1.2S6.1,16,6.8,16z"/>
<path class="st0" d="M17.2,16c0.7,0,1.2-0.6,1.2-1.2s-0.6-1.2-1.2-1.2S16,14.1,16,14.8S16.6,16,17.2,16z"/>
<path class="st1" d="M3.5,18.5C2.7,18.5,2,17.8,2,17v-4.6c0-1.1,0.6-2.2,1.7-2.7L4,9.5l1.2-5C5.4,3.6,6.2,3,7.1,3h9.8
	c0.9,0,1.7,0.6,2,1.6L20,9.5l0.3,0.2c1,0.5,1.7,1.5,1.7,2.7V17c0,0.8-0.7,1.5-1.5,1.5h-1V19c0,1.1-0.9,2-2,2c-1.1,0-2-0.9-2-2v-0.5
	h-7V19c0,1.1-0.9,2-2,2s-2-0.9-2-2v-0.5H3.5z"/>
<path class="st1" d="M7,11h10l-0.8-3.7c-0.1-0.5-0.5-0.8-1-0.8H8.8c-0.5,0-0.9,0.3-1,0.8L7,11z"/>
</svg>
